<?xml version="1.0" encoding="UTF-8"?><svg id="Layer_2" xmlns="http://www.w3.org/2000/svg" width="222.83" height="229.21" viewBox="0 0 222.83 229.21"><g id="Layer_1-2"><path d="m154.98.11q1.93.79,3.93,2.79c-.13,4.91-2.62,6.71-6,10-1.08,1.14-2.16,2.3-3.23,3.45-.57.62-1.14,1.23-1.73,1.86-1.21,1.31-2.43,2.62-3.64,3.94-4.18,4.5-8.47,8.79-13.02,12.91q-1.65,1.75-1.1,4.07c.24.58.48,1.16.72,1.76,3.13-1.36,4.93-2.8,7.08-5.43,4.62-5.45,9.59-10.54,14.61-15.63.47-.49.94-.98,1.42-1.48,1.37-1.43,2.76-2.83,4.15-4.24.81-.83,1.63-1.67,2.47-2.53q2.27-1.69,4.45-1.53c2.19,1.02,3.42,1.86,4.82,3.85-1.2,9.14-13.11,17.22-19.44,23.5-1.03,1.02-2.06,2.05-3.08,3.07-2.49,2.48-4.98,4.96-7.48,7.43.33.99.66,1.98,1,3,7.12-5.81,13.47-12.36,19.94-18.88,1.17-1.18,2.34-2.35,3.52-3.53,2.85-2.86,5.7-5.73,8.54-8.59,3.32,1.58,5.68,3.08,8,6-.09,3.76-2.41,5.7-5,8.21-.54.51-1.07,1.02-1.63,1.54-1.1,1.07-2.21,2.15-3.31,3.23-.53.52-1.06,1.04-1.61,1.58-2.37,2.37-4.55,4.88-6.72,7.43-2.91,3.39-5.97,6.64-9.01,9.91q-1.93,1.91-1.72,4.1h2q1.4-1.38,2.88-3.25c5.02-5.91,10.56-11.29,16.06-16.75,1.08-1.07,2.15-2.14,3.23-3.21,2.61-2.6,5.22-5.19,7.83-7.79l4,2v2l4,2c-.59,3.44-1.79,5.25-4.12,7.81-.63.7-1.26,1.39-1.91,2.11-2.35,2.49-4.77,4.9-7.21,7.3-2.44,2.48-4.71,5.08-6.97,7.72-1.24,1.44-2.5,2.86-3.77,4.27-.64.71-1.28,1.43-1.94,2.16q-.88.97-1.78,1.96-1.49,1.58-1.29,3.66c2.81-1.28,4.82-2.58,6.96-4.8q.82-.84,1.66-1.7c.58-.6,1.16-1.2,1.76-1.82,1.24-1.27,2.49-2.54,3.73-3.81,1.95-2,3.9-4.01,5.85-6.02,1.88-1.94,3.77-3.87,5.67-5.8.58-.61,1.16-1.21,1.76-1.84,1.47-1.48,3.04-2.86,4.62-4.22q4,0,6.31,1.69,1.69,2.31,1.62,4.58c-1.27,3.69-3.58,6-6.25,8.73-1.09,1.14-2.18,2.29-3.27,3.43-.56.59-1.13,1.17-1.71,1.77-2.78,2.91-5.49,5.89-8.21,8.86-3.1,3.38-6.23,6.72-9.5,9.94.33.99.66,1.98,1,3,3.44-1.45,5.33-3.24,7.75-6.06,4.46-5.08,9.05-10.02,13.69-14.94.71-.75,1.42-1.51,2.15-2.29q5.09-5.4,7.41-7.71,2.62.38,5,1v2h2q.37,4.52-1.38,6.81-1.62,1.19-3.62,1.19-.32.82-.65,1.65c-1.81,3.15-4.3,5.43-6.91,7.91-5.55,5.43-11.06,10.99-15.44,17.44v3q2.96.32,4.57-1.33c.56-.61,1.11-1.23,1.68-1.86.62-.68,1.24-1.35,1.88-2.05.65-.73,1.31-1.45,1.98-2.2,1.35-1.47,2.71-2.95,4.06-4.42.65-.71,1.31-1.43,1.98-2.17,2.92-3.16,5.96-6.19,9.03-9.2,1.14-1.12,2.25-2.26,3.34-3.42,1.1-1.17,2.27-2.27,3.45-3.35q3,0,4.75,1.19,1.25,1.81,1.11,4.13c-1.09,3.44-2.71,4.99-5.3,7.49-.91.9-1.83,1.79-2.77,2.71-.97.93-1.94,1.87-2.91,2.8-6.21,6.04-12.32,12.04-17.88,18.69.33.61.66,1.22,1.01,1.85,1.34,2.89,1.03,4.15,0,7.15-8.9,12.49-21.99,20.88-37,24-5.57.61-11.17.31-16.75.06-13.77-.58-24.46.56-35.25,9.94-.8.69-1.61,1.39-2.43,2.11-4.63,4.1-9.09,8.33-13.39,12.78-1.93,1.87-3.9,3.63-5.92,5.39-4.19,3.64-8.23,7.41-12.26,11.23-1.49,1.41-2.98,2.82-4.47,4.22-.75.71-1.5,1.42-2.27,2.15q-47.08,44.46-57.63,45.44-3.62-.31-6.12-1.88c-2.16-3.51-1.42-5.48-.5-9.44q1.86-3.04,4.31-6.06c.44-.55.89-1.11,1.34-1.68,1.43-1.77,2.88-3.52,4.34-5.26q.71-.85,1.44-1.72c2.96-3.52,5.96-6.99,8.97-10.46,1.64-1.88,3.26-3.77,4.89-5.66,4.91-5.7,9.85-11.37,14.95-16.92,3.15-3.43,6.15-6.93,9.06-10.56,4.63-5.74,9.64-11.09,14.68-16.47,3.43-3.66,6.76-7.39,10.01-11.22q1.09-1.24,2.21-2.5c7.99-9.32,13.88-18.79,14-31.24.03-1.58.06-3.15.09-4.73.04-2.47.08-4.94.1-7.4.15-12.8,1.14-24.46,7.1-36.06.34-.66.67-1.33,1.02-2.01,2.6-4.89,5.65-9.28,9.16-13.55.45-.56.9-1.12,1.37-1.69,2.07-2.37,3.39-3.71,6.53-4.28,2.46.48,4.27,1.2,6.42,2.47,1.61-1.58,3.21-3.16,4.81-4.75.89-.88,1.79-1.76,2.71-2.67q2.46-2.44,4.18-4.91c.43-.55.86-1.1,1.3-1.67h2c.27-.59.54-1.19.82-1.8,1.91-3.56,4.73-6.16,7.56-9.02.58-.61,1.16-1.22,1.75-1.85q.85-.86,1.71-1.73c.51-.52,1.02-1.05,1.55-1.59q1.62-1.02,3.69-.8Z" fill="#0b0b0b" stroke-width="0"/><path d="m115.91,38.9c4.45,2.98,8.27,6.14,11.77,10.21,6.82,7.69,14.19,14.86,21.48,22.11,1.46,1.45,2.92,2.91,4.38,4.36,2.67,2.66,5.34,5.32,8.01,7.98.58.57,1.15,1.15,1.75,1.74,1.46,1.45,2.92,2.9,4.38,4.35,1.78,1.8,3.52,3.61,5.21,5.48.51.56,1.01,1.11,1.54,1.69,1.04,1.15,2.08,2.3,3.12,3.45,2.62,2.87,5.13,5.45,8.37,7.64-2.32,6.91-7.53,11.07-13.79,14.55-7.61,3.55-14.68,5.73-23.12,5.72-1.52.02-3.04.04-4.55.06-2.35.02-4.7.04-7.05.04-18.18.08-30.35,4.43-43.47,17.47-1.68,1.69-3.34,3.4-5,5.1-2.92,2.99-6,5.74-9.18,8.44-2.66,2.34-5.11,4.87-7.57,7.42-1.95,1.89-3.93,3.67-5.98,5.45-4.3,3.74-8.45,7.63-12.58,11.55-9.97,9.41-19.98,18.61-30.69,27.19q-1.44,1.16-2.91,2.34c-2.36,1.89-4.72,3.78-7.09,5.66-.66-.33-1.32-.66-2-1,7.38-9.82,15.43-19.1,23.69-28.19,2.97-3.27,5.8-6.61,8.56-10.06,4.1-5.07,8.48-9.81,12.95-14.56,4.02-4.29,7.75-8.75,11.42-13.34,2.86-3.42,5.88-6.66,8.94-9.91,7.83-8.36,14.84-16.32,19.44-26.94.35-.78.71-1.55,1.07-2.36,2.02-5.74,2.06-11.69,2.07-17.71.02-1.55.04-3.11.06-4.66.03-2.41.05-4.81.05-7.22.02-16.31,3.15-30.19,14.96-42.33.59-.57,1.18-1.14,1.79-1.73Z" fill="#fafafa" stroke-width="0"/><path d="m113.91,48.9c4.26.3,6.15,3.07,9,6,1.77,1.76,3.55,3.52,5.33,5.28,5.13,5.08,10.25,10.17,15.37,15.27,3.09,3.07,6.18,6.15,9.28,9.21,3.01,2.98,6.01,5.96,9,8.95,1.14,1.14,2.28,2.27,3.43,3.4,1.6,1.58,3.19,3.16,4.78,4.75.91.9,1.81,1.8,2.75,2.73,1.93,2.27,2.94,3.45,3.06,6.42l-2,2c-4.27-.25-6.27-1.77-9.22-4.75-.8-.79-1.6-1.59-2.42-2.41q-1.27-1.3-2.57-2.63c-.89-.89-1.77-1.78-2.69-2.7-1.88-1.89-3.75-3.78-5.61-5.67-2.37-2.41-4.75-4.81-7.14-7.2-2.3-2.31-4.59-4.62-6.88-6.93-.85-.85-1.69-1.7-2.56-2.58-4.3-4.37-8.47-8.8-12.46-13.47-2.72-3.09-5.8-5.81-8.84-8.59q-1.62-2.08-1.44-4.28.81-1.8,1.81-2.8Z" fill="#0a0a0a" stroke-width="0"/><path d="m178.91,43.9q0,3-1.19,4.51c-.55.53-1.1,1.05-1.66,1.59-.6.59-1.21,1.18-1.83,1.79q-.96.92-1.94,1.85c-4.3,4.15-8.39,8.3-12.13,12.97-.41.42-.82.84-1.25,1.28h-2c1.54-3.67,3.75-5.99,6.57-8.77q1.34-1.33,2.71-2.7c.94-.92,1.87-1.84,2.84-2.79.95-.94,1.91-1.89,2.86-2.84,2.33-2.31,4.67-4.61,7.01-6.91Z" fill="#a3a2a4" stroke-width="0"/><path d="m160.91,61.9c.99.33,1.98.66,3,1-1.62,1.71-3.29,3.37-5,5h-2c1.15-2.47,2.05-4.05,4-6Z" fill="#b4b4b3" stroke-width="0"/></g></svg>