<?xml version="1.0" encoding="UTF-8"?><svg id="Layer_2" xmlns="http://www.w3.org/2000/svg" width="194.94" height="233.9" viewBox="0 0 194.94 233.9"><g id="Layer_1-2"><path d="m126.16,8.95c2.23,1.15,4.49,2.25,6.77,3.29,13.53,6.19,20.59,15.91,25.75,29.53,2.03,6.24,3.53,12.61,5,19,2.22,9.34,5.36,16.33,11,24.06,5.96,8.21,9.91,13.9,9.59,24.49-1.34,7.85-6.16,14.24-10.4,20.82-5.19,8.27-4.8,17.4-4,26.88,1.26,2.72,3.27,3.26,5.93,4.5,8.04,4.15,12.98,9.61,15.88,18.25.77,3.14,1.25,6.29,1.69,9.5.13.92.25,1.85.38,2.8,1.07,8.83,1.2,17.63,1.18,26.52q0,1.05,0,2.12-.04,11.86-1.25,13.07c-2.46.1-4.9.13-7.36.13q-1.17,0-2.36,0c-2.63,0-5.27,0-7.9,0-1.88,0-3.76,0-5.64,0-5.12,0-10.24,0-15.37,0-5.35,0-10.69,0-16.04,0-8.98,0-17.96,0-26.95,0-10.4,0-20.8,0-31.2,0-8.91,0-17.82,0-26.74,0-5.33,0-10.66,0-15.99,0-5.01,0-10.02,0-15.03,0-1.84,0-3.69,0-5.53,0-2.51,0-5.01,0-7.52,0q-1.11,0-2.24,0-5.01-.02-6.12-1.13-3.04-47.77,9-63c5.79-5.28,11.94-10,20-10-.2-.53-.39-1.07-.6-1.61-1.74-4.92-2.88-9.68-3.68-14.83-1.51-9.71-4.11-17.65-8.92-26.21-3.28-6.08-4.74-11.5-3.8-18.35,1.48-4.47,3.97-8.03,6.88-11.69,7.94-10.27,11.13-23.22,14.6-35.5,5.62-19.05,15.61-34.66,33.38-44.38,2.68-1.27,5.37-2.38,8.14-3.43.74-.32,1.48-.64,2.24-.96,16.18-6.08,32.67-1.47,47.23,6.15Z" fill="#0b0b0b" stroke-width="0"/><path d="m120,13.33c2.45,1.31,4.66,2.17,7.32,2.94,10.6,3.26,17.42,10.52,22.5,20.06,4.23,8.87,6.44,18.15,8.38,27.75,2.54,12.16,8.65,21.18,16.2,30.86,3.83,5.38,4.29,10.33,3.3,16.82-2.47,5.68-6.14,10.18-10,15-.33-4.62-.66-9.24-1-14h-5c.03.62.06,1.24.09,1.89.67,14.05,1.05,28.05.91,42.11-2.64-.33-5.28-.66-8-1v-11h-3c-.11.64-.22,1.28-.33,1.93-.16.83-.32,1.65-.48,2.5q-.23,1.24-.46,2.5c-.24.68-.48,1.36-.73,2.07-2.99,1-4.49,1.05-7.56.75-.79-.07-1.57-.13-2.38-.2q-2.06-.55-4.06-3.55c-.67-6.74.09-12.54,2-19,.3-4.37.24-8.62-.5-12.94-1.18-7.25-.96-14.13,1.5-21.06h2c1.11,3.78,2.21,7.57,3.31,11.36.55,1.91,1.11,3.81,1.67,5.72,2.1,7.26,3.86,14.45,5.02,21.92,1.32.33,2.64.66,4,1-.68-9.55-2.47-18.2-5.38-27.31-4.57-14.41-8.61-28.44-7.62-43.69,3.28,2.92,3.96,5.75,5,10,.62.07,1.23.15,1.87.22q2.13.78,3.29,2.71.45,1.24.91,2.52c.34.91.68,1.83,1.03,2.77.34.96.68,1.92,1.03,2.91.35.94.69,1.88,1.05,2.84,1.81,4.96,3.45,9.93,4.82,15.03h3c-.56-7.44-2.79-14.09-5.19-21.12-.41-1.2-.81-2.39-1.23-3.63q-3.9-12.52-9.58-24.25-2.07-.91-4-1v5c-.4-.39-.8-.77-1.21-1.17-3.99-3.66-7.68-5.91-12.77-7.77-2.53-1.32-3.59-2.58-5.02-5.05q-.33-2.23-.25-4.62c.03-.87.05-1.73.08-2.62.27-4.27.67-8.51,1.17-12.75h-4q-.07,1.14-.15,2.3c-.07.99-.15,1.99-.23,3.01-.07.99-.14,1.97-.21,2.99q-.41,2.7-2.41,5.7-2.32.55-5.12.88c-6.62,1.09-11.32,2.89-15.56,8.25-6.33,9.83-8.49,20.13-9.88,31.53-.68,4.9-1.68,9.34-3.4,13.98-5.69,15.55-6.91,29.79-7.04,46.23-.02,1.06-.04,2.11-.06,3.2-.05,3.04-.03,6.07,0,9.1-.02.92-.03,1.83-.05,2.78q.11,4.89,2.87,8.71c2.04,1.29,4.04,2.35,6.24,3.33.86.42,1.71.85,2.59,1.29,10.03,2.98,20.42.54,29.41-4.29,1.81-1.45,3.61-2.93,5.38-4.44,3.96-3.11,6.47-3.99,11.54-3.45,4.43.71,8.74,1.8,13.09,2.89-.54,7.63-1.95,14.87-3.69,22.31-1.74,7.61-3.45,15.22-5.01,22.86q-.2,1-.41,2.02c-.66,3.26-1.32,6.51-1.97,9.77-.24,1.17-.47,2.33-.72,3.54-.21,1.04-.42,2.08-.63,3.15q-.57,2.35-1.57,3.35c-2.24.09-4.48.12-6.72.11-.7,0-1.4,0-2.13,0-2.33,0-4.66,0-7-.02-1.61,0-3.23,0-4.84,0-4.25,0-8.51-.01-12.76-.02-4.34-.01-8.67-.01-13.01-.02-8.51-.01-17.03-.03-25.54-.05-1.64-3.97-2.76-7.8-3.69-12-.27-1.2-.54-2.39-.82-3.62-.48-3.31-.72-5.28.51-8.38,5.45-4.16,12.43-7.04,19-9q1-.31,2.01-.62c15.07-3.81,36.33-3.12,49.99,4.62.66.66,1.32,1.32,2,2q2.57.65,5,1-1.08-4.44-4.12-7.69c-19.03-8.69-42.07-8.79-61.88-2.31-3.63,1.41-7.12,3.06-10.59,4.83q-2.41,1.17-4.41,1.17-7.23-28.27-7-36c1.2-.2,2.41-.41,3.65-.62,1.58-.27,3.15-.54,4.73-.82.79-.13,1.59-.27,2.41-.41q4.23-.67,8.22-2.15v-2c-.99-.33-1.98-.66-3-1,.13-.59.27-1.18.4-1.79.18-.79.35-1.58.54-2.39.17-.78.35-1.55.53-2.36.18-.81.35-1.62.54-2.46.17-.68.33-1.37.51-2.07.69-4.08.78-8.14.92-12.27.07-1.88.14-3.75.22-5.63.04-.98.07-1.95.11-2.96q2.35-60.37,23.24-81.07c.75-.51,1.5-1.01,2.27-1.54q.85-.73,1.73-1.46v-4c-6.75,1.01-11.96,7.5-16.07,12.54-14.95,20.85-14.26,46.4-15.61,71.08-.17,3.16-.36,6.31-.54,9.47-.05.95-.1,1.9-.15,2.87q-1.03,17.59-5.63,23.04c-3.72,2.11-6.79,2.06-11,2-.62-11.12.47-20.17,4.21-30.73,5.72-16.42,9.33-33.08,12.22-50.19,2.82-16.3,8-34.38,21.57-45.08,2.29-1.5,4.56-2.75,7-4q-.5-.99-1-2c-5.33.39-8.25,2.34-12,5.94q-.79.74-1.59,1.49c-4.47,4.35-7.67,8.96-10.41,14.57-.36.69-.73,1.38-1.1,2.1-4.91,10.03-6.8,21.01-8.55,31.94-2.76,17.21-6.68,34.07-13.02,50.35-2.23,6.09-2.55,12.07-2.88,18.49-.04.78-.09,1.57-.13,2.38-.11,1.92-.21,3.83-.31,5.75-1.65.33-3.3.66-5,1-5.77-18.47-3.14-36.78,3.19-54.69,3.13-9.08,5.99-18.17,8.5-27.44,3.59-13.12,7.13-26.04,14.21-37.77q1.33-2.15,1.1-5.1c-3.65.6-3.94.92-6.38,4.12-7.56,13.15-11.34,28.22-15.65,42.65-1.91,6.35-3.87,12.68-5.83,19.01-.78,2.53-1.55,5.06-2.33,7.59-.26.84-.52,1.67-.79,2.54-1.43,4.7-2.48,9.2-3.03,14.09h-2c-.98-2.1-1.96-4.21-2.94-6.31-.55-1.17-1.09-2.34-1.65-3.55-2.11-4.7-2.99-7.97-2.41-13.14,1.72-3.2,3.87-6.06,6-9,7.27-10.66,11.01-22.5,14.61-34.77,5.19-17.66,11.99-31.97,28.52-41.73,17.13-8.95,34.16-10.78,51.18-.94Z" fill="#f8f8f8" stroke-width="0"/><path d="m118.69,46.77c2.02,2.08,3.57,4.29,5.2,6.68,2.3,2.96,4.78,4.4,8.1,6.05,2.46,1.83,2.89,3.31,3.7,6.27.25,2.92.38,5.7.38,8.62q0,1.24,0,2.51c-.45,23.53-8.89,40.38-25.37,56.87-10.2.55-17.99-1.42-26-8-1.99-3.98-1.55-8.94-.42-13.16.82-2.24,1.71-4.45,2.61-6.65,3.65-9.54,5.47-19.1,6.95-29.19,1.54-9.98,4.05-19.29,10.86-27,4.27-2.82,8.97-4.72,14-3Z" fill="#fcfcfc" stroke-width="0"/><path d="m42.69,163.77c3.14,10.46,5.2,21.03,7.13,31.77,1.42,7.9,2.97,15.75,4.7,23.58.64,2.95,1.17,5.62,1.17,8.65H7.69q-.41-25.95,1.25-36.62c.11-.74.22-1.47.33-2.23,1.31-7.46,4.18-14.01,10.24-18.75,7.42-4.72,14.41-7.12,23.18-6.39Z" fill="#fbfbfb" stroke-width="0"/><path d="m154.69,162.77c10.39.32,18.49,1.99,25.94,9.69,11.25,14.29,8.06,39.35,8.06,55.31h-48c2.54-13.5,5.14-26.97,8.12-40.38.24-1.08.48-2.17.73-3.29,1.61-7.14,3.34-14.25,5.14-21.34Z" fill="#fcfbfb" stroke-width="0"/><path d="m83.69,132.77c.8.36,1.61.71,2.44,1.08,1.07.46,2.13.92,3.23,1.39q1.58.69,3.19,1.39c5.85,2.13,11.33,2.12,17.08-.29q1.52-.77,3.06-1.56c.99-.33,1.98-.66,3-1,.03.7.05,1.4.08,2.12.4,6.67,1.65,11.07,4.92,16.88v2h2c-1.52,4.56-4.88,5.83-9,8-7.25,3.4-15.8,4.8-23.51,2.13q-4.64-2.28-6.49-4.13c-.09-2.07-.11-4.15-.1-6.22,0-1.26,0-2.52,0-3.82,0-1.34.02-2.68.03-4.02,0-1.34,0-2.69.01-4.03.01-3.3.03-6.6.05-9.9Z" fill="#fafafa" stroke-width="0"/><path d="m98.75,14.33c.76-.02,1.51-.04,2.29-.07,5.84.02,9.59,1.61,14.65,4.51v4c-1.26-.33-2.52-.66-3.81-1-12.94-2.84-24.12-.57-35.52,5.86q-2.66,1.14-5.02.82c-.54-.22-1.09-.45-1.65-.68.34-2.81.74-3.79,2.97-5.6,2.65-1.53,5.31-3.01,8.03-4.4.67-.35,1.34-.69,2.03-1.05,5.18-2.17,10.49-2.28,16.03-2.39Z" fill="#0e0e0e" stroke-width="0"/><path d="m130.69,118.77q2,2,2.27,4.36c-.03,5.66-.67,10.2-2.27,15.64-.46,4.33-.75,8.66-1,13q-4.77-1.7-6.81-4.44c-2.11-6.33-2.49-11.69.31-17.87,2.22-3.86,4.34-7.53,7.5-10.69Z" fill="#f2f2f2" stroke-width="0"/><path d="m133.69,38.77q2.12,0,5,1c2.41,2.41,4.49,4.94,6,8q-.34,2.26-1,4c-3.36-1.44-5.4-3.21-7.81-5.94-.63-.69-1.25-1.38-1.89-2.09-.43-.65-.85-1.3-1.29-1.97.33-.99.66-1.98,1-3Z" fill="#131313" stroke-width="0"/><path d="m102.69,29.77c1.46-.03,2.92-.05,4.38-.06.81-.01,1.62-.02,2.46-.04q2.16.1,4.16,1.1c-.33.99-.66,1.98-1,3h-11l1-4Z" fill="#0b0b0b" stroke-width="0"/><path d="m144.69,63.77c2.86,3.23,3.46,5.77,4,10l1,3h-3c-1.76-4.5-2.19-8.18-2-13Z" fill="#333" stroke-width="0"/><path d="m128.69,28.77h5v4c-1.65-.33-3.3-.66-5-1v-3Z" fill="#1b1b1c" stroke-width="0"/></g></svg>