<?xml version="1.0" encoding="UTF-8"?><svg id="Layer_2" xmlns="http://www.w3.org/2000/svg" width="244.65" height="214.76" viewBox="0 0 244.65 214.76"><g id="Layer_1-2"><path d="m12.79,113.97c.66,0,1.32,0,2-.01,2.22-.01,4.44-.02,6.66-.03,1.59,0,3.17-.02,4.76-.02,5.22-.03,10.44-.04,15.66-.06,1.8,0,3.59-.01,5.39-.02,7.47-.02,14.94-.04,22.41-.05,10.71-.02,21.42-.05,32.13-.11,7.53-.04,15.06-.06,22.58-.06,4.5,0,8.99-.02,13.49-.05,4.23-.03,8.46-.04,12.7-.02,1.55,0,3.1,0,4.66-.03q13.19-.14,17.13,3.02c3.04,3.76,3.56,5.75,3.09,10.59q-2.99,5.56-6.08,6.91-2.08.9-2.62,2.94c-.1.75-.19,1.5-.29,2.27-.13.84-.25,1.69-.38,2.56-.13.91-.25,1.82-.38,2.76-3.5,21.04-12.37,38.13-29.25,51.56q-.99.5-2,1-.28,2.42-.31,5.25c-.29,4.2-.45,5.44-3.12,8.88-4.07,2.98-6.95,3.04-11.85,3.07-.75,0-1.5.02-2.28.02-2.49.02-4.99.04-7.48.06-.85,0-1.7.01-2.58.02-4.51.03-9.01.05-13.52.06-4.65.02-9.3.06-13.95.11-3.58.03-7.16.05-10.74.05-1.71,0-3.43.02-5.14.05-2.4.03-4.81.03-7.21.02-.7.02-1.41.03-2.14.05-3.81-.05-6.2-.69-9.14-3.01q-2.54-2.62-2.96-5.2c.08-.88.15-1.76.23-2.67-.13-3.83-.36-5.27-3.02-8.11-1.94-1.5-3.9-2.97-5.88-4.42-13.29-10.12-19.51-27.45-22.91-43.22q-.29-1.31-.59-2.66c-.6-3.48-.47-6.81-.41-10.34-.74-.23-1.49-.45-2.25-.69-3.45-1.64-4.81-3.01-6.75-6.31-.88-4.37-.54-7.16,1.88-10.94,3.5-3.4,5.68-3.19,10.48-3.22Z" fill="#fdfdfd" stroke-width="0"/><path d="m163.94,0q2.5.12,3.5,1.12c.09,2.59.12,5.16.1,7.75,0,.78,0,1.55,0,2.35,0,2.49-.02,4.97-.03,7.46,0,1.68,0,3.36-.01,5.04-.01,4.13-.03,8.26-.05,12.39h5V.12h5q1,1,1.11,4.33c0,1.48,0,2.95-.02,4.43,0,.78,0,1.55,0,2.35,0,2.49-.02,4.97-.03,7.46,0,1.68,0,3.36-.01,5.04-.01,4.13-.03,8.26-.05,12.39h6V1.12c1.65-.33,3.3-.66,5-1q1,1,1.11,4.33c0,1.48,0,2.95-.02,4.43,0,.78,0,1.55,0,2.35,0,2.49-.02,4.97-.03,7.46,0,1.68,0,3.36-.01,5.04-.01,4.13-.03,8.26-.05,12.39h6V.12h5q1,1,1.11,4.33c0,1.48,0,2.95-.02,4.43,0,.78,0,1.55,0,2.35,0,2.49-.02,4.97-.03,7.46,0,1.68,0,3.36-.01,5.04-.01,4.13-.03,8.26-.05,12.39h5c0-1.06-.01-2.11-.02-3.2-.02-3.9-.03-7.8-.04-11.7,0-1.69-.01-3.38-.02-5.07-.01-2.43-.02-4.85-.02-7.28,0-.76-.01-1.52-.02-2.3,0-1.82.05-3.63.11-5.45q1-1,3.5-1.12,2.5.12,3.5,1.12c.09,2.59.12,5.16.1,7.75,0,.78,0,1.55,0,2.35,0,2.49-.02,4.97-.03,7.46,0,1.68,0,3.36-.01,5.04-.01,4.13-.03,8.26-.05,12.39h5c0-1.06-.01-2.11-.02-3.2-.02-3.9-.03-7.8-.04-11.7,0-1.69-.01-3.38-.02-5.07-.01-2.43-.02-4.85-.02-7.28,0-.76-.01-1.52-.02-2.3,0-1.82.05-3.63.11-5.45q1-1,3.5-1.12,2.5.12,3.5,1.12c.09,2.59.12,5.16.1,7.75,0,.78,0,1.55,0,2.35,0,2.49-.02,4.97-.03,7.46,0,1.68,0,3.36-.01,5.04-.01,4.13-.03,8.26-.05,12.39h5V1.12q2.47-.5,5-1,2,2,2.23,5.35c0,1.43-.01,2.86-.03,4.28,0,.75,0,1.5,0,2.28-.01,2.4-.04,4.81-.06,7.21-.01,1.63-.02,3.26-.03,4.89-.02,4-.06,7.99-.1,11.99.8.14,1.61.29,2.44.44q2.56.56,3.56,1.56c1.03,14.07-1.7,27.57-10.81,38.69-2.85,3.13-6.02,5.82-9.23,8.56-8.01,7.16-11.44,14.62-12.22,25.38-.07,1.36-.14,2.72-.2,4.07-.04.74-.08,1.49-.11,2.25-.08,1.6-.16,3.2-.24,4.8-.21,4.28-.43,8.56-.64,12.84-.04.87-.09,1.75-.13,2.64-.29,5.64-.6,11.28-.94,16.92q-.07,1.08-.13,2.19c-.17,2.84-.35,5.68-.52,8.51-.45,7.26-.84,14.52-1.05,21.79-.03,1.19-.07,2.38-.11,3.61-.06,2.2-.1,4.4-.14,6.61q-.31,11.92-4.52,16.13-7.33.47-9.94-1.38c-2.31-3.53-2.31-6.29-2.53-10.5-.04-.71-.08-1.42-.11-2.14-.12-2.35-.24-4.7-.36-7.04-.09-1.63-.17-3.27-.26-4.9-.23-4.32-.45-8.63-.67-12.95-.35-6.88-.71-13.76-1.07-20.65-.12-2.4-.25-4.79-.37-7.19-.37-7.12-.84-14.17-1.7-21.25-.1-1.63-.17-3.27-.21-4.9-.54-17.32-2.9-25.8-15.84-37.97-9.13-8.67-15.49-17.13-16.04-30.26-.04-2.25-.05-4.49-.04-6.74,0-.77,0-1.54-.01-2.34q0-5.66,1.14-6.79c1.67-.04,3.33-.04,5,0,0-1.06-.01-2.11-.02-3.2-.02-3.9-.03-7.8-.04-11.7,0-1.69-.01-3.38-.02-5.07-.01-2.43-.02-4.85-.02-7.28,0-.76-.01-1.52-.02-2.3,0-1.82.05-3.63.11-5.45q1-1,3.5-1.12Z" fill="#080808" stroke-width="0"/><path d="m12.79,113.97c.66,0,1.32,0,2-.01,2.22-.01,4.44-.02,6.66-.03,1.59,0,3.17-.02,4.76-.02,5.22-.03,10.44-.04,15.66-.06,1.8,0,3.59-.01,5.39-.02,7.47-.02,14.94-.04,22.41-.05,10.71-.02,21.42-.05,32.13-.11,7.53-.04,15.06-.06,22.58-.06,4.5,0,8.99-.02,13.49-.05,4.23-.03,8.46-.04,12.7-.02,1.55,0,3.1,0,4.66-.03q13.19-.14,17.13,3.02c3.04,3.76,3.56,5.75,3.09,10.59q-2.99,5.56-6.08,6.91-2.08.9-2.62,2.94c-.1.75-.19,1.5-.29,2.27-.13.84-.25,1.69-.38,2.56-.13.91-.25,1.82-.38,2.76-3.5,21.04-12.37,38.13-29.25,51.56q-.99.5-2,1-.28,2.42-.31,5.25c-.29,4.2-.45,5.44-3.12,8.88-4.07,2.98-6.95,3.04-11.85,3.07-.75,0-1.5.02-2.28.02-2.49.02-4.99.04-7.48.06-.85,0-1.7.01-2.58.02-4.51.03-9.01.05-13.52.06-4.65.02-9.3.06-13.95.11-3.58.03-7.16.05-10.74.05-1.71,0-3.43.02-5.14.05-2.4.03-4.81.03-7.21.02-.7.02-1.41.03-2.14.05-3.81-.05-6.2-.69-9.14-3.01q-2.54-2.62-2.96-5.2c.08-.88.15-1.76.23-2.67-.13-3.83-.36-5.27-3.02-8.11-1.94-1.5-3.9-2.97-5.88-4.42-13.29-10.12-19.51-27.45-22.91-43.22q-.29-1.31-.59-2.66c-.6-3.48-.47-6.81-.41-10.34-.74-.23-1.49-.45-2.25-.69-3.45-1.64-4.81-3.01-6.75-6.31-.88-4.37-.54-7.16,1.88-10.94,3.5-3.4,5.68-3.19,10.48-3.22Zm3.65,21.15c0,18.57,5.72,34.21,18,48,6.28,6.23,10.67,10.29,19.73,10.34.79.01,1.57.02,2.38.03,2.6.03,5.21.05,7.81.07q1.34.01,2.7.02c4.72.04,9.44.06,14.15.07,4.86.02,9.72.07,14.58.14,3.75.04,7.49.06,11.24.06,1.79,0,3.58.03,5.37.06q12.81.41,23.47-6.04c.52-.58,1.04-1.16,1.57-1.76.88-.85,1.76-1.71,2.67-2.59,12.13-13.71,19.33-29.9,19.33-48.41H16.44Z" fill="#0f0f0f" stroke-width="0"/><path d="m160.44,42.12h77v6h-71c.33,1.65.66,3.3,1,5,22.77.33,45.54.66,69,1-2.59,11.66-6.38,16.71-15,24.44-9.01,8.08-14.49,16.27-15.39,28.63-.08,1.42-.14,2.85-.2,4.27-.04.77-.08,1.53-.12,2.32-.12,2.42-.24,4.85-.35,7.28-.15,3.2-.31,6.39-.47,9.59-.04.76-.08,1.53-.11,2.31-.23,4.38-.59,8.7-1.13,13.05-.48,4.71-.52,9.45-.65,14.17-.51,15.67-1.52,31.3-2.56,46.94h-2c-.91-6.5-1.33-12.96-1.65-19.52-.12-2.31-.24-4.61-.35-6.92-.06-1.2-.12-2.41-.18-3.65-.57-11.31-1.19-22.61-1.81-33.91-.06-1.12-.12-2.25-.19-3.41-.34-6.08-.69-12.15-1.08-18.22-.11-1.81-.22-3.62-.32-5.43q-.93-16.91-9.6-31.06c-.78-.82-1.56-1.65-2.37-2.5-2.33-2.27-4.73-4.43-7.19-6.57-6.22-5.4-10.02-10.77-12.25-18.81-.33-4.95-.66-9.9-1-15Z" fill="#f6f5f5" stroke-width="0"/><path d="m7.44,121.12h160c.33,1.65.66,3.3,1,5-2.76,2.76-4.35,2.25-8.23,2.25-.65,0-1.29,0-1.96,0-2.17,0-4.35,0-6.52,0-1.55,0-3.11,0-4.66.01-4.23,0-8.45,0-12.68,0-4.42,0-8.83,0-13.25,0-7.42,0-14.84,0-22.25-.01-8.59-.01-17.17,0-25.76,0-7.36,0-14.72.01-22.08,0-4.4,0-8.8,0-13.2,0-4.14,0-8.27,0-12.41,0-1.52,0-3.04,0-4.56,0-2.07,0-4.14,0-6.21-.01-1.16,0-2.32,0-3.52,0q-2.71-.25-4.71-2.25c.33-1.65.66-3.3,1-5Z" fill="#fcfcfc" stroke-width="0"/><path d="m48.44,200.12h78v7c-10.02.02-20.04.04-30.07.05-4.65,0-9.31.01-13.96.02-4.49.01-8.97.02-13.46.02-1.72,0-3.43,0-5.15.01-2.39,0-4.79,0-7.18,0q-1.07,0-2.17.01-4.9-.01-6.01-1.12v-6Z" fill="#fafafa" stroke-width="0"/><path d="m142.44,153.12q2.47.5,5,1c-.5,11.1-7.25,19.86-14.34,27.92-3.24,2.53-5.61,2.83-9.66,3.08q-.28-2.23,0-5,1.87-2.08,4.44-4.25c6.87-6.45,10.53-14.35,14.56-22.75Z" fill="#0b0b0b" stroke-width="0"/><path d="m146.44,140.12q2.12.38,4,1,.12,5.75-1,8c-1.65-.33-3.3-.66-5-1q-.12-2.88,0-6l2-2Z" fill="#0e0e0f" stroke-width="0"/></g></svg>