<?xml version="1.0" encoding="UTF-8"?><svg id="Layer_2" xmlns="http://www.w3.org/2000/svg" width="273.31" height="249.16" viewBox="0 0 273.31 249.16"><g id="Layer_1-2"><path d="m271.31.16l2,2c-.29,3.92-1.45,5.96-4.14,8.75q-.98,1.03-1.98,2.07t-2.13,2.18-2.18,2.27c-5.02,5.2-10.12,10.32-15.26,15.4-3.42,3.4-6.65,6.89-9.77,10.57-1.66,1.88-3.42,3.59-5.24,5.32-6.49,6.39-8.3,12.56-8.62,21.5-.57,10.23-3.03,17.87-10,25.48q-1.68,1.46-4.68,2.46c.19.69.39,1.38.59,2.1,5.85,21.97,4.79,42.87,2.28,65.22q-5.91,40.34,3.47,79.02.67,1.66-.33,4.66c-12.69-1.78-25.28-6.22-37.31-10.5-.76-.26-1.51-.52-2.29-.79-6.57-2.42-13.01-5.98-16.77-12.09-3.2-7.13-3.91-13.42-3.75-21.12,0-.82.02-1.64.03-2.49.02-2,.06-4.01.1-6.01-.7.46-1.4.92-2.12,1.39-2.94,1.9-5.9,3.76-8.88,5.61-.67.45-1.33.89-2.02,1.36-6.18,3.73-12.99,3.75-19.98,2.64-6.52-2.21-12.61-5.73-18-10-.01,1.23-.03,2.46-.04,3.73q-.5,21.13-7.83,29.37c-6.02,5.19-15.07,9.89-23.12,9.89v2c-2.45,1.22-4.05,1.13-6.79,1.15-.99,0-1.99.01-3.01.02-1.08,0-2.15,0-3.26,0-1.1,0-2.2,0-3.34.01-2.33,0-4.67,0-7,0-3.58,0-7.16.02-10.75.04-2.26,0-4.53,0-6.79,0q-1.62.01-3.26.02-1.49,0-3.01,0c-.88,0-1.76,0-2.66,0q-2.13-.25-4.13-2.25-.13-1.88-.12-4.12c-.47-5.3-2.87-7.21-6.68-10.66-7.9-7.95-12.1-19.22-12.51-30.34q.31-2.88,2.31-4.88,1.99-.24,4.45-.23c.92,0,1.84,0,2.79,0,1,.01,1.99.02,3.02.03,1.02,0,2.04,0,3.09,0,3.26.01,6.52.04,9.78.06,2.21.01,4.41.02,6.62.03,5.42.02,10.84.06,16.25.1-.12-1-.24-2.01-.37-3.04q-10.3-86.51,16.37-120.96c5.05-6.23,10.28-11.6,17-16,.78-.51,1.56-1.03,2.37-1.55,10.69-6.7,21.72-10.73,34.38-10.82.82,0,1.63-.02,2.47-.03,1.72-.01,3.44-.02,5.16-.03,2.58-.01,5.16-.06,7.73-.11,13.7-.13,24.87,2.28,37.13,8.72q4.14,1.81,8.38.82c1.9-1.14,3.8-2.29,5.69-3.45,5.77-2.45,11.56-2.22,17.76-2.16,10.45-.02,16.31-4.33,24.04-10.97,1.5-1.26,3-2.52,4.5-3.78.74-.62,1.48-1.24,2.24-1.88,3.04-2.53,6.14-4.97,9.26-7.4,5.74-4.47,11.42-9.01,17.08-13.58q6.45-5.2,11.8-4.79Z" fill="#0d0e0c" stroke-width="0"/><path d="m271.31.16l2,2c-.29,3.92-1.45,5.96-4.14,8.75q-.98,1.03-1.98,2.07t-2.13,2.18-2.18,2.27c-5.02,5.2-10.12,10.32-15.26,15.4-3.42,3.4-6.65,6.89-9.77,10.57-1.66,1.88-3.42,3.59-5.24,5.32-6.49,6.39-8.3,12.56-8.62,21.5-.57,10.23-3.03,17.87-10,25.48q-1.68,1.46-4.68,2.46c.19.69.39,1.38.59,2.1,5.85,21.97,4.79,42.87,2.28,65.22q-5.91,40.34,3.47,79.02.67,1.66-.33,4.66c-5.52-.77-10.78-2.22-16.12-3.75-.93-.26-1.86-.53-2.81-.8-6.93-2.02-13.52-4.39-20.06-7.45.66-.99,1.32-1.98,2-3,2.64.33,5.28.66,8,1-.22-.94-.43-1.89-.66-2.86-3.95-18.24-1.69-35.18,2.19-53.23,2.09-10.2,2.78-20.54,3.47-30.91h2c3.89,12.78.32,29.4-3.04,42-2.1,8.2-2.14,16.51-2.15,24.93-.01,1.02-.02,2.04-.04,3.09-.01,6.56.67,12.6,2.22,18.97q1.42.22,2.88.44,3.12.56,5.12,1.56c-.47-1.22-.95-2.43-1.44-3.69-1.93-4.96-2.69-9.51-2.66-14.83,0-1.02,0-2.04,0-3.1,0-1.06.02-2.11.03-3.2,0-1.07,0-2.15.01-3.26.01-2.64.03-5.29.05-7.93.66-.33,1.32-.66,2-1,.04.58.08,1.17.12,1.77.7,9.9,1.43,19.79,3.63,29.48q.43,1.89.86,3.83,1.15,3.22,4.53,4.34c.94.19,1.89.38,2.86.58-.3-.82-.59-1.64-.9-2.49-5.31-16.9-5.37-35.06-2.68-52.43.93-6.16,1.36-12.38,1.88-18.58.08-.9.15-1.8.23-2.73.07-.8.13-1.6.2-2.42q.27-2.35.78-4.67c.62-3.45.69-6.85.72-10.34,0-.74.02-1.48.03-2.24.02-2.39.04-4.78.05-7.16,0-.81,0-1.62.01-2.45.03-12.56-.9-24.34-4.32-36.49-3.77,3.18-7.48,6.35-10.94,9.88q-.88.89-1.78,1.8c-.42.44-.85.87-1.29,1.32-.99-.33-1.98-.66-3-1,.58-3.43,1.69-5.05,4.16-7.45.63-.62,1.26-1.24,1.9-1.88.66-.63,1.32-1.27,2-1.92.66-.65,1.33-1.3,2.01-1.97,1.64-1.6,3.28-3.19,4.93-4.78q-2.91-.3-4.47,1.12c-.5.51-1.01,1.02-1.53,1.54-.56.55-1.12,1.09-1.69,1.65-1.17,1.17-2.33,2.33-3.48,3.51-.56.54-1.12,1.09-1.7,1.65-.5.51-1.01,1.02-1.53,1.54q-1.6.99-3.8.65c-.6-.22-1.19-.43-1.8-.66,1.57-3.83,4.01-6.24,6.94-9.12.88-.87,1.75-1.74,2.65-2.63q2.41-2.24,5.41-4.24v-2c-6.71,3.04-11.93,8.77-17,14-.99-.33-1.98-.66-3-1,.43-4.4,3.41-6.79,6.44-9.69.5-.5,1.01-1,1.53-1.51q3.73-3.65,6.04-4.8v-3c-4.04,1.59-6.64,4.48-9.56,7.56q-5.03,5.3-8.44,6.44c-.66-1.32-1.32-2.64-2-4,1.56-1.42,3.12-2.83,4.69-4.25q1.31-1.18,2.64-2.39c2.5-2.2,5.06-4.3,7.68-6.36-.33-.99-.66-1.98-1-3-.66.6-1.33,1.21-2.01,1.83-.88.8-1.77,1.6-2.68,2.42q-1.31,1.18-2.64,2.39c-.88.78-1.77,1.56-2.68,2.36-.85.76-1.7,1.52-2.58,2.3q-2.42,1.7-6.42,1.7c1.32-2.93,2.72-4.95,5.04-7.16.58-.56,1.16-1.13,1.76-1.71.6-.58,1.21-1.15,1.83-1.75,1.21-1.15,2.41-2.31,3.6-3.48.53-.51,1.06-1.02,1.61-1.54q1.38-1.31,1.16-3.36c-.66-.33-1.32-.66-2-1-.25.59-.5,1.18-.76,1.78-1.41,2.51-2.91,3.89-5.12,5.72-2.28,1.92-4.35,3.74-6.38,5.94q-1.75,1.56-5.75,1.56c.27-4.42,2.02-6.39,5.26-9.3.55-.48,1.11-.96,1.68-1.45.55-.49,1.1-.99,1.67-1.5q4.02-3.57,6.39-4.75v-2c-3.09,1.39-5.37,3.04-7.88,5.31-.69.62-1.38,1.23-2.1,1.87-1.26,1.13-2.52,2.26-3.77,3.39q-3.93,3.43-7.25,3.43c.96-5.33,5.03-8.1,8.87-11.58q1.85-1.7,4.13-4.42c-.32-2.96-.85-3.85-3-6-2.36-.62-4.74-1.15-7.12-1.62-1.28-.26-2.56-.52-3.88-.79q-1.48-.29-2.99-.59v3c.74.27,1.49.54,2.25.81,2.64,1.14,4.61,2.28,6.75,4.19v2c-3.77,1.75-6.67,2.22-10.81,2.12-.98-.02-1.95-.04-2.96-.05-.74-.02-1.47-.05-2.23-.07,1.4,2.47,2.67,4.67,4.69,6.69l1.31,1.31v2c-.99.33-1.98.66-3,1q1.21,6.11,5.25,10.49c2.62,1.44,5.27,2.79,7.93,4.14,10.25,5.63,18.39,13.34,22.81,24.38q-.32,2.36-1,4c-.39-.68-.78-1.36-1.18-2.05-8.96-14.9-19.49-21.61-34.82-28.95q4.04,3.44,9,5v2c.66.21,1.32.41,2,.62,7.99,3.66,15.52,10.16,19,18.38v3h-2c-.28-.57-.56-1.14-.85-1.72-5.36-10.32-12.14-16.19-23.15-20.28-3.97-.66-7.16-.28-11,1q-1.9-.89-3.94-2.25c-.7-.46-1.4-.93-2.12-1.4-2.02-1.4-4.01-2.82-5.94-4.35-.22.6-.44,1.2-.66,1.82-1.79,2.92-3.63,3.66-6.71,5.12-1.08.51-2.15,1.03-3.26,1.56-3.18,1.42-6.38,2.72-9.62,4-8.55,3.52-14.86,7.93-18.75,16.5-7.18,19.6-5.45,35.32,3.04,54.1,2.71,5.35,6.41,10.09,9.96,14.9l1,2h-2c-.33,1.65-.66,3.3-1,5-.26-.58-.53-1.16-.8-1.76-1.25-2.33-2.67-4.1-4.39-6.12-6.1-7.71-10.34-16.64-12.81-26.12-.22,7.66.14,14.79,1.55,22.32.55,3.3.6,6.34.45,9.68q1.95-.03,3.94-.06c1.35-.02,2.71,0,4.06.06,1.71,1.71,1.29,3.84,1.38,6.19-.13,13.31-6.06,23.56-15.19,32.69q-.88.83-1.77,1.68-1.53,1.41-2.42,3.45-.85-.24-1.71-.49c-2.39-.53-4.53-.67-6.97-.72-.92-.02-1.84-.04-2.79-.06-.99-.02-1.97-.03-2.99-.05-1.02-.02-2.03-.04-3.08-.06-3.24-.07-6.48-.12-9.72-.18-2.2-.04-4.4-.09-6.59-.13-5.39-.11-10.77-.21-16.16-.31v-3c.59.02,1.18.04,1.79.06,6.2.18,12.39.26,18.59.29,2.31.02,4.62.07,6.92.14q12.33.86,23.71-2.81c3.73-3.64,5.98-7.92,7.98-12.67.28-.63.57-1.26.86-1.91,2.56-5.72,4.11-10.88,5.14-17.09H5.31v6q-1.5,2.38-3,4c-1.75-4.49-2.37-8.18-2-13q2-2,3.99-2.24c.81,0,1.63,0,2.46.01.92,0,1.84,0,2.79,0,1,.01,1.99.02,3.02.03,1.02,0,2.04,0,3.09,0,3.26.01,6.52.04,9.78.06,2.21.01,4.41.02,6.62.03,5.42.02,10.84.06,16.25.1-.12-1-.24-2.01-.37-3.04q-10.3-86.51,16.37-120.96c5.05-6.23,10.28-11.6,17-16,.78-.51,1.56-1.03,2.37-1.55,10.69-6.7,21.72-10.73,34.38-10.82.82,0,1.63-.02,2.47-.03,1.72-.01,3.44-.02,5.16-.03,2.58-.01,5.16-.06,7.73-.11,13.7-.13,24.87,2.28,37.13,8.72q4.14,1.81,8.38.82c1.9-1.14,3.8-2.29,5.69-3.45,5.77-2.45,11.56-2.22,17.76-2.16,10.45-.02,16.31-4.33,24.04-10.97,1.5-1.26,3-2.52,4.5-3.78.74-.62,1.48-1.24,2.24-1.88,3.04-2.53,6.14-4.97,9.26-7.4,5.74-4.47,11.42-9.01,17.08-13.58q6.45-5.2,11.8-4.79Z" fill="#10100f" stroke-width="0"/><path d="m127.31,88.16c2.7,1.29,5.17,2.73,7.66,4.38,4.41,2.78,9,4.62,13.84,6.49,10.28,4.18,17.51,8.91,22.5,19.12,2.31,5.52,3.64,11.02,4,17,.05.8.11,1.6.16,2.42.68,19.98-7.77,38.33-21.24,52.82-6.64,6.35-15.74,12.14-25.04,13.07-10.66-.86-20.64-8.32-27.84-15.87-11.49-13.76-20.63-32.15-19.04-50.44,1.61-11.64,4.37-22.56,13-31,6.58-4.85,13.89-7.69,21.48-10.51q6.25-2.57,10.52-7.49Z" fill="#fdfdfc" stroke-width="0"/><path d="m112.38,43.96q1.19-.02,2.4-.05c3.65-.05,7.3-.09,10.95-.11,1.91-.02,3.81-.04,5.72-.08,15.01-.3,27.97.94,40.86,9.43q.19,3.38,0,7c-.99.66-1.98,1.32-3,2q-.49-1.14-1-2.31c-3.43-4.61-8.5-5.56-14-6.38-.99-.1-1.98-.21-3-.31v3c.74.27,1.49.54,2.25.81,2.64,1.14,4.61,2.28,6.75,4.19v2c-3.77,1.75-6.67,2.22-10.81,2.12q-1.46-.03-2.96-.05c-.74-.02-1.47-.05-2.23-.07,1.4,2.47,2.67,4.67,4.69,6.69l1.31,1.31v2q-1.49.5-3,1,1.21,6.11,5.25,10.49c2.62,1.44,5.27,2.79,7.93,4.14,10.25,5.63,18.39,13.34,22.81,24.38q-.32,2.36-1,4c-.39-.68-.78-1.36-1.18-2.05-8.96-14.9-19.49-21.61-34.82-28.95q4.04,3.44,9,5v2c.66.21,1.32.41,2,.62,7.99,3.66,15.52,10.16,19,18.38v3h-2c-.28-.57-.56-1.14-.85-1.72-6.5-12.52-15.71-17.82-28.9-22.28-5.09-1.76-9.42-4.16-13.25-8-1.21-3.63-1.12-6.95-1.1-10.73,0-.75,0-1.5,0-2.27,0-2.39.02-4.79.03-7.18,0-1.62,0-3.25.01-4.87.01-3.98.03-7.96.05-11.94h-3q0,1.54,0,3.1c0,3.82-.05,7.64-.1,11.47-.02,1.65-.03,3.3-.02,4.95q.02,15.48-3.61,19.94c-2.55,2.25-5.22,3.9-8.39,5.17-.95.4-1.9.8-2.88,1.21-2.01.78-4.04,1.55-6.06,2.3-11.18,4.29-17.76,9.86-22.73,20.87-8.4,20.75-7.9,44.51-3.87,66.22q.66,3.77.66,7.77h-11c-1.2-6.43-2.37-12.86-3.51-19.3-.38-2.11-.79-4.22-1.2-6.33-3.06-17.38-3.23-36.64,2.71-53.37.37-1.07.75-2.14,1.13-3.24,6.53-16.98,17.63-29.47,33.87-37.76,5.66-2.36,10.82-4.27,17-4v-3c-19.02,4.1-34.73,11.34-46,28-.52.75-1.04,1.49-1.58,2.26-15.76,24.14-12.85,54.57-7.29,81.43.18.84.37,1.68.55,2.54.17.8.34,1.59.52,2.41.15.7.31,1.4.47,2.12q.34,2.25.34,8.25h-13c-3.2-20.24-5.99-40.47-5-61q.06-1.18.11-2.39c1.39-24.7,8.64-49.15,26.89-66.61,9.86-8.74,23.58-16.94,37.07-17.19Z" fill="#5d5d59" stroke-width="0"/><path d="m151.31,53.16c6.22-.39,11.71.52,16.8,4.36q1.2,1.64.95,3.57c-1.24,3.47-4.11,5.67-6.74,8.14q-4.32,3.88-7,8.94c5.32-2.66,9.03-5.77,13.11-10.1,1.88-1.89,3.62-3.51,5.89-4.9l3,1c-1.12,3.35-2.04,4.15-4.69,6.38-.72.61-1.43,1.22-2.17,1.86-1.31,1.08-2.63,2.15-3.97,3.2q-3.16,2.45-5.05,5.89c-.04.56-.08,1.11-.12,1.69,4.18-1.37,6.54-3.21,9.56-6.38.74-.77,1.49-1.54,2.25-2.34.72-.76,1.44-1.51,2.18-2.29,1.33-1.34,2.66-2.67,4-4l3,1c-1.31,2.91-2.71,4.95-5,7.16-.58.56-1.15,1.13-1.74,1.71-.6.58-1.2,1.16-1.81,1.75-1.19,1.16-2.38,2.32-3.57,3.48-.53.51-1.05,1.02-1.6,1.54q-1.39,1.35-2.28,3.36c6.14-1.96,9.54-5.23,13.89-9.94,1.98-1.93,3.58-3,6.11-4.06q.49,1.98,1,4c-1.56,1.42-3.12,2.83-4.69,4.25-.87.79-1.74,1.58-2.64,2.39-2.5,2.2-5.06,4.3-7.68,6.36.33.99.66,1.98,1,3,4.27-2.29,7.48-5.24,10.81-8.69.5-.51,1-1.02,1.52-1.55,1.23-1.25,2.45-2.51,3.67-3.76.99.33,1.98.66,3,1-.55,3.71-1.88,5.1-4.75,7.44-.72.6-1.43,1.2-2.17,1.82-.69.57-1.37,1.15-2.08,1.74-1.81,1.61-3.39,3.18-5,5v3c3.6-1.51,5.81-3.64,8.5-6.44q5.57-5.79,8.5-7.56c.99.33,1.98.66,3,1-1.41,3.31-3.06,5.15-5.81,7.44-3.23,2.74-6.33,5.44-9.19,8.56v2c3.19-.58,4.89-1.5,7.23-3.72q.86-.81,1.74-1.63c.59-.56,1.17-1.13,1.78-1.71.6-.57,1.2-1.14,1.82-1.72,1.48-1.4,2.95-2.81,4.43-4.22.99.33,1.98.66,3,1-4.14,4.99-8.52,9.53-13.24,13.98q-2.09,1.95-1.76,5.02c3.21-1.4,5.24-3.07,7.62-5.62q1.79-1.91,3.38-3.38h2l2-4q2,1,3.07,4.21c2.87,11.74,3.32,23.27,3.3,35.29q0,1.16,0,2.35c0,8.38-.34,16.39-1.92,24.64-.6,3.27-.81,6.51-.96,9.82-.28,5.02-.79,9.9-1.56,14.88-2.41,17.72-.34,34.34,3.06,51.81-2.31-.66-4.62-1.32-7-2-3.57-12.25-5.09-24.29-6-37q-.57,18.23,3,36-5.26-.52-8-2c-3.59-6.59-3.44-14.45-3.31-21.75.01-1.06.02-2.12.03-3.21.13-7.85.79-15.33,2.28-23.04.26-1.4.51-2.79.77-4.19.5-2.74,1.02-5.48,1.55-8.22.23-1.19.45-2.37.68-3.59.19-.94.39-1.88.59-2.85.57-4.35.52-8.64.48-13.02,0-.88,0-1.76-.01-2.66-.01-2.15-.03-4.31-.05-6.46h-2c.05.71.09,1.42.14,2.15.43,12.81-2.02,25.26-4.14,37.85-.36,2.18-.73,4.37-1.09,6.55-.16.95-.32,1.9-.48,2.88-2.12,12.81-1.38,24.78.58,37.56q-2.89-.34-6-1c-6.25-9.16-6.26-21.44-4.5-32.01.66-3.48,1.33-6.96,2-10.43,2.07-10.94,2.99-21.39,2.94-32.5,0-1.3,0-2.59,0-3.93-.17-10.89-1.38-21.61-3.99-32.2q-1.42-5.84-1.87-8.56c-1.78-7.39-8.51-12.41-14.57-16.38q-1.49-.87-3-1.75-.99-.62-2-1.25v-2c-.7-.08-1.4-.17-2.12-.25-3.53-.92-5.94-2.63-8.88-4.75q.99-.49,2-1c15.84,5.55,28.34,16.1,36,31-2.11-10.19-8.67-18.12-17-24-3.57-2.05-7.25-3.79-11-5.49-3.71-1.86-5.38-3.29-7.25-6.95-.8-2.72-.72-3.95.25-6.56h3c-.43-.47-.87-.94-1.31-1.43-.56-.62-1.11-1.25-1.69-1.89-.56-.61-1.11-1.23-1.69-1.86q-1.31-1.82-1.31-4.82c.74-.06,1.47-.12,2.23-.18.98-.08,1.95-.17,2.96-.25.96-.08,1.93-.16,2.92-.25,2.68-.29,5.26-.74,7.89-1.32-2.81-2.96-5.18-5.44-9-7v-3Z" fill="#5d5e59" stroke-width="0"/><path d="m5.31,196.16h83c-1.26,12.65-5.45,23.26-15,32-2.38,1.19-3.94,1.16-6.6,1.22-.96.02-1.91.05-2.89.07-4.38.07-8.77.13-13.15.17-2.31.03-4.62.07-6.92.12-3.33.08-6.66.11-10,.14-1.02.03-2.05.07-3.1.1-6.66-.02-10.04-1.34-14.78-6.07-7.04-7.99-10.54-17.17-10.54-27.75Z" fill="#fdfdfc" stroke-width="0"/><path d="m151.31,53.16c6.22-.39,11.71.52,16.8,4.36q1.2,1.64.95,3.57c-1.24,3.47-4.11,5.67-6.74,8.14q-4.32,3.88-7,8.94c5.32-2.66,9.03-5.77,13.11-10.1,1.88-1.89,3.62-3.51,5.89-4.9l3,1c-1.12,3.35-2.04,4.15-4.69,6.38-.72.61-1.43,1.22-2.17,1.86-1.31,1.08-2.63,2.15-3.97,3.2q-3.16,2.45-5.05,5.89c-.04.56-.08,1.11-.12,1.69,4.18-1.37,6.54-3.21,9.56-6.38.74-.77,1.49-1.54,2.25-2.34.72-.76,1.44-1.51,2.18-2.29,1.33-1.34,2.66-2.67,4-4l3,1c-1.31,2.91-2.71,4.95-5,7.16-.58.56-1.15,1.13-1.74,1.71-.6.58-1.2,1.16-1.81,1.75-1.19,1.16-2.38,2.32-3.57,3.48-.53.51-1.05,1.02-1.6,1.54q-1.39,1.35-2.28,3.36c6.14-1.96,9.54-5.23,13.89-9.94,1.98-1.93,3.58-3,6.11-4.06q.49,1.98,1,4c-1.56,1.42-3.12,2.83-4.69,4.25-.87.79-1.74,1.58-2.64,2.39-2.5,2.2-5.06,4.3-7.68,6.36.33.99.66,1.98,1,3,4.27-2.29,7.48-5.24,10.81-8.69.5-.51,1-1.02,1.52-1.55,1.23-1.25,2.45-2.51,3.67-3.76.99.33,1.98.66,3,1-.55,3.71-1.88,5.1-4.75,7.44-.72.6-1.43,1.2-2.17,1.82-.69.57-1.37,1.15-2.08,1.74-1.81,1.61-3.39,3.18-5,5v3c3.6-1.51,5.81-3.64,8.5-6.44q5.57-5.79,8.5-7.56c.99.33,1.98.66,3,1-1.41,3.31-3.06,5.15-5.81,7.44-3.23,2.74-6.33,5.44-9.19,8.56v2c3.19-.58,4.89-1.5,7.23-3.72q.86-.81,1.74-1.63c.59-.56,1.17-1.13,1.78-1.71.6-.57,1.2-1.14,1.82-1.72,1.48-1.4,2.95-2.81,4.43-4.22.99.33,1.98.66,3,1-4.14,4.99-8.52,9.53-13.24,13.98q-2.09,1.95-1.76,5.02c3.19-1.39,5.2-3.03,7.56-5.56,2.27-2.43,3.21-3.36,6.44-4.44.89,3.79,1.12,7.29,1.1,11.18,0,1.16,0,2.31,0,3.51q-.01,1.8-.03,3.63c0,1.22,0,2.44-.01,3.69-.01,3-.03,6-.05,9h-1c-.2-.92-.41-1.83-.62-2.77-.27-1.19-.54-2.38-.82-3.6q-.4-1.78-.81-3.59-.61-2.93-1.75-5.04-.04,1.61-.08,3.25-.5,14.04-4.92,19.75c-2.71-4.06-5-8.05-5-13h-2c.04,1.09.08,2.19.12,3.31q-.12,3.69-2.12,6.69c-.35-1.15-.7-2.3-1.07-3.48-4.93-15.7-10.09-29.32-25-38.02-.97-.49-1.94-.99-2.94-1.5v-2c-.7-.08-1.4-.17-2.12-.25-3.53-.92-5.94-2.63-8.88-4.75q.99-.49,2-1c15.84,5.55,28.34,16.1,36,31-2.11-10.19-8.67-18.12-17-24-3.57-2.05-7.25-3.79-11-5.49-3.71-1.86-5.38-3.29-7.25-6.95-.8-2.72-.72-3.95.25-6.56h3c-.43-.47-.87-.94-1.31-1.43-.56-.62-1.11-1.25-1.69-1.89-.56-.61-1.11-1.23-1.69-1.86q-1.31-1.82-1.31-4.82c.74-.06,1.47-.12,2.23-.18.98-.08,1.95-.17,2.96-.25.96-.08,1.93-.16,2.92-.25,2.68-.29,5.26-.74,7.89-1.32-2.81-2.96-5.18-5.44-9-7v-3Z" fill="#aeaeab" stroke-width="0"/><path d="m106.31,48.16c-.67,2.37-1.49,3.7-3.61,4.97-2.13,1-4.28,1.93-6.45,2.85-6.76,3.02-12.41,6.21-17.94,11.19-.64.58-1.28,1.15-1.93,1.74-5.15,4.89-8.57,9.87-11.75,16.2-.47.92-.94,1.84-1.42,2.79-7.31,14.77-9.76,28.92-10.89,45.27h2c.03-.67.05-1.34.08-2.03,1.29-21.77,8.88-45.24,25.02-60.59,2.69-1.95,4.66-1.65,7.91-1.38q1.9-.88,3.75-2.06c1.07-.64,2.15-1.28,3.25-1.94l2,1c-.76.53-1.52,1.07-2.31,1.62-11.45,8.26-21.69,17.84-25.88,31.71-.83,2.71-1.76,5.37-2.7,8.04-8.11,23.37-5.61,47.11-.43,70.86.17.8.34,1.59.52,2.41.15.7.31,1.4.47,2.12q.34,2.25.34,8.25h-13c-3.2-20.24-5.99-40.47-5-61q.06-1.18.11-2.39c1.39-24.64,8.62-49.22,26.89-66.61,7.54-6.56,20.97-18.15,31-13Z" fill="#5f605c" stroke-width="0"/><path d="m263.31,7.16l2,1c-.79.77-1.57,1.55-2.38,2.34-1.06,1.05-2.12,2.1-3.18,3.16-.51.51-1.03,1.01-1.56,1.53-2.88,2.87-5.63,5.8-8.28,8.88-3.66,4.23-7.6,8.12-11.6,12.03q-13.81,13.32-18.44,31.25c-.36,10.1-2.35,18.39-9.56,25.81-2.9-1.29-4.75-2.55-6.78-4.98-.51-.6-1.01-1.2-1.54-1.81-.54-.64-1.07-1.29-1.62-1.95-5.1-6.02-10.33-11.86-15.75-17.59-2.93-3.11-5.69-6.28-8.31-9.66,1.81-4.38,4.25-5.85,8.35-7.99,4.65-1.77,9.23-1.63,14.15-1.57,10.28.09,17.64-1.49,25.56-8.38.93-.79,1.85-1.58,2.8-2.39.5-.43,1-.86,1.51-1.3,3.06-2.6,6.19-5.1,9.31-7.63,1.36-1.1,2.72-2.21,4.08-3.31,2.93-2.38,5.85-4.75,8.78-7.12.74-.6,1.47-1.19,2.23-1.81,1.42-1.15,2.84-2.3,4.26-3.46q3.07-2.42,5.96-5.05Z" fill="#f6f6f6" stroke-width="0"/><path d="m102.31,79.16v2c-.62.27-1.24.54-1.88.81q-2.42,1.14-4.12,4.19v3q-1.72,1.36-4.06,2.75c-12.41,8.03-19.42,20.66-22.55,35.08-.78,6.38-.61,12.76-.39,19.17.18-1.09.36-2.18.55-3.3q5.71-33.63,19.45-45.7c6.8-4.81,16.32-11.25,24.81-10.88,2.37.95,3.46,2.04,5.19,3.88-5.27,2.74-10.5,5.21-16.06,7.31-9.84,4.09-15.36,10.03-19.73,19.7-8.4,20.75-7.9,44.51-3.87,66.22q.66,3.77.66,7.77h-11c-1.2-6.43-2.37-12.86-3.51-19.3-.38-2.11-.79-4.22-1.2-6.33-4.43-25.15-1.77-50.4,11.71-72.37.72.09,1.45.18,2.2.27,3.79-.36,5-1.86,7.68-4.52q10.27-9.75,16.12-9.75Z" fill="#5e5f5a" stroke-width="0"/><path d="m80.31,156.16c2.09,3.13,2.93,5.74,4.06,9.31,2.97,8.54,7.48,17.23,13.94,23.69,1.5,4.49,1.18,9.14,1.19,13.81.01.88.02,1.75.04,2.66.02,8.32-1.65,14.53-6.22,21.53-.74.54-1.48,1.07-2.25,1.62q-.87.68-1.75,1.38-.15,2.56,0,5c-2.1.84-4.21,1.67-6.31,2.5-1.17.46-2.34.93-3.55,1.41q-3.14,1.09-6.14,1.09v2c-2.45,1.22-4.05,1.13-6.79,1.15q-1.49,0-3.01.02c-1.08,0-2.15,0-3.26,0-1.1,0-2.2,0-3.34.01-2.33,0-4.67,0-7,0-3.58,0-7.16.02-10.75.04-2.26,0-4.53,0-6.79,0q-1.62.01-3.26.02c-.99,0-1.99,0-3.01,0q-1.32,0-2.66,0-2.13-.25-4.13-2.25-.13-1.88-.12-4.12c-.47-5.29-2.85-7.2-6.67-10.64-5.37-5.45-9.52-12.56-10.21-20.24q.94-2.38,2-4h2c.21.75.42,1.5.63,2.27,2.76,9.18,6.87,18.56,15.37,23.73,3.88.56,7.73.46,11.64.39,1.12,0,2.25-.01,3.41-.02,3.59-.02,7.17-.07,10.76-.12,2.43-.02,4.87-.04,7.3-.05,5.96-.04,11.92-.11,17.88-.2-.33.66-.66,1.32-1,2-15.51.33-31.02.66-47,1v1q1.97.03,3.98.06c4.87.08,9.74.16,14.6.26,2.11.04,4.21.07,6.32.1,3.03.05,6.06.1,9.08.16.94.01,1.88.02,2.85.04.88.02,1.76.04,2.67.06.77.01,1.55.03,2.34.04,2.4.31,4.06,1.09,6.15,2.28.25-.59.5-1.17.76-1.77,1.39-2.5,2.93-3.95,5.05-5.85,4.4-4.3,6.85-8.72,9.19-14.38.32-.73.64-1.46.97-2.21,2.43-6.22,2.33-12.18,2.03-18.79-2.64-.33-5.28-.66-8-1-2.16-11.81-3.45-22.98-3-35Z" fill="#1e1e1d" stroke-width="0"/><path d="m169.75,51.47q1.27.84,2.56,1.69.19,3.38,0,7c-.99.66-1.98,1.32-3,2q-.5-1.14-1-2.31c-3.43-4.61-8.5-5.56-14-6.38l-3-.31v3c.74.27,1.49.54,2.25.81,2.64,1.14,4.61,2.28,6.75,4.19v2c-3.77,1.75-6.67,2.22-10.81,2.12q-1.46-.03-2.96-.05c-.74-.02-1.47-.05-2.23-.07,1.4,2.47,2.67,4.67,4.69,6.69l1.31,1.31v2l-3,1q1.21,6.11,5.25,10.49c2.62,1.44,5.27,2.79,7.93,4.14,10.25,5.63,18.39,13.34,22.81,24.38q-.32,2.36-1,4c-.39-.68-.78-1.36-1.18-2.05-8.96-14.9-19.49-21.61-34.82-28.95q4.04,3.44,9,5v2c.66.21,1.32.41,2,.62,7.99,3.66,15.52,10.16,19,18.38v3h-2c-.28-.57-.56-1.14-.85-1.72-6.5-12.52-15.71-17.82-28.9-22.28-5.09-1.76-9.42-4.16-13.25-8-1.27-3.8-1.23-7.42-1.32-11.39-.02-.82-.04-1.63-.06-2.48-.07-2.61-.12-5.22-.18-7.82-.04-1.77-.09-3.54-.13-5.31-.11-4.34-.21-8.67-.31-13.01,13.78-3.75,28.2-.53,40.44,6.31Z" fill="#5f605c" stroke-width="0"/><path d="m203.31,99.16q2,1,3.07,4.21c2.87,11.74,3.32,23.27,3.3,35.29,0,.77,0,1.55,0,2.35,0,8.38-.34,16.39-1.92,24.64-.6,3.27-.81,6.51-.96,9.82-.28,5.02-.79,9.9-1.56,14.88-2.41,17.72-.34,34.34,3.06,51.81-2.31-.66-4.62-1.32-7-2-3.57-12.26-5.06-24.28-6-37-.33,4.95-.66,9.9-1,15h-1q-.57-21.59,2.2-32.33c1.23-5.67,1.66-11.4,2.15-17.18.07-.83.14-1.65.22-2.51.06-.74.12-1.49.18-2.25q.25-1.73,1.25-2.73c.26-3.89.19-7.79.19-11.69,0-1.14,0-2.28,0-3.45-.05-7.19-.44-14.02-1.75-21.09-.47-2.96-.51-5.77-.44-8.77,3.35,3.65,3.9,7.29,5,12,.03-3.37.05-6.75.06-10.12,0-.95.02-1.9.03-2.88.01-3.97-.02-7.63-.72-11.55-.12-.81-.24-1.61-.37-2.45l2-2Z" fill="#5c5d58" stroke-width="0"/><path d="m176.31,160.16h1c.78,10.1-.64,19.39-2.5,29.31-2.59,14.01-4.63,27.76-.5,41.69-4.79-.92-7.8-3.4-11-7-1.38-2.59-2.26-5.17-3-8-.17-.61-.34-1.23-.52-1.86-.82-3.64-.66-7.29-.67-11.01-.01-.79-.02-1.58-.04-2.39-.02-6.89,1.23-11.79,5.47-17.36,5.21-7.19,9.08-14.91,11.75-23.38Z" fill="#5e5f59" stroke-width="0"/><path d="m80.31,156.16c2.09,3.13,2.93,5.74,4.06,9.31,2.97,8.54,7.48,17.23,13.94,23.69,1.5,4.49,1.18,9.14,1.19,13.81.01.88.02,1.75.04,2.66.02,7.98-1.32,15.02-6.22,21.53-5.18,4.42-13.1,8-20,8,1.42-3.31,3.15-5.23,5.81-7.62,4.4-4.3,6.85-8.72,9.19-14.38.32-.73.64-1.46.97-2.21,2.43-6.22,2.33-12.18,2.03-18.79-2.64-.33-5.28-.66-8-1-2.16-11.81-3.45-22.98-3-35Z" fill="#5c5c58" stroke-width="0"/><path d="m130.31,48.16h1c.33,7.92.66,15.84,1,24,.99-.66,1.98-1.32,3-2q3.07-.12,6.56.12,1.73.1,3.5.2,2.93.68,4.34,2.73.3.96.6,1.95l-3,1q1.21,6.11,5.25,10.49c2.62,1.44,5.27,2.79,7.93,4.14,10.25,5.63,18.39,13.34,22.81,24.38q-.32,2.36-1,4c-.39-.68-.78-1.36-1.18-2.05-8.96-14.9-19.49-21.61-34.82-28.95q4.04,3.44,9,5v2c.66.21,1.32.41,2,.62,7.99,3.66,15.52,10.16,19,18.38v3h-2c-.28-.57-.56-1.14-.85-1.72-6.5-12.52-15.71-17.82-28.9-22.28-5.09-1.76-9.42-4.16-13.25-8-1.21-3.63-1.12-6.95-1.1-10.73,0-.75,0-1.5,0-2.27,0-2.39.02-4.79.03-7.18,0-1.62,0-3.25.01-4.87.01-3.98.03-7.96.05-11.94Z" fill="#555551" stroke-width="0"/><path d="m106.31,48.16c-.67,2.37-1.49,3.7-3.61,4.97-2.13,1-4.28,1.93-6.45,2.85-6.76,3.02-12.41,6.21-17.94,11.19-.64.58-1.28,1.15-1.93,1.74-5.15,4.89-8.57,9.87-11.75,16.2-.47.92-.94,1.84-1.42,2.78-6.79,13.69-9.62,27.13-10.89,42.28h-3c-.45-9.12.81-17.17,3-26,.27-1.22.53-2.44.81-3.7,4.63-19.7,15.7-36.08,32.68-47.2q13.81-8.55,20.51-5.11Z" fill="#5c5c58" stroke-width="0"/><path d="m119.31,64.16v3c-.94.21-1.89.42-2.86.63-17.08,4-31.6,13.31-41.14,28.37-7.95,15.08-11.19,29.16-11.62,46.12-.04,1.24-.08,2.49-.12,3.77-.09,3.04-.18,6.07-.26,9.11q-1.49.5-3,1c-3.14-21.98-1.05-45.4,12-64,.53-.77,1.07-1.54,1.62-2.33,9.99-13.56,23.35-22.07,39.82-25.36q2.56-.31,5.56-.31Z" fill="#0c0c0b" stroke-width="0"/><path d="m81.31,189.16h2v2c1.3-.02,2.6-.04,3.94-.06,1.35-.02,2.71,0,4.06.06,1.71,1.71,1.29,3.84,1.38,6.19-.13,13.31-6.06,23.56-15.19,32.69q-.88.83-1.77,1.68-1.53,1.41-2.42,3.45c-.56-.16-1.13-.32-1.71-.49-2.39-.53-4.53-.67-6.97-.72-.92-.02-1.84-.04-2.79-.06-.99-.02-1.97-.03-2.99-.05q-1.52-.03-3.08-.06c-3.24-.07-6.48-.12-9.72-.18-2.2-.04-4.4-.09-6.59-.13-5.39-.11-10.77-.21-16.16-.31v-3c.59.02,1.18.04,1.79.06,6.2.18,12.39.26,18.59.29,2.31.02,4.62.07,6.92.14q12.33.86,23.71-2.81c3.73-3.64,5.98-7.92,7.98-12.67.28-.63.57-1.25.86-1.9,2.77-6.14,4.18-11.36,5.14-18.1h-24v-3c3.95-.99,7.27-.96,11.31-.56q1.6.15,3.24.31c.81.08,1.62.17,2.45.25v-3Z" fill="#0b0b0a" stroke-width="0"/><path d="m182.31,166.16h4c.21,5.27.05,10.19-.99,15.37-1.18,6.79-1.31,13.51-1.27,20.38.01,2.05,0,4.09-.01,6.14,0,9.21.84,18.02,2.27,27.11q-2.89-.34-6-1c-8.67-12.7-5.15-30.11-2.51-44.18.34-1.75.67-3.5,1.01-5.26.34-1.81.68-3.62,1.01-5.43.82-4.38,1.65-8.76,2.49-13.13Z" fill="#61615c" stroke-width="0"/><path d="m116,49.09c.99,0,1.99.02,3.01.03q1.14.02,2.3.04v3c-2.43,1.22-4.16,1.14-6.88,1.25-15.13,1.34-28.62,11.23-38.85,21.97-4.24,5.18-7.34,10.79-10.28,16.78-.55,1.09-1.09,2.19-1.65,3.32-5.35,11.96-7.17,24.85-9.35,37.68h-2c-.42-9.44.59-17.87,3-27,.24-.95.49-1.9.74-2.88,5.43-18.49,15.39-34.81,32.26-44.55q18.27-9.74,27.69-9.62Z" fill="#0a0b09" stroke-width="0"/><path d="m197.31,150.16h1q.28,27.19-2.56,38.5c-3.79,16.61-1.7,34.18,2.56,50.5-3.23-.32-5.19-.53-8-2-4.66-6.57-3.39-17.1-3.3-24.8,0-.71.02-1.42.03-2.16.32-2.35,1.17-3.96,2.27-6.04q.17-2.07,0-4.12,0-3.88,2-5.88c3.59-11.63,4.06-25,4.75-37.11.21-2.43.56-4.56,1.25-6.89Z" fill="#676762" stroke-width="0"/><path d="m44.31,118.16h2q.49,1.49,1,3c.66-.33,1.32-.66,2-1q-.02,1.2-.05,2.42c-.27,15.73-.12,31.05,2.07,46.67.88,6.52.98,12.39-.02,18.91h-2v4H2.31v-1h46c-.66-5.73-1.32-11.47-2-17.38-2.02-18.6-2.47-36.93-2-55.62Z" fill="#1f201e" stroke-width="0"/><path d="m120.31,81.16c-3.59,4.42-7.98,5.83-13.12,7.81-13.47,5.45-23.51,12.04-29.79,25.5-4.82,11.89-5.59,25.05-7.09,37.69h-1c-3.21-16.95-.43-33.23,8.81-47.84,6.23-9,13.17-13.93,23.19-18.16,1.14-.49,2.27-.97,3.45-1.48,5.43-2.21,9.63-3.82,15.55-3.52Z" fill="#0b0b09" stroke-width="0"/><path d="m191.31,148.16h2c4.33,14.23-.45,32.04-4,46-1.44,7.21-2.28,14.36-2.66,21.7-.11.76-.23,1.52-.34,2.3q-.99.5-2,1c-.37-12.19.39-23.61,2.57-35.6.73-4.06,1.4-8.13,2.06-12.21.13-.78.25-1.57.38-2.37,1.08-6.92,1.66-13.82,1.99-20.82Z" fill="#080907" stroke-width="0"/><path d="m54.31,137.16h2c.33,3.3.66,6.6,1,10,.66-.33,1.32-.66,2-1,4.36,8.72,3.58,23.51,3,33-.33.99-.66,1.98-1,3h-2c-3.15-10.35-5.81-20.1-6-31-.03-.95-.05-1.9-.08-2.88-.06-3.92,0-7.33,1.08-11.12Z" fill="#626361" stroke-width="0"/><path d="m197.31,116.16c3.14,3.47,3.79,6.7,4.62,11.25.12.68.25,1.35.38,2.05.34,1.9.67,3.8,1,5.7.14.74.27,1.47.41,2.23,1.87,11.88,2.13,29.68-3.41,40.77h-2c.07-.54.14-1.08.21-1.63.85-7.34.97-14.65.97-22.02,0-2.08.02-4.15.04-6.23.03-7.8-.48-15.33-1.79-23.04-.43-3.07-.5-5.98-.43-9.08Z" fill="#0e0e0c" stroke-width="0"/><path d="m181.31,55.16c3.87.11,5.7,1.43,8.3,4.1,1.2,1.31,2.39,2.63,3.57,3.96q.93,1.02,1.88,2.07c1.76,1.95,3.51,3.9,5.25,5.87.77.86,1.54,1.71,2.33,2.6,1.58,1.78,3.13,3.59,4.67,5.4.8.91,1.61,1.82,2.44,2.75q1.56,2.25,1.56,6.25c-4.63-.85-6.81-3.65-9.81-7.06-.53-.59-1.07-1.18-1.61-1.79-1.53-1.71-3.06-3.42-4.57-5.15-.69-.78-1.38-1.56-2.09-2.36-1.11-1.26-2.21-2.52-3.3-3.8-1.17-1.35-2.37-2.68-3.58-4-.65-.71-1.29-1.42-1.96-2.16-.59-.64-1.17-1.27-1.78-1.93q-1.29-1.76-1.29-4.76Z" fill="#121211" stroke-width="0"/><path d="m24.31,234.16h45v4H24.31v-4Z" fill="#fdfdfd" stroke-width="0"/><path d="m94.31,65.16l2,1c-.76.53-1.52,1.07-2.31,1.62-11.71,8.45-21.71,18.07-26,32.2-1,3.17-2.33,6.15-3.69,9.19h-3c2.91-16.19,12.23-30.38,25.72-39.93q4.76-2.98,7.28-4.07Z" fill="#8d8d8b" stroke-width="0"/><path d="m144.31,85.16c17.03,4.71,28.85,11.64,37.92,27.3,1.14,2.86,1.23,3.9.08,6.7q-.58-1.02-1.18-2.05c-9.39-15.62-20.76-22.22-36.82-29.95v-2Z" fill="#161614" stroke-width="0"/><path d="m102.31,79.16v2c-.62.27-1.24.54-1.88.81q-2.42,1.14-4.12,4.19v3q-1.69,1.32-4,2.69c-4.42,2.77-7.77,5.93-11.27,9.77q-1.73,1.54-4.73,1.54c1.76-9.55,11.5-16.77,19-22q4.32-2,7-2Z" fill="#6a6a66" stroke-width="0"/><path d="m101.31,63.16l1,3c-2.81,3.01-5.59,5.1-9.12,7.19-9.68,6.06-16.79,13.16-22.88,22.81-.33-.99-.66-1.98-1-3,1.23-2.21,2.47-4.15,3.94-6.19q.62-.87,1.25-1.76c5.39-7.42,11.25-13.06,19.12-17.83.56-.4,1.11-.81,1.69-1.23v-2c2.08-.55,3.84-1,6-1Z" fill="#60605c" stroke-width="0"/><path d="m23.31,230.16h47c-.33.99-.66,1.98-1,3H23.31v-3Z" fill="#020202" stroke-width="0"/><path d="m84.09,69.42c.73.24,1.47.48,2.23.73-.68.68-1.36,1.36-2.06,2.06-.46.46-.92.93-1.39,1.41-1.03,1.02-2.08,2.02-3.16,3-8.53,7.99-15,17.99-17.39,29.53l1,2v3h-3c-1.09-13.08,6.18-25.86,14.27-35.79q5.87-6.29,9.5-5.94Z" fill="#636361" stroke-width="0"/><path d="m181.31,51.16l2,1-1,1q-.6,2.25,0,5c1.78,2.52,3.94,4.64,6.12,6.81,1.2,1.24,2.39,2.47,3.58,3.71.57.59,1.14,1.19,1.73,1.8,2.82,3.02,5.19,6.29,7.56,9.67l-3,2c-.38-.44-.76-.88-1.14-1.33-4.23-4.87-8.56-9.64-12.95-14.37-2.77-3-5.39-6.08-7.91-9.3,1.37-3.16,1.99-3.99,5-6Z" fill="#e8e8e7" stroke-width="0"/><path d="m197.31,150.16h1c.2,19.75-1.87,37.66-6,57h-1c-.2-6.96-.13-13.43,1.43-20.22,2.03-9.8,2.76-19.91,3.33-29.89.21-2.43.56-4.56,1.25-6.89Z" fill="#a5a5a2" stroke-width="0"/><path d="m81.31,189.16h2v2h8c.33,1.65.66,3.3,1,5l-3,1-1-1c-1.78-.16-3.56-.25-5.35-.32-1.08-.04-2.16-.08-3.27-.13q-1.7-.06-3.44-.12c-1.14-.04-2.28-.09-3.46-.13-2.83-.11-5.65-.21-8.48-.31v-3c3.95-.99,7.27-.96,11.31-.56q1.6.15,3.24.31c.81.08,1.62.17,2.45.25v-3Z" fill="#050504" stroke-width="0"/><path d="m54.31,137.16h2c.04,1.28.07,2.57.11,3.89.37,10.38,1.16,20.48,2.96,30.71.13.78.27,1.57.41,2.37.12.68.25,1.37.38,2.07.16,2.19-.22,3.86-.85,5.96-3.15-10.35-5.81-20.1-6-31-.03-.95-.05-1.9-.08-2.88-.06-3.92,0-7.33,1.08-11.12Z" fill="#aaaba9" stroke-width="0"/><path d="m184.31,169.16h1c.18,7.6.29,14.75-1.49,22.17-1.18,6.51-1.22,13.23-1.51,19.83-2.42-3.64-2.34-6.35-2.31-10.56,0-.74,0-1.48,0-2.25.17-9.84,1.86-19.66,4.31-29.19Z" fill="#b0afac" stroke-width="0"/><path d="m182.31,166.16h4v10c-.66-.99-1.32-1.98-2-3q-2.53,14.43-4,29h-1c-1.78-8.91-.71-16.69,1-25.5.19-1.01.38-2.03.58-3.07.47-2.48.94-4.95,1.42-7.43Z" fill="#60615d" stroke-width="0"/><path d="m158.31,47.16q11.15,3.42,14,6,.5,3.56,0,7l-3,2c-.37-.78-.74-1.57-1.12-2.38-2.31-3.23-4.09-3.7-7.88-4.62.66-.66,1.32-1.32,2-2-1.65-.99-3.3-1.98-5-3,.33-.99.66-1.98,1-3Z" fill="#646561" stroke-width="0"/><path d="m193.31,167.16h1q.46,22.24-3.07,29.07-1.15,2.02-.86,4.93c-.07,3.49-.91,4.39-3.06,7,.37-8.45,1.33-16.27,3.23-24.51,1.2-5.45,1.99-10.96,2.77-16.49Z" fill="#565752" stroke-width="0"/><path d="m195.31,86.16c.99.33,1.98.66,3,1-1.4,3.28-3.01,5.11-5.75,7.38-2.68,2.25-5.2,4.54-7.62,7.06q-2.62,2.56-4.62,2.56c.44-4.82,2.38-6.84,5.81-10.12.87-.85,1.75-1.7,2.64-2.57q4.45-4.03,6.54-5.3Z" fill="#b3b2b0" stroke-width="0"/><path d="m3.82,192.06q1.51.02,3.06.04c1.01,0,2.02.02,3.07.03q1.17.02,2.37.04c.33.99.66,1.98,1,3H5.31c.06,1.07.12,2.14.19,3.25-.19,3.86-.58,5.04-3.19,7.75-1.75-4.5-2.28-8.18-2-13q1-1,3.5-1.1Z" fill="#0e0f0d" stroke-width="0"/><path d="m200.31,92.16c.99.33,1.98.66,3,1-3.42,4.12-6.94,8.11-10.62,12q-1.1,1.18-2.23,2.38-2.15,1.62-4.42,1.38c-.57-.25-1.14-.5-1.73-.75,4.82-5.96,10.22-10.97,16-16Z" fill="#b6b6b3" stroke-width="0"/><path d="m102.31,79.16v2c-1.6,1.11-3.26,2.14-4.94,3.12-7.67,4.75-14.51,9.96-19.06,17.88l-1-3c4.26-7.92,15.34-20,25-20Z" fill="#9e9e9b" stroke-width="0"/><path d="m136.31,57.16q16.3-.63,23,3c.33.66.66,1.32,1,2l-2.2-.18q-1.51-.13-3.05-.25c-3.41-.28-6.81-.57-10.22-.85q-1.62-.14-3.28-.27l-5.25-.44v-3Z" fill="#131310" stroke-width="0"/><path d="m69.31,154.16h2c.09.69.17,1.38.26,2.09.39,3.16.78,6.31,1.18,9.47.13,1.09.27,2.17.41,3.29.67,5.39,1.36,10.77,2.15,16.15h-2c-2.5-7.11-3.5-13.61-3.69-21.12-.03-.96-.07-1.91-.1-2.9-.08-2.33-.15-4.65-.21-6.98Z" fill="#adaeac" stroke-width="0"/><path d="m121.31,49.16v3c-2.5,1.25-4.53,1.29-7.31,1.5-3.64.28-7.12.72-10.69,1.5-.66-.99-1.32-1.98-2-3,6.79-2.82,12.69-3.37,20-3Z" fill="#10110e" stroke-width="0"/><path d="m179.31,68.16c.99.33,1.98.66,3,1-1.59,3.9-4.13,6.34-7.12,9.25-.91.89-1.82,1.78-2.76,2.7-.7.68-1.4,1.35-2.12,2.05-1.32-.66-2.64-1.32-4-2l13-13Z" fill="#b7b7b4" stroke-width="0"/><path d="m186.31,177.16h2c-.51,6.8-1.35,13.46-2.52,20.18-.61,3.6-1.06,7.19-1.48,10.82h-1q-.57-21.72,3-31Z" fill="#5a5a57" stroke-width="0"/><path d="m185.31,74.16l2,1c-.55,3.77-1.99,5.23-4.88,7.62-.7.59-1.4,1.18-2.12,1.79q-2.01,1.59-5.01,3.59l-2-3c1.43-1.46,2.87-2.92,4.31-4.38.8-.81,1.6-1.62,2.43-2.46q2.26-2.16,5.26-4.16Z" fill="#c0c0bc" stroke-width="0"/><path d="m171.31,99.16c4.02,2.89,6.39,5.73,8.88,10,.62,1.03,1.23,2.06,1.87,3.12q1.26,2.88.95,5.25c-.23.54-.46,1.07-.7,1.62-.44-.71-.87-1.43-1.32-2.16-3.54-5.7-7.16-10.88-11.68-15.84l2-2Z" fill="#272725" stroke-width="0"/><path d="m203.31,99.16l2,1q.63,2.11,1.12,4.75c.17.86.34,1.72.51,2.61.75,5.4,0,9.43-1.63,14.64h-1c-.13-1.01-.27-2.03-.4-3.07-.18-1.35-.36-2.7-.54-4.05-.09-.67-.17-1.33-.26-2.02-.41-3.1-.86-6.16-1.49-9.23-.1-.87-.2-1.74-.31-2.63l2-2Z" fill="#51524e" stroke-width="0"/><path d="m151.31,53.16c5.19-.21,9.13.41,14,2v2h-3v2q-2.12.75-5,1-3.31-1.75-6-4v-3Z" fill="#adaeab" stroke-width="0"/><path d="m139.31,48.16c8.35-.52,15.46.12,23,4,.33.66.66,1.32,1,2-5.34-.73-10.64-1.61-15.94-2.56-.78-.14-1.56-.28-2.36-.42-1.9-.34-3.8-.68-5.7-1.02v-2Z" fill="#131412" stroke-width="0"/><path d="m165.31,56.16q2.19,1.44,4,3-.88,3.88-2,5c-2,.04-4,.04-6,0-.66-1.32-1.32-2.64-2-4,.99-.33,1.98-.66,3-1v-2c.99-.33,1.98-.66,3-1Z" fill="#a1a19e" stroke-width="0"/><path d="m94.31,65.16l2,1c-.79.57-1.57,1.14-2.38,1.72-5.49,4.03-10.71,8.01-15.32,13.06q-1.3,1.21-3.3,1.21c3.62-7.97,11.17-13.45,19-17Z" fill="#b6b6b2" stroke-width="0"/><path d="m197.31,116.16c3.89,4.24,4.89,9.39,5.12,15-.04.66-.08,1.32-.12,2h-2c-.33.99-.66,1.98-1,3-.34-2.21-.67-4.42-1-6.62-.19-1.23-.37-2.46-.56-3.73-.39-3.27-.52-6.37-.44-9.65Z" fill="#191a18" stroke-width="0"/><path d="m181.31,51.16l2,1-1,1c-.5,3.61-.15,4.78,2,7.81.66.72,1.32,1.44,2,2.19-1.32.33-2.64.66-4,1-1.98-2.31-3.96-4.62-6-7q2-4,5-6Z" fill="#dcdcda" stroke-width="0"/><path d="m195.31,202.16h1c.33,6.93.66,13.86,1,21-.66.33-1.32.66-2,1-.91-2.74-1.13-4.37-1.13-7.2,0-.8,0-1.6,0-2.42,0-.83,0-1.66.01-2.51,0-.84,0-1.67-.01-2.54q.01-6.21,1.14-7.34Z" fill="#0c0c0a" stroke-width="0"/><path d="m144.31,87.16c5,1.48,9.33,3.63,13.88,6.12.69.37,1.38.75,2.09,1.13,1.68.91,3.36,1.83,5.04,2.75l-2,3c-1.34-.78-2.67-1.58-4-2.38-.74-.44-1.48-.88-2.25-1.34-.58-.43-1.15-.85-1.75-1.29v-2c-.7-.08-1.4-.16-2.12-.25-3.54-.92-5.95-2.57-8.88-4.75v-1Z" fill="#acadaa" stroke-width="0"/><path d="m135.31,70.16c2.13.06,4.25.15,6.38.25q1.78.07,3.59.14,3.04.61,4.45,2.66l.59,1.95c-5.27-.45-10.02-1.08-15-3v-2Z" fill="#191a18" stroke-width="0"/><path d="m209.31,119.16l1,2c.99.33,1.98.66,3,1v12c-.99-.33-1.98-.66-3-1-.95-4.76-1.08-9.17-1-14Z" fill="#060604" stroke-width="0"/><path d="m84.19,69.28c.7.29,1.4.58,2.12.88-3.49,3.6-7.11,6.83-11,10-.48-2.72-.41-4.4,1.16-6.7q3.96-4.34,7.71-4.17Z" fill="#747570" stroke-width="0"/><path d="m118.06,57.03c.98.02,1.97.04,2.98.05q1.12.03,2.27.07c-.33.99-.66,1.98-1,3-4.62.33-9.24.66-14,1v-2c3.35-2.03,5.87-2.22,9.75-2.12Z" fill="#191a15" stroke-width="0"/><path d="m193.31,115.16h5c-.33,6.27-.66,12.54-1,19h-1c-.12-.92-.24-1.83-.37-2.77-.17-1.19-.34-2.38-.51-3.6-.16-1.18-.32-2.37-.49-3.59q-.36-3.13-2.63-5.04.38-2.12,1-4Z" fill="#959593" stroke-width="0"/><path d="m189.31,80.16c.99.33,1.98.66,3,1-.17,2.34-.7,3.69-2.33,5.38q-4.24,3.62-6.67,3.62c.41-4.83,2.46-6.83,6-10Z" fill="#b6b5b2" stroke-width="0"/><path d="m67.31,179.16h1c.33,3.96.66,7.92,1,12-3,1.5-5.79,1.09-9.12,1.06-1.28,0-2.56-.02-3.88-.03q-1.48-.02-2.99-.04v-1h13c-.21-1.24-.41-2.48-.62-3.75-.44-3.37-.41-5.38,1.62-8.25Z" fill="#1d1e1a" stroke-width="0"/><path d="m196.31,146.16h2v2h2v13q-.99.49-2,1l-1-8h-1v-8Z" fill="#787976" stroke-width="0"/><path d="m157.31,63.16c1.53.09,3.05.25,4.56.44q1.24.15,2.5.31c.64.08,1.28.17,1.93.25-1.32,1.65-2.64,3.3-4,5q-1.88-.25-4-1-1.25-2.06-2-4l1-1Z" fill="#b7b7b4" stroke-width="0"/><path d="m164.31,98.16c3.45,1.48,5.65,3.44,8.25,6.12.71.72,1.41,1.45,2.14,2.2q.8.83,1.61,1.68c-.66,1.32-1.32,2.64-2,4-.39-.53-.77-1.06-1.17-1.61-2.28-3.1-4.48-6.04-7.2-8.77-.54-.54-1.07-1.07-1.62-1.62v-2Z" fill="#b4b4b1" stroke-width="0"/><path d="m62.31,96.16h3c-.24.84-.48,1.69-.73,2.55-.3,1.1-.59,2.19-.9,3.32-.3,1.09-.6,2.18-.91,3.3-.15.93-.3,1.86-.46,2.82.66.66,1.32,1.32,2,2-1.32.33-2.64.66-4,1-.22-5.44-.1-9.87,2-15Z" fill="#727270" stroke-width="0"/><path d="m144.31,85.16c4.29,1.32,8.58,2.64,13,4-.33.99-.66,1.98-1,3-4.23-1.31-8.07-2.94-12-5v-2Z" fill="#242522" stroke-width="0"/><path d="m192.31,44.16h17v1c-2.31.33-4.62.66-7,1v1h-9c-.33-.99-.66-1.98-1-3Z" fill="#040404" stroke-width="0"/><path d="m58.31,169.16l4,2q.25,7.62-2,11c-.34-1.42-.67-2.83-1-4.25-.19-.79-.37-1.58-.56-2.39q-.44-2.36-.44-6.36Z" fill="#6c6d6b" stroke-width="0"/><path d="m67.31,96.16l2,2c-1.65,3.63-3.3,7.26-5,11h-3v-3h2c.2-.64.41-1.28.62-1.93.27-.83.54-1.65.82-2.5.27-.82.53-1.65.81-2.5q.75-2.07,1.75-3.07Z" fill="#848481" stroke-width="0"/><path d="m145.31,60.16q7.43.99,15,2c-4.05,2.7-6.18,2.23-11,2-.66-.33-1.32-.66-2-1v-2l-2-1Z" fill="#545552" stroke-width="0"/><path d="m189.31,189.16h1q1.12,5.62,0,9,.06,1.45.12,2.94c-.14,3.5-.96,4.44-3.12,7.06.14-2.23.29-4.46.44-6.69.08-1.24.16-2.48.25-3.76.26-2.93.66-5.69,1.32-8.55Z" fill="#50504c" stroke-width="0"/><path d="m152.31,93.16h3v2c.72.27,1.44.54,2.19.81,2.81,1.19,5.3,2.46,7.81,4.19v2c-4.67-1.6-9.09-3.97-13-7v-2Z" fill="#696966" stroke-width="0"/><path d="m60.31,160.16h1c.33,3.63.66,7.26,1,11-1.32-.66-2.64-1.32-4-2-.2-3.63.14-5.87,2-9Z" fill="#5d5d5b" stroke-width="0"/><path d="m209.31,114.16h3c1.35,2.71,1.07,5.01,1,8q-2.48-.99-5-2c.33-1.98.66-3.96,1-6Z" fill="#171816" stroke-width="0"/><path d="m124.31,71.16v2q-6.93,1.48-14,3v-2c4.97-2.43,8.35-3.35,14-3Z" fill="#191916" stroke-width="0"/><path d="m200.31,92.16c.99.33,1.98.66,3,1-.93,1.18-1.87,2.34-2.81,3.5-.52.65-1.04,1.3-1.58,1.97q-1.61,1.53-4.61,1.53c1.44-3.37,3.33-5.51,6-8Z" fill="#c7c7c4" stroke-width="0"/><path d="m72.31,170.16h1c.66,4.95,1.32,9.9,2,15h-2c-2.32-5.32-1.91-9.44-1-15Z" fill="#9c9c9a" stroke-width="0"/><path d="m202.31,116.16h1v17h-1c-.39-2.08-.76-4.16-1.12-6.25q-.31-1.74-.63-3.52c-.24-3.27-.03-4.56,1.76-7.23Z" fill="#babab7" stroke-width="0"/><path d="m142.31,94.16h8q-.99.5-2,1v4c-2.31-.66-4.62-1.32-7-2,.33-.99.66-1.98,1-3Z" fill="#1b1c19" stroke-width="0"/><path d="m195.31,86.16c.99.33,1.98.66,3,1q-.62,1.88-2,4-3.12,1.25-6,2v-3q2.31-2.25,5-4Z" fill="#ababa9" stroke-width="0"/><path d="m191.31,180.16c2.03,3.31,2.13,5.43,1.62,9.25-.11.89-.22,1.78-.34,2.7-.1.68-.19,1.35-.29,2.05h-2c-.08-4.83.05-9.24,1-14Z" fill="#5f5f5c" stroke-width="0"/><path d="m182.31,166.16h4v10q-3.94-4.31-4.25-7.81c.08-.72.16-1.44.25-2.19Z" fill="#757570" stroke-width="0"/><path d="m194.31,92.16l-7,7q-1-3-.31-5.12,1.31-1.88,3.31-2.69,2-.19,4,.81Z" fill="#bcbbb9" stroke-width="0"/><path d="m172.31,86.16c.99.33,1.98.66,3,1-1.25,3.74-2.63,4.19-6,6-.33-1.32-.66-2.64-1-4q1.81-1.56,4-3Z" fill="#b2b2af" stroke-width="0"/><path d="m102.31,79.16v2c-2.97,1.65-5.94,3.3-9,5-.66-.66-1.32-1.32-2-2q8.71-5,11-5Z" fill="#9d9d98" stroke-width="0"/><path d="m74.31,76.16h1q.25,2.25,0,5-2,2.31-4,4-.75-1.69-1-4,1.88-2.75,4-5Z" fill="#6a6a68" stroke-width="0"/><path d="m174.31,63.16c.99.33,1.98.66,3,1-1.25,3.74-2.63,4.19-6,6l-1-2c1.32-1.65,2.64-3.3,4-5Z" fill="#b7b7b5" stroke-width="0"/><path d="m194.31,200.16h2c-.33.99-.66,1.98-1,3-.23,2.57-.42,5.12-.56,7.69-.04.7-.09,1.4-.13,2.13-.11,1.73-.21,3.46-.31,5.19h-1c-.03-2.81-.05-5.62-.06-8.44,0-.8-.02-1.6-.03-2.43,0-2.04.04-4.09.09-6.13l1-1Z" fill="#4a4a45" stroke-width="0"/><path d="m90.31,85.16c.99.33,1.98.66,3,1q-3.47,2.97-7,6l-2-2q4.39-4,6-5Z" fill="#ababa7" stroke-width="0"/><path d="m49.31,173.16l2,1q.19,3.38,0,7c-.99.66-1.98,1.32-3,2-.03-1.48-.05-2.96-.06-4.44-.01-.82-.02-1.65-.04-2.5q.1-2.07,1.1-3.07Z" fill="#060603" stroke-width="0"/><path d="m50.31,115.16h3c-.33,2.97-.66,5.94-1,9q-2-2-2.12-5.62c.04-1.11.08-2.23.12-3.38Z" fill="#63645f" stroke-width="0"/><path d="m94.31,65.16l2,1c-1.24,1.04-2.49,2.05-3.75,3.06q-1.04.85-2.11,1.72-2.14,1.21-4.41.9c-.57-.23-1.14-.45-1.73-.68,1.62-1.03,3.25-2.05,4.88-3.06.9-.57,1.81-1.14,2.74-1.72q1.18-.6,2.38-1.21Z" fill="#9e9e99" stroke-width="0"/><path d="m183.31,63.16c2.89.4,3.82.79,5.75,3.06.41.64.82,1.28,1.25,1.94q-4,0-5.75-1.38-1.25-1.62-1.25-3.62Z" fill="#f4f5f3" stroke-width="0"/><path d="m74.31,81.16c.99.66,1.98,1.32,3,2-1.65,1.98-3.3,3.96-5,6q-.69-1.75-1-4,1.44-2.25,3-4Z" fill="#a0a09d" stroke-width="0"/><path d="m165.31,101.16c2.31,1.98,4.62,3.96,7,6-.99.33-1.98.66-3,1-1.65-1.98-3.3-3.96-5-6l1-1Z" fill="#595956" stroke-width="0"/><path d="m203.31,99.16l2,1v6c-.99.33-1.98.66-3,1q-.62-2.88-1-6l2-2Z" fill="#585855" stroke-width="0"/><path d="m186.31,177.16h2c-.33,3.63-.66,7.26-1,11h-1q-1.12-7.62,0-11Z" fill="#50504d" stroke-width="0"/><path d="m148.31,95.16l6,1q-1.25,1.56-3,3-2.19-.31-4-1c.33-.99.66-1.98,1-3Z" fill="#090a07" stroke-width="0"/><path d="m144.31,66.16h5v4q-1.94-.31-4-1c-.33-.99-.66-1.98-1-3Z" fill="#bcbbb7" stroke-width="0"/><path d="m151.31,53.16h6c-.33.99-.66,1.98-1,3h-5v-3Z" fill="#cacac8" stroke-width="0"/></g></svg>