<?xml version="1.0" encoding="UTF-8"?><svg id="Layer_2" xmlns="http://www.w3.org/2000/svg" width="203.57" height="231.59" viewBox="0 0 203.57 231.59"><g id="Layer_1-2"><path d="m162.14.26c1.55,4.73.19,7.98-1.69,12.35-.3.72-.59,1.44-.9,2.18-.98,2.37-1.98,4.73-2.97,7.09-.68,1.64-1.36,3.28-2.04,4.92-1.05,2.55-2.11,5.1-3.17,7.64-3.49,8.4-6.87,16.84-10.24,25.28-.92,2.32-1.85,4.64-2.77,6.95-1.41,3.52-2.81,7.05-4.22,10.57,9.71-4.81,19.35-9.71,28.88-14.88,1.1-.6,2.21-1.19,3.35-1.81,6.76-3.66,13.5-7.34,20.21-11.07q1.1-.61,2.22-1.23c2.85-1.59,5.62-3.21,8.34-5.02q2.69-.12,5,0c1.77,3.54,1.63,7.14,1,11-5.53,11.68-20,18.82-30.28,25.79-4.41,3-8.76,6.07-13.09,9.19-4.68,3.36-9.41,6.67-14.15,9.96-2.03,1.41-4.05,2.82-6.07,4.24-4.13,2.89-8.24,5.77-12.57,8.35-8,4.91-11.22,9.47-14.13,18.38-.79,2.32-1.69,4.58-2.62,6.86-.66,1.66-1.31,3.32-1.97,4.98-.31.77-.62,1.53-.94,2.33-2.13,5.64-3.06,10.9-2.18,16.92q1.32,2.77,3.38,4.75c5.78,6.24,6.08,12.47,5.94,20.71-.65,7.33-3.45,13.62-8.48,19.01-5.26,4.4-11.11,6.62-17.84,7.54.12.96.24,1.93.36,2.92q.19,1.89.39,3.83c.14,1.25.28,2.51.42,3.8q-.17,3.45-1.97,5.88c-2.99,2.14-4.59,2.17-8.2,1.58-3.99-2.45-5.65-4.56-7-9,.01-2.29.1-4.59.25-6.88q.14-6.12-3.06-11.06c-.52-.44-1.04-.88-1.58-1.34-4.58-4.92-5.13-10.75-5.04-17.16,0-.75.02-1.51.03-2.28.32-10.35,5.24-16.09,12.41-23.28,1.4-1.25,2.82-2.48,4.25-3.69,8.18-7.02,10.55-15.48,11.44-25.94.12-1.79.22-3.58.31-5.38-11.97-.62-20,.25-29.19,8.25-3.63,3.45-6.93,7.09-10.17,10.9-2.63,2.97-5.46,5.49-8.64,7.85-.55.42-1.09.83-1.66,1.26-6.67,4.18-14.81,3.6-22.34,2.74-6.93-2.01-12.16-5.89-16-12-3.55-6.73-3.97-13.23-1.88-20.5,3.19-8.59,8.8-14.27,16.88-18.5,7.9-3.12,16.46-3.3,24.44-.31,3.02,1.36,5.29,2.8,7.69,5.06,3.17,2.48,4.79,2.66,8.73,2.54,3.54-.48,6.49-2.03,9.58-3.73.67-.35,1.35-.71,2.04-1.07,2.18-1.15,4.35-2.32,6.52-3.49,2.36-1.26,4.73-2.52,7.09-3.78,1.5-.8,3-1.61,4.5-2.42q5.19-2.8,7.41-2.8c.21-.78.42-1.55.64-2.36,1.85-4.97,4.46-9.37,7.11-13.96,1.19-2.08,2.37-4.15,3.56-6.23.61-1.07,1.22-2.14,1.85-3.24,2.91-5.1,5.78-10.22,8.65-15.34q.86-1.52,1.73-3.08c2.89-5.16,5.75-10.33,8.56-15.54,1.41-2.62,2.83-5.23,4.24-7.85.68-1.25,1.35-2.51,2.02-3.77Q147.5-.62,162.14.26Z" fill="#0c0c0c" stroke-width="0"/><path d="m154.14,7.26q1,2,.46,3.71c-.31.69-.62,1.38-.95,2.09-.35.8-.7,1.59-1.07,2.41-.4.88-.79,1.76-1.2,2.66-3.65,8.31-7.09,16.67-10.38,25.12-4.4,11.31-8.92,22.57-13.5,33.81-5.15,12.66-10.24,25.33-15.17,38.07-1.18,3.05-2.36,6.1-3.55,9.14-1.39,3.57-2.77,7.15-4.16,10.72-.27.69-.54,1.38-.81,2.09-.76,1.96-1.52,3.93-2.28,5.89-.44,1.14-.88,2.27-1.33,3.44-1.96,5.15-2.75,9.33-2.07,14.82q1.61,3.2,4,6c.9,1.22,1.8,2.45,2.69,3.69.42.56.83,1.12,1.26,1.7,3.18,4.89,2.65,11.04,2.05,16.61-2.41,7.55-6.26,12-12.88,16.19-2.71,1.04-5.47,1.6-8.32,2.15q-2.19.6-3.8,3.66-.24,3.43-.12,7.19.03,1.91.05,3.86c.02.98.05,1.95.07,2.96-.99-.33-1.98-.66-3-1-1.35-2.69-.89-4.98-.73-7.92q.56-6.97-1.72-13.29-1.84-1.44-3.79-2.64c-2.32-1.52-3.4-3.37-4.32-5.97-1.44-7.17-1.66-14.92,2.17-21.35,3.74-4.92,8.26-8.94,13.08-12.77,6.84-5.8,9.78-14.44,11.31-23.06.16-4.91-.1-9.78-.31-14.69-.27-11.33.59-19.62,6.92-29.14,2.28-3.56,4.26-7.29,6.3-11,2.98-5.42,6.04-10.79,9.09-16.17,1.62-2.86,3.24-5.72,4.86-8.58,1.05-1.86,2.11-3.72,3.17-5.58,2.66-4.69,5.29-9.39,7.85-14.13,1.32-2.44,2.64-4.87,3.97-7.3.93-1.72,1.86-3.45,2.78-5.19,3.75-6.88,7.88-12.63,13.38-18.22Z" fill="#f2f1f2" stroke-width="0"/><path d="m90.14,104.26l1,2c-.33.99-.66,1.98-1,3-.07,1.73-.08,3.46-.06,5.19,0,.9.02,1.8.03,2.73.01.69.02,1.37.04,2.08-.97-.05-1.93-.09-2.93-.14-12.9-.36-21.45,2.31-31.07,11.14-3.25,3.38-6.2,6.93-9,10.69-4.78,5.53-10.46,8.9-17.8,9.57-6.7.26-10.87-.12-16.2-4.25-4.53-4.53-6.16-8.3-6.38-14.69.07-6.07,1.23-9.85,5.38-14.31,6.56-5.93,12.33-8.5,21.22-8.32,5.69.65,9.53,3.07,13.53,7.07,4.06,2.81,6.53,3.25,11.42,3.07,11.28-2.43,21.93-9.04,31.83-14.82Z" fill="#0b0b0b" stroke-width="0"/><path d="m93.14,166.26c3.91,1.38,6.52,3.52,9.44,6.44,2.65,6.04,2.67,12.66.87,19.01-2.14,4.74-5.08,7.59-9.3,10.55-5.35,1.78-10.18,1.86-15.31-.56-4.02-3.65-6.29-6.71-7.07-12.05-.26-6.27.56-11.31,4.38-16.38,5.22-5.33,9.3-7.99,17-7Z" fill="#0b0b0b" stroke-width="0"/><path d="m154.14,7.26q1,2,.46,3.71c-.31.69-.62,1.38-.95,2.09q-.53,1.19-1.07,2.41c-.4.88-.79,1.76-1.2,2.66-3.65,8.31-7.09,16.67-10.38,25.12-6,15.42-12.23,30.75-18.47,46.08-2.16,5.3-4.29,10.61-6.4,15.92-.3-.61-.59-1.23-.9-1.86-1.42-2.76-2.59-4.29-5.1-6.14-2.76-.34-5.2-.19-8,0,1.24-4.03,2.72-7.58,4.8-11.25.56-.99,1.12-1.98,1.69-3,.6-1.05,1.2-2.11,1.82-3.19.63-1.11,1.25-2.21,1.9-3.36,1.93-3.4,3.86-6.81,5.79-10.21,1.62-2.87,3.25-5.73,4.87-8.6,1.05-1.85,2.1-3.71,3.15-5.56,2.66-4.69,5.29-9.39,7.86-14.13,1.32-2.44,2.64-4.87,3.97-7.3.93-1.72,1.86-3.45,2.78-5.19,3.75-6.88,7.88-12.63,13.38-18.22Z" fill="#f7f7f7" stroke-width="0"/><path d="m90.14,104.26l1,2c-.33.99-.66,1.98-1,3-.07,1.73-.08,3.46-.06,5.19,0,.9.02,1.8.03,2.73.01.69.02,1.37.04,2.08-.97-.05-1.93-.09-2.93-.14-12.9-.36-21.45,2.31-31.07,11.14-3.25,3.38-6.2,6.93-9,10.69-4.78,5.53-10.46,8.9-17.8,9.57-6.7.26-10.87-.12-16.2-4.25-4.53-4.53-6.16-8.3-6.38-14.69.07-6.07,1.23-9.85,5.38-14.31,6.56-5.93,12.33-8.5,21.22-8.32,5.69.65,9.53,3.07,13.53,7.07,4.06,2.81,6.53,3.25,11.42,3.07,11.28-2.43,21.93-9.04,31.83-14.82ZM13.48,121.16c-3.38,4.77-4.08,8.33-3.34,14.1,1.95,5.35,4.91,8.46,10,11,7.41.7,13.91.61,20-4,4.3-4.11,6.79-7.89,7.38-13.81-.14-4.52-1.45-7.74-4.38-11.19-5.05-4.11-9.53-4.75-16-4.51-5.87.99-9.8,4-13.67,8.41Z" fill="#efefef" stroke-width="0"/><path d="m195.14,51.26l2,1c-4.57,5.64-9.29,10.06-15.25,14.19q-1.16.82-2.35,1.66c-6.47,4.56-13.02,9.03-19.56,13.48-4.75,3.24-9.48,6.51-14.15,9.86q-.83.59-1.67,1.2c-2.31,1.66-4.62,3.33-6.92,5-1.3.94-2.6,1.88-3.9,2.82-1.23.88-2.45,1.77-3.67,2.66-2.51,1.81-4.57,3.15-7.53,4.13.7-3.93,1.72-7.65,3-11.44.35-1.09.7-2.18,1.06-3.31,4.55-7.64,14.32-11.16,22-15.07,8.74-4.5,17.35-9.16,25.89-14.03,4.77-2.7,9.57-5.33,14.38-7.97q3.55-1.79,6.67-4.19Z" fill="#f4f4f4" stroke-width="0"/><path d="m37.52,120.82q2.62,2.44,3.75,5.81c-.16,4.52-1.18,6.22-4.12,9.62-4.31,3.9-7.99,4.75-13.65,4.52-2.62-.57-3.67-1.19-5.47-3.14-2.06-3.7-2.74-5.24-1.88-9.38,5.15-7.72,12.33-11.62,21.38-7.44Z" fill="#f8f8f8" stroke-width="0"/><path d="m94.14,173.26c3.19,3.27,4.27,6.03,4.5,10.5-.26,5.42-2.59,8.59-6.38,12.38-2.99,1.58-4.79,1.67-8.12,1.12-4.01-3.39-5.83-5.4-6.38-10.62.05-4.96,2.11-8.71,5.38-12.38,3.9-2.45,6.56-2.27,11-1Z" fill="#f6f6f6" stroke-width="0"/><path d="m108.83,96.32q3.31.94,5.31,2.94c.32,4.02.51,6.79-1.06,10.5q-1.94,1.5-5.38,2-3.56-.5-6-2.12c-2.06-3.13-2.24-4.69-1.56-8.38,2.74-3.9,3.85-5.02,8.69-4.94Z" fill="#161616" stroke-width="0"/></g></svg>