<?xml version="1.0" encoding="UTF-8"?><svg id="Layer_2" xmlns="http://www.w3.org/2000/svg" width="195.05" height="216.22" viewBox="0 0 195.05 216.22"><g id="Layer_1-2"><path d="m78.05.22c.79.81,1.58,1.62,2.4,2.46,3.26,3.18,4.78,3.18,9.26,3.21q1.9,0,3.85.02t4-.06c1.32.02,2.64.04,4,.06,1.27,0,2.54-.01,3.85-.02q1.74,0,3.51-.02c4.02-.83,5.43-2.67,8.15-5.65,5.3-.04,10.67,2.49,15.62,4.31q1.4.51,2.83,1.04c7.71,2.88,15.36,5.93,22.95,9.1,1.26.53,2.53,1.05,3.8,1.57,1.79.73,3.56,1.49,5.34,2.24,1.03.43,2.06.86,3.11,1.31q2.33,1.43,3.24,3.45c.14,2.88-1,4.56-2.41,7.05q-1.48,2.51-2.5,4.94.75,3.28,4,5c-.33,1.65-.66,3.3-1,5h-2c-.22.68-.44,1.35-.66,2.05-1.74,3.85-4.11,6.9-6.71,10.2-.48.64-.96,1.27-1.46,1.93-.47.61-.95,1.21-1.44,1.84-.43.55-.85,1.1-1.29,1.67-1.89,1.74-2.85,2.17-5.43,2.32q-2.89-1.15-6.24-2.94c-.6-.32-1.21-.64-1.83-.96-1.94-1.02-3.87-2.06-5.8-3.1-1.89-1-3.78-2-5.67-3-1.26-.66-2.51-1.33-3.76-2-6.5-3.46-13.09-6.74-19.69-10v3c1.09.6,2.17,1.21,3.29,1.83,1.45.81,2.89,1.61,4.34,2.42.71.4,1.43.79,2.16,1.2,2.08,1.17,4.15,2.35,6.21,3.55.61.36,1.23.72,1.86,1.08q1.66,1.03,4.14,2.92v3q-3,1-4.72.29c-.61-.38-1.23-.76-1.86-1.16-.67-.41-1.33-.82-2.02-1.24-.69-.44-1.38-.88-2.09-1.33-.7-.43-1.4-.87-2.13-1.31-1.73-1.07-3.46-2.16-5.19-3.25,3.6,4.37,7.33,8.4,11.6,12.13,5.51,4.92,10.75,10.07,15.96,15.3.9.9,1.8,1.79,2.73,2.72.85.86,1.71,1.71,2.59,2.59.77.77,1.54,1.54,2.33,2.33q1.79,1.92,2.79,3.92c3.78-.62,6.1-2.34,9.12-4.62,4.54-3.41,9.18-6.59,13.98-9.64,2.34-2.15,2.59-3.63,2.9-6.74h2q1.62,2,3,4c-1.52,3.99-3.92,5.66-7.38,8.06q-1.43,1.01-2.9,2.04c-.9.63-1.8,1.26-2.73,1.9-.73.58-1.47,1.15-2.23,1.75q-1.77,1.25-3.77,1.25.99,1.67,2,3.38,2,3.38,2,5.62h2q.07-1.03.15-2.08.11-1.35.23-2.73.1-1.34.21-2.71.41-2.48,2.41-5.48h2c-.33,3.3-.66,6.6-1,10q1.98-1.49,4-3h3v4q-2.05,1.96-4.75,3.81-1.32.94-2.67,1.89-2.58,1.29-4.7,1.25c-2.47-1.25-3.55-2.76-5.12-5.02q-.78-1.1-1.58-2.22c-.39-.57-.77-1.13-1.17-1.71-.61.31-1.21.63-1.84.95-2.44,1.18-4.47,1.77-7.16,2.05-.99-.66-1.98-1.32-3-2q.46.66.93,1.34c3.81,5.6,7.4,11.34,10.95,17.1.5.81,1,1.61,1.52,2.44.47.76.93,1.52,1.41,2.31.42.69.85,1.37,1.28,2.08q.91,1.74.91,3.74c4.94-4.23,7.32-9.13,10-15h2c-.17.95-.33,1.9-.5,2.88q-.55,2.93-.5,5.12c1.8-1.05,3.59-2.11,5.38-3.19,1-.59,2-1.18,3.02-1.79,2.83-2.2,3.63-3.63,4.6-7.02.99.33,1.98.66,3,1,.33,1.98.66,3.96,1,6-1.12.84-2.25,1.67-3.38,2.5-.63.46-1.25.93-1.9,1.41q-1.73,1.09-3.73,1.09c.43.81.87,1.62,1.31,2.45.56,1.07,1.11,2.14,1.69,3.24.56,1.06,1.11,2.11,1.69,3.2,1.3,3.08,1.87,4.83,1.31,8.11q-1.36,1.55-3.19,2.75-.89.61-1.79,1.23c-2.32,1.17-4.47,1.61-7.02,2.02q.67,1.75,1.35,3.54c.57,1.55,1.14,3.1,1.71,4.64q.44,1.15.89,2.33,2.8,7.68,1.04,11.48-2.11,1.51-4.75,2.69c-.86.4-1.72.79-2.61,1.2-2.53,1.07-5.09,2.09-7.64,3.11v19c-3.47,1.74-5.91,2.54-9.65,3.29q-1.63.33-3.3.66c-1.13.22-2.26.44-3.43.67-1.12.23-2.25.46-3.41.7-1.09.22-2.18.43-3.3.66q-1.49.3-3,.6c-3.03.44-5.86.57-8.91.43-1.6-1.6-1.32-3.41-1.5-5.63-.08-.95-.17-1.91-.25-2.89-.08-1-.17-2.01-.25-3.04-.55-6.5-1.14-12.97-2-19.44-5.08,7.62-3.89,21.08-3,30,2.39,8.62,7.45,12.68,15,17-.33.99-.66,1.98-1,3-5.4-.14-8.35-2.29-12.1-5.9-8.79-9.74-7.82-21.65-7.9-34.1-.6.5-1.2.99-1.81,1.5-7.96,6.54-14.67,10.33-25.2,9.94-8.3-1.25-14.51-6.49-20.99-11.45q.03.83.06,1.68.79,24.01-8.49,33.91c-2.36,2.11-4.6,3.37-7.58,4.41q-2.38-.31-4-1c1.21-3.64,2.08-3.84,5.31-5.69,5.48-3.51,7.69-7.37,9.27-13.59,1.62-10.5.63-20.66-2.58-30.73h-2c.02.89.05,1.77.07,2.68.14,9.92-.72,19.49-2.07,29.32-7.65.56-14.36-1.08-21.72-2.93-4.41-1.1-8.85-2.08-13.28-3.07v-20q-7.92-3.46-16-7c.7-5.58,1.38-9.8,3.06-15,.36-1.13.72-2.27,1.1-3.44.28-.85.55-1.69.84-2.56-.71-.38-1.42-.75-2.15-1.14-.92-.51-1.84-1.02-2.79-1.55-.92-.5-1.83-1-2.78-1.51q-2.29-1.8-3.25-4.11c-.04-3.5.97-5.82,2.41-9,.47-1.07.95-2.14,1.43-3.24q.56-1.21,1.13-2.45c-2.97-1.98-5.94-3.96-9-6,.55-5.01,2.24-8.97,4.56-13.38.33-.64.66-1.28,1-1.94.81-1.56,1.62-3.12,2.44-4.68q-.88-.65-1.79-1.32c-.75-.6-1.5-1.19-2.28-1.8-.75-.58-1.51-1.16-2.29-1.76q-1.65-2.12-1.7-4.88c1.35-4.15,3.43-7.31,5.93-10.86q.67-.98,1.36-1.98c1.81-2.63,3.63-5.21,5.59-7.73q1.37-1.57,1.11-3.53-.97-2.38-3.06-5.19c-.62-.97-1.24-1.94-1.88-2.94,1.3-3.89,2.75-4.25,6.25-6.25,5.01-3.05,7.78-5.73,10.75-10.75-.44-.76-.89-1.52-1.35-2.3-.57-.99-1.13-1.99-1.71-3.01-.57-.99-1.14-1.97-1.72-2.99q-1.21-2.7-.21-5.7,2.09-1.19,4.87-2.35c1.04-.44,2.07-.87,3.14-1.32,1.13-.46,2.26-.92,3.42-1.39,1.15-.48,2.31-.95,3.49-1.45,3.68-1.51,7.37-3.01,11.07-4.49,1.22-.49,2.44-.98,3.7-1.49,3.53-1.41,7.07-2.81,10.61-4.2,1.1-.43,2.19-.87,3.32-1.31,1.02-.4,2.05-.79,3.11-1.2.9-.35,1.8-.7,2.72-1.06,2.82-.83,4.63-1.24,7.54-.74Z" fill="#141514" stroke-width="0"/><path d="m78.05.22q1.81,2.5,3,5h-2v4c-1.79.67-3.58,1.34-5.38,2-1,.37-2,.74-3.02,1.12q-2.6.88-4.6.88v2c.74-.23,1.47-.46,2.23-.69.98-.29,1.95-.57,2.96-.87.96-.29,1.93-.58,2.92-.88,3.02-.58,4.95-.37,7.89.44v2c-1.79.67-3.58,1.34-5.38,2-1,.37-2,.74-3.02,1.12q-2.6.88-4.6.88v3c.74-.29,1.47-.58,2.23-.88.98-.37,1.95-.74,2.96-1.12.96-.37,1.93-.74,2.92-1.12,2.87-.87,4.93-1.22,7.89-.88q2.38,2.25,4,5c-.18,2.99-1.59,5.38-3,8h2l1,4h-2q-.19.9-.38,1.81-.62,2.19-2.62,5.19c-.09.81-.18,1.62-.28,2.45-1.05,3.7-2.99,4.44-6.26,6.36-.56.34-1.12.67-1.69,1.02-1.79,1.07-3.59,2.12-5.39,3.17-2.35,1.39-4.69,2.79-7.04,4.19-1.1.66-2.2,1.31-3.34,1.99q-6.39,3.52-11,8.82c3.57-.56,6.15-1.45,9.21-3.36.77-.48,1.54-.95,2.33-1.44.79-.5,1.58-1,2.39-1.51.79-.49,1.57-.97,2.38-1.47,4.28-2.66,8.51-5.39,12.68-8.21.66.33,1.32.66,2,1-.63.62-1.26,1.25-1.91,1.89-2.37,2.35-4.74,4.71-7.11,7.07-1.02,1.01-2.04,2.03-3.06,3.04q-11.3,9.64-17.93,22v3q.99.5,2,1c-1.48,7.41-3.69,14.42-6.12,21.56-.37,1.1-.75,2.21-1.13,3.35-.91,2.7-1.83,5.4-2.75,8.09h-2v2h-3q1.31,1.56,3,3h3c1.37-3.66,2.72-7.33,4.06-11,.41-1.12.82-2.23,1.24-3.38,3.19-8.85,5.88-17.78,8.14-26.91,1.64-6.16,3.18-9.18,8.56-12.71-.02.78-.04,1.57-.06,2.38q-.12,2.61,1.06,4.62-.61,1.75-1.67,3.92-.59,1.24-1.19,2.51t-1.33,2.76c-5.06,10.79-9.4,21.79-13.61,32.94-2.81,7.42-5.8,14.7-9.2,21.88-2.51-2.45-4.49-4.54-6.06-7.69q-1.6-3.57-4.94-4.31c1.98,3.63,3.96,7.26,6,11l-9-3v3c1.91,1.01,3.83,2.01,5.75,3,1.07.56,2.13,1.11,3.23,1.69q3.08,1.58,7.02,1.31c.36-.93.72-1.86,1.1-2.82,1.37-3.52,2.75-7.04,4.13-10.56.59-1.51,1.18-3.02,1.77-4.54,3.7-9.52,7.59-18.86,12.01-28.08h3c-2.64,10.21-5.81,20.25-8.94,30.31-3.48,11.2-6.91,22.39-10.06,33.69h-3q-1.75-2.41-3.56-5.5c-1.09-1.86-2.23-3.71-3.44-5.5h-2c2.31,3.96,4.62,7.92,7,12q-6.75-2.25-9.87-3.73c-.66-.31-1.31-.62-1.99-.94-.67-.32-1.33-.63-2.02-.96-.69-.32-1.38-.65-2.09-.98-1.68-.79-3.36-1.59-5.04-2.39v4q-5.75-1.88-8-3c.58-7.35,2.71-14.01,5-21-.71-.38-1.42-.75-2.15-1.14-.92-.51-1.84-1.02-2.79-1.55-.92-.5-1.83-1-2.78-1.51q-2.29-1.8-3.25-4.11c-.04-3.5.97-5.82,2.41-9,.47-1.07.95-2.14,1.43-3.24q.56-1.21,1.13-2.45c-2.97-1.98-5.94-3.96-9-6,.55-5.01,2.24-8.97,4.56-13.38.33-.64.66-1.28,1-1.94.81-1.56,1.62-3.12,2.44-4.68q-.88-.65-1.79-1.32c-.75-.6-1.5-1.19-2.28-1.8-.75-.58-1.51-1.16-2.29-1.76q-1.65-2.12-1.7-4.88c1.35-4.15,3.43-7.31,5.93-10.86q.67-.98,1.36-1.98c1.81-2.63,3.63-5.21,5.59-7.73q1.37-1.57,1.11-3.53-.97-2.38-3.06-5.19c-.62-.97-1.24-1.94-1.88-2.94,1.3-3.89,2.75-4.25,6.25-6.25,5.01-3.05,7.78-5.73,10.75-10.75-.44-.76-.89-1.52-1.35-2.3-.57-.99-1.13-1.99-1.71-3.01-.57-.99-1.14-1.97-1.72-2.99q-1.21-2.7-.21-5.7,2.09-1.19,4.87-2.35c1.04-.44,2.07-.87,3.14-1.32,1.13-.46,2.26-.92,3.42-1.39,1.15-.48,2.31-.95,3.49-1.45,3.68-1.51,7.37-3.01,11.07-4.49,1.22-.49,2.44-.98,3.7-1.49,3.53-1.41,7.07-2.81,10.61-4.2,1.1-.43,2.19-.87,3.32-1.31,1.02-.4,2.05-.79,3.11-1.2.9-.35,1.8-.7,2.72-1.06,2.7-.79,4.75-1.07,7.54-.74Z" fill="#111" stroke-width="0"/><path d="m96.05,53.22h2q1.41,1.47,3.06,3.5c2.58,3.06,5.22,5.65,8.31,8.19,8.26,7.22,13.54,16.83,18.69,26.38.39.73.79,1.45,1.2,2.2q.54,1.03,1.09,2.08c.32.61.64,1.22.97,1.84q.68,1.81.68,5.81-1.98.99-4,2c-.1,6.09.19,12.05.71,18.12.39,4.55.73,9.11,1.06,13.67.14,2,.29,4,.46,5.99.59,7.89,1.02,14.52-3.66,21.34-1.47,1.68-2.99,3.3-4.56,4.88-.7.74-1.39,1.47-2.11,2.23-6.04,5.88-14.35,11.81-23.01,12.46-13.21-2.34-22.81-12.57-30.88-22.69-2.2-3.29-2.24-4.22-2.17-8.03.02-.98.04-1.96.06-2.97.17-4.5.43-8.98.77-13.47q.1-1.41.2-2.85c.21-2.95.43-5.91.64-8.86.14-2.02.29-4.04.43-6.06.35-4.92.71-9.83,1.07-14.75-1.65-.33-3.3-.66-5-1,4.95-16.5,14.05-32.34,27.69-43.12q2.46-1.86,4.5-4.62c.6-.74,1.2-1.49,1.81-2.25Z" fill="#fcfcfc" stroke-width="0"/><path d="m117.05.22c5.3-.04,10.67,2.49,15.62,4.31q1.4.51,2.83,1.04c7.71,2.88,15.36,5.93,22.95,9.1,1.26.53,2.53,1.05,3.8,1.57,1.79.73,3.56,1.49,5.34,2.24,1.03.43,2.06.86,3.11,1.31q2.33,1.43,3.24,3.45c.14,2.88-1,4.56-2.41,7.05q-1.48,2.51-2.5,4.94.75,3.28,4,5c-.33,1.65-.66,3.3-1,5h-2c-.22.68-.44,1.35-.66,2.05-1.74,3.85-4.11,6.9-6.71,10.2-.48.64-.96,1.27-1.46,1.93-.47.61-.95,1.21-1.44,1.84-.43.55-.85,1.1-1.29,1.67-1.89,1.74-2.85,2.17-5.43,2.32q-2.89-1.15-6.24-2.94c-.6-.32-1.21-.64-1.83-.96-1.94-1.02-3.87-2.06-5.8-3.1-1.89-1-3.78-2-5.67-3-1.26-.66-2.51-1.33-3.76-2-6.5-3.46-13.09-6.74-19.69-10v3c1.09.6,2.17,1.21,3.29,1.83,1.45.81,2.89,1.61,4.34,2.42.71.4,1.43.79,2.16,1.2,2.08,1.17,4.15,2.35,6.21,3.55.61.36,1.23.72,1.86,1.08q1.66,1.03,4.14,2.92v3q-3,1-4.72.29c-.61-.38-1.23-.76-1.86-1.16-.67-.41-1.33-.82-2.02-1.24-.69-.44-1.38-.88-2.09-1.33-.7-.43-1.4-.87-2.13-1.31-1.73-1.07-3.46-2.16-5.19-3.25,3.6,4.37,7.33,8.4,11.6,12.13,5.51,4.92,10.75,10.07,15.96,15.3.9.9,1.8,1.79,2.73,2.72.85.86,1.71,1.71,2.59,2.59.77.77,1.54,1.54,2.33,2.33q1.79,1.92,2.79,3.92c3.78-.62,6.1-2.34,9.12-4.62,4.54-3.41,9.18-6.59,13.98-9.64,2.34-2.15,2.59-3.63,2.9-6.74h2q1.62,2,3,4c-1.52,3.99-3.92,5.66-7.38,8.06q-1.43,1.01-2.9,2.04c-.9.63-1.8,1.26-2.73,1.9-.73.58-1.47,1.15-2.23,1.75q-1.77,1.25-3.77,1.25.99,1.67,2,3.38,2,3.38,2,5.62h2q.07-1.03.15-2.08.11-1.35.23-2.73t.21-2.71q.41-2.48,2.41-5.48h2c-.33,3.3-.66,6.6-1,10q1.98-1.49,4-3h3v4q-2.05,1.96-4.75,3.81-1.32.94-2.67,1.89-2.58,1.29-4.7,1.25c-2.47-1.25-3.55-2.76-5.12-5.02q-.78-1.1-1.58-2.22c-.39-.57-.77-1.13-1.17-1.71-.61.31-1.22.63-1.84.95-2.48,1.21-4.4,1.84-7.16,2.05q-2.31-1.44-4-3c-.99.99-1.98,1.98-3,3l-2-4c.27.8.55,1.6.83,2.43,1.01,2.98,2.02,5.96,3.02,8.94.43,1.29.87,2.58,1.31,3.87.63,1.85,1.25,3.71,1.88,5.56.38,1.12.75,2.23,1.14,3.38q.83,2.82.83,5.82c.66.33,1.32.66,2,1-1.65.33-3.3.66-5,1-3.93-10.75-7.47-21.56-10.7-32.54-.22-.76-.45-1.52-.68-2.3-.57-1.98-1.07-3.98-1.57-5.98-1.1-3.34-2.15-4.97-4.55-7.5-.78-.84-1.56-1.67-2.37-2.53-2.53-2.59-5.13-5.11-7.73-7.62-.81-.8-1.63-1.59-2.47-2.41-1.65-1.61-3.31-3.2-4.99-4.79-.77-.75-1.53-1.49-2.32-2.26-.7-.66-1.39-1.33-2.11-2.01-1.87-2.55-1.64-3.97-1.51-7.06q-1.9-1.84-4-3c.58-2.39,1.22-4.67,2-7-1.98-1.32-3.96-2.64-6-4,.61-2.96,1.25-4.38,3-7l-4-1c.47-5.02,1.94-7.79,5-11.75q2.74-3.47,5-7.25c-7.59.33-15.18.66-23,1q2.95,4.81,5.92,9.6c.37.6.73,1.2,1.11,1.82q.57.92,1.14,1.86.83,1.72.83,4.72h-4c.52.74,1.03,1.49,1.56,2.25q1.44,2.75,1.38,4.88c-1.2,2.4-2.71,3.44-4.94,4.88q.5,3.47,1,7c-.66.39-1.32.78-2,1.19-.66.6-1.32,1.2-2,1.81.05.78.1,1.56.14,2.36q-.14,2.64-1.95,4.68-1.24,1-2.51,2.03c-4.08,3.47-7.83,7.05-11.44,11-.86.94-1.72,1.88-2.61,2.85-.88,1.03-1.76,2.06-2.64,3.09-.5.56-1.01,1.11-1.52,1.68-4.95,5.89-6.54,12.27-8.41,19.63-.68,2.49-1.36,4.99-2.04,7.48-.34,1.22-.67,2.44-1.02,3.7-1.42,4.96-3.01,9.84-4.75,14.7-.27.79-.54,1.58-.82,2.39q-.79,2.15-2.43,5.42-1.92.83-4,1c-.99-.66-1.98-1.32-3-2v-2h3v-2h2q.12-1.37.24-2.77c.95-6.64,3.73-12.88,6.05-19.14q.54-1.49,1.09-3.02c.33-.9.67-1.81,1.01-2.74q.86-2.47-.4-5.34c-1-3.11-1.06-4.91,0-8q1.38-1.81,3.14-3.65c.65-.69,1.31-1.38,1.98-2.09.7-.73,1.41-1.45,2.13-2.2.71-.75,1.43-1.49,2.16-2.26,6.43-6.7,12.97-13.28,19.59-19.8-2.09,1.16-4.17,2.33-6.25,3.5-.63.35-1.26.71-1.91,1.07-5.34,3.05-10.34,6.44-15.32,10.05q-2.52,1.37-4.86,1.09c-.55-.24-1.1-.47-1.66-.71,1.39-3.37,2.8-4.84,5.89-6.73q1.18-.73,2.38-1.48c.84-.51,1.68-1.01,2.54-1.54.85-.53,1.7-1.06,2.58-1.6,3.88-2.41,7.79-4.77,11.76-7.03q.91-.53,1.83-1.07c1.6-.93,3.22-1.83,4.84-2.73q2.47-1.64,2.51-4.54c-.11-.75-.22-1.5-.33-2.28h2l2-6h2q-.5-1.98-1-4h-2c.51-2.05,1.01-4.02,1.75-6q.42-2.09-.62-4.31c-2.59-2.05-3.36-1.86-6.56-1.56-2.51.35-4.39.79-6.66,1.93q-1.9.95-4.9.95v-3c1.41-.68,2.83-1.34,4.25-2,.79-.37,1.58-.74,2.39-1.12q2.36-.88,6.36-.88-.49-.99-1-2c-5.01.62-10.01,1.27-15,2v-2c1.6-.67,3.21-1.34,4.81-2,.89-.37,1.79-.74,2.71-1.12q2.48-.88,5.48-.88v-4q1.46.04,2.95.08c3.62.09,7.25.15,10.87.2,1.57.03,3.13.06,4.7.1,2.26.06,4.51.09,6.77.11.7.03,1.39.05,2.11.08,3.98,0,5.4-.39,8.41-3.1q1.08-1.22,2.19-2.47Z" fill="#131311" stroke-width="0"/><path d="m78.05.22q1.81,2.5,3,5h-2v4c-1.79.67-3.58,1.34-5.38,2-1,.37-2,.74-3.02,1.12q-2.6.88-4.6.88v2c.74-.23,1.47-.46,2.23-.69.98-.29,1.95-.57,2.96-.87.96-.29,1.93-.58,2.92-.88,3.02-.58,4.95-.37,7.89.44v2c-1.79.67-3.58,1.34-5.38,2-1,.37-2,.74-3.02,1.12q-2.6.88-4.6.88v3c.74-.29,1.47-.58,2.23-.88.98-.37,1.95-.74,2.96-1.12.96-.37,1.93-.74,2.92-1.12,2.87-.87,4.93-1.22,7.89-.88q2.38,2.25,4,5c-.18,2.99-1.59,5.38-3,8h2l1,4h-2q-.19.9-.38,1.81-.62,2.19-2.62,5.19c-.09.81-.18,1.62-.28,2.45-1.05,3.7-2.99,4.44-6.26,6.36-.56.34-1.12.67-1.69,1.02-1.79,1.07-3.59,2.12-5.39,3.17-2.35,1.39-4.69,2.79-7.04,4.19-1.1.66-2.2,1.31-3.34,1.99q-6.39,3.52-11,8.82h2v2c-2.4,2.01-5.11,3.59-7.75,5.25-.73.48-1.46.97-2.21,1.47-.71.45-1.42.9-2.15,1.36-.65.42-1.3.83-1.97,1.26q-1.92.66-4.05-.09c-2.43-1.63-3.88-3.53-5.63-5.88-.61-.82-1.23-1.63-1.86-2.48-.46-.63-.92-1.25-1.39-1.9-2.47,1.15-4.05,2.05-6,4v3c2.31,1.7,4.56,3.21,7,4.69q1,.62,2.02,1.26c1.65,1.03,3.31,2.04,4.98,3.05-.99,1.32-1.98,2.64-3,4-2.44-1.6-4.88-3.2-7.31-4.81q-1.04-.68-2.09-1.37c-.67-.44-1.33-.88-2.02-1.34-.61-.4-1.23-.81-1.86-1.22-1.75-1.29-3.22-2.68-4.72-4.26,1.36-2.99,2.95-5.29,5.12-7.75.54-.61,1.08-1.23,1.63-1.86.41-.46.82-.92,1.24-1.39l-1-2c-.42.61-.85,1.21-1.29,1.84l-12.71,18.16c-1.32-.33-2.64-.66-4-1,2.79-6.35,6.49-11.63,10.73-17.07q2.55-3.23,3.19-7.16-1.02-2.05-3.05-4.83c-.62-.97-1.24-1.94-1.88-2.94,1.3-3.89,2.75-4.25,6.25-6.25,5.01-3.05,7.78-5.73,10.75-10.75-.44-.76-.89-1.52-1.35-2.3-.57-.99-1.13-1.99-1.71-3.01-.57-.99-1.14-1.97-1.72-2.99q-1.21-2.7-.21-5.7,2.09-1.19,4.87-2.35c1.04-.44,2.07-.87,3.14-1.32,1.13-.46,2.26-.92,3.42-1.39,1.15-.48,2.31-.95,3.49-1.45,3.68-1.51,7.37-3.01,11.07-4.49,1.22-.49,2.44-.98,3.7-1.49,3.53-1.41,7.07-2.81,10.61-4.2,1.1-.43,2.19-.87,3.32-1.31,1.02-.4,2.05-.79,3.11-1.2.9-.35,1.8-.7,2.72-1.06,2.7-.79,4.75-1.07,7.54-.74Z" fill="#121211" stroke-width="0"/><path d="m96.05,39.22l2,1c.19,1.3.37,2.6.56,3.94,1.61,7.78,7.87,12.63,13.42,17.91,14.11,13.51,32.13,40.83,33.17,61.06q-.07,1.04-.15,2.09h-3c-1.17-2.62-2.34-5.25-3.5-7.88-.33-.75-.67-1.49-1.01-2.26-.32-.72-.63-1.43-.96-2.17-.29-.66-.59-1.32-.89-2q-.64-1.7-.64-3.7h-3q.32.99.66,2.01,7.29,22.41,10.22,32.99c.19.68.38,1.37.58,2.08,1.34,4.94,2.47,9.92,3.55,14.92-1.32.33-2.64.66-4,1-3.3-10.89-6.6-21.78-10-33v24q-.99.5-2,1c-1.54-8.38-2.52-16.69-3.12-25.19-.09-1.11-.17-2.22-.26-3.37-.46-6.17-.7-12.26-.61-18.45,1.65-.66,3.3-1.32,5-2-5.01-14.57-13.1-29.29-24.96-39.27-2.09-1.78-4.07-3.63-6.04-5.55-.58-.56-1.15-1.13-1.75-1.71q-1.25-1.48-1.25-3.48c-.7.71-1.39,1.43-2.11,2.16-2.4,2.4-4.93,4.62-7.5,6.83-12.66,11.11-20.06,25.53-26.39,41.01,1.65.33,3.3.66,5,1,.31,11.15-.35,22.13-1.29,33.24q-1.61,11.99.54,23.52c.58.64,1.16,1.27,1.75,1.93.64.72,1.29,1.44,1.95,2.19q1.02,1.05,2.05,2.12c.63.7,1.25,1.4,1.89,2.12,5.34,5.74,11.61,10.38,19.11,12.88,1.89.07,3.79.08,5.69.06.99,0,1.99-.02,3.01-.03q1.14-.02,2.3-.04c-.33,1.65-.66,3.3-1,5-12.96,1-20.02-3.36-30-11,.02.55.04,1.11.06,1.68q.79,24.01-8.49,33.91c-2.36,2.11-4.6,3.37-7.58,4.41q-2.38-.31-4-1c1.21-3.64,2.08-3.84,5.31-5.69,5.48-3.51,7.69-7.37,9.27-13.59,1.62-10.5.63-20.66-2.58-30.73h-2c.02.89.05,1.77.07,2.68.14,9.92-.72,19.49-2.07,29.32-7.65.56-14.36-1.08-21.72-2.93-4.41-1.1-8.85-2.08-13.28-3.07v-20c-2.64-.99-5.28-1.98-8-3v-5c6.96,2.17,13.4,4.91,20,8-2.31-3.63-4.62-7.26-7-11q1.49-.5,3-1,.72,1.05,1.46,2.12c.63.91,1.26,1.82,1.91,2.76.63.9,1.25,1.81,1.9,2.74q1.66,2.42,3.73,4.38c.16-.55.32-1.1.49-1.67,1.71-5.83,3.44-11.65,5.16-17.48.64-2.16,1.28-4.33,1.91-6.49,3.8-12.92,7.77-25.72,12.43-38.36h-3c-.28.87-.56,1.73-.85,2.62-1.09,3.19-2.29,6.29-3.58,9.41-.47,1.14-.93,2.28-1.42,3.46-.49,1.18-.97,2.36-1.47,3.57-.96,2.32-1.91,4.65-2.86,6.97q-.71,1.71-1.43,3.46c-.95,2.39-1.84,4.81-2.69,7.24-.41,1.18-.82,2.36-1.25,3.57-.35,1.07-.71,2.14-1.07,3.24q-1.38,2.45-3.83,3.4c-3.69.08-6.28-1.56-9.37-3.38-.6-.34-1.19-.68-1.81-1.03-1.47-.83-2.92-1.68-4.38-2.54.33-1.32.66-2.64,1-4,2.64.99,5.28,1.98,8,3-.36-.55-.72-1.11-1.09-1.68-.46-.72-.93-1.45-1.41-2.2-.46-.72-.93-1.44-1.41-2.18q-1.09-1.95-1.09-3.95,1.8.18,4,1,1.7,2.29,3.25,5.06c.52.92,1.04,1.84,1.58,2.79.39.71.77,1.42,1.17,2.15,2.02-3.03,3.21-5.81,4.54-9.19.24-.61.48-1.22.73-1.85.52-1.31,1.03-2.62,1.55-3.93,1.35-3.43,2.71-6.84,4.08-10.26.27-.68.54-1.35.82-2.05q17.28-43.37,32.9-58.34,2.5-2.34,4.39-5.38h2c.27-.56.54-1.11.81-1.69q1.19-2.31,2.69-4.56c1.92-3.53,2.64-6.83,3.5-10.75Z" fill="#111110" stroke-width="0"/><path d="m110.05,43.22c4.14.62,7.31,2.01,11.01,3.95,1.15.6,2.3,1.2,3.49,1.82,1.21.64,2.42,1.28,3.62,1.92,1.18.62,2.37,1.24,3.55,1.86q9.39,4.92,13.5,7.29c.97.56,1.94,1.11,2.94,1.69.85.5,1.7,1,2.57,1.52q2.23,1.13,4.46.79c3.18-1.42,4.91-4.33,6.91-7.08q.65-.86,1.31-1.74c1.91-2.55,3.61-4.99,5.12-7.81q1.5-2.2,3.86-3.73,2.64-.48,5.32.86c.87.67,1.74,1.35,2.64,2.04q1.32,1,2.68,2.02c.66.53,1.33,1.06,2.01,1.6-.78,3.86-2.43,6.01-5,9,1.26,3.41,2.71,6.27,4.79,9.25.53.77,1.06,1.55,1.61,2.34,1.11,1.61,2.23,3.21,3.35,4.81.53.77,1.06,1.55,1.6,2.34.48.7.97,1.39,1.47,2.11q1.18,2.14,2.18,7.14c-2.97,2.31-5.94,4.62-9,7,1.98,4.29,3.96,8.58,6,13h-2c-.2.9-.41,1.8-.62,2.73-1.75,4.15-3.71,5.31-7.51,7.65-1.1.69-2.19,1.38-3.32,2.09-.84.51-1.69,1.02-2.55,1.54q-1-2-.44-3.95.44-1.08.88-2.18t.87-2.2c.23-.55.46-1.11.69-1.68-3.42,3.01-4.8,6.63-6.62,10.72-1.57,2.59-2.69,3.07-5.38,4.28-.64-1.1-1.28-2.2-1.94-3.33-.87-1.49-1.75-2.99-2.62-4.48-.45-.77-.9-1.54-1.37-2.34-3.15-5.36-6.42-10.59-9.89-15.75q-1.18-2.1-1.18-5.1.59.77,1.19,1.56,1.75,1.72,4.25,1.25,2.87-.84,6.56-2.81c2.31,2.97,4.62,5.94,7,9q4.85-.86,8.19-3.56,2.81-2.44,4.81-2.44v-4l-8,4c.66-3.63,1.32-7.26,2-11-3.17,3.17-3.48,4-4.19,8.19q-.24,1.35-.48,2.73c-.11.69-.22,1.37-.33,2.08h-2q-4-6.75-4-9,1.44-1.17,3.43-2.46c.71-.47,1.43-.94,2.16-1.43,1.51-.98,3.03-1.97,4.55-2.95.72-.47,1.43-.95,2.17-1.44q.99-.64,2-1.29c1.96-1.66,2.82-3.02,3.7-5.43q-.78-2.23-2-4h-2c.11.73.22,1.47.34,2.23q-.34,2.77-2.61,4.98-1.54,1.07-3.1,2.16c-.54.38-1.08.77-1.64,1.16-1.11.79-2.23,1.56-3.35,2.33-1.52,1.05-3.02,2.14-4.52,3.23q-7.13,5.17-11.12,5.9c-.43-.5-.86-1-1.3-1.52-5.52-6.29-11.35-12.24-17.26-18.17-.8-.81-1.61-1.61-2.43-2.45-4.31-4.3-8.68-8.41-13.39-12.27-1.75-1.73-2.64-3.35-3.61-5.59,4.8,1.8,9.12,4.24,13.57,6.76q2.27,1.39,4.43,1.24c-1.27-3.8-2.49-4.16-5.91-6.14-.99-.58-1.98-1.15-3-1.75-1.04-.59-2.08-1.19-3.15-1.8-1.04-.61-2.09-1.21-3.17-1.84-2.59-1.5-5.18-2.99-7.77-4.47.33-.99.66-1.98,1-3Z" fill="#131312" stroke-width="0"/><path d="m85.05,9.22h24c-1.59,3.98-2.49,5.84-5.06,8.94-2.58,3.31-3.72,5.77-3.94,10.06l3,1q-.53.87-1.06,1.75-1.08,2.16-.88,4.31c1.33,2.75,3.27,3.57,5.94,4.94q-.53.87-1.06,1.75-1.11,2.17-.75,4.38.77,2.24,3.81,3.88c-.05.75-.1,1.49-.15,2.26.22,4.06,2.7,5.88,5.51,8.52.55.54,1.1,1.07,1.66,1.62,1.75,1.71,3.52,3.4,5.29,5.09,1.76,1.69,3.51,3.39,5.26,5.09,1.09,1.06,2.18,2.11,3.28,3.16,4.3,4.16,7.05,8,8.51,13.81q.34,1.3.68,2.64c.23.92.47,1.85.71,2.8,2.74,10.49,6.03,20.73,9.59,30.97.65,2,1.18,3.99,1.66,6.03.99-.33,1.98-.66,3-1,2.15-.03,4.29-.05,6.44-.06,7.27-.42,11.51-2.87,17.23-7.22q2.33-1.71,4.33-1.71c1.65,3.96,3.3,7.92,5,12q-1.97,1.03-3.98,2.08c-1.74.91-3.47,1.82-5.21,2.73-.86.45-1.73.9-2.62,1.37-3.46,1.82-6.87,3.62-10.18,5.71-.66.37-1.33.73-2.01,1.11-.66-.33-1.32-.66-2-1l5-10c-3.45,3.07-5.58,6.43-7.85,10.39q-.57.8-1.15,1.61h-2q-.3-.78-.62-1.57c-2.17-5.51-4.34-11.01-6.53-16.51-.81-2.04-1.61-4.08-2.41-6.12q-13.12-34.19-35.26-62.81c-1.7-1.64-3.39-3.29-5.08-4.94-.74-.71-1.48-1.42-2.25-2.15-2.95-3.03-4.16-5.53-4.99-9.6q-.25-1.21-.51-2.45c-.12-.61-.24-1.23-.37-1.86-.27,1.05-.54,2.1-.81,3.19-1.87,6.02-5.11,10.08-9.38,14.62q-.73.79-1.48,1.6c-2.78,3-5.66,5.85-8.65,8.65-4.41,4.3-7.02,9.44-9.69,14.94h-3c-.46-2.76-.65-4.33,0-7,1.75-2.24,3.68-4.04,5.78-5.95,2.14-1.97,3.98-4.01,5.85-6.23,2.12-2.49,4.2-4.54,6.81-6.5q2.85-2.03,2.75-4.94c-.06-.78-.12-1.57-.19-2.38q1.38-1.81,3-3h2q-.99-3.47-2-7c1.65-1.32,3.3-2.64,5-4-.52-2.76-1.11-5.33-2-8h4c-2.75-5.71-5.61-11.2-9.08-16.5q-.92-1.5-.92-2.5Z" fill="#41413e" stroke-width="0"/><path d="m118.05,4.22c7.88,2.13,15.41,5.02,22.97,8.08,1.96.79,3.93,1.58,5.89,2.36,7.47,3,14.85,6.15,22.14,9.56-1.47,5.09-3.69,9.35-6.38,13.88-.39.69-.77,1.38-1.17,2.09q-1.16,1.97-3.45,5.04c-4.48,0-7.73-1.25-11.81-2.89-.76-.3-1.53-.6-2.31-.91-2.44-.96-4.88-1.93-7.32-2.9-1.61-.63-3.21-1.26-4.82-1.9-3.12-1.23-6.24-2.46-9.36-3.69-5.78-2.28-11.58-4.51-17.38-6.73q0-3,1.5-5.75,2.5-2.25,6.25-2.19c1.42.28,2.84.59,4.25.94q1.14.26,2.3.53c1.91.46,3.81.96,5.7,1.47v-2c-.68-.19-1.35-.39-2.05-.59-.89-.26-1.78-.52-2.7-.79-.88-.26-1.76-.51-2.67-.77-2.34-.77-4.41-1.69-6.58-2.85.66-.66,1.32-1.32,2-2q2.21.21,4.81.81,1.28.29,2.58.58c.86.2,1.72.4,2.61.61,1.67.34,3.33.67,5,1v-2c-.69-.19-1.37-.39-2.08-.59-.9-.26-1.8-.52-2.73-.79q-1.34-.38-2.71-.77-2.48-.85-5.48-2.85c.99-1.32,1.98-2.64,3-4Z" fill="#f7f7f7" stroke-width="0"/><path d="m77.05,5.22q1.19,2.06,2,4c-1.79.67-3.58,1.34-5.38,2-1,.37-2,.74-3.02,1.12q-2.6.88-4.6.88v2c.74-.23,1.47-.46,2.23-.69.98-.29,1.95-.57,2.96-.87q1.44-.44,2.92-.88c3.02-.58,4.95-.37,7.89.44v2c-1.79.67-3.58,1.34-5.38,2-1,.37-2,.74-3.02,1.12q-2.6.88-4.6.88v3c.74-.29,1.47-.58,2.23-.88.98-.37,1.95-.74,2.96-1.12q1.44-.56,2.92-1.12c2.87-.87,4.93-1.23,7.89-.88,2.78,2.78,4,4.01,4,8-1.23.46-2.46.93-3.73,1.41-4.59,1.73-9.19,3.47-13.78,5.21-1.98.75-3.96,1.5-5.95,2.25-2.86,1.08-5.72,2.16-8.58,3.25-.88.33-1.75.66-2.66,1-4.04,1.54-7.95,3.16-11.81,5.14q-3.5,1.76-5.5,1.76c-2.17-2.9-3.88-6.11-5.69-9.25-.52-.87-1.05-1.75-1.59-2.64-.49-.84-.98-1.69-1.49-2.56q-.68-1.16-1.37-2.35-.86-2.2-.95-4.28c1.78-3.15,4.93-3.95,8.16-5.2.72-.29,1.44-.59,2.19-.89,2.32-.94,4.65-1.86,6.98-2.77,1.52-.61,3.05-1.23,4.57-1.84,3.69-1.49,7.39-2.95,11.1-4.4,2-.79,3.99-1.6,5.99-2.41,1.16-.47,2.32-.93,3.52-1.41,1.01-.41,2.02-.82,3.07-1.25q2.51-.75,5.51.25Z" fill="#f7f7f7" stroke-width="0"/><path d="m106.05,14.22q.62,1.88,1,4c-.66.66-1.32,1.32-2,2q-.17,2.58,0,5c.93.34,1.85.68,2.81,1.02,1.2.45,2.4.89,3.63,1.35,1.19.44,2.39.88,3.62,1.34q2.94,1.29,3.94,3.29h-2v2c-3.38-.54-6.7-1.11-10-2-.66.99-1.32,1.98-2,3q1.14.31,2.31.62c5.19,1.93,9.88,4.65,14.69,7.38v5c-3.96-1.65-7.92-3.3-12-5v3c1.09.6,2.17,1.21,3.29,1.83,1.45.81,2.89,1.61,4.34,2.42.71.4,1.43.79,2.16,1.2,2.08,1.17,4.15,2.35,6.21,3.55.61.36,1.23.72,1.86,1.08q1.66,1.03,4.14,2.92v3q-3,1-4.72.29c-.61-.38-1.23-.76-1.86-1.16q-1-.61-2.02-1.24c-.69-.44-1.38-.88-2.09-1.33-.7-.43-1.4-.87-2.13-1.31-1.73-1.07-3.46-2.16-5.19-3.25,3.6,4.37,7.33,8.4,11.6,12.13,5.51,4.92,10.75,10.07,15.96,15.3.9.9,1.8,1.79,2.73,2.72.85.86,1.71,1.71,2.59,2.59.77.77,1.54,1.54,2.33,2.33q1.79,1.92,2.79,3.92c3.78-.62,6.1-2.34,9.12-4.62,4.54-3.41,9.18-6.59,13.98-9.64,2.34-2.15,2.59-3.63,2.9-6.74h2q1.62,2,3,4c-1.52,3.99-3.92,5.66-7.38,8.06q-1.43,1.01-2.9,2.04t-2.73,1.9c-.73.58-1.47,1.15-2.23,1.75q-1.77,1.25-3.77,1.25.99,1.67,2,3.38,2,3.38,2,5.62h2q.07-1.03.15-2.08.11-1.35.23-2.73.1-1.34.21-2.71.41-2.48,2.41-5.48h2c-.33,3.3-.66,6.6-1,10q1.98-1.49,4-3h3v4q-2.05,1.96-4.75,3.81c-.88.63-1.76,1.25-2.67,1.89q-2.58,1.29-4.7,1.25c-2.47-1.25-3.55-2.76-5.12-5.02q-.78-1.1-1.58-2.22c-.39-.57-.77-1.13-1.17-1.71-.61.31-1.22.63-1.84.95-2.48,1.21-4.4,1.84-7.16,2.05q-2.31-1.44-4-3c-.99.99-1.98,1.98-3,3l-2-4c.27.8.55,1.6.83,2.43,1.01,2.98,2.02,5.96,3.02,8.94.43,1.29.87,2.58,1.31,3.87.63,1.85,1.25,3.71,1.88,5.56.38,1.12.75,2.23,1.14,3.38q.83,2.82.83,5.82.99.5,2,1-2.47.5-5,1c-3.93-10.75-7.47-21.56-10.7-32.54-.22-.76-.45-1.52-.68-2.3-.57-1.98-1.07-3.98-1.57-5.98-1.1-3.34-2.15-4.97-4.55-7.5-.78-.84-1.56-1.67-2.37-2.53-2.53-2.59-5.13-5.11-7.73-7.62-.81-.8-1.63-1.59-2.47-2.41-1.65-1.61-3.31-3.2-4.99-4.79-.77-.75-1.53-1.49-2.32-2.26q-1.05-1-2.11-2.01c-1.87-2.55-1.64-3.97-1.51-7.06q-1.9-1.84-4-3c.58-2.39,1.22-4.67,2-7-1.98-1.32-3.96-2.64-6-4,.61-2.96,1.25-4.38,3-7-1.32-.33-2.64-.66-4-1,.3-6.06,3.28-9.51,7-14Z" fill="#0e0e0d" stroke-width="0"/><path d="m168.05,20.22c1.65.33,3.3.66,5,1,1.06,2.71,1.11,3.74-.03,6.47-.48.85-.97,1.71-1.47,2.59q-1.48,2.51-2.5,4.94.75,3.28,4,5-.49,2.48-1,5h-2c-.22.68-.44,1.35-.66,2.05-1.74,3.85-4.11,6.9-6.71,10.2-.48.64-.96,1.27-1.46,1.93-.47.61-.95,1.21-1.44,1.84-.43.55-.85,1.1-1.29,1.67-1.9,1.75-2.83,2.18-5.43,2.32-2.35-.94-4.45-1.92-6.66-3.11-.63-.33-1.27-.66-1.92-1-1.34-.7-2.67-1.4-4-2.11-2.04-1.09-4.08-2.15-6.13-3.22-1.3-.68-2.59-1.36-3.89-2.04-.61-.32-1.22-.64-1.85-.97-2.51-1.34-4.52-2.52-6.55-4.54q-.12-2.62,0-5c-.69-.27-1.39-.53-2.11-.8-3.15-1.3-6.16-2.78-9.21-4.32-1.07-.54-2.14-1.08-3.24-1.63q-1.21-.61-2.45-1.24c.66-1.32,1.32-2.64,2-4l10,3v-2c3.97-1.57,6.46-.34,10.3,1.2,1.22.49,2.45.97,3.71,1.47,1.29.52,2.58,1.05,3.86,1.57,1.28.51,2.56,1.02,3.84,1.53q9.49,3.79,13.51,5.96,2.77,1.65,5.78.27c2.06-2.75,3.6-5.81,5.25-8.81.47-.82.94-1.64,1.43-2.49.44-.79.88-1.59,1.34-2.41.41-.73.81-1.45,1.23-2.2.9-2.5.51-3.6-.24-6.09l1-2Z" fill="#121211" stroke-width="0"/><path d="m132.05,107.22h3c6.49,15.27,12.76,30.62,19,46,4.96-.71,8.38-2.07,12.75-4.56q6.06-3.44,8.25-3.44c.84,2.08,1.67,4.16,2.5,6.25.46,1.16.93,2.32,1.41,3.52q1.09,3.23,1.09,7.23c-3.44,1.48-6.87,2.96-10.31,4.44-.98.42-1.95.84-2.96,1.28-.94.4-1.88.81-2.84,1.22-.86.37-1.73.74-2.62,1.13-1.73.72-3.49,1.35-5.27,1.94,1.17-2.54,2.49-4.73,4.06-7.06q2.04-2.82,2.94-5.94c-5.12,3.36-7.33,7.68-10,13h-2c-2.7-8.54-5.34-17.09-7.83-25.7-1.44-4.93-2.95-9.83-4.48-14.72-.2-.65-.41-1.31-.62-1.98-1.03-3.3-2.07-6.6-3.12-9.89-.38-1.21-.76-2.42-1.15-3.67-.35-1.09-.69-2.18-1.05-3.31q-.75-2.73-.75-5.73Z" fill="#f3f3f3" stroke-width="0"/><path d="m61.05,125.22h1c.03,1.81.05,3.62.06,5.44.01,1.01.02,2.02.04,3.06-.07,2.64-.26,5.11-.57,7.72-.63,5.3-.79,10.58-.96,15.91-.44,12-1.4,23.92-2.56,35.88-9.41-1.35-18.7-3.07-28-5-.09-5.15.15-9.92,1-15,5,1.67,10,3.33,15,5,.26-1.25.53-2.5.8-3.79,1.24-5.58,2.83-11.04,4.45-16.52q.46-1.55.92-3.14c2.9-9.86,5.86-19.71,8.83-29.55Z" fill="#f2f2f2" stroke-width="0"/><path d="m60.05,107.22h3c-2.64,10.21-5.81,20.25-8.94,30.31-3.48,11.2-6.91,22.39-10.06,33.69h-3q-1.75-2.41-3.56-5.5c-1.09-1.86-2.23-3.71-3.44-5.5h-2q3.47,5.94,7,12c-5.28-1.76-10.24-3.75-15.31-6-.82-.36-1.65-.71-2.49-1.08-.78-.35-1.56-.69-2.37-1.05-.71-.31-1.42-.62-2.15-.95q-1.67-.93-2.67-2.93c.74-2.59,1.54-5.09,2.44-7.62.24-.71.49-1.41.74-2.14.6-1.75,1.21-3.49,1.83-5.23,5.43,1.67,10.19,4.1,15.2,6.76q2.9,1.51,6.8,1.24c.36-.93.72-1.86,1.1-2.82,1.37-3.52,2.75-7.04,4.13-10.56.59-1.51,1.18-3.02,1.77-4.54,3.7-9.52,7.59-18.86,12.01-28.08Z" fill="#f3f3f3" stroke-width="0"/><path d="m132.05,125.22c2.27,2.27,2.68,3.65,3.6,6.69q.45,1.46.91,2.95t.96,3.2c.33,1.08.66,2.16,1,3.27.7,2.29,1.39,4.57,2.08,6.86,1.06,3.51,2.13,7.02,3.21,10.53.68,2.22,1.35,4.43,2.02,6.65.32,1.06.64,2.11.98,3.2.29.97.59,1.95.89,2.95.26.86.52,1.72.79,2.61q.56,2.09.56,4.09c.75-.28,1.5-.55,2.27-.84q1.48-.54,2.98-1.1c.97-.36,1.95-.72,2.95-1.09q2.8-.97,6.8-1.97.49,6.93,1,14c-4,1.33-7.34,2.35-11.4,3.07q-1.46.26-2.95.53-1.5.26-3.03.53c-1.02.18-2.04.36-3.1.55-2.51.45-5.02.89-7.53,1.32-.55-7.11-1.1-14.23-1.65-21.34-.19-2.41-.37-4.83-.56-7.24-1.02-13.14-2.03-26.27-2.78-39.42Z" fill="#f5f5f5" stroke-width="0"/><path d="m88.05,26.22h2v4c.99.33,1.98.66,3,1q.49,2.47,1,5c-.85.52-1.69,1.03-2.56,1.56-.8.8-1.61,1.61-2.44,2.44q.06,3.7,1,7c-.66.39-1.32.78-2,1.19-.66.6-1.32,1.2-2,1.81.05.78.1,1.56.14,2.36q-.14,2.64-1.95,4.68-1.24,1-2.51,2.03c-4.08,3.47-7.83,7.05-11.44,11-.86.94-1.72,1.88-2.61,2.85-.88,1.03-1.76,2.06-2.64,3.09-.5.56-1.01,1.11-1.52,1.68-4.95,5.89-6.54,12.27-8.41,19.63-.68,2.49-1.36,4.99-2.04,7.48-.34,1.22-.67,2.44-1.02,3.7-1.42,4.96-3.01,9.84-4.75,14.7-.27.79-.54,1.58-.82,2.39q-.79,2.15-2.43,5.42-1.92.83-4,1c-.99-.66-1.98-1.32-3-2v-2h3v-2h2q.12-1.37.24-2.77c.95-6.64,3.73-12.88,6.05-19.14q.54-1.49,1.09-3.02c.33-.9.67-1.81,1.01-2.74q.86-2.47-.4-5.34c-1-3.11-1.06-4.91,0-8q1.38-1.81,3.14-3.65c.65-.69,1.31-1.38,1.98-2.09.7-.73,1.41-1.45,2.13-2.2.71-.75,1.43-1.49,2.16-2.26,6.43-6.7,12.97-13.28,19.59-19.8-2.09,1.16-4.17,2.33-6.25,3.5-.63.35-1.26.71-1.91,1.07-5.34,3.05-10.34,6.44-15.32,10.05q-2.52,1.37-4.86,1.09c-.55-.24-1.1-.47-1.66-.71,1.39-3.37,2.8-4.84,5.89-6.73q1.18-.73,2.38-1.48c.84-.51,1.68-1.01,2.54-1.54.85-.53,1.7-1.06,2.58-1.6,3.88-2.41,7.79-4.77,11.76-7.03.6-.35,1.21-.7,1.83-1.07,1.6-.93,3.22-1.83,4.84-2.73q2.47-1.64,2.51-4.54c-.11-.75-.22-1.5-.33-2.28h2c.66-1.98,1.32-3.96,2-6h2l-1-4h-2q.88-3.88,2-5Z" fill="#0e0f0d" stroke-width="0"/><path d="m88.05,27.22l-2,4h2l1,4c-4.66,2.47-9.32,4.95-13.98,7.42-1.58.84-3.16,1.68-4.74,2.52q-16.84,8.94-25.28,13.07c.31-.6.62-1.2.94-1.81q1.16-2.28,2.06-5.19h-3c-.25.58-.49,1.16-.75,1.75-1.42,2.55-3.16,4.23-5.25,6.25-2.04-2.4-4.05-4.82-6.06-7.25-.58-.68-1.16-1.36-1.76-2.07q-.82-1-1.65-2.01c-.51-.61-1.02-1.21-1.54-1.84q-.99-1.83-.65-4.06c.22-.58.43-1.17.66-1.77h2c1.32,2.31,2.64,4.62,4,7,.33-.99.66-1.98,1-3h2v2c.49-.27.98-.54,1.48-.82,8.32-4.37,17.06-7.66,25.82-11.02,2.72-1.04,5.43-2.1,8.14-3.16,1.72-.66,3.45-1.33,5.18-1.99.81-.32,1.62-.64,2.46-.96q5.69-2.16,7.92-1.05Z" fill="#131313" stroke-width="0"/><path d="m127.05,75.22c4.89,2.12,7.34,5.48,10,10,1.3,3.33,2.13,6.71,2.94,10.19.49,1.94.98,3.88,1.48,5.82.25.99.51,1.97.77,2.99,2.03,7.43,4.63,14.7,7.16,21.97.65,2,1.18,3.99,1.66,6.03q1.49-.49,3-1c2.15-.03,4.29-.05,6.44-.06,7.27-.42,11.51-2.87,17.23-7.22q2.33-1.71,4.33-1.71,2.47,5.94,5,12c-1.31.69-2.63,1.37-3.98,2.08-1.74.91-3.47,1.82-5.21,2.73-.86.45-1.73.9-2.62,1.37-3.46,1.82-6.87,3.62-10.18,5.71-.66.37-1.33.73-2.01,1.11q-.99-.5-2-1l5-10c-3.45,3.07-5.58,6.43-7.85,10.39-.38.53-.76,1.06-1.15,1.61h-2c-.21-.53-.42-1.05-.63-1.59-2.2-5.57-4.41-11.13-6.62-16.7-.82-2.07-1.64-4.13-2.46-6.2-4.33-10.97-8.67-21.87-14.02-32.4q-2.38-4.8-1.27-8.11-.87-1.98-2-4c-.37-1.32-.71-2.66-1-4Z" fill="#f5f5f4" stroke-width="0"/><path d="m64.05,77.22c.14.6.29,1.2.44,1.81.45,1.75.99,3.47,1.56,5.19q-.61,1.87-1.67,4.02-.59,1.24-1.19,2.5t-1.33,2.74c-5.08,10.77-9.41,21.74-13.61,32.87-2.81,7.42-5.8,14.7-9.2,21.88-2.51-2.45-4.49-4.54-6.06-7.69q-1.6-3.57-4.94-4.31c1.98,3.63,3.96,7.26,6,11-5.3-1.54-9.87-3.93-14.69-6.56-1.5-.82-3.01-1.63-4.51-2.44-.66-.36-1.32-.72-1.99-1.09q-1.96-1.04-4.81-1.91c1.42-4.47,3.11-8.71,5-13,1.6.96,3.21,1.92,4.81,2.88.89.53,1.79,1.07,2.71,1.62,1.85,1.13,3.68,2.3,5.48,3.51q1.93.36,4.01.41,1.14.06,2.29.12,1.18.05,2.38.09c.8.04,1.59.08,2.42.12,1.97.09,3.93.18,5.9.26,5.09-13.62,9.92-27.19,13.53-41.29,1.52-5.64,2.85-9.03,7.47-12.71Z" fill="#f3f4f3" stroke-width="0"/><path d="m110.05,43.22c4.14.62,7.31,2.01,11.01,3.95,1.15.6,2.3,1.2,3.49,1.82,1.21.64,2.42,1.28,3.62,1.92,1.18.62,2.37,1.24,3.55,1.86q9.39,4.92,13.5,7.29c.97.56,1.94,1.11,2.94,1.69.85.5,1.7,1,2.57,1.52q2.23,1.13,4.46.79c3.19-1.43,4.91-4.38,6.91-7.14q.65-.87,1.31-1.76c1.22-1.63,2.42-3.28,3.62-4.92,1-1.33,2-2.67,3-4,3.46,1.25,6.15,2.68,9,5-.88,4.45-3.38,7.31-6.19,10.75-1,1.25-2,2.49-3,3.74-.48.6-.97,1.2-1.46,1.82-2.53,3.17-4.94,6.43-7.35,9.69-4.68-1.61-8.48-4.15-12.56-6.88-8.85-5.82-17.9-11.28-27.01-16.68-4.15-2.47-8.29-4.96-12.43-7.44.33-.99.66-1.98,1-3Z" fill="#f5f5f4" stroke-width="0"/><path d="m82.05,42.22h2q-.17,2.27-1,5-2.28,1.89-5.29,3.67c-1.1.66-2.2,1.32-3.33,2-1.19.69-2.38,1.39-3.56,2.08-1.2.71-2.4,1.43-3.6,2.15-1.78,1.06-3.56,2.13-5.34,3.19-4.38,2.6-8.68,5.3-12.94,8.1-4.87,3.17-9.81,6.08-14.94,8.81q-16.16-18.41-19-24c1.33-4,3.5-4.84,7-7,3.26,1.38,4.94,2.85,7.02,5.7.53.72,1.06,1.43,1.6,2.17.54.75,1.08,1.49,1.63,2.26.55.75,1.11,1.51,1.68,2.29,1.36,1.86,2.72,3.72,4.07,5.59,4.4-.62,8.02-2.3,11.94-4.31.67-.34,1.35-.68,2.04-1.03q15.96-7.02,30.02-16.65Z" fill="#f6f6f6" stroke-width="0"/><path d="m33.05,95.22c.77.31,1.54.63,2.34.95,2.61,1.03,4.87,1.75,7.66,2.05.99-.66,1.98-1.32,3-2-1.43,2.94-3,5.75-4.68,8.55-.52.86-1.03,1.72-1.57,2.61-.54.89-1.08,1.79-1.63,2.71-.53.89-1.06,1.77-1.61,2.68-2.74,4.56-5.52,9.05-8.52,13.44-3.88-1.47-5.1-3.37-7-7-.56-1.05-1.11-2.1-1.69-3.19q-1.31-2.81-1.31-4.81h-2c.99,3.3,1.98,6.6,3,10-5.02-2.7-9.68-5.24-14-9,.58-4.06,1.89-6.85,4.06-10.31.55-.88,1.1-1.77,1.66-2.68q.63-1,1.28-2.01c3.21,1.16,5.59,2.27,8.06,4.62q2.83,2.79,6.94,2.38,1.8-1.97,3.25-4.5c.52-.84,1.04-1.67,1.58-2.53.39-.65.77-1.3,1.17-1.97Z" fill="#f6f6f6" stroke-width="0"/><path d="m142.05,93.22q.9.99,1.81,2,2.06,2.34,5.19,2,1.22,1.34,2.5,3.38c.51.8,1.02,1.61,1.54,2.43.65,1.05,1.29,2.11,1.96,3.19.95,1.51,1.89,3.02,2.84,4.54,1.01,1.63,2.03,3.27,3.04,4.9.5.81,1,1.61,1.52,2.44.47.76.93,1.52,1.41,2.31.42.69.85,1.37,1.28,2.08q.91,1.74.91,3.74c4.94-4.23,7.32-9.13,10-15h2c-.17.95-.33,1.9-.5,2.88q-.55,2.93-.5,5.12c1.8-1.05,3.59-2.11,5.38-3.19,1-.59,2-1.18,3.02-1.79,2.83-2.2,3.63-3.63,4.6-7.02.99.33,1.98.66,3,1q.49,2.97,1,6c-1.12.84-2.25,1.67-3.38,2.5-.63.46-1.25.93-1.9,1.41q-1.73,1.09-3.73,1.09c.3.55.6,1.11.91,1.68.38.72.76,1.45,1.15,2.2q.57,1.08,1.16,2.18c.26.64.51,1.28.78,1.95q-1,2-3,3c-.33-.99-.66-1.98-1-3l-1.56-1.56c-.47-.47-.95-.95-1.44-1.44v-2c-.81.64-1.63,1.28-2.46,1.93-9.41,6.94-16.95,8.42-28.54,8.07-.66-1.65-1.32-3.3-2-5l3-2c-.3-.9-.61-1.8-.92-2.72-1.12-3.33-2.24-6.66-3.35-9.99-.48-1.44-.97-2.88-1.46-4.32-.7-2.07-1.39-4.14-2.08-6.21-.42-1.25-.84-2.49-1.27-3.78q-.92-2.98-.92-4.98Z" fill="#0f0f0e" stroke-width="0"/><path d="m114.05,54.22c5.43,2.06,10.21,4.92,15.19,7.88.97.57,1.93,1.14,2.93,1.73,7.29,4.34,14.35,8.94,21.25,13.88.69.48,1.37.96,2.08,1.45.59.43,1.19.85,1.8,1.29q1.76.96,3.86.55c2.9-1.18,3.95-3.26,5.65-5.83.61-.92,1.23-1.84,1.86-2.79.46-.71.92-1.42,1.39-2.15q1.75.12,4,1,2.25,3.06,4,6c-5.79,4.39-11.6,8.76-17.5,13-.77.56-1.55,1.11-2.34,1.69-2.09,1.27-3.76,1.88-6.16,2.31-.43-.5-.86-1-1.3-1.52-5.52-6.29-11.35-12.24-17.26-18.17-.8-.81-1.61-1.61-2.43-2.45-4.31-4.3-8.68-8.41-13.39-12.27-1.75-1.73-2.64-3.35-3.61-5.59Z" fill="#f6f6f6" stroke-width="0"/><path d="m148.05,95.22q.84.77,1.69,1.56,2.21,1.69,4.81,1.25,2.82-.85,6.5-2.81c2.31,2.97,4.62,5.94,7,9,4.59-.92,5.89-1.34,9.31-4.06.7-.55,1.39-1.1,2.11-1.66.52-.42,1.04-.84,1.57-1.28,3.8,3.26,6.48,7.23,8,12q-.02,1.98-1,4-2.72,2.14-6.06,4.25c-1.1.71-2.21,1.41-3.35,2.14-.85.53-1.71,1.06-2.59,1.61q-1-2-.44-3.95c.29-.72.58-1.44.88-2.18q.43-1.09.87-2.2.34-.83.69-1.68c-3.42,3.01-4.8,6.63-6.62,10.72-1.57,2.59-2.69,3.07-5.38,4.28-.64-1.1-1.28-2.2-1.94-3.33-4.45-7.62-8.93-15.19-13.78-22.57q-1.28-2.1-2.28-5.1Z" fill="#f4f4f3" stroke-width="0"/><path d="m78.05,54.22l2,1c-.63.62-1.26,1.25-1.91,1.89-2.37,2.35-4.74,4.71-7.11,7.07-1.02,1.01-2.04,2.03-3.06,3.04-5.33,5.29-10.57,10.6-15.46,16.31-2.03,2.34-4.2,4.52-6.41,6.69-.77.76-1.54,1.53-2.34,2.31-.57.56-1.14,1.11-1.72,1.69-3.94-1.39-6.92-3.24-10.25-5.75-4.82-3.58-9.72-6.97-14.75-10.25.76-3.79,2.13-5.4,5-8,3.78,1.26,4.77,2.94,7.19,6.06.72.92,1.43,1.84,2.17,2.79q.81,1.07,1.64,2.15c4.87-1.36,8.65-3.56,12.75-6.44,6.56-4.5,13.27-8.7,20.08-12.81,4.13-2.49,8.18-5.05,12.17-7.76Z" fill="#f6f6f6" stroke-width="0"/><path d="m18.05,64.22l2,1c-1.69,3.73-3.96,6.27-6.76,9.22q-1.62,1.97-1.24,5.78c.68.23,1.37.47,2.07.71,3.55,1.57,6.59,3.67,9.74,5.91.6.42,1.19.84,1.81,1.27,1.46,1.03,2.92,2.06,4.38,3.1-.78,3.86-2.43,6.01-5,9q-1.95-6.75-2.5-9.38-.25-.8-.5-1.62c-.66-.33-1.32-.66-2-1,.33,3.3.66,6.6,1,10-5.72-4.27-11.38-8.6-17-13,2.59-4.85,5.56-9.36,8.69-13.88.4-.58.81-1.17,1.23-1.77q2.94-4.21,4.09-5.36Z" fill="#f0f0f0" stroke-width="0"/><path d="m175.05,64.22h2c1.74,2.34,3.35,4.68,4.94,7.12.44.67.89,1.33,1.34,2.02,2.53,3.84,4.75,7.69,6.72,11.86-2.08,1.8-4.16,3.59-6.25,5.38-.59.51-1.17,1.02-1.78,1.54-.57.49-1.15.98-1.74,1.48q-.79.68-1.59,1.36-1.65,1.24-5.65,3.24c.66-3.63,1.32-7.26,2-11-3.17,3.17-3.48,4-4.19,8.19-.16.9-.32,1.8-.48,2.73-.11.69-.22,1.37-.33,2.08h-2q-4-6.75-4-9,1.44-1.17,3.43-2.46c.71-.47,1.43-.94,2.16-1.43,1.51-.98,3.03-1.97,4.55-2.95.72-.47,1.43-.95,2.17-1.44.66-.43,1.32-.85,2-1.29,1.93-1.63,2.73-3.12,3.7-5.43-.51-.53-1.01-1.06-1.53-1.61-.65-.71-1.3-1.41-1.97-2.14-.65-.7-1.3-1.39-1.97-2.11q-1.53-2.14-1.53-6.14Z" fill="#f3f3f1" stroke-width="0"/><path d="m107.05,31.22q23.47,7.41,32,15c.79.67,1.59,1.33,2.41,2.02q6.85,5.85,8.59,9.98c-3.61-1.38-7.01-2.97-10.43-4.76-1.04-.54-2.07-1.08-3.14-1.64-1.09-.57-2.18-1.14-3.3-1.73-1.11-.58-2.23-1.16-3.37-1.76-8.28-4.33-16.53-8.69-24.75-13.11l2-4Z" fill="#f2f2f1" stroke-width="0"/><path d="m88.05,31.22l1,4c-4.66,2.47-9.32,4.95-13.98,7.42-1.58.84-3.16,1.68-4.74,2.52q-16.84,8.94-25.28,13.07c7.08-14.79,23.67-20.89,37.98-26.38q2.02-.62,5.02-.62Z" fill="#f1f1f0" stroke-width="0"/><path d="m127.05,75.22c4.89,2.12,7.34,5.48,10,10,1.3,3.33,2.13,6.71,2.94,10.19.49,1.94.98,3.88,1.48,5.82.25.99.51,1.97.77,2.99,1.59,5.82,3.58,11.51,5.55,17.21,1.35,3.91,2.63,7.69,3.27,11.79h-2c-.32-.82-.64-1.64-.97-2.48-1.5-3.82-3.01-7.64-4.53-11.45-.27-.68-.54-1.37-.82-2.07-3.53-8.89-7.16-17.68-11.53-26.2-.78-1.56-1.48-3.17-2.15-4.79.33-.99.66-1.98,1-3q-.87-1.98-2-4c-.37-1.32-.71-2.66-1-4Z" fill="#eaebe9" stroke-width="0"/><path d="m126.05,173.22c0,.64,0,1.29.01,1.95.03,2.97.1,5.95.18,8.92,0,1.01.01,2.03.02,3.07.24,8.37,2.16,15.51,8.29,21.49q3.72,2.33,7.5,4.56c-.33.99-.66,1.98-1,3-5.4-.14-8.35-2.28-12.1-5.9-6.59-7.28-7.34-13.96-7.4-23.54,0-.98-.01-1.97-.02-2.98q.13-7.1,1.99-9.38,1.53-1.2,2.53-1.2Z" fill="#141414" stroke-width="0"/><path d="m64.05,77.22c.14.6.29,1.2.44,1.81.45,1.75.99,3.47,1.56,5.19q-.65,1.95-1.74,4.19-.61,1.28-1.22,2.58c-.45.92-.89,1.84-1.35,2.79-5.91,12.56-10.84,25.44-15.69,38.44-.66-.33-1.32-.66-2-1,2.11-7.13,4.32-14.23,6.59-21.31,1.39-4.38,2.72-8.76,3.95-13.19.25-.9.51-1.8.77-2.72.49-1.73.96-3.46,1.41-5.19,1.48-5.22,3.08-8.1,7.27-11.59Z" fill="#ececec" stroke-width="0"/><path d="m84.05,42.22q-.16,2.26-1,5-2.37,1.96-5.5,3.81c-.56.34-1.11.67-1.69,1.02-1.78,1.07-3.58,2.12-5.37,3.17-1.18.7-2.36,1.41-3.54,2.12-2.27,1.36-4.54,2.71-6.81,4.05-3.73,2.22-7.41,4.51-11.08,6.83l-2-2c.86-3.79,1.42-5.58,4.61-7.9q1.62-.79,3.28-1.6c.58-.29,1.16-.59,1.76-.89,1.86-.93,3.72-1.83,5.6-2.73,1.85-.91,3.7-1.83,5.55-2.75,1.69-.84,3.38-1.66,5.07-2.48q3.22-1.62,6.4-3.85,2.72-1.8,4.72-1.8Z" fill="#eee" stroke-width="0"/><path d="m63.05,172.22c-.14,3.23-.29,6.46-.44,9.69-.04.91-.08,1.82-.12,2.76-.04.89-.08,1.77-.13,2.69-.04.81-.07,1.62-.11,2.46-.22,2.53-.66,4.93-1.21,7.4-7.74.39-14.52-1.06-22-3q.5-1.49,1-3c4.36-1.24,7.46-.66,11.81.44q1.74.43,3.52.87c.88.23,1.76.46,2.67.69-.05-1.1-.09-2.19-.14-3.32-.04-1.45-.07-2.91-.11-4.36q-.05-1.08-.1-2.19c-.07-3.97.08-5.71,2.3-9.15q2.05-1.98,3.05-1.98Z" fill="#1a1a19" stroke-width="0"/><path d="m28.05,40.22h2c.67,1.29,1.34,2.58,2,3.88.37.72.74,1.44,1.12,2.18q.88,1.95.88,3.95c1.04-.35,2.07-.7,3.14-1.06,1.37-.46,2.74-.92,4.11-1.38.68-.23,1.36-.46,2.07-.7,3.2-1.07,6.38-2.13,9.68-2.87-.66.62-1.32,1.24-2,1.88-4.06,4.03-7.48,8.63-11,13.12-3.37-3.16-6.4-6.53-9.38-10.06-.71-.84-1.42-1.67-2.15-2.54q-1.48-2.4-1.2-4.71c.24-.56.48-1.12.73-1.69Z" fill="#ebebeb" stroke-width="0"/><path d="m165.05,40.22l2,1c-.46,5.03-2.9,7.99-5.94,11.81-.46.6-.91,1.19-1.38,1.81-1.17,1.5-2.42,2.95-3.68,4.38h-2c-1.37-1.53-2.68-3.13-3.94-4.75-.69-.88-1.38-1.76-2.09-2.67-1.67-2.18-3.33-4.37-4.97-6.58.56.19,1.11.39,1.69.59,5.06,1.73,10.11,3.18,15.31,4.41.27-.72.54-1.44.81-2.19,1.18-2.79,2.58-5.25,4.19-7.81Z" fill="#ececeb" stroke-width="0"/><path d="m142.05,93.22c3.5,3.13,5.27,6.98,7.43,11.09q1.5,2.87,3.14,5.31,3.49,5.42,3.29,9.15c-.49,2.22-1.07,4.31-1.86,6.44h-2c-1.43-4.23-2.85-8.47-4.27-12.71-.48-1.44-.97-2.88-1.46-4.32-.7-2.07-1.39-4.14-2.08-6.21-.42-1.25-.84-2.49-1.27-3.78q-.92-2.98-.92-4.98Z" fill="#e4e4e3" stroke-width="0"/><path d="m108.05,55.22c4.83,3.93,9.35,8.16,13.81,12.5.58.55,1.15,1.09,1.74,1.65,3.45,3.4,5.26,6.03,6.44,10.85.65,1.67,1.32,3.34,2,5q-1.83-.22-4-1-1.39-1.93-2.69-4.44c-3.36-5.95-7.66-10.6-12.31-15.56-2.02-2.31-4.01-4.65-6-7l1-2Z" fill="#393937" stroke-width="0"/><path d="m51.05,94.22q1,2,.2,4.89c-.42,1.2-.85,2.41-1.29,3.65q-.34.96-.68,1.94c-.72,2.05-1.44,4.1-2.17,6.14-.49,1.39-.97,2.78-1.46,4.16-1.19,3.41-2.4,6.81-3.6,10.21-2.82-2.82-3.32-5.09-4-9q1.38-3.21,3.56-6.38c.75-1.13,1.5-2.25,2.25-3.38.72-1.07,1.44-2.14,2.18-3.25,1.02-1.76,2.03-3.53,3-5.31.39-.72.78-1.44,1.19-2.18.27-.5.54-1,.81-1.51Z" fill="#e8e8e7" stroke-width="0"/><path d="m129.05,118.22c6.02,9.03,4.21,22.55,4,33q-.99.49-2,1c-2.65-11.23-2.2-22.53-2-34Z" fill="#0a0a0a" stroke-width="0"/><path d="m110.05,43.22c4.14.6,7.18,2.01,10.81,4.06.98.55,1.95,1.1,2.96,1.66.74.42,1.47.84,2.23,1.28-.33,1.65-.66,3.3-1,5-2.48-1.28-4.96-2.58-7.44-3.88-.71-.36-1.41-.73-2.14-1.11q-5.31-2.79-6.42-5.02l1-2Z" fill="#e9e9e6" stroke-width="0"/><path d="m110.05,12.22c.33.99.66,1.98,1,3,1.01.1,2.02.21,3.06.31,4.15.72,7.15,1.91,10.94,3.69v2c-1.15-.14-2.31-.29-3.5-.44-.73-.08-1.46-.17-2.21-.25q-2.29-.31-4.43-.77-2.33-.52-5.86-.54-3.02,2.27-5,5c.56-4.76,2.59-8.59,6-12Z" fill="#1b1b19" stroke-width="0"/><path d="m140.05,104.22h2c1.32,3.89,2.63,7.79,3.94,11.69.37,1.1.75,2.21,1.13,3.34.36,1.07.72,2.13,1.08,3.23.33.98.66,1.96,1,2.97.79,2.58,1.37,5.12,1.85,7.77h-2c-1.71-4.08-3.39-8.16-5.06-12.25-.49-1.16-.97-2.32-1.47-3.51-.45-1.12-.91-2.23-1.38-3.38-.42-1.03-.85-2.05-1.29-3.11-.82-2.82-.84-4.06.2-6.75Z" fill="#dddcdc" stroke-width="0"/><path d="m174.05,84.22l2,1-1.88,1.88c-2.84,4.17-3.4,8.2-4.12,13.12h-2q-4-6.75-4-9,2.19-1.73,5-3.62c.93-.63,1.86-1.26,2.81-1.91q1.08-.72,2.19-1.46Z" fill="#e7e6e5" stroke-width="0"/><path d="m76.05,67.22c-1.52,3.14-3.21,6.13-5,9.12-.52.87-1.03,1.74-1.56,2.63q-1.44,2.24-3.44,4.24h-2c-.55-2.86-.75-4.24,0-7q6.92-9,12-9Z" fill="#4b4a47" stroke-width="0"/><path d="m132.05,125.22c2.61,2.61,3.07,4.97,4.12,8.5.35,1.17.71,2.33,1.07,3.53q.8,2.97.8,4.97h-2c-.33,2.97-.66,5.94-1,9h-1c-.34-2.83-.67-5.67-1-8.5-.1-.79-.19-1.58-.29-2.4-.58-5.07-.8-10-.71-15.1Z" fill="#ebebea" stroke-width="0"/><path d="m90.05,9.22h19c-.66,1.65-1.32,3.3-2,5l-3-1c-2.57-.23-5.12-.42-7.69-.56-.7-.04-1.4-.09-2.13-.13-1.73-.11-3.46-.21-5.19-.31.33-.99.66-1.98,1-3Z" fill="#393a37" stroke-width="0"/><path d="m126.05,173.22c.39,6.98-.37,12.52-3,19h-1c-.08-2.6-.14-5.21-.19-7.81q-.04-1.11-.08-2.24-.07-5.48,1.71-7.96,1.55-.99,2.55-.99Z" fill="#020202" stroke-width="0"/><path d="m85.05,56.22c.33.99.66,1.98,1,3-2.97,2.97-5.94,5.94-9,9-1.32-.66-2.64-1.32-4-2,1.62-1.67,3.25-3.34,4.88-5,.9-.93,1.81-1.86,2.74-2.81q2.38-2.19,4.38-2.19Z" fill="#31312e" stroke-width="0"/><path d="m51.05,109.22c.99.33,1.98.66,3,1-2.4,7.44-5.15,14.72-8,22-.66-.33-1.32-.66-2-1,2.16-7.39,4.53-14.7,7-22Z" fill="#dfdfdf" stroke-width="0"/><path d="m20.05,44.22l1,4c-.78.45-1.57.91-2.38,1.38q-2.66,1.51-4.62,3.62l-1-1-2,3c-.66-1.65-1.32-3.3-2-5,1.45-1.01,2.91-2,4.38-3q1.22-.84,2.46-1.69,2.16-1.31,4.16-1.31Z" fill="#171817" stroke-width="0"/><path d="m125.05,2.22c3.3.99,6.6,1.98,10,3-.66,1.32-1.32,2.64-2,4-3.81-.67-7.35-1.73-11-3,.66-.33,1.32-.66,2-1,.33-.99.66-1.98,1-3Z" fill="#1a1b19" stroke-width="0"/><path d="m120.05,68.22c5.07,1.99,7.58,5.81,9.75,10.62q1.25,3.38,1.25,6.38c-3.32-1.11-3.62-1.48-5.25-4.38q-.53-.91-1.08-1.84-.67-1.79.33-4.79-.97-1.68-2.44-3.19c-.85-.93-1.69-1.86-2.56-2.81Z" fill="#555552" stroke-width="0"/><path d="m161.05,16.22q2.04.46,4.19,1.38c.72.3,1.43.59,2.17.9q.81.36,1.64.73c-.66,1.32-1.32,2.64-2,4-2.97-.99-5.94-1.98-9-3v-2c.99-.66,1.98-1.32,3-2Z" fill="#1b1b19" stroke-width="0"/><path d="m175.05,64.22h2c1.46,1.97,2.81,3.93,4.12,6,.37.57.75,1.14,1.13,1.73.92,1.42,1.83,2.84,2.75,4.27l-2,2c-1.16-1.39-2.3-2.78-3.44-4.19-.64-.78-1.28-1.55-1.93-2.36-1.7-2.57-2.25-4.43-2.63-7.46Z" fill="#dededd" stroke-width="0"/><path d="m82.05,16.22c-2,2-3.48,2.81-6,4-.68.37-1.36.74-2.06,1.12q-1.94.88-4.94.88v-3c1.41-.7,2.83-1.39,4.25-2.06.79-.38,1.58-.77,2.39-1.16,2.62-.86,3.81-.71,6.36.22Z" fill="#2a2a28" stroke-width="0"/><path d="m28.05,40.22h2c.67,1.29,1.34,2.58,2,3.88.37.72.74,1.44,1.12,2.18q.88,1.95.88,3.95c.99.33,1.98.66,3,1-1.32.33-2.64.66-4,1-1.04-1.24-2.05-2.49-3.06-3.75-.57-.7-1.14-1.39-1.72-2.11q-1.21-2.14-.9-4.41c.23-.57.45-1.14.68-1.73Z" fill="#dfe0de" stroke-width="0"/><path d="m40.05,23.22h2c-.12,1.42-.24,2.83-.38,4.25-.07.79-.14,1.58-.21,2.39-.43,2.45-1.2,4.21-2.41,6.36h-2c.48-4.71.97-8.67,3-13Z" fill="#272726" stroke-width="0"/><path d="m18.05,64.22l2,1c-1.49,3.28-3.39,5.93-5.62,8.75q-.95,1.2-1.91,2.42c-.48.6-.96,1.21-1.46,1.83l-1-3q1.65-2.7,3.94-5.69c.75-.99,1.5-1.99,2.28-3.01.59-.76,1.18-1.52,1.79-2.3Z" fill="#e7e7e7" stroke-width="0"/><path d="m152.05,23.22c.99.33,1.98.66,3,1,1.49,4.07,2.26,7.67,2,12h-2c-.51-1.6-1-3.21-1.5-4.81-.28-.89-.56-1.79-.84-2.71q-.66-2.48-.66-5.48Z" fill="#2a2a29" stroke-width="0"/><path d="m142.05,48.22c2.71.15,4.47.48,6.45,2.4,1.23,1.5,2.4,3.04,3.55,4.6l-3,2-3.71-4.59q-1.26-1.54-3.29-2.41v-2Z" fill="#1c1c1c" stroke-width="0"/><path d="m132.05,125.22c2.31,2.31,2.5,3.48,3.12,6.62.17.82.34,1.63.51,2.48q.18.94.37,1.9h-2v5h-1l-1-16Z" fill="#c1c1bf" stroke-width="0"/><path d="m116.05,64.22c3.88,1.47,5.01,3.45,7,7q1.58,1.75,3,3l-1,2c-1.67-1.67-3.33-3.33-5-5-.76-.7-1.53-1.4-2.31-2.12q-1.69-1.88-1.69-4.88Z" fill="#454542" stroke-width="0"/><path d="m174.05,65.22q3.88,4.75,5,7c-.99.99-1.98,1.98-3,3-1.65-1.98-3.3-3.96-5-6h2l1-4Z" fill="#1d1e1c" stroke-width="0"/><path d="m118.05,10.22c3.3.99,6.6,1.98,10,3v2q-8.57-.86-12-3h2v-2Z" fill="#232422" stroke-width="0"/><path d="m76.05,10.22c.33.99.66,1.98,1,3-3.88,1.19-6.92,2-11,2v-2q6.62-3,10-3Z" fill="#1e1e1e" stroke-width="0"/><path d="m90.05,10.22h17c.33.66.66,1.32,1,2-.66.66-1.32,1.32-2,2-.66-.33-1.32-.66-2-1-2.55-.23-5.07-.42-7.62-.56-.71-.04-1.41-.09-2.14-.13-1.74-.11-3.49-.21-5.23-.31l1-2Z" fill="#31312f" stroke-width="0"/><path d="m107.05,31.22c1.98.66,3.96,1.32,6,2-.33.99-.66,1.98-1,3q-3,1-5.19.06c-.6-.35-1.2-.7-1.81-1.06l2-4Z" fill="#e6e5e4" stroke-width="0"/><path d="m116.05,16.22l9,3v2c-1.26-.12-2.52-.25-3.81-.38q-1.06-.1-2.14-.21-2.04-.41-5.04-2.41h2v-2Z" fill="#292826" stroke-width="0"/><path d="m164.05,136.22h2c-.5,4.4-2.09,6.71-5,10v-2c-.66-.33-1.32-.66-2-1,.78-1.17,1.58-2.34,2.38-3.5.44-.65.88-1.3,1.34-1.97q.64-.76,1.29-1.53Z" fill="#272726" stroke-width="0"/><path d="m145.05,123.22c1.75,2.62,2.39,4.04,3,7-1.32.33-2.64.66-4,1-.66-1.98-1.32-3.96-2-6,.99-.66,1.98-1.32,3-2Z" fill="#1a1b19" stroke-width="0"/><path d="m133.05,36.22c1.98.66,3.96,1.32,6,2l-2,1c.33.99.66,1.98,1,3q-1.81.69-4,1-1.75-1.44-3-3h2c-.33-.99-.66-1.98-1-3l1-1Z" fill="#191a19" stroke-width="0"/><path d="m55.05,46.22l2,1q-.76.72-1.53,1.46c-.65.63-1.3,1.26-1.97,1.91-.65.63-1.3,1.25-1.97,1.9q-1.75,1.59-1.53,3.73c-1.65.66-3.3,1.32-5,2,1.48-3.45,3.44-5.65,6.12-8.25.72-.71,1.45-1.41,2.2-2.14.55-.53,1.11-1.06,1.68-1.61Z" fill="#e1e0e0" stroke-width="0"/><path d="m31.05,159.22q4,1,5.75,3.56c.41.8.82,1.61,1.25,2.44-.99.66-1.98,1.32-3,2l-4-8Z" fill="#1e1e1e" stroke-width="0"/><path d="m173.05,87.22h2c-.33,2.97-.66,5.94-1,9-.33-.99-.66-1.98-1-3h-2q.88-4.88,2-6Z" fill="#282826" stroke-width="0"/><path d="m70.05,14.22q2.47.99,5,2-3.75,3-6,3c-.33.99-.66,1.98-1,3-.2-3.72-.15-4.77,2-8Z" fill="#eae9e8" stroke-width="0"/><path d="m28.05,136.22q1.81.12,4,1,1.75,3.06,3,6h-4q-3-4.07-3-7Z" fill="#252624" stroke-width="0"/><path d="m65.05,75.22h2q.62,2.88,1,6c-.66.66-1.32,1.32-2,2h-2c-.04-2.33-.04-4.67,0-7l1-1Z" fill="#888985" stroke-width="0"/><path d="m68.05,72.22c.99.33,1.98.66,3,1-.66,1.98-1.32,3.96-2,6h-2q-.62-2.38-1-5l2-2Z" fill="#63625f" stroke-width="0"/><path d="m158.05,121.22c1.38,1.29,2.71,2.63,4,4v2h-5c.33-1.98.66-3.96,1-6Z" fill="#dcdcdb" stroke-width="0"/><path d="m63.05,80.22l2,1q1,3,.06,5.19-.53.9-1.06,1.81h-3l2-8Z" fill="#dadad8" stroke-width="0"/><path d="m114.05,54.22q4.75,1.88,7,3v2c-.99.33-1.98.66-3,1-1.38-1.29-2.71-2.63-4-4v-2Z" fill="#d9d8d6" stroke-width="0"/><path d="m135.05,193.22c1.65.33,3.3.66,5,1v3h-6l1-4Z" fill="#0c0c0b" stroke-width="0"/><path d="m35.05,121.22l2,1v5h-4c.51-2.17,1-4,2-6Z" fill="#dfe0de" stroke-width="0"/><path d="m88.05,26.22h2c-.33,1.65-.66,3.3-1,5h-3q.88-3.88,2-5Z" fill="#040404" stroke-width="0"/><path d="m181.05,155.22l3,2c-.33,1.65-.66,3.3-1,5-.33-.66-.66-1.32-1-2h-2c.33-1.65.66-3.3,1-5Z" fill="#080a08" stroke-width="0"/></g></svg>