<?xml version="1.0" encoding="UTF-8"?><svg id="Layer_2" xmlns="http://www.w3.org/2000/svg" width="211.13" height="227.25" viewBox="0 0 211.13 227.25"><g id="Layer_1-2"><path d="m165.13.15c2.26,2.26,2.45,3.2,3.07,6.25.17.84.35,1.67.53,2.54.17.88.35,1.75.53,2.65q.27,1.31.55,2.64,1.32,6.48,1.32,9.92c.57-.02,1.14-.04,1.73-.07,7.25-.15,14.13.76,21.27,1.94,1.13.17,2.26.35,3.43.53,1.08.17,2.15.35,3.26.53.97.16,1.95.31,2.95.48q2.36.59,4.36,2.59c.56,6.73,0,13.34-1,20-.28,3.37-.46,6.64,0,10q1.98,2.23,4,4c-.47,5.33-2.12,10.55-3.56,15.69-.26.92-.51,1.84-.78,2.79-1.87,6.44-4.26,12.43-7.03,18.53-5.19,11.7-4.34,20.16-.77,32.32,1.94,7.27,2.7,14.8,3.71,22.25.91,6.69,1.89,13.35,3.12,19.99,1.87,10.21,2.48,20.07,2.31,30.44-4.7,2.79-8.79,1.99-14,1-1.47-.5-2.93-1.04-4.38-1.62q-3.93-1.5-7.62-.38c-.99.66-1.98,1.32-3,2q-3.56.25-7,0c-.66-.66-1.32-1.32-2-2-5.05-.82-7.73.21-11.81,3-.75.56-1.5,1.11-2.27,1.69q-1.92,1.31-3.92,1.31c-.12.77-.24,1.54-.37,2.34-.17,1-.34,2.01-.51,3.04q-.24,1.5-.49,3.02-.63,2.6-2.63,4.6c-5.95.58-11.27-.6-17.08-1.86-5.52-1.16-10.94-1.53-16.57-1.81-3.38-.33-6.34-1.06-9.6-2.01-6.71-1.83-11.71-.73-18.17,1.54-4.96,1.7-8.52,2.24-13.77,1.59-4.72-.57-6.74-.3-10.68,2.57-4.27,1.98-9.36,1.65-14,1.81q-3-.18-4.13,1.18-2.5.12-5,0c-1.88-1.88-1.53-5.16-1.81-7.69q-1.01-7.34-5.19-13.31c-2.28-1.55-4.52-2.76-7-4v-2c-.72,0-1.44.01-2.19.02-3.25.02-6.5.03-9.75.05-1.14,0-2.27.02-3.44.03-1.08,0-2.16,0-3.27,0-1,0-2,.01-3.03.02q-2.32-.11-3.32-1.11c-.22-4.14-.11-8.28-.04-12.43.03-1.8.05-3.61.06-5.41.26-27.79,6.28-54.62,14.16-81.22,2.65-9.56-.69-18.71-3.18-27.95-2.43-9.12-4.52-18.22-6.25-27.5-.18-.92-.35-1.84-.53-2.79-.96-5.31-1.68-10.32-1.22-15.71,3.11-2.07,3.58-2.23,7.05-2.05.78.02,1.56.05,2.36.07,1.63.07,3.26.15,4.89.23,5.39.15,7.58-.51,11.69-4.25q2.28-.43,4.5-.31,1.17.04,2.36.09,2.14.22,4.89.97c.74.08,1.49.17,2.25.25.68-.64,1.36-1.28,2.06-1.94,3.57-2.51,4.65-2.08,8.88-1.69q3.14.26,6.06-.38c2.85-2.98,4.38-6.25,6-10,.33-.33.66-.66,1-1,3.51.35,6.68.89,10.02,2.02,5.08,1.47,10.22,1.36,15.48,1.36,1.09,0,2.17,0,3.29,0,12.05-.16,24.72-1.55,36.21-5.38,4.34-.21,7.13-.34,11.19,1.25q1.39.37,2.81.75c1.7-1.29,3.36-2.63,5-4,4.42-1.49,9.34-2.56,14-2Z" fill="#fcfcfc" stroke-width="0"/><path d="m165.13.15c2.26,2.26,2.45,3.2,3.07,6.25.17.84.35,1.67.53,2.54.17.88.35,1.75.53,2.65q.27,1.31.55,2.64,1.32,6.48,1.32,9.92c.57-.02,1.14-.04,1.73-.07,7.25-.15,14.13.76,21.27,1.94,1.13.17,2.26.35,3.43.53,1.08.17,2.15.35,3.26.53.97.16,1.95.31,2.95.48q2.36.59,4.36,2.59c.56,6.73,0,13.34-1,20-.28,3.37-.46,6.64,0,10q1.98,2.23,4,4c-.47,5.33-2.12,10.55-3.56,15.69-.26.92-.51,1.84-.78,2.79-1.87,6.44-4.26,12.43-7.03,18.53-5.19,11.7-4.34,20.16-.77,32.32,1.94,7.27,2.7,14.8,3.71,22.25.91,6.69,1.89,13.35,3.12,19.99,1.87,10.21,2.48,20.07,2.31,30.44-4.7,2.79-8.79,1.99-14,1-1.47-.5-2.93-1.04-4.38-1.62q-3.93-1.5-7.62-.38c-.99.66-1.98,1.32-3,2q-3.56.25-7,0c-.66-.66-1.32-1.32-2-2-5.05-.82-7.73.21-11.81,3-.75.56-1.5,1.11-2.27,1.69q-1.92,1.31-3.92,1.31c-.12.77-.24,1.54-.37,2.34-.17,1-.34,2.01-.51,3.04q-.24,1.5-.49,3.02-.63,2.6-2.63,4.6c-5.95.58-11.27-.6-17.08-1.86-5.52-1.16-10.94-1.53-16.57-1.81-3.38-.33-6.34-1.06-9.6-2.01-6.71-1.83-11.71-.73-18.17,1.54-4.96,1.7-8.52,2.24-13.77,1.59-4.72-.57-6.74-.3-10.68,2.57-4.27,1.98-9.36,1.65-14,1.81q-3-.18-4.13,1.18-2.5.12-5,0c-1.88-1.88-1.53-5.16-1.81-7.69q-1.01-7.34-5.19-13.31c-2.28-1.55-4.52-2.76-7-4v-2c-.72,0-1.44.01-2.19.02-3.25.02-6.5.03-9.75.05-1.14,0-2.27.02-3.44.03-1.08,0-2.16,0-3.27,0-1,0-2,.01-3.03.02q-2.32-.11-3.32-1.11c-.22-4.14-.11-8.28-.04-12.43.03-1.8.05-3.61.06-5.41.26-27.79,6.28-54.62,14.16-81.22,2.65-9.56-.69-18.71-3.18-27.95-2.43-9.12-4.52-18.22-6.25-27.5-.18-.92-.35-1.84-.53-2.79-.96-5.31-1.68-10.32-1.22-15.71,3.11-2.07,3.58-2.23,7.05-2.05.78.02,1.56.05,2.36.07,1.63.07,3.26.15,4.89.23,5.39.15,7.58-.51,11.69-4.25q2.28-.43,4.5-.31,1.17.04,2.36.09,2.14.22,4.89.97c.74.08,1.49.17,2.25.25.68-.64,1.36-1.28,2.06-1.94,3.57-2.51,4.65-2.08,8.88-1.69q3.14.26,6.06-.38c2.85-2.98,4.38-6.25,6-10,.33-.33.66-.66,1-1,3.51.35,6.68.89,10.02,2.02,5.08,1.47,10.22,1.36,15.48,1.36,1.09,0,2.17,0,3.29,0,12.05-.16,24.72-1.55,36.21-5.38,4.34-.21,7.13-.34,11.19,1.25q1.39.37,2.81.75c1.7-1.29,3.36-2.63,5-4,4.42-1.49,9.34-2.56,14-2Zm-96,12c-.34.64-.68,1.28-1.02,1.93q-.67,1.24-1.35,2.5c-.44.82-.88,1.65-1.34,2.5q-1.29,2.07-3.29,3.07c-1.92-.06-3.83-.15-5.75-.25q-5.1-.16-9.19,2.81-3.06,2.44-6.13,2.37c-2.28-.28-4.55-.62-6.81-1.03q-3.33-.26-5.5,2.54c-2.75,2.68-3.05,2.91-6.61,3.04-1.44-.03-2.88-.09-4.32-.18-.74-.02-1.48-.05-2.24-.07-1.82-.06-3.63-.15-5.44-.24.56,7.96,1.72,15.68,3.25,23.5.22,1.13.43,2.26.66,3.43,1.36,6.91,2.99,13.67,4.9,20.45,3.37,12.26,2.21,21.77-1.1,33.96-7.43,27.82-11.23,52.98-10.71,81.66h19c1.65-7.59,3.3-15.18,5-23h5c-.19.94-.39,1.89-.59,2.86-1.63,8.03-3.13,16.05-4.41,24.14,10.91,2.76,21.66,5.38,32.87,6.54,3.23.47,6.07,1.34,9.13,2.46v4c-.65-.09-1.3-.17-1.97-.26-2.99-.39-5.98-.79-8.97-1.18q-1.53-.2-3.1-.41c-5.98-.78-11.97-1.51-17.97-2.15.99,3.96,1.98,7.92,3,12q10.72.72,20-4c4.08-1.14,7.63-1.05,11.81-.44q3.34.82,6.19-1.56-1.49-.99-3-2-.69-2.12-1-4c3.65.42,7.29.87,10.94,1.31,1.02.12,2.04.24,3.1.36,5.56.69,10.5,1.75,15.76,3.65,4.01,1.22,8.11,1.44,12.27,1.74q9.5.73,14.18,2c3.44.86,6.23,1.12,9.75.94,2.92-9.64,4.76-19.13,6.05-29.12.11-.87.22-1.73.34-2.62.09-.77.19-1.55.29-2.34q.33-1.92,1.33-3.92h3c.1,5.16-.13,9.9-1,15-.08,2.67-.05,5.32,0,8q.87-.43,1.76-.88,8.25-3.92,13.24-3.12c.85.52,1.69,1.03,2.56,1.56q2.38,1.73,5.25,1.12,1.08-.34,2.19-.69v-2c4.89-1.18,7.96-.69,12.69.94q4.56,1.6,9.31,2.06c.16-12.07-.33-22.87-3.49-34.53-1.38-5.35-2.04-10.6-2.51-16.09-.62-7.16-1.88-13.53-4.1-20.39-3.75-12.37-1.82-21.76,3.35-33.36q7.88-15.32,8.75-31.62-.77-.87-1.56-1.75c-3.73-5.84-.99-14.82.12-21.23.4-2.74.47-5.26.44-8.02q-1.56-.2-3.15-.41c-3.9-.51-7.79-1.03-11.69-1.56-1.68-.22-3.36-.45-5.03-.67-8.2-1.07-16.06-2.13-23.93-4.77-4.07-1.09-8.2-.91-12.39-.9-8.55-.18-14.83-1.77-22.55-5.32-4.4-1.84-8.53-2.34-13.27-2.37,2.8,2.94,5.69,5.34,9,7.69,3.98,2.84,7.88,5.76,11.75,8.75,6.1,4.58,12.48,8.44,19.06,12.28,4.23,2.48,8.43,5.01,12.63,7.53q1.24.74,2.51,1.5c1.59.95,3.18,1.91,4.77,2.87,1.53.92,3.06,1.84,4.59,2.75q1.07.65,2.17,1.31c.63.38,1.27.75,1.92,1.14q1.61,1.18,3.61,4.18c-.19,2.43-.52,4.62-1,7-.16.85-.33,1.7-.49,2.57-.59,2.98-1.2,5.95-1.82,8.93-.22,1.07-.45,2.14-.68,3.24-1.48,6.98-3.14,13.86-5.06,20.73-.84,3.12-1.56,6.24-2.24,9.4-1.77,8.02-4.03,15.87-6.52,23.7-.31,1.01-.61,2.02-.93,3.06-3.68,11.22-10.15,16.86-20.01,22.94q-1.32.83-2.67,1.68c-1.74,1.09-3.48,2.19-5.22,3.27-2.02,1.27-4.02,2.57-6,3.91q-1.44.96-2.92,1.95c-.81.54-1.61,1.09-2.44,1.65q-2,.98-5-.02c.6-3.55.91-3.93,3.96-6.33,1.28-.84,2.56-1.67,3.86-2.48.67-.44,1.35-.87,2.04-1.32,5.09-3.27,10.28-6.35,15.56-9.29,9.06-5.5,11.93-12.7,15.09-22.38.3-.92.61-1.84.92-2.79,2.1-6.53,3.77-13.08,5.16-19.79,1.09-5.27,2.43-10.43,3.92-15.6,1.78-6.24,3.39-12.49,4.81-18.81.17-.75.34-1.49.52-2.26.81-3.7,1.37-7.13,1.17-10.92-7.32-2.25-15.66-4.12-22.82-.62-1.68,1.08-3.33,2.21-4.93,3.41q-2.25,1.21-4.73,1.24c-3.43-1.4-5.23-3.69-7.46-6.53-.46-.57-.93-1.14-1.41-1.73-1.02-1.25-2.03-2.5-3.03-3.76-2.28-2.84-4.61-5.64-6.94-8.45-3.75-4.54-7.49-9.09-11.19-13.67-4.44-5.5-9.04-10.77-13.87-15.93-2.1-2.25-3.91-4.4-5.63-6.97-2.64-.66-5.14-1.16-7.81-1.56-4.64-.73-8.83-1.66-13.19-3.44h-4Z" fill="#0b0b0b" stroke-width="0"/><path d="m57.13,28.15l4,1c.91,3.64.99,6.28.22,9.94-.18.91-.37,1.83-.56,2.77-.2.94-.4,1.88-.6,2.85-.39,1.88-.77,3.75-1.15,5.63q-.26,1.24-.53,2.51-.49,2.57-.38,6.3c.46-.39.93-.78,1.41-1.18,6.84-5.54,14.21-10.09,21.72-14.66,1.67-1.03,3.31-2.09,4.96-3.17q1.29-.83,2.61-1.68c.73-.48,1.45-.96,2.2-1.45,2.72-1.11,4.34-.66,7.11.14v4c-2.39,1.85-4.67,3.39-7.25,4.94-1.55.96-3.11,1.92-4.66,2.89-.83.51-1.65,1.02-2.5,1.54-2.7,1.7-5.33,3.48-7.96,5.28-.89.6-1.77,1.2-2.68,1.82-1.73,1.17-3.45,2.36-5.17,3.56q-5.98,4.01-10.36,3.84-1.2-.43-2.42-.86c-.06,1.28-.12,2.56-.19,3.88-.79,8.26-3.47,16.19-5.81,24.12-1.32-.33-2.64-.66-4-1-.35-6.84.69-12.76,2.22-19.43.69-3.15,1.21-6.25,1.66-9.45.97-6.63,2.28-13.18,3.62-19.75.21-1.07.43-2.14.65-3.24.21-1.01.42-2.01.63-3.05.19-.91.37-1.81.56-2.75q.65-2.34,2.65-5.34Z" fill="#0c0c0c" stroke-width="0"/><path d="m109.13,26.15c3.73,1.64,6.68,3.98,9.88,6.5,14.08,10.91,28.48,19.93,44.12,28.5v1c-.8.1-1.59.2-2.41.3-6.29.89-10.59,1.76-15.59,5.7h-2q-1.41-1.62-3.06-3.88c-2.59-3.43-5.27-6.66-8.19-9.81-4.18-4.57-7.99-9.36-11.78-14.25-3.13-4.04-6.38-7.92-9.83-11.71q-1.14-1.36-1.14-2.36Z" fill="#f4f3f3" stroke-width="0"/><path d="m47.13,103.15c.99.33,1.98.66,3,1,.16,5.08-.36,9.65-1.56,14.56-.17.72-.34,1.43-.52,2.17-2.24,9.02-5.16,17.84-8.09,26.66-.57,1.79-1.09,3.6-1.57,5.42-.24.9-.48,1.8-.72,2.72-.2.81-.4,1.62-.61,2.45-1.17,2.54-2.36,3.04-4.93,4.01q-1-1-1.31-4.19c.14-11.03,5.55-22.86,8.94-33.25q2.93-8.88,5.59-17.85.79-2.71,1.79-3.71Z" fill="#0d0d0d" stroke-width="0"/><path d="m161.13,8.15c.99,4.62,1.98,9.24,3,14-1.98-.31-3.96-.62-6-.94-4.75-.7-9.36-1.16-14.15-1.31-7.83-.26-13.99-1.82-20.85-5.76,4.57-3.04,8.97-4.19,14.38-3.69q2.62.69,4.62,1.69,5.16.52,9.5-2,2.5-2,9.5-2Z" fill="#f0f0f0" stroke-width="0"/><path d="m96.45,50.47c.56.23,1.11.45,1.69.69-1.5,4.29-4.64,6.06-8.31,8.38-1.35.87-2.69,1.74-4.04,2.61q-1.1.71-2.23,1.44c-2.68,1.75-5.31,3.56-7.94,5.39-.94.64-1.88,1.29-2.84,1.95-1.86,1.28-3.72,2.57-5.57,3.87-.86.58-1.72,1.17-2.6,1.77-.76.53-1.53,1.06-2.31,1.6q-2.14,1.01-4.42.68-.85-.33-1.72-.66v-3c2.08-1.82,4.12-3.41,6.38-5,.66-.48,1.32-.95,2.01-1.45,7.34-5.21,15.02-9.88,22.77-14.45,1.59-.95,3.16-1.94,4.73-2.93q2.12-1.17,4.43-.86Z" fill="#111" stroke-width="0"/><path d="m41.13,207.15c7.03.76,14.05,1.64,21.06,2.56q1.58.21,3.2.42c2.58.34,5.16.68,7.74,1.02v1q-.87.26-1.76.52-5.31,1.64-9.93,4.67c-5.43,2.97-11.26,2.11-17.31,1.81l-3-12Z" fill="#ededed" stroke-width="0"/><path d="m61.13,108.15q2.06.44,4,1c-.61,3.7-1.66,6.79-3.21,10.2-.44.96-.88,1.93-1.33,2.92-.46.99-.92,1.99-1.39,3.01-.46,1-.91,2-1.38,3.04q-3.4,7.42-5.68,10.84c-1.32-.33-2.64-.66-4-1,.56-4.29,1.58-7.7,3.47-11.58.49-1.01.98-2.03,1.48-3.07q.77-1.56,1.55-3.16c.51-1.06,1.02-2.12,1.55-3.22q3.79-7.81,4.95-8.97Z" fill="#111112" stroke-width="0"/><path d="m81.32,30.53q.9.31,1.81.62c-.3,3.17-1.06,4.06-3.43,6.29-.99.77-1.98,1.54-3,2.34q-3.91,3.04-7.56,6.38-2.12-.38-4-1c.48-4.22,2.76-5.93,5.88-8.62.88-.78,1.77-1.55,2.68-2.35q4.96-4.11,7.63-3.65Z" fill="#121213" stroke-width="0"/><path d="m47.13,144.15c1.68.29,3.34.62,5,1,1.79,4.17.01,7.75-1.44,11.75-.24.7-.49,1.39-.74,2.11-.6,1.72-1.21,3.43-1.83,5.14h-3q-.12-6.75,1-9c.04-1.69.04-3.38,0-5.06-.04-1.65-.05-3.29,0-4.94l1-1Z" fill="#131312" stroke-width="0"/><path d="m137.13,182.15c-.33,2.98-.9,3.91-3.18,5.96-.89.61-1.78,1.22-2.7,1.86-.88.63-1.77,1.25-2.68,1.89-.81.43-1.61.85-2.45,1.29l-3-1c.36-2.78.79-3.81,2.93-5.7.79-.51,1.58-1.02,2.39-1.55q1.17-.78,2.36-1.58,2.32-1.17,6.32-1.17Z" fill="#151515" stroke-width="0"/><path d="m185.13,53.15q2.47.5,5,1c.33,2.64.66,5.28,1,8-1.65.33-3.3.66-5,1-1.61-3.21-1.06-6.44-1-10Z" fill="#191919" stroke-width="0"/><path d="m189.13,39.15l4,1c-1.06,3.4-2.01,6.01-4,9-.99-.33-1.98-.66-3-1,.5-3.73.87-5.81,3-9Z" fill="#121212" stroke-width="0"/><path d="m112.13,194.15q2.12.38,4,1c-.57,2.87-.86,3.86-3,6q-2.62-.38-5-1c1.15-2.47,2.05-4.05,4-6Z" fill="#181818" stroke-width="0"/><path d="m109.13,26.15c3.58,1.65,6.75,3.78,10,6-.99.99-1.98,1.98-3,3-1.17-1.31-2.34-2.62-3.5-3.94-.65-.73-1.3-1.46-1.97-2.21q-1.53-1.85-1.53-2.85Z" fill="#dadad9" stroke-width="0"/><path d="m4.13,22.15c4.29.33,8.58.66,13,1v1q-6.43.49-13,1v-3Z" fill="#dadada" stroke-width="0"/></g></svg>