<?xml version="1.0" encoding="UTF-8"?>
<svg id="Layer_2" data-name="Layer 2" xmlns="http://www.w3.org/2000/svg" viewBox="0 0 103.92 94.5">
  <defs>
    <style>
      .cls-1 {
        fill: none;
        stroke: #231f20;
        stroke-linecap: round;
        stroke-linejoin: round;
        stroke-width: 2px;
      }
    </style>
  </defs>
  <g id="Layer_1-2" data-name="Layer 1">
    <g>
      <g>
        <polyline class="cls-1" points="80.21 36.66 77.59 39.56 72.1 45.62 58.87 33.64 61.33 30.94 67 24.68"/>
        <path class="cls-1" d="M81.26,35.51l-1.05,1.15-13.22-11.98,1.04-1.15c1.63-1.8,4.41-1.94,6.2-.31l1.68,1.52,3.36,3.04,1.68,1.52c1.8,1.63,1.94,4.4.31,6.2Z"/>
        <line class="cls-1" x1="65.35" y1="33.49" x2="62.9" y2="36.19"/>
        <line class="cls-1" x1="71.61" y1="39.16" x2="69.17" y2="41.87"/>
        <line class="cls-1" x1="70.88" y1="33.67" x2="65.76" y2="39.33"/>
        <path class="cls-1" d="M75.92,24.74L98.03,1.65c.67-.7,1.64-.85,2.19-.35h0c.55.5.5,1.48-.13,2.22l-20.82,24.27"/>
      </g>
      <path class="cls-1" d="M11.3,36.1c-.27.52-.51,1.07-.72,1.62l-4.07,15.1-5.5,7.23c0,3.22,4.29,2.14,4.65,3.33.36,1.19-.12,1.91,0,2.98.11,1.07,1.07,1.31,1.07,1.66s-.95,1.43-.47,2.03c.47.6,1.31,1.31.71,6.19-.6,4.88,16.85,3.69,16.85,3.69l1.13,6.91"/>
      <path class="cls-1" d="M11.3,36.1s.94,9.52,9.54,12.93"/>
      <path class="cls-1" d="M24.78,39.86s2.42,6.85,10.63,8.84"/>
      <path class="cls-1" d="M81.22,40.12c8.59.93,16.41-.9,19.04-2.36"/>
      <path class="cls-1" d="M6.14,39.54c6.82-25.15,43.23-25.9,54.46-9.39.24.27.47.53.72.79"/>
      <path class="cls-1" d="M47.48,30.22s22.13,6.81,18.55,30.83c-3.59,24.02,7.71,32.45,7.71,32.45"/>
      <path class="cls-1" d="M72.77,48.21l-3.11,5.39c-1.38,2.4.35,5.39,3.11,5.39h0c2.77,0,4.5-2.99,3.11-5.39l-3.11-5.39Z"/>
      <path class="cls-1" d="M28.39,52.1c1.08,5.16,5.5,9.46,10.69,10.39"/>
      <path class="cls-1" d="M41.31,50.8c3.53,3.69,3.84,9.34,2.75,14.25s-3.32,9.56-4.21,14.51c-.89,4.95-.12,10.65,3.81,13.93"/>
      <path class="cls-1" d="M49.82,42.82c4.17,3.87,5.51,10.58,5.34,16.62-.17,6.04-1.53,11.93-1.5,17.98.03,6.05,1.84,12.74,6.33,16.07"/>
      <path class="cls-1" d="M76.66,49.15c1.12.34,2.25.62,3.37.84,7.05,1.37,14.52.49,21.06-2.47"/>
      <path class="cls-1" d="M60.82,39.54c2.22,2.32,4.88,4.39,7.79,6.08"/>
      <path class="cls-1" d="M79.31,59.14c6.32,2.25,14.36,3.13,23.61.26"/>
      <path class="cls-1" d="M66.15,50.73c.85.94,1.99,2.01,3.39,3.09"/>
    </g>
  </g>
</svg>