<?xml version="1.0" encoding="UTF-8"?><svg id="Layer_2" xmlns="http://www.w3.org/2000/svg" width="925.03" height="656.22" viewBox="0 0 925.03 656.22"><g id="Layer_1-2"><path d="m222.03.09v2c1.28.1,2.55.2,3.87.31,5.31.6,10.14,2.03,15.19,3.75.91.31,1.82.61,2.76.93,7.81,2.72,15.09,6.14,22.37,10.05,1.99,1.06,3.99,2.11,6.01,3.14q.95.49,1.91.99c1.94.86,3.81,1.38,5.89,1.84v2q1.3.4,2.63.81c3.28,1.16,6.16,2.54,9.22,4.2,1.1.59,2.2,1.19,3.33,1.8,1.14.62,2.27,1.24,3.44,1.88,1.11.6,2.22,1.2,3.37,1.82,5.52,2.99,10.98,6.05,16.39,9.24,4.22,2.48,8.4,4.71,12.87,6.7,1.1.49,2.2.99,3.33,1.5.8.35,1.6.7,2.42,1.07v2c.72.11,1.44.22,2.19.33,3.01.71,5.16,1.78,7.84,3.33.95.54,1.9,1.09,2.88,1.65,1,.58,2,1.16,3.03,1.76,1.03.59,2.05,1.17,3.11,1.78,2.99,1.71,5.97,3.43,8.96,5.16,2.12,1.23,4.24,2.45,6.37,3.68,1.63.94,3.26,1.89,4.89,2.84,2.53,1.38,5.04,2.48,7.74,3.49v2c.66.25,1.32.5,2,.76,3.73,1.55,7.32,3.31,10.93,5.12q1.04.51,2.09,1.03c4.21,2.1,8.08,4.44,11.97,7.1,1.57.9,3.15,1.77,4.75,2.62,10.62,5.72,21.24,11.47,31.55,17.74,3.78,2.3,7.58,4.56,11.38,6.82.71.43,1.43.86,2.16,1.3,8.41,4.98,15.65,7.54,25.56,7.76,1.23.03,2.46.06,3.72.1,1.3.03,2.59.06,3.93.1,9.33.27,18.64.61,27.94,1.44.83.07,1.67.13,2.53.2,5.55.54,9.6,2.1,14.35,5.11,1.97,3.17,1.62,6.26,1.12,9.81-.96,3.95-2.11,7.83-3.31,11.72-3.12,10.3-5.83,20.67-8.25,31.16q-.23.98-.46,1.98c-1.71,7.35-3.34,14.7-4.6,22.14-1.06,6.03-2.88,11.45-5.05,17.16-2.54,7-4.06,14.33-5.78,21.56-.73,3.04-1.52,6.06-2.3,9.09-.77,3.04-1.34,5.88-1.75,9-.48,3.07-1.43,5.42-2.75,8.22-1.21,3.14-1.63,6.41-2.13,9.73-.73,2.62-1.45,3.62-3.62,5.23-4.01,1.37-7.98.92-11.82-.83-3.6-1.95-7.04-4.12-10.51-6.29-4.83-3.03-9.81-5.69-14.86-8.32q-1.18-.62-2.39-1.25c-4.12-2.14-8.26-4.25-12.42-6.31v-2c-.97-.31-1.94-.62-2.94-.94q-3.06-1.06-4.06-2.06c-10.94-1.46-22.19-1.4-33.2-1.82-14.55-.55-29.09-1.1-43.61-2.18-16.37-1.22-32.77-1.73-49.17-2.3q-1.65-.06-3.33-.12c-2.06-.07-4.11-.14-6.17-.21-5.97-.21-11.89-.62-17.83-1.15-5.43-.45-10.86-.49-16.31-.53q-1.72-.04-3.48-.09c-11.4-.08-19.18,3.22-28.08,10.15-.69.53-1.38,1.06-2.09,1.61-7.22,5.64-12.48,11.5-16.72,19.64q1.05.09,2.12.19c4.34,1.23,7.66,3.83,10.03,7.7,3.11,7.78-.06,16.6-2.41,24.18q-.45,1.54-.91,3.1-5.32,17.71-11.84,22.83c-5.4,2.7-11.11,2.19-17,2-.12.85-.25,1.69-.38,2.56-.65,3.59-1.58,6.95-2.62,10.44.87.06,1.73.12,2.62.19,4.66,1.12,7.9,3.54,10.53,7.6,2.92,7.67.8,17.49-1.16,25.21h-2c-.08,1.28-.16,2.56-.25,3.88-.92,8.1-4.12,16.13-9.75,22.12-5.54,4.3-12.33,3.27-19,3-.99,4.41-1.97,8.83-2.89,13.25-1.88,8.87-4.12,17.48-6.96,26.1-.82,2.61-1.53,5.15-2.17,7.8-2.98,11.7-10.39,20.69-19.98,27.84q-2.1,1.2-4.06,2.12-.98.47-1.97.95-1.96.93-4.05,1.71c-2.72,1.73-3.25,3.61-4.41,6.59-.42,1.08-.85,2.16-1.28,3.27-1.49,4.1-2.86,8.24-4.21,12.39-1.31,3.84-2.87,7.55-4.46,11.29-2.08,4.92-4.1,9.86-6.12,14.8-.38.92-.75,1.84-1.14,2.78q-4.39,10.73-8.61,21.52-4.12,10.52-8.69,13.57c-3.97.42-7.18.02-11-1-.35,1.2-.7,2.39-1.06,3.62-7.61,22.62-23.46,41.99-44.49,53.25-2.17,1-4.12,1.66-6.45,2.13v2c-1.37.49-2.75.96-4.12,1.44-.77.27-1.53.53-2.32.81-5.28,1.56-10.31,1.89-15.8,1.88-1.22,0-2.44,0-3.7,0q-3.05-.13-5.05-1.13v-8c.99-.33,1.98-.66,3-1v-2c.97-.1,1.93-.2,2.93-.3,20.44-2.35,36.13-12.3,49.7-27.77,7.16-9.03,12.22-19.89,15.38-30.94-.76-.29-1.53-.58-2.31-.88q-2.69-1.12-5.69-3.12c-1.05-5.54.39-10.72,2-16,.56-3.1,1.06-6.21,1.54-9.33q.46-2.67,1.46-5.67c-.56-.17-1.11-.34-1.69-.52-11.2-3.56-18.82-7.77-24.75-18.36-3.14-7.85-3.02-18.27-.61-26.3,1.18-2.46,2.46-4.61,4.05-6.82.4-.59.79-1.18,1.2-1.79,4.39-5.92,10.71-8.82,17.8-10.21,6.28-.41,12.14-.6,18,2-.46-3.47-.89-6.67-2-10h-2c-1.64-6.28-2.39-12.2-2.38-18.69,0-.87,0-1.75,0-2.65.14-7.72,1.9-14.37,4.37-21.67.79-2.78,1.52-5.58,2.25-8.38.34-1.27.67-2.53,1.02-3.84.24-.92.48-1.84.73-2.79h2q-.05-1.53-.09-3.1c.09-3.74.62-6.71,1.6-10.3.33-1.21.65-2.42.99-3.66.36-1.29.71-2.58,1.07-3.87.36-1.33.73-2.67,1.09-4,2.58-9.48,5.29-18.93,8.09-28.34,1.55-5.21,2.98-10.43,4.26-15.72h2c.09-.68.17-1.36.26-2.06.99-6.82,2.64-13.24,4.77-19.78,1.93-5.93,3.53-11.91,5.07-17.95q.89-3.21,1.89-5.62c1.36-3.48,2.13-7.07,2.95-10.71.32-1.42.64-2.84.96-4.26.17-.74.34-1.49.51-2.25.41-1.64.87-3.26,1.37-4.88,2.34-7.59,2.72-14.69,2.66-22.61q-.01-1.92-.03-3.88c-.37-21.01-7.12-36.68-19.5-53.49-.51-.69-1.01-1.38-1.53-2.09-.46-.61-.92-1.23-1.39-1.86q-.99-1.57-.99-3.57h-2c-10.85-22.64-17.42-42.79-17.31-68.19,0-.67,0-1.34,0-2.04.04-11.17.86-21.88,3.31-32.78.2-.91.41-1.83.62-2.77,2.22-8.33,6.02-16.31,9.38-24.23h2c.11-.74.22-1.48.34-2.24,1.95-8.18,9.38-15.45,14.66-21.76.69-.83,1.38-1.65,2.09-2.5C146.52,7.92,181.89-1,222.03.09Z" fill="#fcfcfb" stroke-width="0"/><path d="m222.03.09v2c1.28.1,2.55.2,3.87.31,5.31.6,10.14,2.03,15.19,3.75.91.31,1.82.61,2.76.93,7.81,2.72,15.09,6.14,22.37,10.05,1.99,1.06,3.99,2.11,6.01,3.14q.95.49,1.91.99c1.94.86,3.81,1.38,5.89,1.84v2q1.3.4,2.63.81c3.28,1.16,6.16,2.54,9.22,4.2,1.1.59,2.2,1.19,3.33,1.8,1.14.62,2.27,1.24,3.44,1.88,1.11.6,2.22,1.2,3.37,1.82,5.52,2.99,10.98,6.05,16.39,9.24,4.22,2.48,8.4,4.71,12.87,6.7,1.1.49,2.2.99,3.33,1.5.8.35,1.6.7,2.42,1.07v2c.72.11,1.44.22,2.19.33,3.01.71,5.16,1.78,7.84,3.33.95.54,1.9,1.09,2.88,1.65,1,.58,2,1.16,3.03,1.76,1.03.59,2.05,1.17,3.11,1.78,2.99,1.71,5.97,3.43,8.96,5.16,2.12,1.23,4.24,2.45,6.37,3.68,1.63.94,3.26,1.89,4.89,2.84,2.53,1.38,5.04,2.48,7.74,3.49v2c.66.25,1.32.5,2,.76,3.73,1.55,7.32,3.31,10.93,5.12q1.04.51,2.09,1.03c4.21,2.1,8.08,4.44,11.97,7.1,1.57.9,3.15,1.77,4.75,2.62,10.62,5.72,21.24,11.47,31.55,17.74,3.78,2.3,7.58,4.56,11.38,6.82.71.43,1.43.86,2.16,1.3,8.41,4.98,15.65,7.54,25.56,7.76,1.23.03,2.46.06,3.72.1,1.3.03,2.59.06,3.93.1,9.33.27,18.64.61,27.94,1.44.83.07,1.67.13,2.53.2,5.55.54,9.6,2.1,14.35,5.11,1.97,3.17,1.62,6.26,1.12,9.81-.96,3.95-2.11,7.83-3.31,11.72-3.12,10.3-5.83,20.67-8.25,31.16q-.23.98-.46,1.98c-1.71,7.35-3.34,14.7-4.6,22.14-1.06,6.03-2.88,11.45-5.05,17.16-2.54,7-4.06,14.33-5.78,21.56-.73,3.04-1.52,6.06-2.3,9.09-.77,3.04-1.34,5.88-1.75,9-.48,3.07-1.43,5.42-2.75,8.22-1.21,3.14-1.63,6.41-2.13,9.73-.73,2.62-1.45,3.62-3.62,5.23-4.01,1.37-7.98.92-11.82-.83-3.6-1.95-7.04-4.12-10.51-6.29-4.83-3.03-9.81-5.69-14.86-8.32q-1.18-.62-2.39-1.25c-4.12-2.14-8.26-4.25-12.42-6.31v-2c-.97-.31-1.94-.62-2.94-.94q-3.06-1.06-4.06-2.06c-10.94-1.46-22.19-1.4-33.2-1.82-14.55-.55-29.09-1.1-43.61-2.18-16.37-1.22-32.77-1.73-49.17-2.3q-1.65-.06-3.33-.12c-2.06-.07-4.11-.14-6.17-.21-5.97-.21-11.89-.62-17.83-1.15-5.43-.45-10.86-.49-16.31-.53q-1.72-.04-3.48-.09c-11.4-.08-19.18,3.22-28.08,10.15-.69.53-1.38,1.06-2.09,1.61-7.22,5.64-12.48,11.5-16.72,19.64q1.05.09,2.12.19c4.34,1.23,7.66,3.83,10.03,7.7,3.11,7.78-.06,16.6-2.41,24.18q-.45,1.54-.91,3.1-5.32,17.71-11.84,22.83c-5.4,2.7-11.11,2.19-17,2-.12.85-.25,1.69-.38,2.56-.65,3.59-1.58,6.95-2.62,10.44.87.06,1.73.12,2.62.19,4.66,1.12,7.9,3.54,10.53,7.6,2.92,7.67.8,17.49-1.16,25.21h-2c-.08,1.28-.16,2.56-.25,3.88-.92,8.1-4.12,16.13-9.75,22.12-5.54,4.3-12.33,3.27-19,3-.99,4.41-1.97,8.83-2.89,13.25-1.88,8.87-4.12,17.48-6.96,26.1-.82,2.61-1.53,5.15-2.17,7.8-2.98,11.7-10.39,20.69-19.98,27.84q-2.1,1.2-4.06,2.12-.98.47-1.97.95-1.96.93-4.05,1.71c-2.72,1.73-3.25,3.61-4.41,6.59-.42,1.08-.85,2.16-1.28,3.27-1.49,4.1-2.86,8.24-4.21,12.39-1.31,3.84-2.87,7.55-4.46,11.29-2.08,4.92-4.1,9.86-6.12,14.8-.38.92-.75,1.84-1.14,2.78q-4.39,10.73-8.61,21.52-4.12,10.52-8.69,13.57c-3.97.42-7.18.02-11-1-.35,1.2-.7,2.39-1.06,3.62-7.61,22.62-23.46,41.99-44.49,53.25-2.17,1-4.12,1.66-6.45,2.13v2c-1.37.49-2.75.96-4.12,1.44-.77.27-1.53.53-2.32.81-5.28,1.56-10.31,1.89-15.8,1.88-1.22,0-2.44,0-3.7,0q-3.05-.13-5.05-1.13v-8c.99-.33,1.98-.66,3-1v-2c.97-.1,1.93-.2,2.93-.3,20.44-2.35,36.13-12.3,49.7-27.77,7.16-9.03,12.22-19.89,15.38-30.94-.76-.29-1.53-.58-2.31-.88q-2.69-1.12-5.69-3.12c-1.05-5.54.39-10.72,2-16,.56-3.1,1.06-6.21,1.54-9.33q.46-2.67,1.46-5.67c-.56-.17-1.11-.34-1.69-.52-11.2-3.56-18.82-7.77-24.75-18.36-3.14-7.85-3.02-18.27-.61-26.3,1.18-2.46,2.46-4.61,4.05-6.82.4-.59.79-1.18,1.2-1.79,4.39-5.92,10.71-8.82,17.8-10.21,6.28-.41,12.14-.6,18,2-.46-3.47-.89-6.67-2-10h-2c-1.64-6.28-2.39-12.2-2.38-18.69,0-.87,0-1.75,0-2.65.14-7.72,1.9-14.37,4.37-21.67.79-2.78,1.52-5.58,2.25-8.38.34-1.27.67-2.53,1.02-3.84.24-.92.48-1.84.73-2.79h2q-.05-1.53-.09-3.1c.09-3.74.62-6.71,1.6-10.3.33-1.21.65-2.42.99-3.66.36-1.29.71-2.58,1.07-3.87.36-1.33.73-2.67,1.09-4,2.58-9.48,5.29-18.93,8.09-28.34,1.55-5.21,2.98-10.43,4.26-15.72h2c.09-.68.17-1.36.26-2.06.99-6.82,2.64-13.24,4.77-19.78,1.93-5.93,3.53-11.91,5.07-17.95q.89-3.21,1.89-5.62c1.36-3.48,2.13-7.07,2.95-10.71.32-1.42.64-2.84.96-4.26.17-.74.34-1.49.51-2.25.41-1.64.87-3.26,1.37-4.88,2.34-7.59,2.72-14.69,2.66-22.61q-.01-1.92-.03-3.88c-.37-21.01-7.12-36.68-19.5-53.49-.51-.69-1.01-1.38-1.53-2.09-.46-.61-.92-1.23-1.39-1.86q-.99-1.57-.99-3.57h-2c-10.85-22.64-17.42-42.79-17.31-68.19,0-.67,0-1.34,0-2.04.04-11.17.86-21.88,3.31-32.78.2-.91.41-1.83.62-2.77,2.22-8.33,6.02-16.31,9.38-24.23h2c.11-.74.22-1.48.34-2.24,1.95-8.18,9.38-15.45,14.66-21.76.69-.83,1.38-1.65,2.09-2.5C146.52,7.92,181.89-1,222.03.09Zm-47.72,17.01c-2.16.94-4.27,1.59-6.53,2.24-11.38,3.74-20.79,11.05-29.75,18.75-.76.54-1.52,1.08-2.3,1.64-.56.45-1.12.9-1.7,1.36v2c-.55.22-1.11.43-1.68.66-13.76,7.97-24.37,30.52-28.52,45.27-.31,1.26-.61,2.53-.93,3.83-.17.68-.33,1.36-.5,2.05-1.32,5.56-2.24,11.15-2.98,16.82q-.39,2.38-1.39,3.38c-1.91,21.34,1.24,41.61,10.55,60.88,1.14,2.44,1.96,4.5,2.45,7.12h2c.12.72.25,1.44.38,2.19.62,2.77,1.51,5.21,2.62,7.81h2q.34,1.07.7,2.15c2.4,5.24,6.8,9.11,10.75,13.23,1.49,1.56,2.95,3.14,4.42,4.72,10.3,10.94,21.96,18.78,36.13,23.9.72.29,1.43.59,2.17.89,8.07,3.29,16.29,4.21,24.92,4.83,2.59.25,5,.65,7.54,1.21,14.69,3.12,29.54,3.32,44.5,3.41,24.8.18,49.5,1.25,74.25,2.65,1.62.09,3.24.18,4.87.27,4.59.26,9.19.52,13.78.79q1.04.06,2.1.12c6.91.4,13.79.88,20.68,1.61,3.39.32,6.75.41,10.16.49.71.02,1.42.04,2.16.05,1.5.04,3,.07,4.51.11,3.91.09,7.83.19,11.74.3.76.02,1.52.04,2.31.06,5.64.16,11.26.41,16.89.75,8.81.54,17.61.53,26.44.44q.37-1.89.75-3.81c.42-2.06.83-4.12,1.25-6.19.14-.73.29-1.47.44-2.23.49-2.49.99-4.98,1.5-7.46.16-.81.32-1.61.48-2.45,1.02-4.95,2.58-9.21,4.58-13.87.69-2.64,1.17-5.31,1.62-8,.12-.67.24-1.35.37-2.04.77-4.31,1.41-8.63,2.01-12.96h2c.5-2.42,1-4.83,1.5-7.25.14-.68.29-1.36.43-2.07.68-3.33,1.07-6.27,1.07-9.68h2c.98-4.18,1.96-8.36,2.94-12.54.33-1.42.67-2.84,1-4.26.48-2.05.96-4.1,1.44-6.14l.87-3.73c.63-2.77,1.22-5.54,1.76-8.32-6.72-4.7-13.7-8.66-20.94-12.5-6.72-3.57-13.36-7.19-19.85-11.17-2.25-1.36-4.53-2.64-6.84-3.9-2.81-1.54-5.55-3.15-8.25-4.88-4-2.54-8.15-4.77-12.32-7.02-3.51-1.94-6.92-4.02-10.32-6.15q-2.55-1.49-5.67-2.71c-4.81-2-9.14-4.78-13.56-7.5-7-4.25-14-8.38-21.25-12.19-2.77-1.46-5.54-2.92-8.31-4.38-.73-.38-1.46-.77-2.21-1.16-4.65-2.46-9.24-5.01-13.79-7.65-4.11-2.38-8.23-4.62-12.5-6.69-5.85-2.86-11.41-6.14-16.96-9.52-4.24-2.56-8.51-4.68-13.06-6.64-3.24-1.44-6.31-3.13-9.41-4.84-5.81-3.15-11.69-6.05-17.72-8.76-1.91-.86-3.81-1.75-5.69-2.67-21.97-10.65-51.17-14.89-74.07-4.68Z" fill="#0a0a0a" stroke-width="0"/><path d="m253.03,57.09c1.92,1.76,3.72,3.57,5.49,5.47q1.63,1.76,4.51,3.53v3c.61.26,1.22.51,1.84.78,2.41,1.36,3.24,2.43,4.66,4.78.43.7.86,1.39,1.3,2.11.43.73.87,1.46,1.32,2.21.44.72.88,1.44,1.34,2.18,1.2,1.97,2.39,3.94,3.54,5.94q.56.98,1.14,1.99.86,2.01.86,6.01h2c6.55,22.25,9.7,49.56-1.89,70.83-1.62,2.77-3.37,5.47-5.11,8.17-.78,1.54-1.55,3.08-2.31,4.62-9.7,17.57-27.24,28.34-45.69,34.38q-1.39.51-2.81,1.04c-17.6,5.31-37.49,1.15-53.32-7.16-14.17-7.65-25.12-17.57-32.87-31.88v-2h-2c-3.1-6.56-5.98-13.03-8-20q-.42-1.29-.85-2.61c-6.4-22.52-2.25-48.04,8.85-68.39,11.41-18.69,28.34-33.35,49.55-39.46,24.94-5.53,47.93-.48,68.45,14.46Z" fill="#f5f5f4" stroke-width="0"/><path d="m911.03,4.09q.81,2.19,1,5c-3.29,3.85-6.62,6.08-11.12,8.31-6.45,3.36-12.09,7.31-17.88,11.69-1.94,1.38-3.87,2.75-5.81,4.12-3.16,2.28-6.04,4.57-8.75,7.38-.8.83-1.61,1.65-2.44,2.5h-2c-.23.56-.45,1.11-.69,1.69-1.68,2.96-3.89,4.93-6.31,7.31-5.79,6.06-11.06,12.15-15.62,19.2q-.68.89-1.38,1.8h-2q-.39,1.08-.79,2.19c-1.27,2.93-2.78,5.23-4.65,7.81-1.86,2.57-3.6,5.06-5.16,7.81q-.69,1.08-1.4,2.19h-2c-.27.68-.54,1.36-.81,2.06-1.35,3.33-2.76,6.63-4.19,9.94h-2c-.26.7-.51,1.39-.77,2.11-1.37,3.23-3.06,6.12-4.85,9.14-6.93,11.88-14.26,25.28-17.38,38.75h-2c-.12.89-.24,1.78-.37,2.7-.59,3.1-1.43,5.35-2.76,8.18-4.31,10.02-6.93,20.64-9.88,31.12-.51,1.78-1.02,3.56-1.52,5.34-.45,1.59-.9,3.19-1.35,4.78-.2.71-.41,1.43-.62,2.17-1.08,3.88-1.93,7.72-2.51,11.71h-2q.09,1.73.19,3.5c0,3.9-.86,6.71-2.37,10.27-.85,2.3-1.32,4.48-1.76,6.89-.97,5.06-2.29,9.96-3.75,14.9-.54,1.85-1.08,3.71-1.62,5.56-.28.96-.56,1.92-.85,2.91-.85,2.97-1.67,5.95-2.48,8.94-3.05,11.19-6.33,22.27-9.99,33.28-.36,1.08-.72,2.16-1.09,3.28-2.24,6.62-4.65,13.16-7.19,19.67-.91,2.32-1.79,4.65-2.66,6.99-1.41,3.78-2.91,7.53-4.43,11.28-.63,1.57-1.23,3.14-1.8,4.73-6.98,18.85-17.84,37.99-31.96,52.36-1.99,2.17-2.98,3.86-4.25,6.45q-1.52,1.39-3.38,2.69c-2.5,1.78-4.97,3.58-7.4,5.45-6.78,5.23-13.68,9.81-21.23,13.86-.82.45-1.65.9-2.5,1.37-5.96,3-12.13,4.74-18.57,6.38q-1.24.32-2.51.64c-28.99,7-59.08.96-84.5-14.17-10.54-6.66-21.78-14.76-29.68-24.47q-2.1-2.77-4.62-4.62c-10.21-8.27-18.39-20.51-26.31-30.94-3.39-4.41-7.14-8.48-10.91-12.57-1.97-2.15-3.88-4.33-5.77-6.55-7.1-8.12-14.46-15.78-23.57-21.66-1.96-1.34-3.53-2.59-5.06-4.4q-.31-2.56,0-5,2-2,5.19-2.38c7.44.73,12.76,5.72,18.19,10.5q.99.86,1.99,1.74c4.45,3.95,8.56,8.08,12.45,12.6,2.09,2.42,4.23,4.76,6.41,7.09,3.94,4.23,7.67,8.49,11.05,13.18,3.86,5.08,8.14,9.83,12.32,14.64,1.21,1.4,2.4,2.81,3.59,4.22.6.71,1.19,1.41,1.81,2.14q.74.89,1.5,1.8c3.65,3.54,7.09,3.77,12.06,3.83,15.79-.26,28.24-9.01,39.03-19.89,13.11-13.83,20.66-31.21,26.58-49.03,1.45-4.33,2.95-8.64,4.45-12.95.31-.9.62-1.81.95-2.74.3-.86.6-1.72.91-2.6.27-.78.54-1.55.81-2.35q.71-1.81,1.71-2.81c.82-5.79.68-10.76-2.44-15.81-3.97-5.25-9.11-8.84-15.21-11.22q-2.35-.96-4.35-2.96v-4c7.83-.9,13.45,1.8,20,6,3.35,2.75,6.22,5.68,9,9,.48.54.95,1.08,1.44,1.64,4.04,5.58,3.17,12.83,2.56,19.36-.71,3.47-1.78,6.68-3,10-1.54,4.55-3.04,9.11-4.54,13.68-.51,1.55-1.02,3.09-1.53,4.64-.26.78-.51,1.57-.78,2.38-.25.76-.5,1.52-.76,2.3-.22.68-.44,1.35-.67,2.05q-.73,1.96-1.77,4.02t-1.77,5.12c-1.31,4.77-3.76,8.84-6.25,13.08-.49.84-.98,1.68-1.49,2.54-3.95,6.63-8.21,12.52-13.45,18.21-.66.76-1.32,1.52-2,2.31-10.36,11.3-25.74,20.57-41.17,21.61-.61.03-1.21.05-1.84.08,7.84,8.3,15.54,12.01,26.88,12.62,21.03-.47,37.82-13.44,52.12-27.62.8-.79,1.61-1.58,2.43-2.39,8.78-9.18,15.6-20.52,21.53-31.72,1.08-1.96,2.29-3.78,3.54-5.64,2.72-4.28,4.39-8.85,6.09-13.61,1.17-3.03,2.45-5.92,3.82-8.86,2.53-5.51,4.57-11.08,6.46-16.84.34-1.01.67-2.03,1.02-3.08,3.27-10.04,6-20.21,8.66-30.43.76-2.9,1.54-5.71,2.52-8.55,1.36-4.22,2.11-8.53,2.93-12.88,2.01-10.45,4.12-20.85,6.69-31.19.21-.87.43-1.73.65-2.63q1.54-6.06,2.66-7.18c.31-1.92.61-3.85.9-5.78,1.83-11.5,5.2-22.31,8.98-33.28.25-.75.51-1.5.77-2.27,3.16-9.27,6.75-18,11.35-26.67.69-1.38,1.38-2.76,2.05-4.14,9.2-18.57,18.54-36.91,31.95-52.86,1.36-1.73,2.71-3.46,4.06-5.19,2.89-3.62,5.92-6.91,9.25-10.12,1.7-1.7,3.21-3.47,4.75-5.31,13.6-15.7,34.76-35.22,54.94-41.38,2.33-.08,4.67-.09,7,0-.33,2.92-.52,4.54-2.68,6.62-.72.46-1.44.92-2.18,1.4-.8.52-1.6,1.05-2.42,1.59-.85.54-1.71,1.09-2.59,1.65-1.75,1.15-3.5,2.31-5.24,3.47-.85.56-1.69,1.12-2.56,1.7-4.71,3.21-8.98,6.89-13.32,10.58-.86.68-1.72,1.36-2.61,2.06-10.77,8.49-20.68,18.34-29.39,28.94-.58.69-1.17,1.39-1.77,2.11-9.53,11.59-18.06,23.91-25.24,37.08-1.46,2.66-2.95,5.29-4.44,7.92-1.51,2.67-3.01,5.36-4.51,8.04-.96,1.72-1.93,3.44-2.9,5.16q-.81,1.45-1.63,2.93c-.46.83-.93,1.66-1.41,2.52-1.02,2.09-1.64,3.96-2.09,6.23h-2c-.12.71-.23,1.42-.36,2.15-.9,3.98-2.56,7.51-4.2,11.23-4.31,10.76-7.14,21.83-9.89,33.06-.4,1.61-.8,3.22-1.19,4.83-1.13,4.58-2.25,9.16-3.37,13.74q-.42,1.73-.85,3.49c-2.27,9.33-4.43,18.66-6.4,28.06-1.02,4.73-2.14,9.44-3.27,14.15-1.03,4.32-1.94,8.64-2.79,12.99-1.53,7.33-3.84,14.39-6.18,21.5-1.33,4.03-2.6,8.03-3.57,12.16-.84,3.26-1.83,5.78-3.44,8.71-2.07,3.95-3.46,7.6-4.5,11.94h-2v2h-2c.08,1,.16,1.99.25,3.02-.3,4.82-1.78,7.64-4.18,11.73q-2.87,4.96-5.06,10.25h-2c-.25.66-.49,1.32-.75,2-4.91,11.78-12.37,21.22-21.01,30.55-1.22,1.34-2.44,2.69-3.59,4.1-3.58,4.37-7.36,7.71-11.97,10.97q-.99.71-2,1.44c-6.81,4.83-13.4,8.8-21.43,11.25-1.53.47-3.04.98-4.54,1.54-5.14,1.9-9.23,2.45-14.71,2.15,1.68,3.37,5.25,3.72,8.67,4.92q20.85,6.86,41.33,1.08c7.73-4.25,15.03-8.9,21.54-14.87q1.46-1.13,3.46-1.13v-2q1.33-1.23,3.25-2.75c11.85-10.11,21.14-23.26,28.47-36.9,1.55-2.84,3.2-5.62,4.84-8.41,4.21-7.21,7.61-14.16,10.38-22.04,1.06-2.9,2.26-5.7,3.5-8.52,2.43-5.71,4.19-11.53,5.86-17.5.79-2.8,1.56-5.55,2.7-8.23,1.6-4.2,2.42-8.57,3.38-12.95,1.42-6.4,2.87-12.78,4.5-19.12,1.3-5.06,2.48-10.14,3.58-15.25,3.12-14.4,6.59-28.61,10.73-42.75.21-.73.42-1.45.64-2.2,2.16-7.44,4.37-14.58,8.18-21.36h4c1.69,1.69,1.21,3.75,1.25,6.06.03.92.05,1.84.08,2.79-.34,3.23-1.28,5.8-2.48,8.79-1.75,4.86-2.72,9.95-3.85,14.98-.26,1.16-.53,2.32-.8,3.52-1.55,6.84-3.04,13.69-4.49,20.56-1.04,4.79-2.17,9.56-3.31,14.33-.84,3.52-1.66,7.05-2.41,10.59-1.1,5-2.46,9.92-3.79,14.86-.92,3.42-1.81,6.85-2.7,10.28q-.39,1.51-.79,3.06c-.51,1.99-1.02,3.98-1.53,5.97-1.5,5.83-3.22,11.52-5.19,17.21-.35,1.05-.7,2.1-1.06,3.19-.98,2.94-1.96,5.88-2.94,8.81-.21.67-.42,1.35-.64,2.04-1.83,5.73-4.13,11.1-6.74,16.52-.37.8-.75,1.6-1.13,2.42-2.18,4.58-4.58,8.9-7.32,13.17-1.71,2.71-3.2,5.53-4.73,8.35-11.13,19.76-26.83,37.53-45.44,50.5,4.84-.57,8.84-2.07,13.19-4.19q.99-.48,2-.96c1.33-.64,2.65-1.29,3.98-1.95,1.59-.79,3.2-1.55,4.8-2.32,14.15-7.13,27.11-19.5,35.62-32.72.47-.62.93-1.23,1.41-1.87h2c.25-.85.5-1.7.76-2.57,1.34-3.7,3.11-6.95,5.12-10.3,4.51-7.64,8.35-15.4,11.69-23.62.29-.71.58-1.42.88-2.14,1.94-4.75,3.77-9.54,5.56-14.36h2c.09-.95.18-1.91.27-2.89.71-4.91,2.56-9.32,4.35-13.93,3.56-9.44,6.33-18.94,8.86-28.7,1.72-6.61,3.58-13.12,5.7-19.61,3.01-9.29,5.99-18.76,7.29-28.45.51-3.37,1.38-6.22,2.52-9.42.84-2.73,1.68-5.45,2.5-8.19.25-.83.5-1.67.76-2.53,1.77-5.91,3.47-11.84,5.14-17.78.21-.75.43-1.5.64-2.28,1.06-3.76,2.12-7.53,3.17-11.29,2.08-7.41,4.31-14.74,6.84-22.01.23-.68.47-1.35.71-2.05,1.5-4.22,3.31-8.19,5.38-12.16,1-2.03,1.59-4.01,2.1-6.21,1.95-6.89,5.39-13.06,8.67-19.39,1.4-2.72,2.74-5.47,4.09-8.22,7.47-15.18,16.28-29.06,25.99-42.89.47-.68.95-1.35,1.43-2.05,8.19-11.71,16.77-22.49,26.94-32.57q1.32-1.33,2.67-2.7c13.99-13.95,35.79-33.57,56.95-32.68Z" fill="#0c0c0c" stroke-width="0"/><path d="m139.03,234.09c3.46,1.27,6.31,2.75,9.31,4.88,8.5,5.74,16.76,8.51,26.69,11.12,1,.28,2.01.56,3.04.85,13.56,3.64,27.44,4.52,41.39,5.28,1.52.09,3.04.17,4.56.26,3.67.21,7.33.41,11,.61v2c-1.62,1.24-3.3,2.42-5,3.56-8.52,6.06-18.9,15.68-21,26.44h-2q-.17,1.3-.35,2.62c-.66,3.43-1.69,6.29-3.02,9.51-2.06,5.22-3.61,10.34-4.89,15.8-1.07,4.47-2.37,8.88-3.66,13.29-.73,2.56-1.45,5.12-2.13,7.69-2.54,9.47-5.45,18.78-8.51,28.09-2.76,8.44-5.24,16.76-6.98,25.47-1.44,7-3.66,13.7-5.88,20.48-1.8,5.52-3.42,11.03-4.76,16.68-1.32,5.54-2.94,10.85-4.8,16.23-1.62,5.06-2.84,10.22-4.08,15.38-2.81,11.35-6.57,22.13-15.93,29.76-6.78,3.67-14.25,6.51-22,5-8.58-2.58-15.11-6.49-20.7-13.51q-1.25-1.62-3.3-2.49c-6.95-12.38-4.85-26.31-1.25-39.31,1.91-6.63,4.04-13.18,6.32-19.7,1.43-4.58,2.44-9.25,3.5-13.92.99-4.34,2.16-8.52,3.65-12.73,2.1-6.34,3.63-12.89,5.3-19.36q3.32-12.82,4.98-16.92c1.47-3.68,2.39-7.47,3.31-11.31,1.48-6.13,3.16-12.16,5-18.19,2.39-7.85,4.67-15.72,6.88-23.62.29-1.02.57-2.04.86-3.1.82-2.95,1.63-5.89,2.45-8.84.28-1.01.56-2.01.85-3.05.27-.97.54-1.94.81-2.94q.36-1.3.73-2.62c3.92-15.41,2.13-33.9-.39-49.38Z" fill="#fbfbfb" stroke-width="0"/><path d="m385.03,410.09c.72.41,1.45.82,2.19,1.25,9.72,5.6,17.77,11.96,25.81,19.75,1.3,1.14,2.61,2.27,3.94,3.38,5.32,4.51,9.9,9.63,14.54,14.82,2.19,2.43,4.4,4.83,6.62,7.23,4.78,5.15,9.3,10.44,13.71,15.91,2.92,3.55,5.99,6.95,9.09,10.35,1.79,1.98,3.55,3.98,5.29,6,17.5,20.01,38.54,43.26,64.81,51.31v2c.62.11,1.23.22,1.87.33,4.3.81,8.44,1.69,12.57,3.17,20.93,7.3,46.92,5.01,67.13-3.59q2.43-.91,6.43-.91v-2c1.02-.5,2.03-.99,3.08-1.5,15.09-7.42,28.09-15.62,40.92-26.5q1.23-1.03,2.48-2.08c8.79-7.51,16.37-15.85,23.52-24.92.8-1,1.61-2,2.44-3.03,6.56-8.24,12.17-16.93,17.56-25.97q.57-.94,1.15-1.9c5.71-9.47,10.27-19.25,14.49-29.47.4-.95.79-1.89,1.2-2.87q.52-1.27,1.05-2.56c1.14-2.25,2.13-3.64,4.12-5.2q3.06-.31,6,0c.66.66,1.32,1.32,2,2-.36,8.67-4.63,16.54-8.54,24.12-1.1,2.16-2.16,4.32-3.21,6.5-16.09,33.33-41.05,64.78-71.25,86.38q-.89.64-1.8,1.3c-8.72,6.22-17.75,11.32-27.43,15.86-1.53.73-3.04,1.49-4.55,2.27-11.41,5.68-24.54,8.75-37.21,9.57l-1,1c-21.53,1.96-42.69-2.5-62-12-.6-.29-1.21-.58-1.83-.88-17.77-8.69-32.95-20.44-46.66-34.6-2.3-2.36-4.66-4.54-7.18-6.64-2.92-2.45-5.29-5.04-7.64-8.06-3.94-4.94-8.08-9.61-12.35-14.26-4.71-5.13-9.22-10.38-13.59-15.8-6.7-8.22-13.64-16.22-21.79-23.04-3.01-2.63-5.74-5.51-8.49-8.4-3.28-3.07-6.84-5.67-10.47-8.31-.68-.5-1.36-1-2.06-1.52-8.26-6.09-16.25-11.89-25.94-15.48-.91-.34-1.82-.68-2.76-1.04-1.86-.68-3.72-1.35-5.59-2q-2.65-.97-4.9-2c-14.68-6.72-31.08-6.29-46.87-5.95-1.25.02-2.5.04-3.79.07q-1.69.04-3.41.09-2.68-.18-4.68-2.18c-.35-2.72-.42-4.33,1.06-6.69,24.57-16.65,69.92,4.1,91.94,16.69Z" fill="#0c0c0c" stroke-width="0"/><path d="m478.03,145.09c10.45-.19,20.83.4,31.25,1,1.73.1,3.46.19,5.18.29,4.19.23,8.38.47,12.57.71-.74,5.36-1.7,10.6-2.88,15.88-.16.75-.32,1.5-.49,2.28-1.01,4.59-2.32,8.97-3.84,13.4-1.58,4.85-2.78,9.81-4.04,14.76-.3,1.17-.6,2.34-.91,3.54-.95,3.71-1.9,7.43-2.84,11.15q-.47,1.83-.94,3.7c-3.57,14.06-6.99,28.13-10.06,42.3-.54,2.44-1.08,4.88-1.62,7.31q-.33,1.48-.66,2.99c-.71,2.69-1.66,5.13-2.71,7.7-.56,1.76-1.1,3.54-1.62,5.31-.26.88-.52,1.77-.79,2.68-.19.66-.39,1.33-.59,2.01-3.51-.57-6.21-1.45-9.3-3.19-.81-.45-1.61-.89-2.44-1.36q-1.27-.72-2.57-1.46c-.88-.49-1.75-.98-2.66-1.48-2.68-1.5-5.36-3.01-8.03-4.52-1.6-.9-3.2-1.8-4.8-2.7-2.74-1.54-5.47-3.08-8.21-4.62-1.65-.92-3.3-1.84-4.99-2.68.87-8.9,2.1-17.16,4.93-25.69,2.57-7.99,4.35-16.23,6.25-24.4,2.05-8.78,4.21-17.46,6.86-26.08,2.36-7.88,4.11-15.9,5.9-23.92,1.13-5.06,2.25-10.03,4.05-14.91Z" fill="#fafafa" stroke-width="0"/><path d="m253.03,57.09c1.92,1.76,3.72,3.57,5.49,5.47q1.63,1.76,4.51,3.53v3c.61.26,1.22.51,1.84.78,2.41,1.36,3.24,2.43,4.66,4.78.43.7.86,1.39,1.3,2.11.43.73.87,1.46,1.32,2.21.44.72.88,1.44,1.34,2.18,1.2,1.97,2.39,3.94,3.54,5.94q.56.98,1.14,1.99.86,2.01.86,6.01h2c6.55,22.25,9.7,49.56-1.89,70.83-1.62,2.77-3.37,5.47-5.11,8.17-.78,1.54-1.55,3.08-2.31,4.62-9.7,17.57-27.24,28.34-45.69,34.38q-1.39.51-2.81,1.04c-17.6,5.31-37.49,1.15-53.32-7.16-14.17-7.65-25.12-17.57-32.87-31.88v-2h-2c-3.1-6.56-5.98-13.03-8-20q-.42-1.29-.85-2.61c-6.4-22.52-2.25-48.04,8.85-68.39,11.41-18.69,28.34-33.35,49.55-39.46,24.94-5.53,47.93-.48,68.45,14.46Zm-92,13c-.92.7-1.84,1.4-2.79,2.12-.73.62-1.46,1.24-2.21,1.88v2c-.99.33-1.98.66-3,1-6.63,7.92-9.87,16.29-13,26-.33.75-.67,1.51-1.01,2.29-5.89,16.13-5.05,36.14,2.01,51.71,2.44,5.13,5.14,10.09,8,15q.8,1.38,1.61,2.79c1.77,2.83,3.95,4.96,6.39,7.21.72.69,1.45,1.39,2.2,2.11,14.78,13.83,31.44,19.64,51.56,19.14,17.53-.79,31.84-8.86,43.64-21.41,15.77-18.03,21.04-39.29,19.6-62.83-.57-4.77-1.71-9.38-3-14-.19-.78-.39-1.56-.59-2.37-4.94-17.51-18.25-31.55-33.05-41.39q-2.36-1.48-5.36-1.25v-2c-1.66-.49-3.33-.96-5-1.44-.93-.27-1.86-.53-2.81-.81-23.32-5.51-44.93-1.19-63.19,14.25Z" fill="#0c0c0c" stroke-width="0"/><path d="m379.1,379.82c4.6.31,7.72,1.52,11.8,3.52.73.35,1.46.7,2.21,1.06,14.84,7.43,27.25,18.03,38.91,29.69,1.54,1.36,3.08,2.71,4.62,4.06,8.49,7.61,15.86,16.16,23,25.02,3.24,3.97,6.59,7.84,9.93,11.71,3.1,3.6,6.11,7.24,9.07,10.95,4.44,5.46,9.28,10.4,14.38,15.25.6.58,1.2,1.16,1.81,1.76,11.99,11.08,26.57,20.42,41.44,27.05.67.3,1.35.61,2.04.92,3.89,1.68,7.5,2.77,11.71,3.27v2c8.95,1.66,17.73,2.37,26.83,2.37,2.04,0,4.07.04,6.11.08,9.64.08,17.86-1.53,27.06-4.45.83-.25,1.67-.5,2.53-.76,2.01-.62,3.99-1.29,5.97-1.99.7-.24,1.39-.49,2.11-.74,5.8-2.12,11.17-4.84,16.48-7.97,3.47-2,5.89-2.98,9.91-2.54.33,1.32.66,2.64,1,4-14.97,10.28-31.94,18.88-50,22q-1.48.27-3,.55c-5.67.78-11.41.63-17.13.64-1.15.01-2.29.02-3.48.04-11.3.02-21.98-1.31-32.65-5.1-.77-.27-1.54-.53-2.34-.81-5.27-1.85-10.43-3.79-15.41-6.32-.84-.42-1.69-.83-2.55-1.26-19.68-10.18-39.61-27.77-53.81-44.79-1.96-2.34-4.01-4.57-6.07-6.82-3.73-4.13-7.23-8.4-10.68-12.77-2.85-3.56-5.84-6.97-8.89-10.36q-1.18-1.32-2.39-2.67c-17.49-19.33-36.26-37.2-60.11-48.51q-3.5-1.82-4.56-4.51c.1-3.55.53-3.27,4.13-3.58Z" fill="#0f0f0f" stroke-width="0"/><path d="m461.03,410.09q2.5-.5,6,0c5.87,4.4,10.28,10.72,14.84,16.4,2.34,2.82,4.83,5.37,7.46,7.91,2.51,2.51,4.81,5.2,7.12,7.89q1.55,1.82,3.28,3.41,1.3,1.39,1.3,3.39c.57.23,1.13.47,1.71.71,2.82,1.59,4.63,3.55,6.85,5.91,18.96,19.29,46.19,33.36,73.48,33.76,11.32-.02,21.18-.68,31.96-4.38.75-.25,1.51-.49,2.29-.75,27.94-9.2,50.74-26.68,68.97-49.69,2.17-1.94,3.89-2.21,6.74-2.56-2.36,15.45-19.52,29.86-31.26,38.99-23.29,17.11-45.54,28.18-74.86,28.2q-1.72.02-3.48.04c-12.16.02-23.14-1.57-34.4-6.22l-3.44-1.38c-1.18-.54-2.35-1.07-3.56-1.62q-1.27-.56-2.57-1.13c-8.3-3.87-15.34-8.9-22.57-14.44-1.81-1.39-3.63-2.75-5.46-4.11-8.14-6.11-15.03-12.65-21.66-20.36-1.64-1.84-3.34-3.56-5.12-5.27-3.78-3.71-7.04-7.79-10.35-11.91-2.13-2.6-4.33-5.1-6.59-7.59q-5.71-6.41-7.69-10.19.25-2.88,1-5Z" fill="#0e0e0e" stroke-width="0"/><path d="m731.03,6.09q.44,3.12,0,7c-2.7,3.33-6.27,5.51-9.81,7.87-19.64,13.1-36.29,28.18-49.19,48.13-.41.62-.81,1.24-1.23,1.88-8.83,13.5-16.03,27.3-21.45,42.5-.92,2.52-1.88,4.95-2.95,7.4-1.2,2.8-1.92,5.22-2.38,8.22h-2c-.12,1.15-.24,2.3-.36,3.49-.55,4.38-1.64,8.47-2.89,12.7-1.5,5.16-2.89,10.31-4.09,15.55q-.32,1.42-.66,2.88c-.42,1.85-.82,3.71-1.22,5.57-.19.85-.38,1.69-.58,2.56-.16.75-.32,1.5-.49,2.27-.84,2.32-1.78,3.47-3.72,4.98q-2.19-.31-4-1c-1.8-36.87,12.74-70.71,29-103h2q.17-.84.34-1.71c2.31-7.98,8.51-14.95,13.66-21.29.66-.84,1.31-1.68,1.99-2.55,9.04-11.43,21.88-27.53,36.01-32.45v-2l4-1v-2c6.92-4.35,11.76-6.81,20-6Z" fill="#0a0a0a" stroke-width="0"/><path d="m783.28,7.02q1.86.03,3.75.06c.33,1.32.66,2.64,1,4-5.78,3.22-11.6,6.31-17.56,9.19-6.75,3.33-13.11,7.17-19.48,11.17-.73.46-1.46.91-2.21,1.39-.65.41-1.3.82-1.97,1.25q-1.77,1.01-4.77,2.01v2c-1.39,1.2-2.84,2.33-4.31,3.44-14.88,11.96-27.72,25.98-38.69,41.56-.4.56-.8,1.12-1.2,1.69-15.1,21.3-24.25,45.53-31.8,70.31h-2c-.12.6-.24,1.21-.37,1.83-.17.8-.34,1.6-.51,2.42q-.24,1.18-.49,2.39c-.62,2.33-1.48,4.25-2.63,6.36-1.32-.33-2.64-.66-4-1-1.43-16.85,6.79-39.24,15.48-53.41,1.78-3.03,2.98-6.1,4.21-9.4.44-1.16.87-2.32,1.32-3.52.33-.88.65-1.76.99-2.67h2c.11-.57.22-1.13.34-1.72,3.38-11.68,13.69-23.41,21.38-32.56,1.53-1.82,3.03-3.67,4.5-5.54,5.09-6.44,10.58-11.83,16.78-17.18,1.56-1.46,3.13-2.92,4.69-4.38,4.18-3.76,8.55-7.17,13.06-10.5.63-.46,1.25-.93,1.9-1.41,3.64-2.64,7.26-4.81,11.35-6.72,1.18-.6,2.35-1.2,3.56-1.81q18.77-9.37,25.69-9.25Z" fill="#101010" stroke-width="0"/><path d="m404.03,328.09c7.89.31,13.2,2.75,20,6.62.93.51,1.87,1.02,2.83,1.54,8.96,4.99,16.64,11.25,24.36,17.96,1.16,1,2.32,2.01,3.48,3.01.56.48,1.11.96,1.68,1.46,1.61,1.37,3.24,2.72,4.88,4.06,2.23,1.89,4.1,3.68,5.96,5.92,3.03,3.55,6.15,7.01,9.31,10.44,6.49,7.06,12.72,14.24,18.75,21.69,2.25,2.77,4.5,5.54,6.75,8.31q.72.89,1.46,1.79c20.4,24.95,44.04,44.04,76.56,49.54q2.98.68,4.98,2.68v3c-13.83,4.61-29.06-1.94-41.41-8.09-18.16-9.43-33.76-24.35-46.41-40.22-2.15-2.64-4.38-5.17-6.68-7.68-3.04-3.34-5.97-6.74-8.81-10.25-13.18-16.23-26.9-32-42.69-45.75-.79-.72-1.59-1.43-2.41-2.17-6.05-5.2-12.61-8.58-19.76-11.97q-9.49-4.52-12.83-7.86v-4Z" fill="#0f0f0f" stroke-width="0"/><path d="m742.03,53.09c-.62,3.68-2.2,5.92-4.44,8.88-.71.96-1.42,1.91-2.16,2.89-.39.52-.77,1.03-1.17,1.56-2.26,3.05-4.47,6.14-6.68,9.23-.44.61-.87,1.22-1.32,1.84q-2.3,3.19-4.24,6.6h-2c-.24.69-.48,1.37-.73,2.08-1.51,3.46-3.49,6.48-5.58,9.61-5.19,7.93-9.23,15.96-12.65,24.81-1.08,2.6-2.3,5.07-3.6,7.57-1.99,3.88-3.47,7.72-4.77,11.88-.78,2.38-1.78,4.64-2.79,6.93-3.17,7.62-5.94,15.28-7.37,23.41-.65,3.42-1.48,6.79-2.33,10.16-.17.69-.34,1.37-.52,2.08-.9,3.55-1.83,7.09-2.83,10.61-3.32,11.88-5.64,23.88-7.78,36.02-.12.68-.24,1.36-.37,2.06-.33,1.86-.66,3.73-.99,5.59q-1.63,7.49-5.7,10.2h-3v-2h-2c-.19-5.57.35-10.31,1.88-15.69,1.28-4.78,2.39-9.46,3.06-14.38.9-6.4,2.21-12.69,3.56-19,.21-1.01.43-2.03.65-3.07.21-.96.42-1.92.63-2.9.19-.86.37-1.72.56-2.61.64-2.32,1.55-4.23,2.65-6.36.46-2.01.87-4.03,1.25-6.06,3.73-18.04,10.21-35.94,18.14-52.55,1.15-2.42,2.26-4.85,3.34-7.3,4.74-10.64,10.53-20.37,16.95-30.08.85-1.29,1.68-2.58,2.5-3.88.89-1.41,1.85-2.77,2.82-4.12h2c.23-.54.45-1.08.68-1.64,1.72-3.09,3.99-5.54,6.38-8.11q.73-.79,1.47-1.59,11.88-12.66,16.46-12.66Z" fill="#111" stroke-width="0"/><path d="m729.03,154.09h2c-.25,8.39-2.23,15.69-4.95,23.59-1.17,3.4-2.29,6.81-3.41,10.23-.23.69-.45,1.38-.69,2.09-3.45,10.57-6.21,21.33-8.95,32.09-.2.79-.41,1.58-.62,2.39-1.16,4.53-2.29,9.06-3.38,13.61-.17.7-.34,1.4-.52,2.12-.54,2.21-1.07,4.42-1.61,6.63-.16.65-.32,1.3-.48,1.97-.96,4.02-1.7,8.05-2.36,12.13-2.63,16.12-7.36,31.69-12.54,47.15-.23.68-.45,1.36-.69,2.06-2.54,7.58-5.2,15.11-7.97,22.61-.24.66-.48,1.31-.73,1.99-1.75,4.67-3.92,8.81-6.63,12.99-1.6,2.53-2.94,5.13-4.3,7.79-3.26,6-7.08,11.97-12.19,16.56q-2.78.3-5,0c.54-3.92,1.63-5.9,4-9,.73-1.7,1.45-3.4,2.16-5.1,1.32-2.99,2.94-5.8,4.53-8.65,4.79-8.8,8.57-17.97,12.31-27.25.46-1.12.93-2.24,1.4-3.39,3.88-9.65,6.73-19.62,9.6-29.61.19-.67.39-1.34.59-2.02,3.24-11.18,5.35-22.53,7.41-33.98h2c-.05-1.3-.1-2.59-.15-3.93,0-5.07,1.06-9.44,2.52-14.26q.33-1.15.67-2.33c.94-3.24,1.94-6.44,3.03-9.63.99-3.08,1.66-6.12,2.3-9.29,1.58-7.61,3.56-15.07,5.62-22.56h2c.1-.61.2-1.21.3-1.84,2.3-12.87,8.34-23.9,14.7-35.16Z" fill="#121111" stroke-width="0"/><path d="m95.03,496.09c2.46,1.13,4.51,2.37,6.73,3.95,3.79,2.37,7.39,3.57,11.65,4.8.74.22,1.47.44,2.23.67,1.8.54,3.59,1.06,5.39,1.58-.8,4.95-2.45,9.58-4.06,14.31-.28.84-.56,1.67-.85,2.53-.69,2.05-1.39,4.1-2.08,6.15h-2c-.11.68-.22,1.36-.33,2.06-.8,3.5-2.06,6.62-3.42,9.94-.55,1.34-1.09,2.67-1.63,4.01-.27.67-.54,1.34-.83,2.02-1.18,2.93-2.3,5.89-3.42,8.84-1.41,3.71-2.9,7.34-4.56,10.94-1.82,3.99-2.88,7.9-3.81,12.19-5.71-.47-9.16-1.94-14-5,.65-8.74,2.26-17.22,3.96-25.81.48-2.45.96-4.9,1.43-7.36.31-1.58.62-3.15.92-4.73.14-.73.28-1.45.42-2.2.81-4.1,1.91-7.97,3.27-11.91.36-2.18.67-4.37.94-6.56.92-6.93,2.37-13.65,4.06-20.44Z" fill="#f5f5f4" stroke-width="0"/><path d="m841.03,34.09q0,3-2,5.19c-.45.42-.9.84-1.36,1.27-2.72,2.56-5.27,5.28-7.87,7.96q-1.77,1.57-3.77,1.57c-.23.57-.47,1.14-.71,1.73-1.6,2.8-3.52,4.42-5.98,6.52-3.78,3.32-7.22,6.67-10.45,10.53-1.33,1.59-2.71,3.14-4.11,4.66-16,17.87-28.34,39.08-38.76,60.56-.38.78-.77,1.55-1.16,2.35-4.62,9.35-8.62,18.87-12.3,28.63-1.41,3.72-2.95,7.38-4.54,11.02-2,.04-4,.04-6,0-1.53-1.53-1.22-2.9-1.27-5.03.06-5.08,1.45-8.95,3.52-13.54q.45-1.05.91-2.13c1.84-4.26,3.88-8.4,5.97-12.54,1.01-2.07,1.84-4.16,2.62-6.33,2.55-6.51,5.94-12.56,9.29-18.68.82-1.5,1.62-3.01,2.42-4.53,3.15-5.93,6.56-11.68,10.04-17.41.45-.75.9-1.5,1.37-2.27q6.37-10.42,10.13-14.54h2c.1-.59.21-1.18.32-1.79.79-2.56,1.78-3.72,3.63-5.64.6-.63,1.2-1.26,1.82-1.92.63-.65,1.26-1.3,1.92-1.97,1.23-1.29,2.47-2.57,3.7-3.86q.91-.95,1.85-1.93c1.67-1.8,3.24-3.64,4.8-5.53,2.91-3.44,6.14-6.15,9.71-8.86q.91-.7,1.84-1.42,15.78-12.08,22.41-12.08Z" fill="#0e0d0d" stroke-width="0"/><path d="m313.16,323.9c1.23-.01,2.46-.02,3.73-.04,9.82-.02,20.28.11,29.52,3.79,4.03,1.6,7.33,2.05,11.62,2.44v2c.99.11,1.97.21,2.99.32,21.4,3.1,42.16,18.02,59.01,30.68.95.71,1.91,1.42,2.89,2.15,4.64,3.57,8.99,7.45,13.23,11.48.93.88,1.86,1.76,2.82,2.66,2.42,3.19,2.5,4.8,2.05,8.71-4.58.53-6.43.44-10.15-2.42-1.09-1.1-2.16-2.21-3.23-3.33-11.33-11.2-24.56-19.84-38.62-27.25-.65-.35-1.31-.69-1.98-1.05-8.15-4.27-16.25-8.09-25.02-10.95-.71-.25-1.42-.5-2.14-.76-23.62-8.28-46.07-9.7-70.86-9.24q-1.12-4.78-.06-6.75c6.49-3.93,16.9-2.43,24.19-2.44Z" fill="#0e0d0d" stroke-width="0"/><path d="m313.53,75.59c4.35.62,6.93,2.38,10.59,4.72,3.22,1.97,6.52,3.62,9.91,5.28,5.09,2.49,9.97,5.2,14.79,8.18,1.96,1.17,3.91,2.21,5.96,3.2,4.25,2.06,8.31,4.42,12.4,6.77,5.78,3.33,11.61,6.56,17.46,9.76,4.3,2.37,8.46,4.86,12.56,7.57,1.93,1.08,3.68,1.58,5.84,2.02v2c.78.21,1.57.41,2.38.62,4.94,1.87,9.52,4,13.62,7.38q1.31,3.69,1,7-1.06,1.94-3,3c-5.49.87-8.52-1.14-13-4v-2c-.78-.14-1.57-.29-2.38-.44q-2.62-.56-4.62-1.56v-2c-.7-.1-1.4-.2-2.12-.3-3.39-.82-5.96-2.19-9.01-3.89-1.15-.63-2.3-1.27-3.48-1.92-1.12-.62-2.24-1.25-3.39-1.89-1.81-.98-3.62-1.96-5.44-2.94-3.99-2.18-7.94-4.42-11.88-6.69-6.08-3.5-12.22-6.89-18.38-10.25-.93-.51-1.86-1.02-2.82-1.54-4.64-2.52-9.29-5.01-13.98-7.43-.86-.45-1.73-.89-2.62-1.36-1.63-.84-3.26-1.67-4.89-2.5-3.87-2-7.27-3.78-9.99-7.3q-.38-3.62,0-7,2-2,4.5-2.5Z" fill="#0b0b0b" stroke-width="0"/><path d="m151.72,105.77c3.26.31,5.48,1.23,8.43,2.55,2.92,1.19,5.93,1.82,9.01,2.51,6.61,1.56,13.01,3.55,19.44,5.75,7.22,2.47,14.41,4.64,21.81,6.54,7.33,1.95,14.58,4.24,21.76,6.69,6.32,2.16,12.72,3.84,19.2,5.46.8.21,1.61.41,2.44.62.72.18,1.44.36,2.18.55,2.19.68,4.08,1.48,6.06,2.64,1.39,2.77,1.19,4.93,1,8-.66.99-1.32,1.98-2,3-1.48-.09-2.96-.2-4.44-.31q-1.24-.09-2.5-.18c-3.26-.54-6.13-1.5-9.25-2.59-3.45-1.13-6.95-2.11-10.45-3.08q-1.03-.29-2.08-.58c-2.86-.79-5.72-1.58-8.58-2.36-2.11-.58-4.23-1.16-6.34-1.75q-1.87-.51-3.78-1.04c-2.57-.8-4.89-1.63-7.33-2.7-3.41-1.48-6.55-2.23-10.19-2.92-4.53-.86-8.61-2.03-12.88-3.7-4.11-1.51-8.34-2.63-12.56-3.8-3.54-.99-7.09-1.99-10.62-3-.92-.26-1.85-.52-2.8-.79-.89-.26-1.78-.52-2.7-.78-.8-.23-1.6-.46-2.43-.7-2.96-1.03-4.49-2-6.08-4.72q.3-8.69,5.69-9.31Z" fill="#0d0d0c" stroke-width="0"/><path d="m154.41,132.21c3.3.8,6.41,1.78,9.62,2.88,1.1.37,2.2.73,3.34,1.11,1.19.4,2.37.79,3.6,1.2.65.21,1.3.43,1.96.65,3.34,1.11,6.67,2.23,9.99,3.41,6.8,2.38,13.36,4.26,20.52,5.18,2.73.48,5.05,1.34,7.59,2.46v2c1.12.1,2.25.21,3.41.32,4.91.61,9.42,2.06,14.09,3.62,5.8,1.91,11.57,3.61,17.5,5.06q3,1.12,5,3c.43,2.79.23,5.15,0,8-6.17,3.09-14.37.71-20.61-1.14q-2.39-.86-4.95-2.42c-3.24-1.91-6.41-2.32-10.09-2.97-2.62-.52-4.89-1.43-7.35-2.46-1.41-.37-2.83-.72-4.25-1.06q-3.75-.94-4.75-1.94c-1.54-.28-3.08-.52-4.62-.75-5.18-.91-10-2.34-14.95-4.08-4.1-1.43-8.22-2.71-12.39-3.91-1.04-.3-2.07-.6-3.14-.91-2.07-.6-4.14-1.18-6.21-1.76-.95-.28-1.9-.56-2.88-.84-.85-.24-1.7-.48-2.58-.73-2.68-1.23-3.71-2.51-5.21-5.02-.58-3.31-.3-4.55,1.56-7.38q2.44-1.62,5.81-1.5Z" fill="#0e0e0e" stroke-width="0"/><path d="m163.86,84c5.89.71,11.16,2.22,16.73,4.21,7.9,2.73,15.84,5.24,23.88,7.56,1.01.29,2.02.58,3.07.89,4.31,1.24,8.63,2.47,12.95,3.68,1.23.35,2.46.7,3.73,1.05,1.02.28,2.05.57,3.11.86q2.71.82,5.05,1.8c3.58,1.39,7.24,2.25,10.97,3.15.74.18,1.48.36,2.24.55,1.81.44,3.63.88,5.44,1.32v2c1.05.1,2.1.21,3.19.31,3.77.68,5.94,1.17,8.81,3.69.6,4.09.32,5.53-2,9-6.41.82-12.26-1.21-18.38-3q-1.63-.47-3.3-.94c-8.94-2.58-17.8-5.41-26.66-8.29-5.3-1.72-10.58-3.34-15.98-4.71-6.93-1.77-13.74-3.9-20.55-6.07-1.29-.41-2.58-.82-3.88-1.23-1.82-.57-3.64-1.16-5.46-1.74-1.07-.34-2.13-.68-3.23-1.03q-2.56-.99-4.56-2.99-.05-1.88.25-4c.09-.7.18-1.4.27-2.12.67-2.59,1.55-3.83,4.31-3.96Z" fill="#0c0b0b" stroke-width="0"/><path d="m530.34,255.77c8.5.18,16.61,1.86,23.93,6.26,1.69,1.01,3.42,1.95,5.16,2.88,9.52,5.19,19.29,10.7,23.61,21.18,1.14,6.61.33,11.75-3.52,17.25-.49.58-.98,1.16-1.48,1.75-.59.72-1.17,1.44-1.77,2.19-3.73,3.04-7.45,2.41-12.07,2.27-4.64-.67-6.29-1.77-9.15-5.45q-.5-2.69,0-5,2-2,4.56-2.19,2.44.19,3.44,1.19,4.13.38,7.88-1.12c1.7-2.83,1.57-4.63,1.12-7.88-3.7-8.28-12.61-12.21-20.68-15.37-8.65-3.24-17.48-5.97-26.32-8.63q-.62-3.38-1-7c2.41-2.41,3.01-2.3,6.31-2.31Z" fill="#0e0e0e" stroke-width="0"/><path d="m599.72,163.09c4.33,2.62,6.52,5.27,8.31,10,.76,4.71.4,8.7-1,13.25-4.07,5.6-9.31,9.02-16,10.75-2.96.32-5.9.38-8.88.38-.83,0-1.66,0-2.52,0-8.28-.16-15.74-1.93-23.61-4.37-.93-.27-1.86-.55-2.82-.83q-7.95-2.46-11.18-5.17-.44-2.56,0-5,2-2,3.96-2.08,17.96,2.01,21.04,5.08c3.53.28,7.08.23,10.62.25.99.02,1.97.04,2.99.06,5.93.03,10.15-.47,15.39-3.31q1.42-1.18,1.06-4.56c-.02-1.13-.04-2.27-.06-3.44-2.84-1.42-5.66-1.38-8.81-1.62q-2.19-.38-5.19-2.38c.31-2.89.64-4.59,2.56-6.81,4.81-2.34,9.17-1.53,14.12-.19Z" fill="#0f0e0f" stroke-width="0"/><path d="m538.03,216.71c3.19.09,5.56.91,8.48,2.18,5.82,2.4,11.76,4.06,17.83,5.7,2.22.61,4.44,1.22,6.66,1.83,1.05.29,2.1.58,3.18.87,8.28,2.3,16.45,4.96,24.59,7.72,2.48.81,4.96,1.59,7.47,2.33.72.22,1.44.43,2.19.66,1.42.42,2.84.84,4.27,1.25q6.29,1.89,8.34,4.84.25,2.62,0,5-1,1-4.69,1.31c-6.06-.08-11.52-1.91-17.27-3.7-4.52-1.36-9.09-2.55-13.65-3.78-4.23-1.16-8.29-2.52-12.38-4.1-3.45-1.27-6.98-2.24-10.51-3.24-4.97-1.4-9.83-2.93-14.65-4.79-3.48-1.33-7.01-2.52-10.53-3.74q-2.32-.96-4.32-2.96-.25-2.5,0-5,2-2,5-2.38Z" fill="#0f0f0f" stroke-width="0"/><path d="m195.03,66.09v2c.8-.06,1.61-.12,2.44-.19,4.59.24,8.26,1.64,12.56,3.19,2.5.86,5,1.72,7.5,2.56.66.22,1.31.44,1.99.67,3.36,1.12,6.67,2.09,10.14,2.77,7.15,1.43,16,3.88,21.38,9q.44,3.56,0,7c-4.24,2.83-7.14,1.9-12,1-3.34-.81-6.6-1.79-9.88-2.81q-1.32-.41-2.67-.82c-5.28-1.64-10.5-3.4-15.67-5.37-4.32-1.55-8.72-2.86-13.13-4.16q-9.77-2.96-12.66-5.84-.31-2.88,0-6c2.94-3.39,5.69-3.29,10-3Z" fill="#0c0c0c" stroke-width="0"/><path d="m164.62,161.87c4.32.06,8.02,1.16,12.04,2.65,8.61,3.04,17.31,5.71,26.06,8.31,1.31.39,2.63.78,3.94,1.18q7.03,2.1,14.1,4.07,3.27,1,6.27,3c.42,3.23.23,5.4-.94,8.44q-2.06,1.56-6,1.56c-5.91-.93-11.44-3.02-17.06-5-2.33-.69-4.66-1.36-7-2q-1.42-.39-2.87-.79c-2.71-.74-5.42-1.48-8.13-2.21v-2q-.84-.02-1.7-.04c-7.85-.47-15.19-2.65-22.3-5.96q-2-3-1.69-6.62.88-4.33,5.27-4.59Z" fill="#090909" stroke-width="0"/><path d="m645.03,195.09c4.4.46,7.89,2.78,10.81,6,2.05,5.19,2.38,10.85.38,16.13-3.13,5.02-7.71,7.09-13.19,8.87-3.38.53-6.65.57-10.06.5-.91,0-1.82-.02-2.76-.03-9.42-.25-25.15-1.44-32.18-8.47-.04-1.67-.04-3.33,0-5,2.76-1.38,5.05-1.1,8.12-1.06,1.1,0,2.19.02,3.32.03.84.01,1.69.02,2.55.04v2c6.58.86,13.12,1.19,19.75,1.31q1.22.04,2.47.09c5.57.05,8.45-.86,12.78-4.4q-.34-4.49-3.06-7.88c-.64-.37-1.28-.74-1.94-1.12q.75-4.75,3-7Z" fill="#100f0f" stroke-width="0"/><path d="m78.03,498.09c.99.66,1.98,1.32,3,2,.63,6.08-.74,11.98-1.88,17.94q-.26,1.43-.53,2.88c-1.01,5.45-2.19,10.82-3.6,16.18-5.33.51-7.86-.65-12-4-4.63-4.77-7.29-8.71-7.25-15.44q0-1.39-.02-2.81c.65-6.76,4.4-11.3,9.45-15.63,4.18-1.67,8.36-1.71,12.81-1.12Z" fill="#f6f6f5" stroke-width="0"/><path d="m650.03,280.09q2.47.5,5,1c.71,8.59-1.28,15.92-4,24q-.43,1.27-.86,2.57c-6.74,19.84-15.7,41.5-32.14,55.43h-4c.49-4.72,1.6-7.26,4.56-10.94,12.13-16.05,18.78-35.19,24.6-54.25,1.9-6.15,4.06-12.01,6.84-17.82Z" fill="#131212" stroke-width="0"/><path d="m313.16,323.9c1.23-.01,2.46-.02,3.73-.04,9.82-.02,20.28.11,29.52,3.79,4.03,1.6,7.33,2.05,11.62,2.44v2q1.67.12,3.38.25,3.62.75,5.06,2.81c.19.64.37,1.28.56,1.94h-2c-.33,1.65-.66,3.3-1,5-3.36.33-5.88-.22-9-1.35-5.28-1.81-10.62-3.07-16.06-4.28-.94-.22-1.88-.43-2.85-.66-10.82-2.44-21.05-2.85-32.08-2.78-1.46,0-2.91,0-4.37.01-3.54.01-7.09.03-10.63.05q-1.12-4.78-.06-6.75c6.49-3.93,16.9-2.43,24.19-2.44Z" fill="#151515" stroke-width="0"/><path d="m194.03,376.09q4.88.88,6,2c.2,6.95-1.52,13.66-3.31,20.31-.2.76-.4,1.53-.61,2.32-1.35,4.77-2.91,8.51-6.08,12.37q-3.25.38-6,0c.72-4.99,1.94-9.73,3.31-14.56.22-.78.44-1.57.67-2.38,1.9-6.72,3.91-13.4,6.02-20.06Z" fill="#f5f5f5" stroke-width="0"/><path d="m216.03,302.09c2.17.51,4,1,6,2-.55,6.57-1.79,12.42-3.81,18.69-.25.82-.5,1.63-.75,2.47-1.54,4.86-3.22,8.86-6.44,12.84q-2.75.38-5,0c.65-7.91,2.85-15.39,5-23,.28-1.02.57-2.04.86-3.09,1.09-3.78,1.94-6.61,4.14-9.91Z" fill="#e9e8e8" stroke-width="0"/><path d="m438.03,143.09c3.01,1.8,5.52,3.52,8,6q.25,3,0,6-2,2-5.19,2.44c-4.72-.54-7.65-1.87-10.81-5.44q-1.12-3.62-1-7c2.16-4.06,5.02-3.17,9-2Z" fill="#111110" stroke-width="0"/><path d="m194.03,376.09q4.88.88,6,2c.09,9.23-2.62,18.17-5,27h-1v-7c-.66-.33-1.32-.66-2-1,.33-3.96.66-7.92,1-12-.66.99-1.32,1.98-2,3,.51-4.32,1.2-8.03,3-12Z" fill="#e3e2e1" stroke-width="0"/><path d="m404.03,328.09c6.42.29,10.62,1.45,16,5v4l3,2-1,3c-2.07-.91-4.13-1.83-6.19-2.75-1.15-.51-2.3-1.02-3.48-1.55-3.22-1.64-5.76-3.17-8.33-5.7v-4Z" fill="#111" stroke-width="0"/><path d="m669.03,400.09h1v5c-.6.27-1.19.54-1.81.82-2.18,1.17-3.57,2.32-5.29,4.08-.56.56-1.11,1.12-1.68,1.7-.57.59-1.14,1.17-1.72,1.77-.57.58-1.14,1.15-1.72,1.75-1.1,1.12-2.2,2.24-3.29,3.37-1.26,1.28-2.57,2.51-3.89,3.73q-1.93,1.75-1.59,4.77c-3.86,2.15-6.55,3.39-11,3,3-3.09,6.05-5.92,9.4-8.64,6.39-5.19,12.05-10.81,17.55-16.94,1.34-1.49,2.69-2.96,4.05-4.42Z" fill="#dddcdb" stroke-width="0"/><path d="m203.03,243.09c5.11.12,10.22.24,15.33.37,1.74.04,3.48.09,5.22.12,2.49.06,4.99.12,7.48.19q1.17.03,2.37.05,5.49.15,6.6,1.27c1.92.16,3.85.25,5.79.32,1.17.04,2.34.08,3.54.13q1.85.06,3.73.12c1.24.04,2.47.09,3.74.13,3.06.11,6.13.21,9.19.31v1c-21.22.33-41.98.42-63-3v-1Z" fill="#8b8b8b" stroke-width="0"/><path d="m140.03,281.09c.31.64.62,1.28.94,1.94q.9,2,2.06,3.06.38,2.75,0,6c-1.67,1.67-3.33,3.33-5,5q-.89,3.68-1,7h-2c-.33,2.97-.66,5.94-1,9h-2c-.33.99-.66,1.98-1,3,1.11-5.8,2.58-11.5,4.01-17.23.49-1.96.98-3.92,1.46-5.89.31-1.23.62-2.47.93-3.74.28-1.13.56-2.26.85-3.43q.74-2.72,1.74-4.72Z" fill="#d3d2d1" stroke-width="0"/><path d="m476.03,132.09q33.33.72,46.44,1.94,1.26.11,2.56.23c3.71.38,5.85.73,9.01,2.84-3.98-.14-7.96-.29-11.94-.44-1.12-.04-2.23-.08-3.38-.12-5.49-.21-10.89-.54-16.34-1.2-4.95-.51-9.93-.62-14.9-.8-1.1-.04-2.21-.09-3.35-.13-2.7-.11-5.39-.21-8.09-.31v-2Z" fill="#626262" stroke-width="0"/><path d="m45.03,503.09l2,1c-.33.57-.65,1.15-.99,1.74-1.07,2.38-1.26,3.86-1.24,6.45,0,.78,0,1.56,0,2.37.01.81.02,1.61.04,2.45,0,.81,0,1.61,0,2.45.03,3.71.18,6.97,1.19,10.55q-2.44-.38-5-1c-2.6-5.19-1.6-12.14.12-17.46,1.22-2.89,2.49-5.73,3.88-8.54Z" fill="#f1f0ef" stroke-width="0"/><path d="m312.72,400.9c.97,0,1.94,0,2.94,0,6.98.05,13.56.58,20.37,2.19v1h-40c-.33-.66-.66-1.32-1-2,5.92-1.02,11.69-1.19,17.69-1.19Z" fill="#b4b4b4" stroke-width="0"/><path d="m780.03,46.09l2,1-31,31-2-1c.64-.63,1.28-1.26,1.94-1.91q5.85-5.77,11.31-11.91c5.34-6.27,11.67-11.66,17.75-17.19Z" fill="#282828" stroke-width="0"/><path d="m585.03,420.09c-.64.29-1.28.58-1.94.88q-2.21.95-3.06,3.12c1.32.66,2.64,1.32,4,2v2q-9.91-1.84-14-5v-2c1.75-.36,3.5-.72,5.25-1.06q1.46-.3,2.95-.6c2.66-.32,4.29-.19,6.8.66Z" fill="#d6d6d5" stroke-width="0"/><path d="m615.03,313.09c.99,3.48.71,5.45,0,9-.04,2.34,0,4.67.06,7.01q-.06,1.99-1.06,3.99-1.94,1.06-4,2c-.66.33-1.32.66-2,1,2.02-7.78,4.39-15.4,7-23Z" fill="#e9e9e8" stroke-width="0"/><path d="m697.03,244.09h1v9h-2c-.08,1.26-.16,2.52-.25,3.81-.83,8.51-2.91,16.85-4.75,25.19h-1c-.03-1.94-.05-3.87-.06-5.81-.01-1.08-.02-2.16-.04-3.27q.1-2.92,1.1-5.92h2c.06-.75.12-1.5.18-2.27.08-.98.17-1.97.25-2.98.08-.97.16-1.95.25-2.95.27-2.36.67-4.52,1.32-6.8h2v-8Z" fill="#cbcaca" stroke-width="0"/><path d="m600.03,157.09q2.12,4.62,1,8c-.68-.31-1.36-.62-2.06-.94-3.31-1.2-6.45-1.65-9.94-2.06q.75-1.94,2-4c2.94-1.22,5.85-1.09,9-1Z" fill="#e9e8e7" stroke-width="0"/><path d="m742.03,322.09q2.67,10.36.56,15.5-.77,1.24-1.56,2.5c-.33-1.32-.66-2.64-1-4h-2l-1,2c.66-3.78,1.72-7.22,3.06-10.81.36-.98.72-1.95,1.1-2.96q.42-1.1.84-2.23Z" fill="#f2f2ef" stroke-width="0"/><path d="m671.03,278.09c-.58,6.3-2.04,11.99-4,18h-1c-1.07-6.24-1.05-10.97,1-17q2-1,4-1Z" fill="#e7e7e7" stroke-width="0"/><path d="m702.03,34.09q0,3-1.65,4.99-1.13,1.11-2.29,2.24c-.81.8-1.62,1.6-2.46,2.43-.86.83-1.72,1.67-2.6,2.53q-1.29,1.27-2.6,2.56c-2.13,2.09-4.26,4.17-6.4,6.25l-2-1c1.95-2.17,3.91-4.34,5.88-6.5.56-.62,1.11-1.24,1.68-1.88.53-.59,1.07-1.17,1.62-1.78q.74-.82,1.49-1.65,1.33-1.19,3.33-1.19c.25-.6.49-1.2.75-1.81,1.41-2.47,2.9-3.62,5.25-5.19Z" fill="#d1d1d0" stroke-width="0"/><path d="m636.53,221.84c.69-.02,1.38-.04,2.09-.06q2-.02,5.41.31c.66.99,1.32,1.98,2,3h-19v-2c3.03-1.52,6.17-1.23,9.5-1.25Z" fill="#080808" stroke-width="0"/><path d="m678.03,185.09h1v19h-2c-.33-.99-.66-1.98-1-3-.66,1.98-1.32,3.96-2,6-1.04-3.18-.94-5.13,0-8.33q.34-1.2.69-2.42c.25-.82.49-1.65.75-2.5.24-.84.49-1.68.74-2.55.6-2.07,1.21-4.14,1.83-6.2Z" fill="#d3d2d1" stroke-width="0"/><path d="m128.03,522.09q2,3,1.7,4.94-.35,1.02-.7,2.06c-.19.65-.38,1.3-.58,1.96-1.66,4.87-3.53,7.67-7.42,11.04,1.93-6.86,4.25-13.43,7-20Z" fill="#d3d3d1" stroke-width="0"/><path d="m299.03,387.09q.78.24,1.58.48c3.07.66,6.01.74,9.16.84,1.3.04,2.59.08,3.93.13,1.36.04,2.73.08,4.09.12,1.38.04,2.76.09,4.14.13,3.37.11,6.74.21,10.11.31v2c-.88,0-1.77-.01-2.67-.02-3.29-.02-6.58-.03-9.87-.04-1.42,0-2.84-.01-4.26-.02-2.05-.01-4.1-.02-6.14-.02-1.23,0-2.46-.01-3.73-.02-2.91.1-5.49.44-8.32,1.11v-2c.99-.33,1.98-.66,3-1l-1-2Z" fill="#d8d7d5" stroke-width="0"/><path d="m194.03,388.09l4,1c-.28,1.92-.58,3.83-.88,5.75-.16,1.07-.32,2.13-.49,3.23-.57,2.69-1.27,4.65-2.63,7.02v-7c-.66-.33-1.32-.66-2-1,.66-2.97,1.32-5.94,2-9Z" fill="#f1f1f0" stroke-width="0"/><path d="m716.03,297.09c1.26,3.63.64,6.26,0,10-.09,3-.06,6,0,9-.99.33-1.98.66-3,1-.33.66-.66,1.32-1,2h-2c.62-2.54,1.25-5.08,1.88-7.62.17-.71.35-1.43.53-2.16,1.03-4.14,2.19-8.18,3.6-12.21Z" fill="#cccbc9" stroke-width="0"/><path d="m726.03,38.09l2,1-20,20-2-1c4.46-5.23,8.99-10.05,14.23-14.49,2.03-1.73,3.92-3.58,5.77-5.51Z" fill="#2d2c2c" stroke-width="0"/><path d="m164.03,67.09l2,1q-1.16,1.1-2.34,2.23c-1.01.99-2.03,1.97-3.04,2.96-.51.48-1.02.97-1.54,1.46-3.02,2.96-4.65,5.42-6.09,9.35q-2.62,1.31-5,2c1.37-3.99,3.15-6.88,6-10h2v-2q1.75-1.73,4-3.62c.74-.63,1.48-1.26,2.25-1.91.58-.48,1.15-.96,1.75-1.46Z" fill="#d2d2d0" stroke-width="0"/><path d="m103.03,585.09q.81,1.69,1,4-1.75,2.75-5,5c-2.91.3-5.65.25-8.57.08q-2.44-.27-4.43.92c.33-1.32.66-2.64,1-4q1.12.03,2.27.07c.98.02,1.97.04,2.98.05.97.02,1.95.05,2.95.07,2.85-.2,4.44-.62,6.8-2.2q.81-2.05,1-4Z" fill="#cacac9" stroke-width="0"/><path d="m71.03,550.09c1.33,3.99.38,7.18-.44,11.19q-.22,1.12-.45,2.27c-.36,1.85-.74,3.69-1.12,5.54h-1v-7h-2v-6c.66-.33,1.32-.66,2-1,.66.33,1.32.66,2,1,.33-1.98.66-3.96,1-6Z" fill="#dadad9" stroke-width="0"/><path d="m219.03,13.09c6.05.55,11.31,1.9,17,4l-3,1-2-1v2c-2.64-.33-5.28-.66-8-1v-2q-1.96-1.64-4-3Z" fill="#dcdcda" stroke-width="0"/><path d="m357.03,410.09c3.23.72,6.19,1.81,9.25,3.06.89.36,1.78.72,2.7,1.1q1.01.42,2.05.84c-.99.66-1.98,1.32-3,2v-2q-.99.31-2,.62c-4.1.51-7.04-.48-11-1.62v-2h2v-2Z" fill="#ecebea" stroke-width="0"/><path d="m754.03,286.09h1v6h2v4h-2v-2h-2v3h2v3c-1.65.66-3.3,1.32-5,2l4-16Z" fill="#d1d0ce" stroke-width="0"/><path d="m510.03,263.09c.33.99.66,1.98,1,3h2q.69,1.69,1,4-1.25,2.69-3,5c-.99.33-1.98.66-3,1-.19-4.82.24-8.5,2-13Z" fill="#e7e6e5" stroke-width="0"/><path d="m177.03,178.09l8,1v2c1.07.12,2.15.25,3.25.38q3.75.62,7.75,2.62c-2.97-.33-5.94-.66-9-1v2c-1.32-.33-2.64-.66-4-1v-2c-1.98-.66-3.96-1.32-6-2v-2Z" fill="#c5c5c3" stroke-width="0"/><path d="m406.03,140.09q1.05.5,2.12,1c3.2,1.11,5.51,1.29,8.88,1,.99-.66,1.98-1.32,3-2-1.2,2.49-2.45,4.68-4,7q-4.45-.99-9-2c-.33-1.65-.66-3.3-1-5Z" fill="#eeeeec" stroke-width="0"/><path d="m502.03,293.09v3c-1.65,1.03-3.32,2.03-5,3v2q-7.75-.75-10-3c1.65-.33,3.3-.66,5-1v-1c1.28-.12,2.56-.25,3.88-.38q3.47-.32,6.12-2.62Z" fill="#d6d7d4" stroke-width="0"/><path d="m230.03,261.09l2,1c-4.95,4.95-9.9,9.9-15,15l-2-1c1.75-1.94,3.5-3.88,5.25-5.81.49-.55.98-1.09,1.49-1.66,2.58-2.84,5.07-5.36,8.26-7.53Z" fill="#313231" stroke-width="0"/><path d="m546.2,180.04c4.85.56,9.25,1.24,13.83,3.05v1c-1.44.05-2.87.09-4.31.12-.8.02-1.6.05-2.43.07q-2.26-.2-5.26-2.2c-.99-.33-1.98-.66-3-1v8c-.99-.66-1.98-1.32-3-2q-.31-2.5,0-5,2-2,4.17-2.05Z" fill="#4f4f4e" stroke-width="0"/><path d="m280.03,161.09c.81,2.34,1.14,3.59.33,5.96-.36.65-.71,1.3-1.08,1.97q-.56,1.05-1.14,2.11c-2.53,4.45-5.25,8.71-8.11,12.95l-2-1q.92-1.5,1.86-3.04c.82-1.34,1.63-2.68,2.45-4.03.4-.66.81-1.31,1.22-1.99,2.55-4.21,4.63-8.38,6.46-12.95Z" fill="#bdbcbb" stroke-width="0"/><path d="m607.03,301.09c-.55,4.57-1.42,8.67-3,13q-1.56-1-3-3c-.12-2.77.12-5.37,1-8q3-2,5-2Z" fill="#e6e6e5" stroke-width="0"/><path d="m464.03,141.09c.99.33,1.98.66,3,1-.99,4.62-1.98,9.24-3,14h-1c-.33-1.98-.66-3.96-1-6q-.99.49-2,1c1.11-3.49,2.26-6.77,4-10Z" fill="#e4e4e3" stroke-width="0"/><path d="m550.03,398.09v3c-1.65.33-3.3.66-5,1v2q-1.94-.81-4-2c-.33-.99-.66-1.98-1-3,3.21-1.61,6.44-1.06,10-1Z" fill="#f3f3f2" stroke-width="0"/><path d="m594.03,335.09q1,3,0,5.26c-.48.8-.95,1.6-1.44,2.43q-.71,1.21-1.43,2.45c-.37.61-.75,1.23-1.13,1.86q-3-3.75-3-6h2c.27-.8.54-1.61.81-2.44q.59-1.27,1.19-2.56c.99-.33,1.98-.66,3-1Z" fill="#ebebea" stroke-width="0"/><path d="m352.03,326.09l-1,1c.99.33,1.98.66,3,1v2q-8.57-.86-12-3c.33-.66.66-1.32,1-2,3.73-1.21,5.68-1.09,9,1Z" fill="#cfcfcc" stroke-width="0"/><path d="m773.03,170.09h2c-.18.59-.36,1.19-.55,1.8-1.93,6.37-3.73,12.77-5.45,19.2h-1c-.56-7.29,1.31-13.24,4-20l1-1Z" fill="#dddedd" stroke-width="0"/><path d="m697.03,23.09c0,3.63-1.27,4.87-3.52,7.6q-1.48,1.4-3.42,2.36c-2.42,1.23-3.93,2.72-5.81,4.67-.61.63-1.23,1.26-1.86,1.91-.46.48-.92.96-1.39,1.46l-2-1c1.87-1.9,3.75-3.79,5.62-5.69q.78-.8,1.58-1.61c3.44-3.46,7-6.63,10.79-9.71Z" fill="#262525" stroke-width="0"/><path d="m89.03,410.09h2c-.33,3.3-.66,6.6-1,10h-2c-.05.58-.1,1.16-.15,1.76-.45,4.68-1.15,8.82-2.85,13.24q-1-3-1-7h2c.06-.71.12-1.42.18-2.15q.13-1.38.25-2.79c.08-.92.16-1.83.25-2.78q.32-2.29,1.32-3.29c.37-2.33.7-4.66,1-7Z" fill="#d0d0cf" stroke-width="0"/><path d="m131.03,29.09c-1.59,3.9-4.13,6.34-7.12,9.25-.91.89-1.82,1.78-2.76,2.7-.7.68-1.4,1.35-2.12,2.05l-2-1c1.44-1.61,2.87-3.21,4.31-4.81.8-.89,1.6-1.79,2.43-2.71q5-5.48,7.26-5.48Z" fill="#2f2e2e" stroke-width="0"/><path d="m344.03,387.09c.33,1.98.66,3.96,1,6-3.96-.33-7.92-.66-12-1v-1h6c-.33-.99-.66-1.98-1-3q3-1,6-1Z" fill="#d8d8d6" stroke-width="0"/><path d="m117.03,551.09c.87,2.99,1.11,5.64,1.06,8.75,0,.8-.02,1.6-.03,2.42q-.02.9-.04,1.83-.99.49-2,1c-.33-.66-.66-1.32-1-2-.33.66-.66,1.32-1,2h-2c1.54-4.72,3.08-9.42,5-14Z" fill="#d3d2d1" stroke-width="0"/><path d="m242.03,107.09c2.12-.05,4.25-.09,6.38-.12,1.18-.02,2.37-.05,3.59-.07q3.04.2,5.04,2.2c.66.33,1.32.66,2,1-.33.66-.66,1.32-1,2-2.31-.33-4.62-.66-7-1v-2c-2.97-.33-5.94-.66-9-1v-1Z" fill="#cfcfce" stroke-width="0"/><path d="m254.03,25.09q6.93,2.97,14,6c-4.18,2.09-4.8,2.17-9,1v-2h-4c-.33-1.65-.66-3.3-1-5Z" fill="#e2e2df" stroke-width="0"/><path d="m442.03,439.09c1.13.91,2.26,1.83,3.38,2.75.63.51,1.25,1.02,1.9,1.55,1.81,1.79,2.73,3.38,3.73,5.7-1.65-.33-3.3-.66-5-1v-2c-.99-.33-1.98-.66-3-1q-1.19-2.56-2-5l1-1Z" fill="#dfdedc" stroke-width="0"/><path d="m188.03,396.09c.85,2.96,1.14,5.61,1.12,8.69,0,.79,0,1.58,0,2.39q-.13,1.93-1.13,2.93v2c.66.33,1.32.66,2,1h-6c.79-5.81,2.41-11.37,4-17Z" fill="#d3d2d1" stroke-width="0"/><path d="m185.03,358.09c1.16,3.48.77,4.34-.44,7.69-.29.81-.57,1.62-.87,2.45-.23.61-.46,1.23-.69,1.86h-3c-.33-1.32-.66-2.64-1-4q.93-.59,1.88-1.19c2.45-2.09,3.14-3.79,4.12-6.81Z" fill="#e6e6e5" stroke-width="0"/><path d="m650.03,305.09h1c.33,3.3.66,6.6,1,10-1.98,1.32-3.96,2.64-6,4,.48-1.77.96-3.54,1.44-5.31.27-.99.53-1.97.81-2.99.53-1.91,1.13-3.81,1.75-5.7Z" fill="#dcdbd9" stroke-width="0"/><path d="m459.03,220.09l1,2h2v7c-1.65.33-3.3.66-5,1,.46-3.47.89-6.67,2-10Z" fill="#dddddc" stroke-width="0"/><path d="m703.03,58.09l2,1c-1.65,3.58-3.78,6.75-6,10-.66-.66-1.32-1.32-2-2q0-4,1.31-5.48l4.69-3.52Z" fill="#ebebea" stroke-width="0"/><path d="m449.03,314.09c4.82-.19,8.5.24,13,2-.33.66-.66,1.32-1,2-.99-.33-1.98-.66-3-1-2.33-.04-4.67-.04-7,0-.66,1.65-1.32,3.3-2,5h-1c-.33-1.98-.66-3.96-1-6h2v-2Z" fill="#c8c8c6" stroke-width="0"/><path d="m644.03,292.09c1.29,3.87.22,6.44-.94,10.19q-.29.98-.59,1.98c-.48,1.61-.98,3.22-1.47,4.83q-2-3.75-2-6h2c-.25-.89-.49-1.77-.75-2.69q-.25-3.31,1.69-6.19,1.02-1.05,2.06-2.12Z" fill="#dbdada" stroke-width="0"/><path d="m610.03,234.09q2,.25,4,1c.33.99.66,1.98,1,3q1.5,1.67,3,3c-4.87-.6-9.33-1.57-14-3,2.49-.69,4.38-1,7-1-.66-.66-1.32-1.32-2-2l1-1Z" fill="#c9c8c7" stroke-width="0"/><path d="m584.03,231.09c2.63.62,5.25,1.24,7.88,1.88.75.17,1.49.35,2.26.53q5.64,1.37,7.86,3.6c-1.77.08-3.54.14-5.31.19-.99.03-1.97.07-2.99.11-3.14-.34-3.67-1.03-5.7-3.29h-3c-.33-.99-.66-1.98-1-3Z" fill="#252424" stroke-width="0"/><path d="m101.03,101.09h4c-.11,1.79-.24,3.58-.38,5.38-.07,1-.14,2-.21,3.02q-.41,2.6-2.41,4.6c-.14-.74-.29-1.48-.44-2.25q-.5-2.65-1.19-4.81c-.44-2.27-.08-3.75.62-5.94Z" fill="#ededeb" stroke-width="0"/><path d="m817.03,47.09l2,1-14,14-2-1c4.33-5.18,8.77-9.73,14-14Z" fill="#302f2f" stroke-width="0"/><path d="m577.03,382.09q0,4.62-1,7-2.31,1.38-5,2c-1.32-.66-2.64-1.32-4-2,3.3-2.31,6.6-4.62,10-7Z" fill="#dadad8" stroke-width="0"/><path d="m405.03,323.09c2.01.29,4.01.62,6,1,.33.99.66,1.98,1,3,.99.99,1.98,1.98,3,3-3.3-.66-6.6-1.32-10-2-.33-1.32-.66-2.64-1-4l1-1Z" fill="#d4d4d2" stroke-width="0"/><path d="m539.03,269.09l8,2c-.33.99-.66,1.98-1,3-1.98.33-3.96.66-6,1q-1.06-1.88-2-4l1-2Z" fill="#e7e7e7" stroke-width="0"/><path d="m438.03,245.09h2c-.33,3.3-.66,6.6-1,10h-18v-1h16v-8l1-1Z" fill="#d3d2d1" stroke-width="0"/><path d="m766.03,245.09q2,2,2.12,5.62c-.04,1.11-.08,2.23-.12,3.38-.99.33-1.98.66-3,1q-1.67,1.5-3,3c.48-1.79.96-3.58,1.44-5.38.27-1,.53-2,.81-3.02q.75-2.6,1.75-4.6Z" fill="#d7d7d5" stroke-width="0"/><path d="m649.03,424.09v3c-3.86,2.15-6.55,3.39-11,3,3.42-3.67,5.86-6,11-6Z" fill="#e4e4e3" stroke-width="0"/><path d="m102.03,417.09h3q.31,3.31,0,7-2.5,1.94-5,3,.88-7.75,2-10Z" fill="#ebebe9" stroke-width="0"/><path d="m227.03,332.09c1.32,4.29.69,7.9-1,12q-2.62,3-5,5c-.99-.33-1.98-.66-3-1,.74-.6,1.49-1.2,2.25-1.81,3.91-3.83,5.15-9.09,6.75-14.19Z" fill="#d5d4d2" stroke-width="0"/><path d="m738.03,205.09h1q.62,3.38,1,7c-.66.66-1.32,1.32-2,2-.6,1.52-1.14,3.07-1.62,4.62-.26.82-.52,1.63-.79,2.48-.19.63-.39,1.25-.59,1.9-1.63-4.06-.3-7.2.94-11.25.38-1.26.76-2.53,1.15-3.83.3-.96.6-1.93.91-2.92Z" fill="#b5b4b4" stroke-width="0"/><path d="m860.03,47.09q1,3-.19,5.44c-1.78,2.51-3.46,4.58-5.81,6.56h-3c1.44-3.24,3.26-5.62,5.62-8.25.63-.71,1.26-1.41,1.91-2.14.48-.53.96-1.06,1.46-1.61Z" fill="#d3d2d0" stroke-width="0"/><path d="m110.03,532.09l2,1c-1.65,4.29-3.3,8.58-5,13-2.15-3.23-2.2-4.28-2-8,1.32-.33,2.64-.66,4-1,.33-1.65.66-3.3,1-5Z" fill="#dedddc" stroke-width="0"/><path d="m193.03,384.09h1q-.35,8.35-3.06,11.06c-.64.31-1.28.62-1.94.94.47-4.75,1.17-8.11,4-12Z" fill="#eaeae9" stroke-width="0"/><path d="m696.03,214.09c2.29,6.09-.14,13.06-2,19h-2c.58-6.72,1.87-12.6,4-19Z" fill="#bdbdbb" stroke-width="0"/><path d="m764.03,199.09h2c-1.16,6.55-2.73,12.75-5,19-1.3-4.23-.34-6.78,1-11,.69-2.66,1.34-5.33,2-8Z" fill="#cacaca" stroke-width="0"/><path d="m1.03,647.09h3v7H.03c-.04-2-.04-4,0-6l1-1Z" fill="#e0e0df" stroke-width="0"/><path d="m129.03,321.09c1.1,3.41.94,6.21.56,9.75q-.15,1.48-.31,2.98-.13,1.12-.25,2.27c-.99-.33-1.98-.66-3-1,.6-4.87,1.57-9.33,3-14Z" fill="#cbcbca" stroke-width="0"/><path d="m615.03,313.09c1.08,3.32.92,5.72.25,9.12q-.24,1.3-.48,2.63-.77,2.24-3.77,4.24c.6-5.65,2.08-10.66,4-16Z" fill="#c6c6c5" stroke-width="0"/><path d="m221.03,257.09h14v2c-1.98.99-3.96,1.98-6,3-.33-.99-.66-1.98-1-3-2.31-.33-4.62-.66-7-1v-1Z" fill="#d2d1d1" stroke-width="0"/><path d="m676.03,100.09l2,1c-.76,1.75-1.54,3.5-2.31,5.25-.43.97-.86,1.95-1.3,2.95-1.26,2.54-2.61,4.61-4.39,6.8q.69-8.29,4-12c.7-1.32,1.37-2.65,2-4Z" fill="#d7d6d6" stroke-width="0"/><path d="m563.03,309.09h11v4h-4v-2h-6l-1-2Z" fill="#cccccb" stroke-width="0"/><path d="m139.03,234.09q2.47.99,5,2c-.61,2.96-1.25,4.38-3,7-1.86-3.13-2.2-5.37-2-9Z" fill="#d1d1d0" stroke-width="0"/><path d="m138.03,38.09v3c-.99.33-1.98.66-3,1-.68,1.32-1.35,2.66-2,4-1.29,1.37-2.62,2.71-4,4l-2-1c1.62-2.04,3.29-4.04,5-6h2v-2q2-1.62,4-3Z" fill="#cfcfcd" stroke-width="0"/><path d="m186.03,15.09h-2v2h-4v2h-8q9.18-6.12,14-4Z" fill="#d3d3d2" stroke-width="0"/><path d="m678.03,455.09q0,3-1.43,4.68c-.62.58-1.25,1.16-1.89,1.75-2.5,2.39-4.74,4.69-6.69,7.56v-2l-2-1c.53-.46,1.06-.92,1.61-1.39,3.57-3.1,7.11-6.19,10.39-9.61Z" fill="#e8e7e7" stroke-width="0"/><path d="m707.03,391.09c.99.66,1.98,1.32,3,2-2.31,2.97-4.62,5.94-7,9-.66-.33-1.32-.66-2-1,.33-1.32.66-2.64,1-4h3v-2h2v-4Z" fill="#222121" stroke-width="0"/><path d="m101.03,373.09c.33.99.66,1.98,1,3h2v2q-.69.66-1.39,1.33c-1.94,2.01-2.48,3.7-3.29,6.36-.25.81-.5,1.62-.76,2.45-.18.61-.36,1.23-.55,1.86-1.62-3.23,0-6.31.94-9.62q.29-1.06.59-2.14c.48-1.75.98-3.49,1.47-5.23Z" fill="#3f3e3d" stroke-width="0"/><path d="m232.03,315.09h1q.17,8.59-1,12-2.05,1.14-4,2c.48-1.77.96-3.54,1.44-5.31.27-.99.53-1.97.81-2.99.53-1.91,1.13-3.81,1.75-5.7Z" fill="#c3c2c2" stroke-width="0"/><path d="m728.03,247.09h1c.33,2.64.66,5.28,1,8h-2c.02.95.04,1.9.06,2.88q-.06,3.12-1.06,5.12h-2c.48-5.57,1.3-10.67,3-16Z" fill="#c1c1bf" stroke-width="0"/><path d="m550.03,231.09q5.45,1.49,11,3l-4,1v2q-2.97-.49-6-1c.33-.66.66-1.32,1-2-.66-.33-1.32-.66-2-1v-2Z" fill="#ebebea" stroke-width="0"/><path d="m792.03,155.09c1.46,4.52.27,7.52-1,12h-2c-.33.99-.66,1.98-1,3q-1-2,0-5.04c.48-1.18.95-2.37,1.44-3.59.47-1.19.95-2.38,1.43-3.6.37-.92.75-1.83,1.13-2.77Z" fill="#b5b5b3" stroke-width="0"/><path d="m822.03,55.09q0,3-1.97,5.26c-.84.8-1.67,1.6-2.53,2.43-.84.81-1.67,1.62-2.53,2.45-.65.61-1.3,1.23-1.97,1.86l-2-1c3.36-4.25,6.75-7.64,11-11Z" fill="#d8d7d6" stroke-width="0"/><path d="m403.03,438.09c3.36.6,5.53,1.62,8,4q.75,2.69,1,5c-1.13-.93-2.25-1.87-3.38-2.81-.63-.52-1.25-1.04-1.9-1.58q-1.73-1.61-3.73-4.61Z" fill="#2b2a29" stroke-width="0"/><path d="m495.03,415.09c2.65,2.58,4.94,4.92,7,8h-2v2h-2v-6c-.99.33-1.98.66-3,1-.66-.99-1.32-1.98-2-3h2v-2Z" fill="#dadad8" stroke-width="0"/><path d="m744.03,265.09l3,2c-.66,3.3-1.32,6.6-2,10-2.11-4.23-2.26-6.38-2-11l1-1Z" fill="#ececea" stroke-width="0"/><path d="m537.03,157.09h1v10h-2c-.66,1.98-1.32,3.96-2,6-1.5-3.88-.43-6.43.94-10.25.38-1.08.76-2.16,1.15-3.27q.45-1.23.91-2.48Z" fill="#babab8" stroke-width="0"/><path d="m463.03,121.09c.33,1.65.66,3.3,1,5-3.46-1.25-6.15-2.68-9-5,2.86-1.43,4.93-.6,8,0Z" fill="#d1d0cf" stroke-width="0"/><path d="m43.03,511.09h1c.06,1.04.12,2.07.18,3.14.08,1.37.17,2.74.25,4.11.04.68.08,1.36.12,2.07.21,3.33.46,6.49,1.44,9.68-1.32-.66-2.64-1.32-4-2,.33-5.61.66-11.22,1-17Z" fill="#bfbebe" stroke-width="0"/><path d="m623.03,484.09q-1.38,2-4,4c-3.36.36-6.64.23-10,0,2.63-1.75,4.62-2.69,7.56-3.69.79-.27,1.57-.54,2.38-.82q2.06-.49,4.06.51Z" fill="#434243" stroke-width="0"/><path d="m495.03,441.09q2.38-.12,5,0,2,2,2.12,5.12c-.04.95-.08,1.9-.12,2.88-2.65-2.58-4.94-4.92-7-8Z" fill="#e5e5e3" stroke-width="0"/><path d="m731.03,194.09h2c-.69,3.66-1.57,7.22-2.56,10.81q-.4,1.46-.82,2.96c-.2.74-.41,1.47-.62,2.23h-1c.42-5.6.92-10.72,3-16Z" fill="#e1e0df" stroke-width="0"/><path d="m531.03,177.09c1.03,3.27.96,5.86.56,9.25-.1.89-.2,1.78-.31,2.7q-.13,1.01-.25,2.05h-2c-.33.66-.66,1.32-1,2,.59-5.51,1.57-10.65,3-16Z" fill="#a4a4a2" stroke-width="0"/><path d="m226.03,181.09h1c.21,3.14.2,5.49-.94,8.44-2.6,1.97-3.58,1.66-6.75,1.31-1.44-.23-2.88-.47-4.31-.75,3.31-.86,6.62-1.46,10-2,.33-2.31.66-4.62,1-7Z" fill="#4d4d4d" stroke-width="0"/><path d="m474.03,160.09c.85,3.41,1.11,5.8,1.06,9.25,0,.89-.02,1.78-.03,2.7-.01.68-.02,1.35-.04,2.05q-.99.49-2,1v-2h-2c.99-4.29,1.98-8.58,3-13Z" fill="#c4c4c1" stroke-width="0"/><path d="m807.03,122.09c1.11,3.34,1.17,5.66,0,9q-2.56,2.31-5,4c1.22-4.69,2.7-8.71,5-13Z" fill="#c9c8c7" stroke-width="0"/><path d="m707.03,103.09c.33.99.66,1.98,1,3-.92,1.75-1.85,3.5-2.89,5.18-1.15,1.89-2.14,3.83-3.11,5.82.12-1.42.24-2.83.38-4.25.07-.79.14-1.58.21-2.39.44-2.48,1.1-4.22,2.41-6.36l2-1Z" fill="#2e2d2d" stroke-width="0"/><path d="m785.03,13.09v4h-5v2c-1.65-.33-3.3-.66-5-1,2.7-2.7,6.08-5,10-5Z" fill="#d3d3d3" stroke-width="0"/><path d="m162.22,6.46c.93.21,1.86.41,2.81.62-2.1,2.1-3.38,2.65-6.12,3.62-.72.26-1.45.52-2.2.79q-.83.29-1.68.59.31-1.88,1-4,3-2,6.19-1.62Z" fill="#e7e7e7" stroke-width="0"/><path d="m66.03,628.09c.33.99.66,1.98,1,3l-6,6c-.99-.33-1.98-.66-3-1l8-8Z" fill="#dbdbda" stroke-width="0"/><path d="m74.16,486.02c1.1,0,2.19.02,3.32.03.84.01,1.69.02,2.55.04v1l-9,1c.33.66.66,1.32,1,2-1.32.33-2.64.66-4,1v-3c-.66-.33-1.32-.66-2-1,2.76-1.38,5.05-1.1,8.12-1.06Z" fill="#2a2a2a" stroke-width="0"/><path d="m479.03,438.09q2.5,2.31,5,5v3l-2,1q-1.5-1.12-3-3-.19-3.19,0-6Z" fill="#e0e0de" stroke-width="0"/><path d="m177.03,433.09h4c-.33,2.31-.66,4.62-1,7-1.32-.33-2.64-.66-4-1,.33-1.98.66-3.96,1-6Z" fill="#e0e0de" stroke-width="0"/><path d="m742.03,322.09c.82,3.14,1.41,5.74,1,9q-1.88,2.12-4,4c-.66.99-1.32,1.98-2,3,.66-3.78,1.72-7.22,3.06-10.81.36-.98.72-1.95,1.1-2.96q.42-1.1.84-2.23Z" fill="#aaa9a7" stroke-width="0"/><path d="m924.03,225.09h1v12c-2.16-3.23-2.68-5.17-3-9,.66-.99,1.32-1.98,2-3Z" fill="#d7d5d5" stroke-width="0"/><path d="m197.03,171.09c1.6-.11,3.21-.19,4.81-.25.89-.05,1.79-.09,2.71-.14q2.48.39,4.3,2.41.58.98,1.18,1.98c-4.49-.66-8.67-1.7-13-3v-1Z" fill="#bab9b9" stroke-width="0"/><path d="m850.03,59.09c.33.99.66,1.98,1,3-2.46,3.88-4.62,5.66-9,7,.96-1.29,1.92-2.58,2.88-3.88.53-.72,1.07-1.44,1.62-2.18q1.51-1.95,3.51-3.95Z" fill="#d1d0ce" stroke-width="0"/><path d="m907.03,14.09c-.66,1.98-1.32,3.96-2,6h-4v-2l-2-1q5.75-3,8-3Z" fill="#d4d4d1" stroke-width="0"/><path d="m611.03,431.09c-3.65,2.33-6.74,2.3-11,2q-2.22-1.02-4-2c5.23-.76,9.77-1.21,15,0Z" fill="#bcbbbb" stroke-width="0"/><path d="m196.03,392.09h1c-.12,1.42-.24,2.83-.38,4.25-.07.79-.14,1.58-.21,2.39-.43,2.45-1.2,4.21-2.41,6.36v-7c-.66-.33-1.32-.66-2-1,.66-.66,1.32-1.32,2-2,.66.33,1.32.66,2,1v-4Z" fill="#bab9b9" stroke-width="0"/><path d="m601.03,350.09q1,4,0,6.14c-.48.7-.95,1.39-1.44,2.11-.47.71-.95,1.41-1.43,2.14-.37.53-.75,1.06-1.13,1.61-.66-.33-1.32-.66-2-1,1.98-3.63,3.96-7.26,6-11Z" fill="#cbcac9" stroke-width="0"/><path d="m140.03,281.09c1.46,2.65,2,3.89,2,7q-2,2.19-4,4c.14-1.46.29-2.92.44-4.38.08-.81.16-1.62.25-2.46q.32-2.16,1.32-4.16Z" fill="#c2c2c0" stroke-width="0"/><path d="m153.03,243.09c2.85.66,5.52,1.52,8.25,2.56.71.27,1.41.54,2.14.82.53.2,1.06.41,1.61.62q-1.81,1.06-4,2c-.99-.33-1.98-.66-3-1,.33-.66.66-1.32,1-2h-5c-.33-.99-.66-1.98-1-3Z" fill="#e9e9e8" stroke-width="0"/><path d="m680.03,233.09h1c-.33,4.29-.66,8.58-1,13h-1v-5h-2c.55-3.37,1.05-5.08,3-8Z" fill="#ebebea" stroke-width="0"/><path d="m449.03,195.09c.99.33,1.98.66,3,1-.33,2.31-.66,4.62-1,7-.99-.33-1.98-.66-3-1-.04-2-.04-4,0-6l1-1Z" fill="#ebebea" stroke-width="0"/><path d="m719.03,122.09c0,3.2-.55,4.42-2,7.19-.37.72-.74,1.43-1.12,2.17q-.43.81-.88,1.64-1.07-1.84-2-4c1.57-3.48,2.79-4.86,6-7Z" fill="#bbbab9" stroke-width="0"/><path d="m798.03,30.09c.33.99.66,1.98,1,3l-6,3c-.33-.99-.66-1.98-1-3q2.62-3,6-3Z" fill="#ececeb" stroke-width="0"/><path d="m608.22,520.46q.9.31,1.81.62v2c-3.82,1.42-6.91,2.24-11,2,1.32-.33,2.64-.66,4-1v-2q3-2,5.19-1.62Z" fill="#282827" stroke-width="0"/><path d="m84.03,480.09l2,1v7q-2.97-.49-6-1c.99-.66,1.98-1.32,3-2q.73-2.56,1-5Z" fill="#c7c6c5" stroke-width="0"/><path d="m534.03,474.09q4.45.99,9,2c.33,1.32.66,2.64,1,4-3.59-1.33-6.8-2.89-10-5v-1Z" fill="#d2d2d2" stroke-width="0"/><path d="m180.03,377.09c.98,3.9.95,6.31.56,10.25q-.15,1.62-.31,3.27c-.08.82-.17,1.64-.25,2.48h-3c.99-5.28,1.98-10.56,3-16Z" fill="#464645" stroke-width="0"/><path d="m637.03,360.09q.68,1.77,1,4-1.21,1.92-2.94,3.75c-.57.61-1.13,1.23-1.71,1.86q-.67.69-1.35,1.39c0-3.41.67-4.39,2.5-7.19.46-.72.93-1.43,1.41-2.17.36-.54.72-1.09,1.09-1.64Z" fill="#353334" stroke-width="0"/><path d="m615.03,352.09c.99.66,1.98,1.32,3,2-.45.74-.91,1.48-1.38,2.25-1.31,2.22-2.51,4.43-3.62,6.75v-5c-.66-.33-1.32-.66-2-1,1.32-.33,2.64-.66,4-1-.33-.99-.66-1.98-1-3l1-1Z" fill="#dfdfdd" stroke-width="0"/><path d="m772.03,217.09l1,4h-2q.06,1.92.12,3.88.07,2.18-.12,4.12c-.66.66-1.32,1.32-2,2v-13c.99.33,1.98.66,3,1v-2Z" fill="#525151" stroke-width="0"/><path d="m780.03,191.09c1.37,3.82.68,7.07,0,11-.99.33-1.98.66-3,1,.6-4.19,1.57-8.01,3-12Z" fill="#b4b3b2" stroke-width="0"/><path d="m414.03,130.09h4v2l4-1c-.33,2.64-.66,5.28-1,8q-2-3.75-2-6-2.47-.99-5-2v-1Z" fill="#d0cfcc" stroke-width="0"/><path d="m247.03,5.09l-1,2c.99.33,1.98.66,3,1q-2,1-4.16.44c-.81-.29-1.62-.58-2.46-.88-.82-.29-1.63-.57-2.48-.87-.63-.23-1.25-.46-1.9-.69v-1q5.62-1.12,9,0Z" fill="#c4c3c2" stroke-width="0"/><path d="m504.03,426.09c2.31,1.98,4.62,3.96,7,6-.99.66-1.98,1.32-3,2-.66-.33-1.32-.66-2-1-.73-2.31-1.4-4.65-2-7Z" fill="#e3e3e0" stroke-width="0"/><path d="m516.03,425.09c3.24.35,4.62.56,6.81,3.06.39.64.78,1.28,1.19,1.94-.99.33-1.98.66-3,1-1.65-1.98-3.3-3.96-5-6Z" fill="#e7e7e6" stroke-width="0"/><path d="m591.03,366.09l1,2c-1.81,3.62-4.05,6.26-7,9-.66-.33-1.32-.66-2-1,.41-.47.82-.94,1.24-1.43.54-.62,1.08-1.25,1.63-1.89.53-.61,1.07-1.23,1.62-1.86q1.67-1.96,3.51-4.82Z" fill="#d3d2d0" stroke-width="0"/><path d="m400.03,361.09c2.97,1.65,5.94,3.3,9,5q-1.98.99-4,2c-.33-.99-.66-1.98-1-3-.99.33-1.98.66-3,1-.33-1.65-.66-3.3-1-5Z" fill="#e4e3e1" stroke-width="0"/><path d="m413.03,337.09q6.62-.25,10,2c-.33.99-.66,1.98-1,3q-4.45-1.98-9-4v-1Z" fill="#3a3a39" stroke-width="0"/><path d="m289.03,327.09c.23.64.47,1.29.71,1.95q1.1,2.25,3.45,2.66c.81.05,1.62.09,2.46.14q1.23.09,2.48.17c.63.03,1.25.05,1.9.08v1h-11c-.33-1.65-.66-3.3-1-5l1-1Z" fill="#61615f" stroke-width="0"/><path d="m665.03,241.09h1q.12,2.38,0,5-2,2-5.62,2.12c-1.11-.04-2.23-.08-3.38-.12v-3h2v2c1.98-.66,3.96-1.32,6-2v-4Z" fill="#c3c2c2" stroke-width="0"/><path d="m515.03,183.09c.99.33,1.98.66,3,1l-3,12h-1c.33-4.29.66-8.58,1-13Z" fill="#d5d5d5" stroke-width="0"/><path d="m634.03,161.09h1v11h-3q1-7.43,2-11Z" fill="#d1d0cf" stroke-width="0"/><path d="m729.03,154.09h2c-.33,3.63-.66,7.26-1,11h-1c-.14-.95-.29-1.9-.44-2.88q-.39-3.02-1.56-5.12c.66-.99,1.32-1.98,2-3Z" fill="#454443" stroke-width="0"/><path d="m195.03,66.09v1c-.95.29-1.9.58-2.88.88-3.42,1.23-4.57,2.07-6.25,5.25-.29.62-.58,1.24-.88,1.88q-.25-2.81,0-6c2.94-3.39,5.69-3.29,10-3Z" fill="#515150" stroke-width="0"/><path d="m906.28,3.02c.89,0,1.78.02,2.7.03.68.01,1.35.02,2.05.04v1c-1.96.39-3.91.76-5.88,1.12-1.09.21-2.18.42-3.3.63q-1.4.12-2.82.24c-.66-.66-1.32-1.32-2-2,3.16-.94,5.97-1.11,9.25-1.06Z" fill="#e5e5e3" stroke-width="0"/><path d="m721.03,3.09c.66.99,1.32,1.98,2,3-2.97,1.65-5.94,3.3-9,5v-3c.97-.45,1.94-.91,2.94-1.38q3.13-1.28,4.06-3.62Z" fill="#e0e0e0" stroke-width="0"/><path d="m76.03,614.09c0,3.29-.51,5.09-2,8q-2.12,1.31-4,2c1.65-3.58,3.78-6.75,6-10Z" fill="#c4c3c3" stroke-width="0"/><path d="m65.03,532.09h3v3c2.31.33,4.62.66,7,1v1c-4.67.33-7.17-.29-11-3l1-2Z" fill="#c2c1c1" stroke-width="0"/><path d="m512.03,471.09l4,2v3c-1.65-.33-3.3-.66-5-1l1-4Z" fill="#eae9e8" stroke-width="0"/><path d="m573.03,436.09h8c.66,1.32,1.32,2.64,2,4-3.3-.99-6.6-1.98-10-3v-1Z" fill="#454545" stroke-width="0"/><path d="m206.03,406.09h1q.31,3.19,0,7-2.5,2.94-5,5c1.33-4,2.67-8,4-12Z" fill="#bbbab8" stroke-width="0"/><path d="m653.03,398.09c.99.66,1.98,1.32,3,2q-2.97,2.47-6,5c-.33-.99-.66-1.98-1-3l4-4Z" fill="#eaebea" stroke-width="0"/><path d="m193.03,378.09c2.09,3.4,2.18,6.05,2,10-.66-.99-1.32-1.98-2-3-.66.99-1.32,1.98-2,3,.46-3.47.89-6.67,2-10Z" fill="#c8c8c6" stroke-width="0"/><path d="m424.03,343.09c1.32.62,2.63,1.24,3.94,1.88.73.35,1.46.7,2.21,1.05q1.85,1.07,2.85,3.07c-2.64-.33-5.28-.66-8-1,.33-.99.66-1.98,1-3h-2v-2Z" fill="#dadad8" stroke-width="0"/><path d="m739.03,296.09c1.3,4.67.82,7.53-1.56,11.81-.47.72-.95,1.44-1.44,2.19q-1-2-.22-4.82c.38-1.09.77-2.18,1.16-3.3.38-1.1.76-2.19,1.15-3.32.3-.84.6-1.69.91-2.55Z" fill="#292828" stroke-width="0"/><path d="m676.03,288.09h2q-.75,7.75-3,10-.12-6.62,1-10Z" fill="#262424" stroke-width="0"/><path d="m233.03,274.09c.33.99.66,1.98,1,3-1.62,1.71-3.29,3.37-5,5h-2c1.44-3.37,3.33-5.51,6-8Z" fill="#c4c3c2" stroke-width="0"/><path d="m801.03,135.09l1,4h-2c-.33,2.31-.66,4.62-1,7-.99.33-1.98.66-3,1,.45-1.44.91-2.88,1.38-4.31q.38-1.2.77-2.43.85-2.26,2.85-5.26Z" fill="#c2c2c0" stroke-width="0"/><path d="m732.03,97.09h2c-1.37,4-3.26,6.8-6,10,.33-2.31.66-4.62,1-7,.99-.33,1.98-.66,3-1v-2Z" fill="#e7e6e6" stroke-width="0"/><path d="m780.03,89.09c1.1,3.29.8,4.71,0,8-1.98.66-3.96,1.32-6,2,1.98-3.3,3.96-6.6,6-10Z" fill="#2e2d2d" stroke-width="0"/><path d="m212.03,68.09c1.65.33,3.3.66,5,1q-1,1.56-3,3c-2.77-.03-5.26-.51-8-1v-1c1.98-.33,3.96-.66,6-1v-1Z" fill="#dbdbd8" stroke-width="0"/><path d="m739.03,59.09l1,4q-2.44,2.75-5,5c-.66-.33-1.32-.66-2-1,1.98-2.64,3.96-5.28,6-8Z" fill="#d7d7d6" stroke-width="0"/><path d="m689.03,46.09c.99.33,1.98.66,3,1-2.64,2.64-5.28,5.28-8,8-.66-.33-1.32-.66-2-1,2.31-2.64,4.62-5.28,7-8Z" fill="#dad9d8" stroke-width="0"/><path d="m642.03,540.09l2,1c-3.61,3.29-6.13,4.55-11,5,2.88-2.24,5.77-4.3,9-6Z" fill="#ccc" stroke-width="0"/><path d="m201.03,418.09q.69,1.81,1,4-1.12,1.75-3,3-2.69.19-5,0c.78-.6,1.57-1.2,2.38-1.81q2.77-2.1,4.62-5.19Z" fill="#c0bfbe" stroke-width="0"/><path d="m669.03,400.09h1v5c-2.31.66-4.62,1.32-7,2,.98-1.17,1.96-2.34,2.94-3.5.55-.65,1.09-1.3,1.65-1.97q.7-.76,1.41-1.53Z" fill="#cbcac8" stroke-width="0"/><path d="m550.03,398.09v1h-7c.33,1.65.66,3.3,1,5q-2-1.38-4-3v-2c3.21-1.61,6.44-1.06,10-1Z" fill="#afb0ae" stroke-width="0"/><path d="m417.03,339.09l6,3c-.33.66-.66,1.32-1,2h-5v-5Z" fill="#e7e7e5" stroke-width="0"/><path d="m207.03,330.09c.08.6.17,1.2.25,1.81.95,2.78,2.32,3.62,4.75,5.19q-1,1-3.56,1.06c-.8-.02-1.61-.04-2.44-.06l1-8Z" fill="#cbcac9" stroke-width="0"/><path d="m230.03,325.09q2,2,2.12,5.12c-.04.95-.08,1.9-.12,2.88h-2v-2h-2c.66-1.98,1.32-3.96,2-6Z" fill="#efefee" stroke-width="0"/><path d="m600.03,235.09c1.44-.05,2.87-.09,4.31-.12.8-.02,1.6-.05,2.43-.07q2.26.2,5.26,2.2c-4.52,1.46-7.52.27-12-1v-1Z" fill="#e6e5e5" stroke-width="0"/><path d="m548.03,181.09c4.47-.21,7.82.41,12,2v1c-1.44.08-2.87.14-4.31.19q-1.2.05-2.43.11c-2.74-.35-3.55-1.19-5.26-3.29Z" fill="#313131" stroke-width="0"/><path d="m196.03,106.09q5.45,1.49,11,3c-4.2,1.05-6.79.73-11,0v-3Z" fill="#cacac8" stroke-width="0"/><path d="m227.03,90.09l8,2q-3,2-6.19,1.62c-.93-.21-1.86-.41-2.81-.62.33-.99.66-1.98,1-3Z" fill="#eae9e7" stroke-width="0"/><path d="m794.03,86.09q1,4,0,7c-.99-.33-1.98-.66-3-1v2c-.66-.33-1.32-.66-2-1,1.65-2.31,3.3-4.62,5-7Z" fill="#d3d2d1" stroke-width="0"/><path d="m804.03,39.09l2,1v3h-2v2c-1.65-.33-3.3-.66-5-1l5-5Z" fill="#d8d7d6" stroke-width="0"/><path d="m472.03,513.09c1.98,1.65,3.96,3.3,6,5-.99.33-1.98.66-3,1-1.32-1.32-2.64-2.64-4-4l1-2Z" fill="#dddedc" stroke-width="0"/><path d="m642.03,348.09h2c-.57,3.87-2.49,6.08-5,9,.5-3.73.87-5.81,3-9Z" fill="#d7d6d5" stroke-width="0"/><path d="m459.03,331.09q2.5,1.31,5,3v3l-2,1v-2c-.99-.33-1.98-.66-3-1v-4Z" fill="#dddddb" stroke-width="0"/><path d="m728.03,315.09h2v2h2c-.66,2.64-1.32,5.28-2,8-1.11-3.33-1.54-6.53-2-10Z" fill="#e6e5e4" stroke-width="0"/><path d="m673.03,260.09h3c-.66,3.3-1.32,6.6-2,10h-1v-10Z" fill="#e5e4e3" stroke-width="0"/><path d="m538.66,216.96q1.67.06,3.38.12v1h-6c-.66,1.98-1.32,3.96-2,6h-1q-.12-2.38,0-5,2-2,5.62-2.12Z" fill="#515050" stroke-width="0"/><path d="m528.03,193.09h1q.37,6.57-1.51,8.73c-.49.42-.98.84-1.49,1.27.14-1.48.29-2.96.44-4.44.08-.82.16-1.65.25-2.5q.32-2.07,1.32-3.07Z" fill="#d8d7d7" stroke-width="0"/><path d="m419.03,140.09c0,3.52-.82,4.37-3,7-.99-.66-1.98-1.32-3-2v-2c.8-.31,1.61-.62,2.44-.94q2.45-.83,3.56-2.06Z" fill="#cccccb" stroke-width="0"/><path d="m381.03,126.09q3.46,1.49,7,3c-.99.99-1.98,1.98-3,3-1.67-1.67-3.33-3.33-5-5l1-1Z" fill="#eeedec" stroke-width="0"/><path d="m739.03,109.09q.69,1.75,1,4-1.31,2.25-3,4h-2c1.12-2.97,2.22-5.33,4-8Z" fill="#c8c8c6" stroke-width="0"/><path d="m727.03,75.09l1,4q-.99,1.49-2,3c-.66-.33-1.32-.66-2-1v2c-.66-.33-1.32-.66-2-1,1.65-2.31,3.3-4.62,5-7Z" fill="#dedddc" stroke-width="0"/><path d="m710.03,68.09l1,2c-1.98,2.31-3.96,4.62-6,7-.66-.33-1.32-.66-2-1,2.31-2.64,4.62-5.28,7-8Z" fill="#dddcdc" stroke-width="0"/><path d="m841.03,34.09v3c-3.29,1.1-4.71.8-8,0,1.77-3.54,4.3-3,8-3Z" fill="#454545" stroke-width="0"/><path d="m146.03,31.09l2,1c-1.98,2.31-3.96,4.62-6,7-.99-.66-1.98-1.32-3-2,2.31-1.98,4.62-3.96,7-6Z" fill="#d2d2d0" stroke-width="0"/><path d="m77.03,524.09h1q.37,7.38-1.5,10.5c-.5.49-.99.99-1.5,1.5.55-4.03,1.16-8.02,2-12Z" fill="#5c5c5b" stroke-width="0"/><path d="m66.03,499.09l2,1-7,6v-3q2.5-2.19,5-4Z" fill="#babab8" stroke-width="0"/><path d="m457.03,477.09h3q2,3,1.62,5.19c-.21.6-.41,1.2-.62,1.81q-4-4.75-4-7Z" fill="#dfdfde" stroke-width="0"/><path d="m441.03,460.09c1.98.66,3.96,1.32,6,2v5q-4.88-4.75-6-7Z" fill="#dfdfde" stroke-width="0"/><path d="m155.03,451.09l3,2c-.66,1.65-1.32,3.3-2,5h-2c.33-2.31.66-4.62,1-7Z" fill="#f4f3f3" stroke-width="0"/><path d="m409.03,427.09q2.94.75,6,2,.88,2.12,1,4c-3.26-1.8-4.89-2.83-7-6Z" fill="#d4d4d4" stroke-width="0"/><path d="m734.09,413.02q1.45.03,2.94.06c-.6.27-1.2.54-1.81.81q-2.23,1.08-3.81,2.81c-.45.45-.91.91-1.38,1.38h-2q2.41-4.99,6.06-5.06Z" fill="#393836" stroke-width="0"/><path d="m98.03,379.09c1.46,4.52.27,7.52-1,12q-1.19-1.5-2-4c.73-2.79,1.82-5.38,3-8Z" fill="#e2e1e0" stroke-width="0"/><path d="m653.03,369.09c.33.99.66,1.98,1,3h4c-.33.99-.66,1.98-1,3h-4v-6Z" fill="#d6d5d3" stroke-width="0"/><path d="m203.03,300.09l2,4q-1.98,2.97-4,6-1-2-.44-3.95c.29-.72.58-1.44.88-2.18.29-.72.57-1.45.87-2.2.23-.55.46-1.11.69-1.68Z" fill="#3c3b3b" stroke-width="0"/><path d="m751.03,297.09h4v3c-1.65.66-3.3,1.32-5,2,.33-1.65.66-3.3,1-5Z" fill="#e2e2e0" stroke-width="0"/><path d="m669.03,278.09h2q-.75,7.75-3,10c-.03-1.48-.05-2.96-.06-4.44-.01-.82-.02-1.65-.04-2.5q.1-2.07,1.1-3.07Z" fill="#d8d8d7" stroke-width="0"/><path d="m713.03,218.09h1v9c-.99.33-1.98.66-3,1,.54-3.38,1.11-6.7,2-10Z" fill="#c6c5c3" stroke-width="0"/><path d="m452.03,196.09h1q.37,7.51-1.5,10c-.5.33-.99.66-1.5,1,.6-3.68,1.25-7.35,2-11Z" fill="#3f3e3f" stroke-width="0"/><path d="m586.03,163.09h2c-.31.6-.62,1.2-.94,1.81q-1.16,2.28-2.06,5.19h-2q.75-4.75,3-7Z" fill="#404040" stroke-width="0"/><path d="m178.03,166.09q4.45.99,9,2c-1.32.99-2.64,1.98-4,3-.33-.99-.66-1.98-1-3h-4v-2Z" fill="#151515" stroke-width="0"/><path d="m664.03,155.09h2c-.33,2.64-.66,5.28-1,8h-3l2-8Z" fill="#c5c4c4" stroke-width="0"/><path d="m670.03,134.09h2c-.26,2.34-.59,4.68-1,7q-.99.49-2,1-.12-5.75,1-8Z" fill="#333" stroke-width="0"/><path d="m363.03,69.09h8v4q-5.75-1.75-8-4Z" fill="#cacac8" stroke-width="0"/></g></svg>