<?xml version="1.0" encoding="UTF-8"?><svg id="Layer_2" xmlns="http://www.w3.org/2000/svg" width="112.79" height="241.48" viewBox="0 0 112.79 241.48"><g id="Layer_1-2"><path d="m101.38,8.07c3.35,2.86,5.79,6.18,6.3,10.61.55,8.07.8,16.12.91,24.22.01,1.04.03,2.09.04,3.16.06,4.34.11,8.69.15,13.03.03,3.21.07,6.41.12,9.62,0,.98,0,1.96,0,2.98.02.91.03,1.82.05,2.76,0,.8.02,1.6.02,2.42q.22,2.3,1.89,3.97c1.94,2.88,1.88,4.68,1.88,8.14,0,1.21.02,2.42.03,3.66,0,1.34-.01,2.67-.02,4.01,0,1.41,0,2.82.02,4.23.01,3.83,0,7.65,0,11.48,0,4.01,0,8.01,0,12.02,0,6.73,0,13.46-.02,20.19-.02,7.78-.01,15.55,0,23.33.01,6.68.02,13.36,0,20.04,0,3.99,0,7.97,0,11.96,0,3.75,0,7.5-.01,11.25,0,2.03,0,4.06.01,6.09,0,1.21-.02,2.43-.03,3.68,0,1.05,0,2.1,0,3.19-.53,4.2-1.98,7.66-5.09,10.59-5.18,3.15-9.8,4.46-15.8,5.17-.91.12-1.81.23-2.75.35-9.86,1.16-19.71,1.31-29.63,1.25-3.05-.02-6.1,0-9.15.02-10.11.01-20.06-.41-30.1-1.68-.91-.11-1.81-.22-2.75-.33-6.68-.95-11.7-3.05-16.13-8.4-1.07-3.21-1.13-5.51-1.14-8.88,0-1.23-.01-2.46-.02-3.72,0-1.36,0-2.73,0-4.09,0-1.43,0-2.87-.02-4.3-.01-3.9-.02-7.79-.02-11.69,0-2.43,0-4.87-.01-7.3-.01-7.61-.02-15.22-.03-22.83,0-8.79-.02-17.58-.05-26.37-.02-6.79-.03-13.58-.03-20.37,0-4.06,0-8.12-.02-12.17-.02-3.82-.02-7.63,0-11.45,0-1.4,0-2.8-.01-4.21-.01-1.91,0-3.82,0-5.73,0-1.07,0-2.14,0-3.24.43-3.03,1.12-3.69,3.37-5.64q.45-2.76.38-5.94c.01-1.22.02-2.44.03-3.7,0-.65,0-1.3,0-1.98,0-2.05,0-4.09.03-6.14.04-4.35.05-8.7.06-13.05.01-5.03.03-10.07.08-15.1.01-2.01,0-4.02,0-6.03.01-1.23.02-2.46.03-3.73,0-1.08,0-2.16,0-3.27.59-4.76,2.54-9.06,6.38-12.06,24.41-11.22,66.41-10.29,91,0Z" fill="#fcfbfb" stroke-width="0"/><path d="m100.38,14.07c2.3,3.45,2.24,4.7,2.23,8.76,0,1.18,0,2.36,0,3.58-.01,1.28-.02,2.55-.03,3.86,0,1.31,0,2.61,0,3.96,0,3.47-.03,6.93-.05,10.4-.02,3.54-.03,7.08-.04,10.62-.02,6.94-.06,13.88-.1,20.83-1.03,0-2.06,0-3.13,0-9.75-.02-19.51-.04-29.26-.05-5.01,0-10.03-.01-15.04-.02-4.84-.01-9.69-.02-14.53-.02-1.84,0-3.69,0-5.53-.01-2.59,0-5.18,0-7.78,0-.75,0-1.51,0-2.28-.01-5.22,0-10.27.48-15.45,1.12-.09-7.61-.16-15.21-.21-22.82-.02-3.53-.05-7.06-.09-10.6-.05-4.06-.07-8.13-.09-12.19q-.03-1.9-.06-3.83c0-1.18,0-2.36,0-3.58,0-1.04-.02-2.07-.03-3.14.61-3.59,1.99-5.24,4.48-7.84,20.95-11.18,65.94-8.33,87,1Z" fill="#fcfcfc" stroke-width="0"/><path d="m101.38,8.07c3.35,2.86,5.79,6.18,6.3,10.61.55,8.07.8,16.12.91,24.22.01,1.04.03,2.09.04,3.16.06,4.34.11,8.69.15,13.03.03,3.21.07,6.41.12,9.62,0,.98,0,1.96,0,2.98.02.91.03,1.82.05,2.76,0,.8.02,1.6.02,2.42q.22,2.3,1.89,3.97c1.94,2.88,1.88,4.68,1.88,8.14,0,1.21.02,2.42.03,3.66,0,1.34-.01,2.67-.02,4.01,0,1.41,0,2.82.02,4.23.01,3.83,0,7.65,0,11.48,0,4.01,0,8.01,0,12.02,0,6.73,0,13.46-.02,20.19-.02,7.78-.01,15.55,0,23.33.01,6.68.02,13.36,0,20.04,0,3.99,0,7.97,0,11.96,0,3.75,0,7.5-.01,11.25,0,2.03,0,4.06.01,6.09,0,1.21-.02,2.43-.03,3.68,0,1.05,0,2.1,0,3.19-.53,4.2-1.98,7.66-5.09,10.59-5.18,3.15-9.8,4.46-15.8,5.17-.91.12-1.81.23-2.75.35-9.86,1.16-19.71,1.31-29.63,1.25-3.05-.02-6.1,0-9.15.02-10.11.01-20.06-.41-30.1-1.68-.91-.11-1.81-.22-2.75-.33-6.68-.95-11.7-3.05-16.13-8.4-1.07-3.21-1.13-5.51-1.14-8.88,0-1.23-.01-2.46-.02-3.72,0-1.36,0-2.73,0-4.09,0-1.43,0-2.87-.02-4.3-.01-3.9-.02-7.79-.02-11.69,0-2.43,0-4.87-.01-7.3-.01-7.61-.02-15.22-.03-22.83,0-8.79-.02-17.58-.05-26.37-.02-6.79-.03-13.58-.03-20.37,0-4.06,0-8.12-.02-12.17-.02-3.82-.02-7.63,0-11.45,0-1.4,0-2.8-.01-4.21-.01-1.91,0-3.82,0-5.73,0-1.07,0-2.14,0-3.24.43-3.03,1.12-3.69,3.37-5.64q.45-2.76.38-5.94c.01-1.22.02-2.44.03-3.7,0-.65,0-1.3,0-1.98,0-2.05,0-4.09.03-6.14.04-4.35.05-8.7.06-13.05.01-5.03.03-10.07.08-15.1.01-2.01,0-4.02,0-6.03.01-1.23.02-2.46.03-3.73,0-1.08,0-2.16,0-3.27.59-4.76,2.54-9.06,6.38-12.06,24.41-11.22,66.41-10.29,91,0ZM10.73,15.8c-1.73,2.89-1.71,4.78-1.69,8.13,0,1.18,0,2.36,0,3.58.02,1.27.03,2.54.05,3.85,0,1.3,0,2.61.01,3.95.01,3.46.04,6.92.07,10.38.03,3.53.04,7.07.06,10.6.03,6.93.08,13.85.15,20.78,1.3-.16,2.61-.33,3.95-.49,4.61-.51,9.14-.64,13.78-.62q1.23,0,2.49,0c2.68,0,5.36,0,8.03.02,1.87,0,3.74,0,5.61,0,4.9,0,9.79.01,14.69.02,5.01.01,10.02.01,15.02.02,9.81.01,19.61.03,29.42.05.09-7.62.16-15.25.21-22.87.02-3.54.05-7.08.09-10.62.05-4.07.07-8.14.09-12.21.02-1.27.04-2.54.06-3.85,0-1.18,0-2.36,0-3.58q.01-1.56.03-3.15c-.61-3.42-1.82-4.57-4.48-6.72C81.32,4.66,24.92.86,10.73,15.8Zm-5.35,68.26q-.46,2.57-.39,5.64c-.01,1.2-.02,2.4-.03,3.63,0,1.34,0,2.67,0,4.01,0,1.4-.02,2.8-.03,4.2-.02,3.81-.03,7.62-.02,11.44,0,3.18,0,6.36-.02,9.54-.02,7.51-.02,15.01-.02,22.52,0,7.74-.02,15.49-.05,23.23-.03,6.65-.04,13.29-.04,19.94,0,3.97,0,7.94-.03,11.91-.02,3.74-.02,7.47,0,11.21,0,2.02-.01,4.05-.04,6.07q-.21,7.04,2.99,12.96c11.53,7.43,30.31,5.18,43.4,5.11,3.62-.02,7.25,0,10.87.02,10.49.01,20.9-.13,31.3-1.62q1.14-.15,2.3-.3c3.89-.65,7.03-1.65,9.76-4.58,2.48-4.62,1.69-10.48,1.64-15.57,0-1.41,0-2.81.02-4.22.01-3.81,0-7.62-.03-11.44-.02-3.99-.01-7.98-.01-11.96,0-6.69-.02-13.39-.05-20.08-.04-7.75-.05-15.49-.04-23.24,0-7.45,0-14.9-.02-22.34,0-3.17-.01-6.34,0-9.52,0-3.73-.01-7.46-.04-11.19,0-1.37,0-2.74,0-4.11,0-1.87-.01-3.73-.03-5.6,0-1.05,0-2.09-.01-3.17-.13-.81-.25-1.63-.38-2.47-9.48-6.32-25.46-4.16-36.44-4.17-1.34,0-2.67,0-4.01-.01-2.78,0-5.55,0-8.33,0-3.52,0-7.03-.01-10.55-.03-2.75-.01-5.5-.01-8.26-.01-1.91,0-3.83-.01-5.74-.02q-14.47-.37-27.68,4.25Z" fill="#0d0e0d" stroke-width="0"/><path d="m71.38,109.07q3,1.56,5,4c1.21,4.66.89,8.32,0,13l1,1q.59,7.23-1.88,10.44c-4.21,3.09-8.01,3.32-13.12,2.56q-3.06-2-5-5c-.7-4.13-.08-7.99,1-12l-1-2c-.48-4.25-.45-6.32,1.94-9.94,4.11-2.77,7.24-2.99,12.06-2.06Z" fill="#090909" stroke-width="0"/><path d="m17.38,110.07h7c.33,3.63.66,7.26,1,11,.48-.79.97-1.59,1.47-2.41q5.41-8.24,8.84-9.32,2.19.04,5.69.73c-1.35,3.84-3.08,6.65-5.62,9.81-.63.79-1.26,1.58-1.91,2.39-.48.59-.96,1.18-1.46,1.79.94,1.42,1.87,2.83,2.81,4.25.52.79,1.04,1.58,1.58,2.39,1.05,1.55,2.15,3.06,3.3,4.53q1.3,1.83,1.3,3.83-4.93.88-8,0c-3.13-3.02-5.58-6.4-8-10-.33,3.63-.66,7.26-1,11h-7v-30Z" fill="#0b0b0b" stroke-width="0"/><path d="m53.38,110.07v30h-7c-.33-5.94-.66-11.88-1-18l-1,2-3-1q-1.19-2.56-2-5c.99-1.35,2.02-2.68,3.06-4,.57-.74,1.14-1.48,1.72-2.25q2.21-1.75,9.21-1.75Z" fill="#0f0f0f" stroke-width="0"/><path d="m90.88,114.94q2.5.12,3.5,1.12.12,3,0,6-1,1-3.56,1.06c-.8-.02-1.61-.04-2.44-.06v8c.78-.04,1.57-.08,2.38-.12q2.62.12,4.62,2.12-.56,4.56-2,6c-1.67.04-3.33.04-5,0q.06,1.42.12,2.88-.12,3.12-2.12,5.12-2.62-.38-5-1-.62-2.38-1-5,2-2,4.62-2.12c.78.04,1.57.08,2.38.12v-8c-.78.04-1.57.08-2.38.12q-2.62-.12-4.62-2.12.19-2.5,1-5,3-2,6-2c-.02-.97-.04-1.94-.06-2.94q.08-4.01,3.56-4.19Z" fill="#1a1a1a" stroke-width="0"/><path d="m90.88,114.94q2.5.12,3.5,1.12.12,3,0,6-1,1-3.56,1.06c-.8-.02-1.61-.04-2.44-.06v5c-.8.12-1.61.25-2.44.38-.85.21-1.69.41-2.56.62l-1,2-2-2q.19-2.5,1-5,3-2,6-2c-.02-.97-.04-1.94-.06-2.94q.08-4.01,3.56-4.19Z" fill="#151516" stroke-width="0"/><path d="m91.38,131.07l4,2c-.33,1.65-.66,3.3-1,5q-3,0-5-1,.88-4.88,2-6Z" fill="#6d6c6c" stroke-width="0"/><path d="m65.38,128.07c1.68.29,3.34.62,5,1-.33,1.65-.66,3.3-1,5-1.65-.33-3.3-.66-5-1q0-4,1-5Z" fill="#f0f0f0" stroke-width="0"/><path d="m82.38,123.07q2.06.44,4,1c-.33,1.65-.66,3.3-1,5h-2c-.33.66-.66,1.32-1,2-.66-.66-1.32-1.32-2-2q.56-4.56,2-6Z" fill="#757475" stroke-width="0"/><path d="m90.94,115.01q1.21.03,2.44.06c.33.66.66,1.32,1,2q-.94,2.12-2,4c-1.32-.33-2.64-.66-4-1q-.56-1.94-1-4,1-1,3.56-1.06Z" fill="#737374" stroke-width="0"/><path d="m65.38,115.07c1.68.29,3.34.62,5,1-.33,1.32-.66,2.64-1,4-1.32.33-2.64.66-4,1-.38-1.66-.71-3.32-1-5l1-1Z" fill="#ececec" stroke-width="0"/><path d="m83.38,141.07q1.94.31,4,1c.33.99.66,1.98,1,3-.66.66-1.32,1.32-2,2q-2.62-.38-5-1c.66-1.65,1.32-3.3,2-5Z" fill="#787878" stroke-width="0"/><path d="m84.94,139.01q1.21.03,2.44.06c.33,1.65.66,3.3,1,5-.66-.66-1.32-1.32-2-2h-3c-.33.99-.66,1.98-1,3h-2q1.07-5.98,4.56-6.06Z" fill="#131312" stroke-width="0"/></g></svg>