<?xml version="1.0" encoding="UTF-8"?><svg id="Layer_2" xmlns="http://www.w3.org/2000/svg" width="99.89" height="239.9" viewBox="0 0 99.89 239.9"><g id="Layer_1-2"><path d="m49.93.01q1.7,0,3.44.01,3,.3,6,2.3c.67,2.46,1.16,4.75,1.56,7.25.12.71.24,1.42.37,2.16.37,2.2.72,4.39,1.07,6.59.21,1.3.42,2.59.63,3.93.88,5.76,1.46,11.23,1.37,17.07.89.04,1.77.08,2.69.12,3.54.93,5.04,2.07,7.29,4.92,2.02,3.88,1.53,8.07,1.33,12.33-.02.93-.05,1.85-.07,2.81-.06,2.27-.14,4.54-.24,6.82.8-.03,1.59-.07,2.41-.11q10.96-.28,15.59,3.11c8.66,8.87,6.26,20.27,6.13,31.89-.52,36.29-3.11,72.74-9.13,108.54-.12.73-.24,1.45-.36,2.2q-3.5,20.92-9.51,25.6c-5.18,2.72-10.69,2.34-16.41,2.3-1.17,0-2.35,0-3.56.01-2.48,0-4.95,0-7.43-.02-3.78-.02-7.57,0-11.35.03-2.41,0-4.82,0-7.23-.02-1.13,0-2.26.02-3.42.02-6.02-.07-10.13-.23-14.73-4.56-7.06-9.37-7.26-25.87-9-37.31-.13-.85-.26-1.7-.39-2.58-2.89-19.18-4.38-38.41-5.47-57.76-.13-2.36-.28-4.71-.42-7.07-.62-10.52-.93-21.02-.95-31.56,0-2.51-.04-5.01-.07-7.52,0-1.62-.01-3.24-.02-4.87-.01-.74-.02-1.47-.04-2.23.02-5.68,1.09-10.54,4.95-14.88,6.22-4.04,12.18-3.72,19.41-3.22-.02-.61-.04-1.22-.06-1.85-.08-2.78-.14-5.56-.19-8.34-.03-.96-.07-1.92-.1-2.91-.06-4.28-.03-7.16,1.93-11.02,3.1-2.42,5.54-2.66,9.42-2.89.04-1.01.07-2.01.11-3.05.36-8.16,1.03-16.24,2.2-24.32.11-.81.21-1.63.32-2.47.5-3.23.93-5.64,3.06-8.18C44.13,0,46.6-.04,49.93.01Z" fill="#fcfcfc" stroke-width="0"/><path d="m49.93.01q1.7,0,3.44.01,3,.3,6,2.3c.67,2.46,1.16,4.75,1.56,7.25.12.71.24,1.42.37,2.16.37,2.2.72,4.39,1.07,6.59.21,1.3.42,2.59.63,3.93.88,5.76,1.46,11.23,1.37,17.07.89.04,1.77.08,2.69.12,3.54.93,5.04,2.07,7.29,4.92,2.02,3.88,1.53,8.07,1.33,12.33-.02.93-.05,1.85-.07,2.81-.06,2.27-.14,4.54-.24,6.82.8-.03,1.59-.07,2.41-.11q10.96-.28,15.59,3.11c8.66,8.87,6.26,20.27,6.13,31.89-.52,36.29-3.11,72.74-9.13,108.54-.12.73-.24,1.45-.36,2.2q-3.5,20.92-9.51,25.6c-5.18,2.72-10.69,2.34-16.41,2.3-1.17,0-2.35,0-3.56.01-2.48,0-4.95,0-7.43-.02-3.78-.02-7.57,0-11.35.03-2.41,0-4.82,0-7.23-.02-1.13,0-2.26.02-3.42.02-6.02-.07-10.13-.23-14.73-4.56-7.06-9.37-7.26-25.87-9-37.31-.13-.85-.26-1.7-.39-2.58-2.89-19.18-4.38-38.41-5.47-57.76-.13-2.36-.28-4.71-.42-7.07-.62-10.52-.93-21.02-.95-31.56,0-2.51-.04-5.01-.07-7.52,0-1.62-.01-3.24-.02-4.87-.01-.74-.02-1.47-.04-2.23.02-5.68,1.09-10.54,4.95-14.88,6.22-4.04,12.18-3.72,19.41-3.22-.02-.61-.04-1.22-.06-1.85-.08-2.78-.14-5.56-.19-8.34-.03-.96-.07-1.92-.1-2.91-.06-4.28-.03-7.16,1.93-11.02,3.1-2.42,5.54-2.66,9.42-2.89.04-1.01.07-2.01.11-3.05.36-8.16,1.03-16.24,2.2-24.32.11-.81.21-1.63.32-2.47.5-3.23.93-5.64,3.06-8.18C44.13,0,46.6-.04,49.93.01ZM7.37,76.32c-1.66,3.32-1.18,7.02-1.2,10.67,0,.89-.01,1.78-.02,2.7-.02,2.94-.02,5.88-.03,8.82,0,1.01,0,2.01,0,3.05,0,19.67,1.16,39.1,3.05,58.67.3,3.16.58,6.31.86,9.47,1.26,13.43,3.19,26.74,5.34,40.05.13.79.25,1.59.38,2.4.36,2.26.74,4.52,1.12,6.78.11.67.21,1.35.32,2.04.89,5.11,2.51,8.67,6.18,12.34q2.27.33,4.92.31c1.02.02,2.05.03,3.11.05,1.11,0,2.22.01,3.37.02,1.14,0,2.28.02,3.45.03,2.42.01,4.83.02,7.25.03,3.69.01,7.39.06,11.08.11,2.34,0,4.69.02,7.03.02,1.11.02,2.21.04,3.35.06q6.23,0,11.6-2.91c1.61-2.37,2.56-3.85,3.06-6.62.14-.75.29-1.49.44-2.26.13-.81.27-1.62.4-2.45.16-.88.32-1.76.48-2.66.51-2.9.99-5.81,1.46-8.71.16-.95.33-1.9.5-2.88,2.61-15.28,4.25-30.63,5.69-46.06.08-.9.17-1.79.26-2.72,1.76-18.87,2.76-37.71,2.85-56.67.01-1.77.03-3.54.06-5.31.04-2.61.06-5.22.07-7.83q.03-1.18.05-2.38c-.01-3.77-.33-5.92-2.38-9.12-3.64-3.52-6.15-3.17-11.13-3.21-.72,0-1.45-.01-2.19-.02-2.4-.02-4.8-.03-7.2-.04-.82,0-1.64,0-2.48-.01-4.34-.02-8.67-.04-13.01-.04-4.48-.01-8.96-.05-13.44-.09-3.44-.03-6.89-.03-10.33-.04-1.65,0-3.3-.02-4.95-.04-2.31-.02-4.62-.02-6.94-.02-1.32,0-2.63-.01-3.99-.02-3.99.57-5.62,1.67-8.44,4.49Z" fill="#0c0c0c" stroke-width="0"/><path d="m25.37,105.32h49c-.14,6.6-.29,13.2-.44,20-.04,2.07-.09,4.14-.13,6.27-.04,1.66-.08,3.32-.12,4.98-.02.84-.03,1.69-.05,2.56-.02.83-.04,1.66-.06,2.52-.02.71-.03,1.42-.05,2.15-.22,3.52-.72,7.02-1.16,10.52H26.37c-.17-3.82-.33-7.63-.5-11.56-.05-1.15-.1-2.3-.16-3.48-.46-11.35-.34-22.56-.34-33.96Z" fill="#fcfcfc" stroke-width="0"/><path d="m23.76,99.08c1.01,0,2.01,0,3.05,0,1.14,0,2.28,0,3.45,0,1.23,0,2.47.01,3.74.02q1.89,0,3.82,0c2.67,0,5.33,0,8,.02,3.43.02,6.85.02,10.28.02,3.26,0,6.52,0,9.78.02q1.85,0,3.74,0,1.7,0,3.44.02,1.51,0,3.04.01,2.27.13,3.27,1.13c.1,1.8.14,3.6.15,5.41,0,1.15.01,2.31.02,3.5,0,1.26,0,2.51,0,3.81q0,1.92.01,3.88c0,2.72,0,5.43,0,8.15,0,3.49.01,6.97.03,10.45.01,3.32.01,6.63.01,9.95,0,1.26.01,2.51.02,3.8,0,1.16,0,2.32,0,3.51,0,1.02,0,2.05,0,3.1q-.25,2.44-2.25,4.44-2.37.24-5.37.23-1.68,0-3.4,0c-1.21-.01-2.43-.02-3.68-.03-1.24,0-2.48,0-3.76,0-3.3,0-6.6-.03-9.89-.05-3.36-.02-6.73-.03-10.09-.04-6.6-.02-13.21-.06-19.81-.1-1.59-3.17-1.24-6.61-1.32-10.09-.02-.82-.04-1.64-.06-2.49-.04-1.75-.08-3.5-.12-5.25-.06-2.61-.12-5.22-.19-7.83-.13-5.12-.22-10.23-.31-15.35-.02-.87-.03-1.73-.05-2.62-.05-2.51-.08-5.02-.1-7.53-.02-.76-.03-1.53-.05-2.31-.01-1.85.08-3.69.2-5.53q2-2,4.4-2.25Zm1.6,6.25q-.03,18.74.5,37.44c.16,3.82.33,7.63.5,11.56h46q.83-6.36,1.21-12.67c.02-.83.04-1.66.06-2.52.02-.84.03-1.69.05-2.56.02-.8.04-1.6.06-2.42.07-2.94.13-5.89.19-8.83.14-6.6.29-13.2.44-20H25.37Z" fill="#0d0d0d" stroke-width="0"/><path d="m37.88,45.05q1.12,0,2.27.01c.77,0,1.54,0,2.33,0,1.63,0,3.25,0,4.88.01,2.5.01,4.99,0,7.49-.01,1.58,0,3.16,0,4.74,0,.75,0,1.5,0,2.27-.01q5.28.05,7.51,2.28v19H30.37q0-21.21,7.51-21.28Z" fill="#fbfbfb" stroke-width="0"/><path d="m45.37,6.32h9c.68,4,1.34,8,2,12,.19,1.13.38,2.25.58,3.41.18,1.1.36,2.2.55,3.34.17,1.01.34,2.01.51,3.05.43,3.71.37,7.47.37,11.2h-17c.47-11.31,1.63-21.94,4-33Z" fill="#f8f8f8" stroke-width="0"/></g></svg>