<?xml version="1.0" encoding="UTF-8"?><svg id="Layer_2" xmlns="http://www.w3.org/2000/svg" width="232" height="238.66" viewBox="0 0 232 238.66"><g id="Layer_1-2"><path d="m231,.66q.68,1.76,1,4-1.16,1.88-2.96,3.79c-.65.7-1.3,1.39-1.97,2.11-3.18,3.22-6.43,6.34-9.76,9.41-.7.65-1.39,1.29-2.11,1.96-2.06,1.91-4.13,3.82-6.2,5.73-.58.53-1.15,1.06-1.74,1.61-4.32,3.99-8.64,7.96-13.04,11.85q-10.8,9.24-15.44,22.23-.07,1.48-.15,3c-.45,7.36-2.53,15.22-7.87,20.55-2.71,4.25-1.43,7.67-.5,12.45,3.27,20.56,1.7,40.09-.75,60.62q-5.73,37.13,3.14,72.41,1.36,2.28,1.36,6.28c-16.75-1.68-43.15-7.96-55.55-20.14-5.52-7.06-5.61-16.15-5.51-24.73,0-.78,0-1.57.01-2.38.01-1.92.03-3.83.05-5.75-.61.46-1.21.92-1.84,1.39-8.91,6.53-16.58,10.49-27.85,10.13-8.44-1.32-15.66-6.38-22.31-11.52q.24.83.49,1.68c1.93,8.77.33,18.16-2.61,26.51-4.79,7.19-11.44,11.04-19.38,14-.87.34-1.74.67-2.63,1.02-6.71,2.53-13.44,4.4-20.43,5.98-3,.71-5.8,1.57-8.69,2.62-3.64,1.15-4.38,1.28-7.75.19.79-3.4,1.86-6.68,2.94-10,6.01-19.72,4.34-39.46,2.12-59.69-.19-1.76-.37-3.52-.55-5.28-.34-3.22-.68-6.44-1.03-9.66-.08-.72-.16-1.44-.24-2.18-.17-1.52-.34-3.04-.52-4.56-3.43-29.51,0-63.2,18.28-87.64,12.21-15.01,27.28-27.09,47-30,2.31-.09,4.62-.13,6.94-.12,1.18,0,2.37,0,3.59,0q3.47.13,6.66.7c2.81.43,4.15.21,6.81-.57,13.76-1.09,25.38,2.81,37.66,8.48q3.24,1.55,6.34,2.52c1.92-.76,3.83-1.52,5.74-2.29,4.26-1.33,8.88-1.32,13.2-.21,2.47.6,4.77.75,7.31.82.89.04,1.78.07,2.7.11,7.44-1.04,13.42-5.92,19.3-10.3,1.58-1.16,3.15-2.31,4.73-3.46q1.22-.9,2.47-1.81c4.33-3.15,8.72-6.22,13.11-9.29.81-.57,1.62-1.13,2.45-1.72,3.95-2.76,7.91-5.49,11.89-8.19.72-.49,1.43-.97,2.17-1.47,3.68-2.25,5.86-2.17,9.93-1.18Z" fill="#131312" stroke-width="0"/><path d="m75.21,33.4c.86,0,1.71,0,2.59,0,1.8,0,3.6,0,5.39.01,2.73.01,5.45,0,8.18-.01,1.76,0,3.51,0,5.27,0,.8,0,1.61,0,2.43-.01,7.72.06,14.74,1.42,21.73,4.78.89.42,1.79.85,2.71,1.28,2.16,1.06,4.33,2.13,6.48,3.22-.33.56-.66,1.11-1,1.69q-1.21,2.26-.71,4.67-.29,2.64-2.74,4.96c-1.07.74-2.14,1.48-3.24,2.25q-1.58,1.12-3.2,2.25c-1.03.72-2.05,1.44-3.11,2.18q-3.97,2.78-6,7c5.48-.33,8.79-3.69,12.81-7.06q1.04-.85,2.1-1.72c1.7-1.4,3.4-2.8,5.09-4.22l2,1v3c-1.89,1.64-3.72,3.07-5.75,4.5-1.07.77-2.13,1.55-3.23,2.34-1.78,1.28-3.58,2.53-5.41,3.75q-.8.7-1.61,1.41v3c5.34-1.74,9.08-5.05,13.36-8.54q4.33-3.46,7.64-3.46v3c-2.07,1.79-4.1,3.4-6.31,5q-6.66,4.45-10.69,11c5.63-1.77,9.58-5.53,14-9.28,1.61-1.32,3.3-2.53,5-3.72.99.33,1.98.66,3,1-1.12,3.37-1.8,3.85-4.6,5.85-.72.52-1.44,1.05-2.18,1.58q-1.13.81-2.29,1.63c-1.5,1.07-2.99,2.14-4.47,3.22-.66.47-1.33.95-2.01,1.43-.48.42-.96.85-1.45,1.28v2c5.27-.39,8.3-3.31,12.19-6.56q6.57-5.44,8.81-5.44c.33.99.66,1.98,1,3-1.73,1.42-3.46,2.83-5.19,4.25-.96.79-1.93,1.58-2.92,2.39-1.88,1.53-3.8,3.03-5.76,4.47-.71.62-1.41,1.25-2.14,1.89v3c5.47-1.82,9.08-5.28,13.38-9,2.38-1.81,3.72-2.61,6.62-3-.56,3.36-1.39,4.69-4.12,6.69q-.94.7-1.89,1.42c-.65.48-1.31.96-1.98,1.45-1.3.95-2.59,1.91-3.88,2.88q-.86.63-1.74,1.27-1.67,1.35-2.38,4.29c5.94-.42,9.21-4.39,13.36-8.23,1.49-1.33,3.06-2.56,4.64-3.77.99.33,1.98.66,3,1-1.53,4.37-4.95,6.47-8.56,9.06q-4.71,3.14-7.44,7.94c4-.62,6.7-2.77,10-5h2c.63,2.46,1.25,4.92,1.88,7.38.17.68.35,1.36.53,2.06,2.23,8.83,3.91,17.15,3.79,26.29,0,.87,0,1.75,0,2.65-.01,2.75-.04,5.5-.06,8.25-.01,1.88-.02,3.76-.03,5.64-.02,4.58-.06,9.15-.1,13.73,8.83-17.66,2.48-44.81-3.13-62.26-.71-2.24-1.33-4.46-1.87-6.74q2.69-2.06,6-4,2.71.38,5,1c2.53,10.63,3.49,20.54,3.38,31.44,0,.74,0,1.47-.01,2.23-.07,12.37-1.15,24.39-2.98,36.63-3.03,21.03-3.96,41.87.61,62.71.34,1.67.67,3.33,1,5-3.7-.82-5.54-1.34-7.75-4.5-3.03-8.49-3.52-16.67-3.38-25.62,0-1.05.02-2.1.03-3.19.02-2.56.06-5.12.1-7.69h-2q-.68,16.65,2.34,32.89.66,2.11.66,5.11c-2.76-.52-5.33-1.11-8-2-7.88-18.87-2.74-46,2.56-65.01,1.14-5.14.67-10.68.69-15.92.02-1.26.04-2.51.06-3.81.04-10.23-.65-21.39-6.31-30.26-.66-.33-1.32-.66-2-1,.36.83.72,1.66,1.09,2.52,7.69,20.42,4.19,41.86.48,62.76q-3.82,21.02-1.48,42.05c.86,3.48.92,4.46-.09,7.68q-2.81-.88-6-3c-6.02-12.73-4.33-26.87-1.56-40.12,5.52-27.07,7.73-59.22-7.25-83.81-5.71-7.96-13.86-11.96-22.96-14.98-5.86-1.96-11.4-3.96-15.23-9.08-1.06-4.08-1.2-8.07-1.32-12.27-.02-.68-.04-1.36-.06-2.06-.06-2.16-.12-4.32-.18-6.48-.04-1.47-.09-2.94-.13-4.41-.11-3.59-.21-7.18-.31-10.78l-3-1q.03,1.5.06,3.03c.07,3.72.12,7.45.16,11.17.02,1.61.05,3.22.08,4.82.05,2.32.07,4.64.09,6.96.02.71.04,1.43.06,2.16,0,5.1-1.28,7.92-4.45,11.86-4.01,3.59-8.73,5.32-13.81,6.88-12.46,3.96-19.48,10.43-25.62,21.77-9.81,20.79-8.6,47.47-3.57,69.36.21.93.42,1.85.63,2.81.9,3.99,1.8,7.99,2.74,11.97q.32,1.34.64,2.71c.19.8.38,1.6.58,2.42q.41,2.09.41,5.09h2c-1.6-11.83-3.34-23.58-5.73-35.27-1.22-6.3-1.47-12.32-1.27-18.73,1.87,2.8,2.97,5.46,4.16,8.59,2.34,6.16,4.53,11.36,8.91,16.33,5.96,6.84,6.85,12.81,6.87,21.82,0,1.05,0,2.11.01,3.19-.27,7.7-2.04,14.91-7.47,20.67-5.41,4.58-15.47,8.39-22.48,8.39.15-1.1.31-2.21.46-3.35,2.58-21.14-.79-41.11-4.62-61.87-5.23-28.84-3.94-55.97,13.15-80.78,9.71-13.06,24.14-20.83,40-24-14.7-.47-26.68,5.77-37.19,15.62-15.64,16.43-22.32,38.67-22.31,60.99.59,17.38,4.5,35.21,7.92,52.23,1.42,7.76,1.79,15.28,1.83,23.16.02,1.04.04,2.08.06,3.16.03,6.27-.1,11.37-3.31,16.84-2.63,1.49-5.23,2-8.19,2.5q-1.12.23-2.27.47c-1.84.38-3.69.71-5.54,1.03.42-3.15.84-6.26,1.5-9.37,1.67-8.02,1.85-15.89,1.81-24.07,0-.71,0-1.43,0-2.16-.03-12.51-.99-24.75-2.56-37.17-4.27-34-3.99-70.6,17.25-99.23,12.04-15.26,29.46-26.36,49.21-26.27Z" fill="#545451" stroke-width="0"/><path d="m86,77.66h2c.64.72,1.28,1.44,1.94,2.19,4.54,4.71,11.17,6.71,17.16,8.99,12.63,4.89,18.39,11.4,23.9,23.82,5.9,15.04,1.46,32.13-4.39,46.38-6.97,14.94-18.23,26.51-33.61,32.62-6.16,1.92-11.32.67-17-2-18.87-10.33-28.08-27.09-34.31-47.12-3.46-12.95-1.54-26.58,5-38.38,7.23-10.58,16.08-14.43,27.77-18.74,4.9-1.84,8.57-3.3,11.55-7.76Z" fill="#fdfdfd" stroke-width="0"/><path d="m225,1.66h7c-.42,4.94-2.56,7.01-6.06,10.38q-1.38,1.34-2.79,2.71c-2.3,2.15-4.65,4.23-7.02,6.3-4.14,3.6-8.14,7.34-12.13,11.12-4.65,4.4-9.34,8.72-14.21,12.89-5.57,5.01-10.37,10.53-11.01,18.3-.05.99-.1,1.98-.15,3-.45,7.36-2.53,15.22-7.87,20.55-2.71,4.25-1.43,7.67-.5,12.45,3.27,20.56,1.7,40.09-.75,60.62q-5.73,37.13,3.14,72.41,1.36,2.28,1.36,6.28c-16.77-1.68-43.22-7.98-55.61-20.21-2.21-2.84-3-5.25-3.39-8.79.32-.78.64-1.56.97-2.36,1.16-2.96,1.25-5.08,1.2-8.24,0-1.07.01-2.13.02-3.23,0-2.21-.02-4.43-.06-6.64.09-7.37,1.5-11.46,6.07-17.23,2.56-3.25,4.32-6.76,6.11-10.48q.5-.99,1.01-2c2.07-4.2,3.52-8.28,4.68-12.81h1c.3,7.83-.61,15.22-1.88,22.94-.17,1.1-.35,2.21-.53,3.34-1.1,6.92-2.31,13.83-3.6,20.72h3c.11,1.26.22,2.51.33,3.8q.55,13.11,4.67,25.2,2.52,1.28,5,2c-.14-.54-.29-1.08-.44-1.63-3.76-16.64-1.49-32.96,1.44-49.49,2.03-11.51,3.6-22.66,3.62-34.38.01-1.08.02-2.17.03-3.28-.12-6.97-1.53-12.93-3.8-19.52q-.85-2.7-.85-5.7,3,1,4.1,2.71c.32.73.64,1.47.96,2.22.32.71.64,1.42.97,2.15,2.87,8.66,3.38,17.21,3.4,26.29q0,1.87,0,3.79c-.16,12.67-2.33,24.76-4.9,37.14-1.29,6.33-1.74,12.39-1.74,18.82,0,.83,0,1.65,0,2.51.06,6.94.82,13.55,2.19,20.37.76.14,1.53.29,2.31.44q2.69.56,5.69,1.56c-.2-.58-.41-1.16-.62-1.76-.27-.78-.54-1.56-.82-2.37-.27-.77-.53-1.53-.81-2.32-1.9-6.43-1.91-12.66-1.88-19.3,0-.96,0-1.92-.01-2.9,0-.91,0-1.83,0-2.77,0-.83,0-1.66,0-2.52q.13-2.06,1.13-4.06h2c.01.63.03,1.27.04,1.92q-.13,19.2,5.96,37.08,2.54,1.28,5,2-.44-1.01-.9-2.04c-8.48-22.84-3.66-49.13-1.07-72.62.08-.75.16-1.5.25-2.28.34-3.06.73-6.08,1.27-9.11.54-3.54.61-7.02.62-10.59,0-.72,0-1.44.01-2.18,0-1.52,0-3.04,0-4.56,0-2.29.02-4.58.04-6.87.03-7.33-.18-14.38-1.79-21.57q-.43-2.19-.43-6.19-4.22-.44-7.75,1.5c-.41.5-.82.99-1.25,1.5h-2c.33.73.65,1.45.99,2.2,8.61,19.81,11.29,43.58,6.01,64.8-.96,1.36-1.96,2.7-3,4,.02-1.17.04-2.35.06-3.55.07-4.45.12-8.9.16-13.35.02-1.91.05-3.81.08-5.72.23-12.64-.8-24.1-3.85-36.38-.68-2.98-1.07-5.97-1.45-9-.6.44-1.21.89-1.83,1.35-.8.57-1.6,1.13-2.42,1.71-.79.57-1.58,1.14-2.39,1.72q-2.36,1.21-4.66.9c-.56-.23-1.12-.45-1.7-.68,1.32-3.04,2.6-4.76,5.26-6.73.63-.47,1.25-.95,1.89-1.44.65-.48,1.3-.96,1.97-1.46,2.35-1.74,4.62-3.52,6.88-5.38v-2c-4.66,1.98-8.38,5.41-12.22,8.63q-4.26,3.41-7.18,3.17c-.53-.26-1.05-.53-1.59-.8,1.32-3.02,2.58-4.74,5.22-6.69.62-.47,1.24-.94,1.88-1.42q.97-.72,1.96-1.45c1.29-.95,2.57-1.91,3.85-2.88.57-.42,1.14-.84,1.72-1.27q1.65-1.35,2.37-4.29c-5.63,3.63-10.93,7.45-16.05,11.78-.64.4-1.28.81-1.95,1.22q-1.49-.5-3-1c.26-3.29,1.16-4.15,3.62-6.47,1.08-.87,2.16-1.74,3.26-2.59q4.83-3.69,9.12-7.94v-2q-1.34,1.03-2.7,2.08c-1.18.91-2.36,1.82-3.55,2.73-.59.45-1.17.9-1.78,1.37-1.14.88-2.29,1.76-3.43,2.63-1.28.99-2.54,2.01-3.79,3.03q-1.75,1.16-4.5.84c-.74-.23-1.49-.45-2.25-.69,1.55-4.21,4.38-6.05,7.94-8.62q1.59-1.16,3.21-2.35c1.93-1.37,3.88-2.71,5.85-4.02v-2c-4.65,1.98-8.36,5.36-12.22,8.54-3.3,2.62-4.42,3.46-8.78,3.46.49-4.2,2.71-5.88,5.81-8.56.87-.76,1.75-1.53,2.64-2.32q6.14-5.12,9.54-5.12v-8q-1.31-2.33-3-4.69c-.56-.81-1.11-1.62-1.69-2.45-.43-.61-.87-1.23-1.31-1.86,1.25-.82,2.5-1.63,3.75-2.44.7-.45,1.39-.9,2.11-1.37,3.97-2.21,7.37-2.28,11.87-2.11,1.12.03,2.23.05,3.38.08,2.32.06,4.65.14,6.97.23,11.13.2,18.31-3.76,26.93-10.39,1.29-.96,2.57-1.93,3.86-2.89.67-.5,1.34-1.01,2.03-1.53q28.82-21.58,33.12-21.58c.33-.99.66-1.98,1-3l-2-1Zm-5,8q-1.64,1.96-3,4,3.12-1.31,5-4h-2Z" fill="#131413" stroke-width="0"/><path d="m130,54.66l2,1v3c-1.89,1.64-3.72,3.07-5.75,4.5-1.07.77-2.13,1.55-3.23,2.34-1.78,1.28-3.58,2.53-5.41,3.75-.53.46-1.06.93-1.61,1.41v3c5.34-1.74,9.08-5.05,13.36-8.54q4.33-3.46,7.64-3.46v3c-2.07,1.79-4.1,3.4-6.31,5q-6.66,4.45-10.69,11c5.63-1.77,9.58-5.53,14-9.28,1.61-1.32,3.3-2.53,5-3.72l3,1c-1.12,3.37-1.8,3.85-4.6,5.85-.72.52-1.44,1.05-2.18,1.58-.75.54-1.51,1.08-2.29,1.63-1.5,1.07-2.99,2.14-4.47,3.22q-1,.71-2.01,1.43c-.48.42-.96.85-1.45,1.28v2c5.27-.39,8.3-3.31,12.19-6.56q6.57-5.44,8.81-5.44.5,1.49,1,3c-1.73,1.42-3.46,2.83-5.19,4.25q-1.44,1.18-2.92,2.39c-1.88,1.53-3.8,3.03-5.76,4.47-.71.62-1.41,1.25-2.14,1.89v3c5.47-1.82,9.08-5.28,13.38-9,2.38-1.81,3.72-2.61,6.62-3-.56,3.36-1.39,4.69-4.12,6.69-.62.47-1.25.94-1.89,1.42-.65.48-1.31.96-1.98,1.45-1.3.95-2.59,1.91-3.88,2.88-.57.42-1.15.84-1.74,1.27q-1.67,1.35-2.38,4.29c5.94-.42,9.21-4.39,13.36-8.23,1.49-1.33,3.06-2.56,4.64-3.77.99.33,1.98.66,3,1-1.53,4.37-4.95,6.47-8.56,9.06q-4.71,3.14-7.44,7.94c4-.62,6.7-2.77,10-5h2c.63,2.46,1.25,4.92,1.88,7.38.17.68.35,1.36.53,2.06,2.23,8.83,3.91,17.15,3.79,26.29,0,.87,0,1.75,0,2.65-.01,2.75-.04,5.5-.06,8.25-.01,1.88-.02,3.76-.03,5.64-.02,4.58-.06,9.15-.1,13.73,8.83-17.66,2.48-44.81-3.13-62.26-.71-2.24-1.33-4.46-1.87-6.74q2.69-2.06,6-4,2.71.38,5,1c2.53,10.63,3.49,20.54,3.38,31.44,0,.74,0,1.47-.01,2.23-.07,12.37-1.15,24.39-2.98,36.63-3.03,21.03-3.96,41.87.61,62.71.34,1.67.67,3.33,1,5-3.7-.82-5.54-1.34-7.75-4.5-3.03-8.49-3.52-16.67-3.38-25.62,0-1.05.02-2.1.03-3.19.02-2.56.06-5.12.1-7.69h-2q-.68,16.65,2.34,32.89.66,2.11.66,5.11c-2.76-.52-5.33-1.11-8-2-7.88-18.87-2.74-46,2.56-65.01,1.14-5.14.67-10.68.69-15.92.02-1.26.04-2.51.06-3.81.04-10.23-.65-21.39-6.31-30.26q-.99-.49-2-1,.54,1.25,1.09,2.52c7.69,20.42,4.19,41.86.48,62.76q-3.82,21.02-1.48,42.05c.86,3.48.92,4.46-.09,7.68q-2.81-.88-6-3c-6.02-12.73-4.33-26.87-1.56-40.12,5.52-27.07,7.73-59.22-7.25-83.81-5.38-7.48-12.99-11.27-21.19-15.06l1-5,6,1-1-3q-3.5-1.72-7-3l2-2c.04-2,.04-4,0-6l1-2,2,1-1,3c5.48-.33,8.79-3.69,12.81-7.06.69-.57,1.39-1.14,2.1-1.72,1.7-1.4,3.4-2.8,5.09-4.22Z" fill="#f3f3f2" stroke-width="0"/><path d="m56,64.66q4,4.47,4,7h-2q.49,2.48,1,5c-.68.33-1.36.66-2.05,1-13.61,6.96-21.84,15.66-26.95,30-3.43,11.43-3.37,23.18-3,35h2c-.03-.9-.07-1.79-.11-2.72-.39-17.96,2.71-36.42,15.11-50.28,5.45-4.87,10.48-9,18-9,.99,1.32,1.98,2.64,3,4-.72.38-1.45.75-2.2,1.14-.97.51-1.93,1.02-2.93,1.55-.95.5-1.9,1-2.88,1.51-10.17,6.12-16.61,16.7-19.47,28.16-.17.87-.34,1.74-.52,2.64-.2,1.02-.4,2.05-.61,3.11-2.87,17.58-2.37,35.57,1.61,52.89.21.93.42,1.85.63,2.81.9,3.99,1.8,7.99,2.74,11.97.21.9.42,1.79.64,2.71.19.8.38,1.6.58,2.42q.41,2.09.41,5.09h2c-1.6-11.83-3.34-23.58-5.73-35.27-1.22-6.3-1.47-12.32-1.27-18.73,1.87,2.8,2.97,5.46,4.16,8.59,2.34,6.16,4.53,11.36,8.91,16.33,5.96,6.84,6.85,12.81,6.87,21.82,0,1.05,0,2.11.01,3.19-.27,7.7-2.04,14.91-7.47,20.67-5.41,4.58-15.47,8.39-22.48,8.39.15-1.1.31-2.21.46-3.35,2.58-21.14-.79-41.11-4.62-61.87-5.22-28.83-3.95-55.98,13.15-80.78,4.08-5.47,11.48-15,19-15Z" fill="#f5f5f4" stroke-width="0"/><path d="m54,38.66q.37,2.76,0,6-2.49,2.02-5.88,3.81c-18.52,10.52-28.51,27-34.12,47.19-2.14,8.87-3.28,17.91-4,27h2c.09-.89.17-1.77.26-2.68,2.82-24.82,11.58-47.59,30.74-64.32q8.46-6,12-6v3c1.65-.33,3.3-.66,5-1-.66.66-1.32,1.32-2,2,.08.79.16,1.58.24,2.39-.08.86-.16,1.72-.24,2.61q-2.49,1.89-5.88,3.69c-16.05,9.15-25.95,24.77-31.12,42.31-6.74,26.6-.87,53.5,4.42,79.84,1.42,7.76,1.79,15.28,1.83,23.16.02,1.04.04,2.08.06,3.16.03,6.27-.1,11.37-3.31,16.84-2.63,1.49-5.23,2-8.19,2.5q-1.12.23-2.27.47c-1.84.38-3.69.71-5.54,1.03.42-3.15.84-6.26,1.5-9.37,1.67-8.02,1.85-15.89,1.81-24.07,0-.71,0-1.43,0-2.16-.03-12.51-.99-24.75-2.56-37.17-4.27-34-3.99-70.6,17.25-99.23,5.7-7.22,17.81-21,28-21Z" fill="#f7f7f6" stroke-width="0"/><path d="m143,110.66q3,1,4.1,2.71c.32.73.64,1.47.96,2.22.32.71.64,1.42.97,2.15,2.87,8.66,3.38,17.21,3.4,26.29q0,1.87,0,3.79c-.16,12.67-2.33,24.76-4.9,37.14-1.29,6.33-1.74,12.39-1.74,18.82,0,.83,0,1.65,0,2.51.06,6.94.82,13.55,2.19,20.37,1.65.33,3.3.66,5,1-.33,1.65-.66,3.3-1,5-12.14-2.17-26.59-6.11-34.65-16.03-1.65-2.41-2.14-4.06-2.35-6.97.32-.76.65-1.52.98-2.31,1.13-2.98,1.23-5.12,1.19-8.3,0-1.07.01-2.13.02-3.23,0-2.21-.02-4.43-.06-6.64.09-7.37,1.5-11.46,6.07-17.23,2.56-3.25,4.32-6.76,6.11-10.48.33-.66.67-1.32,1.01-2,2.07-4.2,3.52-8.28,4.68-12.81h1c.3,7.83-.61,15.22-1.88,22.94q-.26,1.65-.53,3.34c-1.1,6.92-2.31,13.83-3.6,20.72h3c.11,1.26.22,2.51.33,3.8q.55,13.11,4.67,25.2,2.52,1.28,5,2c-.14-.54-.29-1.08-.44-1.63-3.76-16.64-1.49-32.96,1.44-49.49,2.03-11.51,3.6-22.66,3.62-34.38.01-1.08.02-2.17.03-3.28-.12-6.97-1.53-12.93-3.8-19.52q-.85-2.7-.85-5.7Z" fill="#161614" stroke-width="0"/><path d="m97.75,33.35c.71.01,1.43.02,2.16.04,11.41.31,20.01,4.2,30.09,9.28-.33.56-.66,1.11-1,1.69q-1.21,2.26-.7,4.67-.3,2.64-2.82,5c-1.09.77-2.18,1.53-3.29,2.27q-4.15,2.8-7.82,6.15-1.36,1.23-5.36,1.23c.04,1.28.08,2.56.12,3.88q.07,2.18-.12,4.12l-2,2c2.31.99,4.62,1.98,7,3v3c-1.98-.33-3.96-.66-6-1-.33,1.65-.66,3.3-1,5-6.76-.35-12.32-4.32-17-9-1.14-4.04-1.15-8.02-1.21-12.2-.03-1.39-.06-2.77-.09-4.16-.04-2.17-.08-4.34-.1-6.52-.03-2.11-.07-4.21-.12-6.32-.02-1.26-.04-2.51-.06-3.81-.14-.99-.27-1.98-.42-2.99-.99-.66-1.98-1.32-3-2,4.18-3.07,7.71-3.44,12.75-3.31Z" fill="#575854" stroke-width="0"/><path d="m223,5.66q0,3-1.84,4.95c-.84.72-1.68,1.44-2.54,2.18q-1.38,1.2-2.79,2.43t-2.84,2.45c-1.61,1.43-3.21,2.87-4.81,4.31-.82.74-1.64,1.48-2.49,2.24-3.64,3.31-7.26,6.64-10.86,10-2.54,2.36-5.1,4.68-7.75,6.94q-1.31,1.12-2.65,2.27c-.76.63-1.53,1.27-2.32,1.92-5.32,5.84-6.78,12.29-7.68,19.95q-1.3,10.7-4.44,15.38-2.19.88-4,1c-5.62-6.72-10.71-13.73-15.7-20.93-2.27-3.27-4.56-6.44-7.17-9.46q-2.14-2.61-2.14-4.61h-3v-3c4.18-1.59,7.46-2.21,11.92-2.02,1.11.03,2.22.06,3.36.09,2.3.08,4.59.17,6.89.27,11.1.25,18.24-3.73,26.83-10.34,1.28-.96,2.57-1.93,3.86-2.89.67-.5,1.34-1.01,2.02-1.53,3.78-2.82,7.61-5.58,11.43-8.33q1.14-.82,2.31-1.66c5.43-3.91,10.88-7.78,16.38-11.59Z" fill="#f7f7f6" stroke-width="0"/><path d="m135,146.66h1c.3,7.85-.61,15.27-1.88,23-.17,1.11-.35,2.22-.53,3.37-.79,4.99-1.65,9.95-2.71,14.89-.94,4.6-1.19,9-1.13,13.68,0,.77,0,1.54.01,2.34.09,6.05.79,11.84,2.24,17.72-6.09-3.1-10.59-6.24-13.1-12.93-1.42-5.37-1.39-10.86-1.46-16.38-.05-1.08-.1-2.15-.15-3.26-.09-7.36,1.34-11.38,5.9-17.13,2.57-3.25,4.32-6.77,6.12-10.48.33-.66.67-1.32,1.01-2,2.07-4.2,3.52-8.28,4.68-12.81Z" fill="#f5f4f4" stroke-width="0"/><path d="m75.31,38.6q1.32.01,2.68.03,1,.02,2.01.04v3c-1.04.16-2.08.32-3.15.48-8.38,1.36-15.54,3-22.85,7.52-.95.57-1.91,1.13-2.89,1.71-20.33,12.73-30.3,31.39-35.8,54.13-1.26,5.69-2.33,11.41-3.31,17.15h-2c-1.11-23.29,7.31-45.65,22.03-63.46,10.21-10.94,28.06-20.81,43.28-20.61Z" fill="#141413" stroke-width="0"/><path d="m138,44.66v2h3q1.45,1.51,2.97,3.63c.57.78,1.13,1.56,1.72,2.37q.9,1.27,1.82,2.57c.62.86,1.24,1.71,1.87,2.59,1.88,2.61,3.76,5.23,5.63,7.85,1.58,2.2,3.17,4.41,4.77,6.6.93,1.28,1.85,2.56,2.77,3.85,2.01,2.78,3.57,4.62,6.46,6.55q-2.25,2.56-5,5c-3.56-.29-4.07-1.08-6.52-3.93-.96-1.31-1.91-2.62-2.85-3.95-.51-.7-1.02-1.4-1.55-2.12-1.11-1.52-2.21-3.04-3.31-4.56-1.85-2.54-3.72-5.07-5.6-7.58-1.27-1.7-2.53-3.4-3.8-5.1-.6-.81-1.21-1.62-1.83-2.45-.56-.76-1.13-1.53-1.71-2.31-.5-.67-1-1.35-1.51-2.04-1.3-1.92-2.34-3.85-3.32-5.94q3.75-3,6-3Z" fill="#ececeb" stroke-width="0"/><path d="m143,110.66q3,1,4.1,2.71c.32.73.64,1.47.96,2.22.32.71.64,1.42.97,2.15,7.06,21.31,3.16,45.53-1.41,66.93-.42,1.98-.81,3.97-1.17,5.96-.16.91-.33,1.82-.5,2.76-.14.8-.28,1.6-.42,2.43-.18.61-.36,1.21-.54,1.83q-.99.5-2,1c-.31,2.55-.51,5-.62,7.56q-.06,1.07-.12,2.15c-.09,1.76-.18,3.52-.26,5.28h-1c-.83-13.78.58-26.6,3-40.12,2.03-11.51,3.6-22.66,3.62-34.38q.02-1.62.03-3.28c-.12-6.97-1.53-12.93-3.8-19.52q-.85-2.7-.85-5.7Z" fill="#191918" stroke-width="0"/><path d="m89,52.66h1c.33,2.97.66,5.94,1,9,.33-.33.66-.66,1-1,6.04-.06,10.23,1.16,15,5l2,2q-.56,4.56-2,6c2.31.99,4.62,1.98,7,3v3l-6-1-1,5c-6.76-.35-12.32-4.32-17-9-1.35-4.52-1.11-9.14-1.06-13.81q0-1.18.01-2.39c.01-1.93.03-3.87.05-5.8Z" fill="#555551" stroke-width="0"/><path d="m54,38.66q.37,2.76,0,6-2.49,2.02-5.88,3.81c-17.78,10.1-27.55,25.51-33.46,44.76-1.75,6.38-2.79,12.88-3.67,19.43-.99-.66-1.98-1.32-3-2,2.76-23.75,9.46-46.11,28.46-62.11q13.3-9.89,17.54-9.89Z" fill="#eeeeed" stroke-width="0"/><path d="m79,69.66v2c-2.08,1.07-4.16,2.13-6.25,3.19-.63.32-1.27.64-1.92.97-3.96,1.98-7.93,3.7-12.08,5.28-11.93,4.95-18.61,13.02-23.75,24.56-4.82,11.78-5.2,24.43-6,37h-2c-2.82-19.01.17-37.59,11.69-53.31,1.66-1.8,3.34-3.23,5.31-4.69.72-.55,1.44-1.11,2.18-1.68,6.01-4.21,12.49-7.02,19.26-9.76.88-.35,1.75-.71,2.66-1.07,3.97-1.55,6.57-2.49,10.91-2.49Z" fill="#141413" stroke-width="0"/><path d="m85,37.66l4,1c.02.91.04,1.82.06,2.75.08,3.39.17,6.78.26,10.16.04,1.46.07,2.93.1,4.39.05,2.11.1,4.22.16,6.33.03,1.27.06,2.53.1,3.84.4,4.48.92,8.24,4.31,11.35.77.47,1.53.94,2.32,1.42q1.14.72,2.3,1.45c2.41,1.31,4.82,2.33,7.39,3.3q-3.99,2.66-7,3-2.29-.86-4.62-2.19c-.78-.43-1.55-.85-2.35-1.29-2.21-1.66-3.01-2.98-4.02-5.52q-.65.63-1.32,1.28c-3.79,3.49-6.33,5.46-11.68,5.72l-1-2c2.22-2.22,4.44-4.43,6.69-6.62,3.73-3.83,3.51-6.89,3.63-12.01.02-.75.04-1.5.06-2.28.07-2.4.12-4.81.18-7.21.04-1.63.09-3.26.13-4.89.11-4,.21-7.99.31-11.99Z" fill="#090908" stroke-width="0"/><path d="m113,35.66c6,1.83,11.45,4.07,17,7-.33.56-.66,1.11-1,1.69q-1.2,2.28-.78,4.79-.22,2.52-2.62,4.76c-1.02.68-2.04,1.37-3.09,2.07-1.02.7-2.04,1.39-3.09,2.11-.79.52-1.59,1.04-2.41,1.57-.12-.63-.24-1.27-.37-1.92q-.44-2.28-2.69-3.33c-.64-.25-1.28-.5-1.94-.75.06-.93.12-1.86.19-2.81q.12-3.17-1.69-5.06c-.49-.37-.99-.74-1.5-1.12,4.38.82,8.68,1.9,13,3-1.64-1.81-2.74-2.91-5.06-3.75-3.08-1.99-3.18-4.82-3.94-8.25Z" fill="#f2f1f1" stroke-width="0"/><path d="m138,47.66c3.92.53,5.26,2.11,7.62,5.19.69.9,1.38,1.79,2.09,2.72,3.75,5.08,7.45,10.2,11.06,15.38.86,1.2,1.74,2.39,2.63,3.56,2.59,3.42,3.59,4.74,3.59,9.16h-3q-1.56-1.63-3.22-3.92c-.62-.84-1.23-1.67-1.87-2.54q-.98-1.35-1.97-2.73c-1.34-1.84-2.69-3.67-4.04-5.51-.66-.9-1.32-1.81-2-2.74-1.68-2.26-3.39-4.48-5.15-6.68-.47-.59-.94-1.18-1.43-1.79-1.25-1.56-2.51-3.11-3.76-4.66-.52-.8-1.03-1.61-1.56-2.43.33-.99.66-1.98,1-3Z" fill="#10100f" stroke-width="0"/><path d="m38,157.66h1c1.18,6.44,2.35,12.87,3.51,19.31.39,2.17.79,4.34,1.2,6.5,1.05,5.83,1.49,11.26,1.29,17.18h-2c-.99-3.8-1.97-7.61-2.94-11.41-.49-1.92-.99-3.84-1.49-5.75q-4.71-18.56-2.58-22.83h2v-3Z" fill="#161615" stroke-width="0"/><path d="m158,128.66c.99.33,1.98.66,3,1,.03,3.98.05,7.96.06,11.94,0,1.12.02,2.23.03,3.38q.05,16.81-2.65,21.24c-.47.47-.95.95-1.44,1.44-.17-13.03.36-25.99,1-39Z" fill="#0b0b0a" stroke-width="0"/><path d="m56,47.66c.33.99.66,1.98,1,3,.56-.08,1.11-.17,1.69-.25,5.37-.72,9.97-.62,15.31.25v4c-1.92.48-3.83.96-5.75,1.44-1.07.27-2.13.53-3.23.81-1.8.45-3.6.9-5.41,1.35-.53.13-1.06.27-1.61.4q-1-4.88-1-6h-2c-.33-1.32-.66-2.64-1-4l2-1Z" fill="#656561" stroke-width="0"/><path d="m153,190.66h2c.03.65.05,1.31.08,1.98.12,3.01.24,6.01.36,9.02.04,1.03.08,2.06.12,3.12.24,5.68.64,11.25,1.44,16.88-.99.33-1.98.66-3,1-1.76-6.78-2.28-12.95-2.19-19.94,0-.94,0-1.89,0-2.86q.04-6.92,1.19-9.2Z" fill="#1a1a19" stroke-width="0"/><path d="m131,192.66l2,1c1.37,7.82,3.09,18.88-1,26-3.55-8.75-3.76-16.79-2-26l1-1Z" fill="#0c0c0b" stroke-width="0"/><path d="m79,69.66v2c-8.83,4.59-17.62,8.62-27,12q0-3,1.99-4.99c3.59-2.4,7.14-3.78,11.2-5.2q10.62-3.81,13.81-3.81Z" fill="#0e0e0d" stroke-width="0"/><path d="m97,39.66c6.2-.54,11.15.4,17,2.31.67.21,1.34.43,2.03.65q1.9.66,4.97,2.04c.33.99.66,1.98,1,3q-7.53-.75-9.84-1.97c-2.91-1.39-5.71-1.71-8.91-2.16-1.17-.17-2.34-.34-3.55-.51q-1.34-.18-2.7-.37v-3Z" fill="#131412" stroke-width="0"/><path d="m80,38.66v3c-1.1.19-2.19.39-3.32.59-1.45.26-2.91.53-4.36.79-.72.13-1.44.25-2.19.38-3.95.72-7.41,1.7-11.13,3.24h-3q.13-1.86,1-4c7.25-3.54,15.02-4.65,23-4Z" fill="#0d0d0b" stroke-width="0"/><path d="m13,97.66h3c-.58,8.5-2.24,16.69-4,25h-2c-.32-7.91-.61-17.79,3-25Z" fill="#111" stroke-width="0"/><path d="m143,197.66h2c.33,7.92.66,15.84,1,24h-3c-.83-2.91-1.13-5.49-1.13-8.51,0-.84,0-1.68,0-2.54,0-.87,0-1.74.01-2.63,0-.88,0-1.76-.01-2.67,0-.84,0-1.67,0-2.53,0-.77,0-1.53,0-2.32q.13-1.79,1.13-2.79Z" fill="#0b0b0a" stroke-width="0"/><path d="m96,51.66c7.41-.35,13.34.67,20,4v4c-.52-.19-1.04-.39-1.58-.59-6.06-2.14-12.08-3.41-18.42-4.41v-3Z" fill="#12120f" stroke-width="0"/><path d="m36,140.66h1c1.03,6.7,1.1,13.23,1,20h-2c-.33.66-.66,1.32-1,2-2.08-6.97-1.96-15.35,1-22Z" fill="#070706" stroke-width="0"/><path d="m96,69.66c6.2,1.94,12.11,4.26,18,7v3c-3.56-.62-6.77-1.55-10.12-2.88-.85-.33-1.7-.65-2.57-.99-2.31-1.13-3.7-2.13-5.3-4.13v-2Z" fill="#1b1c1b" stroke-width="0"/><path d="m146,73.66c.33.99.66,1.98,1,3-1.79,1.48-3.58,2.96-5.38,4.44q-1.5,1.24-3.02,2.5-2.6,2.07-4.6,3.07l-2-1c1.52-3.83,3.79-5.73,7-8.25.89-.71,1.77-1.41,2.69-2.14q2.31-1.61,4.31-1.61Z" fill="#ebebe9" stroke-width="0"/><path d="m137,61.66v3c-2.13,1.86-4.22,3.53-6.5,5.19-.62.46-1.24.93-1.88,1.4-1.53,1.14-3.08,2.28-4.62,3.41l-3-3c2.1-1.68,4.2-3.34,6.31-5,.59-.48,1.19-.95,1.8-1.45q4.54-3.55,7.88-3.55Z" fill="#ececeb" stroke-width="0"/><path d="m138,44.66v2c.99.33,1.98.66,3,1-.99.33-1.98.66-3,1,1.5,3.11,3.2,6.05,5,9-1.32.33-2.64.66-4,1-2.31-3.63-4.62-7.26-7-11q4-3,6-3Z" fill="#e3e3e2" stroke-width="0"/><path d="m26,124.66h3v18h-2c-.9-6.05-1.11-11.89-1-18Z" fill="#292828" stroke-width="0"/><path d="m106,76.66c.99.66,1.98,1.32,3,2-.66,1.65-1.32,3.3-2,5q-1.75-.12-4-1-2.25-3.06-4-6c2.71-1.36,4.11-.77,7,0Z" fill="#565653" stroke-width="0"/><path d="m151,80.66c-.34,2.88-.78,3.82-3.07,5.7-.82.51-1.65,1.02-2.5,1.55-.83.52-1.65,1.04-2.5,1.58q-.96.58-1.93,1.17l-2-3c1.62-1.17,3.25-2.34,4.88-3.5.9-.65,1.81-1.3,2.74-1.97q2.38-1.53,4.38-1.53Z" fill="#e6e7e4" stroke-width="0"/><path d="m81,46.66v3c-4.62.33-9.24.66-14,1v-2c4.65-2.4,8.91-2.2,14-2Z" fill="#11110f" stroke-width="0"/><path d="m92,60.66c1.44.11,2.88.24,4.31.38q1.2.1,2.43.21,2.26.41,5.26,2.41v2c-4.32-.51-8.03-1.2-12-3v-2Z" fill="#141412" stroke-width="0"/><path d="m161,171.66l2,1c-.33,4.95-.66,9.9-1,15-2.33-3.5-2.24-5-2.19-9.12,0-1.08.01-2.15.02-3.26q.17-2.62,1.17-3.62Z" fill="#ececea" stroke-width="0"/><path d="m153,86.66c.99.33,1.98.66,3,1-1.45,3.83-3.36,5.22-7,7h-3c1.49-3.79,3.62-5.77,7-8Z" fill="#dededc" stroke-width="0"/><path d="m130,54.66l2,1v3q-1.75,1.39-4,2.69c-.74.44-1.48.87-2.25,1.32-.58.33-1.16.65-1.75.99v-2c-.66-.33-1.32-.66-2-1,2.64-1.98,5.28-3.96,8-6Z" fill="#e1e0de" stroke-width="0"/><path d="m82,61.66l-1,2q-1.89.6-4.25,1.06c-.81.16-1.62.33-2.45.5q-1.14.22-2.3.44-1.52.31-3.06.62c-.64.12-1.28.25-1.94.38v-2c5.15-3.17,9.16-3.35,15-3Z" fill="#1a1b18" stroke-width="0"/><path d="m13,111.66q.12,7.62-1,11h-2v-10q2-1,3-1Z" fill="#2c2c2b" stroke-width="0"/><path d="m124,61.66v3q-2.5,2.19-5,4c-1.32-.66-2.64-1.32-4-2q5.62-5,9-5Z" fill="#ededeb" stroke-width="0"/><path d="m126,67.66l4,2c-2.31,1.65-4.62,3.3-7,5-.66-.99-1.32-1.98-2-3,1.65-1.32,3.3-2.64,5-4Z" fill="#e4e3e2" stroke-width="0"/><path d="m9,100.66l1,2h2c-.33,3.3-.66,6.6-1,10-.99-.66-1.98-1.32-3-2,.33-3.3.66-6.6,1-10Z" fill="#e4e3e2" stroke-width="0"/><path d="m64.25,56.97q.87.34,1.75.69h-2v3c-1.98.66-3.96,1.32-6,2v-3c2.17-2.17,3.14-3.12,6.25-2.69Z" fill="#0c0c09" stroke-width="0"/><path d="m115,43.66l6,1c.33.99.66,1.98,1,3-2.64-.33-5.28-.66-8-1,.33-.99.66-1.98,1-3Z" fill="#232423" stroke-width="0"/><path d="m155,213.66c1.76,3.09,2,4.23,2,8-.99.33-1.98.66-3,1q-.62-2.81-1-6c.66-.99,1.32-1.98,2-3Z" fill="#252525" stroke-width="0"/><path d="m150,98.66h4c.66,1.98,1.32,3.96,2,6-.99.66-1.98,1.32-3,2-.12-1.13-.25-2.27-.38-3.44-.21-1.18-.41-2.35-.62-3.56l-2-1Z" fill="#1b1c1a" stroke-width="0"/><path d="m44,191.66h1v9h-2q-.62-3.38-1-7l2-2Z" fill="#292928" stroke-width="0"/><path d="m62,78.66h4v6c-1.98-1.32-3.96-2.64-6-4l2-2Z" fill="#6c6d69" stroke-width="0"/><path d="m97,77.66q1.88.25,4,1,1.25,2.06,2,4c-1.98-.66-3.96-1.32-6-2v-3Z" fill="#484845" stroke-width="0"/><path d="m96,69.66c1.98.66,3.96,1.32,6,2v3q-1.88-.25-4-1-1.25-2.06-2-4Z" fill="#100f0d" stroke-width="0"/><path d="m223,5.66v3q-1.53,1.39-3.5,2.69-.97.66-1.97,1.32c-.51.33-1.01.65-1.53.99v-3q1.53-1.39,3.5-2.69c.65-.44,1.3-.87,1.97-1.32.51-.33,1.01-.65,1.53-.99Z" fill="#d0d0d0" stroke-width="0"/><path d="m225,3.66h2c-.66,1.32-1.32,2.64-2,4-.33-.99-.66-1.98-1-3l1-1Zm-5,6c.66.33,1.32.66,2,1-.99.99-1.98,1.98-3,3-.66-.33-1.32-.66-2-1l3-3Z" fill="#282827" stroke-width="0"/><path d="m158,159.66h2q-.75,5.75-3,8c-.04-2.33-.04-4.67,0-7l1-1Z" fill="#1a1a18" stroke-width="0"/><path d="m130,54.66l2,1v3c-1.65.66-3.3,1.32-5,2q1.88-4.88,3-6Z" fill="#e9eae8" stroke-width="0"/></g></svg>