<?xml version="1.0" encoding="UTF-8"?><svg id="Layer_2" xmlns="http://www.w3.org/2000/svg" width="111.15" height="240.23" viewBox="0 0 111.15 240.23"><g id="Layer_1-2"><path d="m35.04.3q1.44-.02,2.91-.04c1.05,0,2.1-.01,3.18-.02,1.07,0,2.14-.02,3.25-.02,2.28-.01,4.55-.02,6.83-.03,3.47-.02,6.95-.06,10.42-.11,2.21-.01,4.42-.02,6.63-.03,1.04-.02,2.08-.04,3.14-.05,6.01.02,9.57.42,14.12,4.48,2.29,4.58,1.19,10.97,1.19,16,.01,1.31.02,2.62.04,3.97,0,1.25,0,2.5,0,3.78,0,1.15,0,2.3.01,3.48q-.24,2.77-2.24,4.77-3.12.12-6,0v7q1.18.09,2.38.19c8.85,1.98,16.17,6.56,21.62,13.81,4.83,8.28,8.1,15.54,8.15,25.24,0,1.26.02,2.51.03,3.81,0,1.39,0,2.77.01,4.16,0,1.47.02,2.93.02,4.4.03,4.8.04,9.61.06,14.41,0,1.66.01,3.31.02,4.97.02,6.89.04,13.79.05,20.68.02,9.86.05,19.73.11,29.59.04,6.94.06,13.89.06,20.83,0,4.14.02,8.29.05,12.43.03,3.9.04,7.8.02,11.7,0,1.43,0,2.85.03,4.28.09,7.96.05,14.44-5.61,20.49-5.6,4.37-9.9,5.16-16.82,5.21q-1.19.01-2.41.03c-2.64.03-5.27.05-7.91.07-.9,0-1.8.01-2.73.02-4.78.03-9.55.06-14.33.08-3.94.02-7.89.05-11.83.1-4.77.06-9.54.09-14.31.1-1.81,0-3.62.03-5.44.06q-16.96.26-23.54-4.5C.09,227.79-.05,219.79.02,210.14c0-1.43,0-2.86-.02-4.3-.01-3.87,0-7.73.01-11.6.01-4.06,0-8.12,0-12.18,0-6.82.01-13.64.03-20.46.03-7.86.03-15.72.02-23.59-.01-7.59,0-15.18,0-22.77,0-3.22,0-6.43,0-9.65,0-3.8,0-7.59.03-11.39,0-1.39,0-2.77,0-4.16-.05-14.43,2.65-26.44,12.6-37.31,4.7-4.4,11.09-9.04,17.65-9.41.71.05,1.43.11,2.16.16v-7c-.95.04-1.9.08-2.88.12q-3.12-.12-5.12-2.12c-.52-4.58-.42-9.2-.44-13.81-.03-1.28-.07-2.57-.1-3.89,0-1.24-.01-2.48-.02-3.75-.01-1.13-.03-2.27-.04-3.44.78-4.03,2.53-5.49,5.6-8.11,1.6-1.6,3.3-1.15,5.52-1.18Z" fill="#fcfcfc" stroke-width="0"/><path d="m35.04.3q1.44-.02,2.91-.04c1.05,0,2.1-.01,3.18-.02,1.07,0,2.14-.02,3.25-.02,2.28-.01,4.55-.02,6.83-.03,3.47-.02,6.95-.06,10.42-.11,2.21-.01,4.42-.02,6.63-.03,1.04-.02,2.08-.04,3.14-.05,6.01.02,9.57.42,14.12,4.48,2.29,4.58,1.19,10.97,1.19,16,.01,1.31.02,2.62.04,3.97,0,1.25,0,2.5,0,3.78,0,1.15,0,2.3.01,3.48q-.24,2.77-2.24,4.77-3.12.12-6,0v7q1.18.09,2.38.19c8.85,1.98,16.17,6.56,21.62,13.81,4.83,8.28,8.1,15.54,8.15,25.24,0,1.26.02,2.51.03,3.81,0,1.39,0,2.77.01,4.16,0,1.47.02,2.93.02,4.4.03,4.8.04,9.61.06,14.41,0,1.66.01,3.31.02,4.97.02,6.89.04,13.79.05,20.68.02,9.86.05,19.73.11,29.59.04,6.94.06,13.89.06,20.83,0,4.14.02,8.29.05,12.43.03,3.9.04,7.8.02,11.7,0,1.43,0,2.85.03,4.28.09,7.96.05,14.44-5.61,20.49-5.6,4.37-9.9,5.16-16.82,5.21q-1.19.01-2.41.03c-2.64.03-5.27.05-7.91.07-.9,0-1.8.01-2.73.02-4.78.03-9.55.06-14.33.08-3.94.02-7.89.05-11.83.1-4.77.06-9.54.09-14.31.1-1.81,0-3.62.03-5.44.06q-16.96.26-23.54-4.5C.09,227.79-.05,219.79.02,210.14c0-1.43,0-2.86-.02-4.3-.01-3.87,0-7.73.01-11.6.01-4.06,0-8.12,0-12.18,0-6.82.01-13.64.03-20.46.03-7.86.03-15.72.02-23.59-.01-7.59,0-15.18,0-22.77,0-3.22,0-6.43,0-9.65,0-3.8,0-7.59.03-11.39,0-1.39,0-2.77,0-4.16-.05-14.43,2.65-26.44,12.6-37.31,4.7-4.4,11.09-9.04,17.65-9.41.71.05,1.43.11,2.16.16v-7c-.95.04-1.9.08-2.88.12q-3.12-.12-5.12-2.12c-.52-4.58-.42-9.2-.44-13.81-.03-1.28-.07-2.57-.1-3.89,0-1.24-.01-2.48-.02-3.75-.01-1.13-.03-2.27-.04-3.44.78-4.03,2.53-5.49,5.6-8.11,1.6-1.6,3.3-1.15,5.52-1.18Zm3.48,36.18c-.33,3.63-.66,7.26-1,11-1.49.39-2.97.78-4.5,1.19-9.12,2.77-17.29,8.05-22.01,16.53-3.08,6.56-4.61,12.07-4.63,19.35,0,1.22-.01,2.44-.02,3.69,0,1.34,0,2.68,0,4.03,0,1.42,0,2.84-.02,4.26-.01,3.85-.02,7.7-.02,11.55,0,2.41,0,4.81-.01,7.22-.01,7.53-.02,15.06-.03,22.6,0,8.69-.02,17.38-.05,26.06-.02,6.72-.03,13.44-.03,20.16,0,4.01,0,8.02-.02,12.04-.02,3.77-.02,7.55,0,11.32,0,1.38,0,2.77-.01,4.15-.01,1.89,0,3.78,0,5.67,0,1.06,0,2.11,0,3.2.61,4.92,2.35,8.1,6.07,11.33,3.84,1.92,6.95,2.22,11.14,2.16.76,0,1.52.01,2.31.02,2.5.01,5.01,0,7.51-.02,1.75,0,3.5,0,5.24,0,3.66,0,7.32-.01,10.97-.03,4.68-.03,9.36-.03,14.04-.01,3.61,0,7.22,0,10.82-.01,1.73,0,3.45,0,5.18,0,2.41,0,4.83-.01,7.24-.04.71,0,1.42,0,2.14.01,6.01-.09,9.76-1.51,14.04-5.73,3.08-5.22,2.21-11.81,2.17-17.67,0-1.43.01-2.86.02-4.29.02-3.87.01-7.75,0-11.62-.01-4.07,0-8.13,0-12.2,0-6.83,0-13.67-.02-20.5-.02-7.88-.01-15.75,0-23.63.02-6.78.02-13.56.01-20.34,0-4.04,0-8.08,0-12.12.01-3.81,0-7.61-.02-11.42,0-1.39,0-2.78,0-4.16.07-11.82-1.63-22.51-9.49-31.76-6.32-6.09-13.68-8.82-22.04-10.97q-.49-5.44-1-11h-34Z" fill="#070707" stroke-width="0"/><path d="m26.52,104.48h59v63H26.52v-63Z" fill="#fdfdfd" stroke-width="0"/><path d="m28.87,98.22q.98,0,1.97-.01c2.15,0,4.31,0,6.46,0,1.49,0,2.99,0,4.48,0,3.13,0,6.27,0,9.4.01,4.02.01,8.04,0,12.07,0,3.09,0,6.17,0,9.26,0,1.48,0,2.97,0,4.45,0,2.07,0,4.14,0,6.21.01,1.18,0,2.36,0,3.58,0q2.77.25,4.77,2.25.25,2.92.26,6.71c0,.69,0,1.38.01,2.09,0,2.28,0,4.57,0,6.85,0,1.58,0,3.17,0,4.75,0,3.32,0,6.64-.01,9.97-.01,4.26,0,8.53,0,12.79,0,3.27,0,6.54,0,9.82,0,1.57,0,3.15,0,4.72,0,2.2,0,4.39-.01,6.59,0,1.25,0,2.5,0,3.79q-.25,2.92-2.25,4.92-2.77.25-6.35.24c-.65,0-1.3,0-1.97,0-2.15,0-4.31,0-6.46-.02-1.49,0-2.99,0-4.48,0-3.13,0-6.27,0-9.4-.02-4.02-.02-8.04-.02-12.07-.02-3.09,0-6.17,0-9.26-.01-1.48,0-2.97,0-4.45,0-2.07,0-4.14-.01-6.21-.02-1.18,0-2.36,0-3.58-.01q-2.77-.13-4.77-1.13c-.05-9.35-.08-18.71-.1-28.06-.01-4.34-.02-8.69-.05-13.03-.02-4.19-.03-8.38-.04-12.57,0-1.6-.01-3.2-.02-4.8-.01-2.24-.02-4.47-.02-6.71,0-1.27,0-2.55-.01-3.86.47-5.76,3.61-5.23,8.59-5.23Zm-2.35,6.26v63h59v-63H26.52Z" fill="#080808" stroke-width="0"/><path d="m36.94,6.22q1.37,0,2.77-.02c.99,0,1.98,0,3,.01,1.01,0,2.03,0,3.07,0,2.15,0,4.29,0,6.44.01,3.29.01,6.58,0,9.88-.01,2.08,0,4.16,0,6.24,0,.99,0,1.98,0,3-.01.91,0,1.83.01,2.77.02q1.21,0,2.44,0,1.97.25,3.97,2.25v22H30.52q0-24.25,6.42-24.26Z" fill="#fcfcfc" stroke-width="0"/><path d="m72.52,56.48c7.41.4,12.91,3.78,18,9,4.56,6.44,6.44,12.08,6,20l-2,2q-3.54-.54-5-2c-.11-1.35-.18-2.71-.25-4.06-.55-5.23-2.26-8.99-5.75-12.94-2.27-1.74-4.37-2.76-7-4-1.13-.58-2.27-1.16-3.44-1.75-.85-.41-1.69-.82-2.56-1.25q.88-3.88,2-5Z" fill="#121212" stroke-width="0"/></g></svg>